<svg width="82" height="21" viewBox="0 0 82 21" xmlns="http://www.w3.org/2000/svg"><title>Forbes_com Copy</title><g fill="#4B4B4B" fill-rule="evenodd"><path d="M49.586 5.91c-1.305 0-2.33.28-3.356.84 0-2.984 0-5.688.093-6.62l-6.248 1.118v.56l.653.092c.84.187 1.12.653 1.305 1.772.187 2.238.094 14.173 0 16.13 1.68.374 3.45.654 5.222.654 4.942 0 7.925-3.077 7.925-7.926 0-3.823-2.423-6.62-5.594-6.62zm-2.144 13.52c-.373 0-.84 0-1.12-.093-.092-1.305-.186-6.807-.092-11.655.56-.187.932-.28 1.398-.28 2.05 0 3.17 2.424 3.17 5.408 0 3.73-1.398 6.62-3.356 6.62zM16.577.502H.167v.84l.932.092c1.21.187 1.677.933 1.864 2.704.28 3.357.187 9.418 0 12.31-.187 1.77-.653 2.61-1.865 2.703l-.934.187v.746h10.537v-.746l-1.12-.186c-1.21-.092-1.677-.932-1.864-2.703-.094-1.213-.187-3.17-.187-5.595l2.238.093c1.4 0 2.052 1.12 2.332 2.705h.84V7.03h-.84c-.28 1.585-.932 2.703-2.33 2.703l-2.24.093c0-3.17.094-6.154.187-7.926h3.262c2.518 0 3.824 1.586 4.756 4.383l.933-.28-.093-5.5"/><path d="M21.892 5.724c4.663 0 6.994 3.17 6.994 7.366 0 4.01-2.61 7.366-7.273 7.366s-6.994-3.17-6.994-7.366c0-4.01 2.61-7.366 7.272-7.366zm-.28.932c-2.05 0-2.61 2.797-2.61 6.434 0 3.543.932 6.434 2.798 6.434 2.144 0 2.703-2.798 2.703-6.434 0-3.543-.932-6.434-2.89-6.434zM56.393 13.183c0-3.823 2.424-7.46 7.18-7.46 3.916 0 5.78 2.892 5.78 6.714h-8.67c-.094 3.45 1.585 5.968 4.94 5.968 1.494 0 2.24-.373 3.172-1.026l.373.465c-.933 1.306-2.984 2.61-5.595 2.61-4.196 0-7.18-2.983-7.18-7.272zm4.29-1.77l4.382-.095c0-1.865-.28-4.662-1.865-4.662s-2.424 2.61-2.518 4.756zM80.45 6.47c-1.12-.467-2.61-.746-4.29-.746-3.45 0-5.594 2.05-5.594 4.475 0 2.424 1.585 3.45 3.824 4.195 2.33.84 2.983 1.493 2.983 2.61 0 1.12-.84 2.146-2.33 2.146-1.772 0-3.078-1.025-4.104-3.822l-.654.186.094 4.103c1.12.466 3.17.84 4.942.84 3.636 0 5.968-1.866 5.968-4.756 0-1.958-1.026-3.076-3.45-4.01-2.612-1.024-3.544-1.677-3.544-2.89 0-1.212.84-2.05 1.958-2.05 1.68 0 2.798 1.025 3.637 3.542l.654-.186-.094-3.636M41.008 6.097c-1.585-.933-4.383-.467-5.875 2.89l.094-3.263-6.248 1.212v.56l.652.092c.84.094 1.212.56 1.305 1.772.187 2.238.093 6.154 0 8.112-.093 1.12-.466 1.68-1.305 1.772l-.653.093v.746h8.67v-.746l-1.118-.093c-.933-.093-1.212-.653-1.305-1.772-.187-1.77-.187-5.314-.094-7.552.466-.653 2.518-1.213 4.383 0l1.492-3.823"/></g></svg>