<svg width="180" height="19" viewBox="0 0 180 19" xmlns="http://www.w3.org/2000/svg"><title>Wall_Street_Journal Copy</title><g fill="none" fill-rule="evenodd"><path d="M30.05.76c.187.062.312.125.25.376-.063.438-.75.25-1.127.375-.94.314-.625 1.566-.75 2.442V16.345c0 .5-.063 1.063.312 1.25.25.376 1 .126 1.502.19.752-.126 1.064-.94 1.565-1.316.188-.69.5-1.252.626-1.94.375-1.252.187-2.88.625-4.13.25-.064.314.123.377.31v6.95c.124.186-.063.5-.063.687l-.564.125h-6.947c-.25-.063-.626 0-.75-.25.062-.69 1.188-.376 1.188-1.19V8.21c-.063-1.126 0-2.565 0-3.63 0-1.064.314-2.503-.438-3.067-.313-.31-1.314.19-1.19-.5.063-.125.126-.188.314-.25h5.07M55.21 1.7c.25.187.563 0 .688-.063.25-.25 0-.876.5-.815l.313.063v6.572c-.124.063 0 .438-.187.438h-.375c-.125-2.378-.313-4.82-2.066-5.946-.312-.19-.687-.313-1.064-.313-.75.063-1.188.625-1.502 1.188-.438.69-.312 2.003.063 2.63.938 1.313 2.44 2.065 3.567 3.128 1.126 1.19 2.44 2.44 2.503 4.444.188 2.19-.563 4.006-2.003 5.195-.813.564-2.065.625-3.004.25l-1.314-.876c-.314-.125-.376.188-.502.313 0 .375-.062.625-.312.75l-.44-.125-.06-3.63v-4.068c.123-.063.437-.063.56 0 .127 2.566.19 5.257 2.067 6.57.563.377 1.252.69 2.066.44 1.188-.502 1.626-1.816 1.626-3.255-.125-1.252-.626-2.19-1.502-2.88-1.19-1.44-2.942-2.19-4.068-3.754-.313-.375-.313-.876-.564-1.315-.626-2.065.188-4.13 1.377-5.382.562-.375 1.438-.625 2.19-.438.563.19 1.064.5 1.44.878M5.703.822c.125.063.313.063.376.314-.19.438-.752.438-.94.813-.188.375-.188 1.063-.062 1.502l.75 4.443c.314 1.44.626 2.942 1.002 4.38h.188c.5-2.127.876-4.254 1.25-6.383-.374-1.627-.062-3.817-1.564-4.57-.124-.31.063-.5.377-.5.877.063 3.693 0 4.382.063.06.126.06.376 0 .5-.5.19-1.065.126-1.378.564-.688 1.126.25 2.315.188 3.63l.752 3.943c.187.876.187 1.94.687 2.628h.064l.94-4.068c.5-1.69.75-3.504 1.126-5.257.124-.563-.063-.938-.438-1.188-.25-.25-.69-.188-1.064-.25-.063-.126-.063-.376 0-.502.938 0 3.817-.063 4.192 0 .19.063.126.376.063.5-.563.126-1.127.252-1.44.627-.375 1-.563 2.066-.813 3.067l-1.064 4.88c-.626 2.692-1.314 5.445-1.94 8.2-.125.187-.438.187-.563.062-.376-.5-.376-1.315-.564-2.003l-.94-5.383-.5-2.254h-.126l-.75 3.693c-.375 1.815-.752 3.63-1.127 5.508-.063.375-.313.625-.813.5-.438-.125-.25-.688-.376-1.063l-.313-2.002-.94-4.945-.624-3.567c-.187-1.44-.562-2.88-.876-4.256-.063-.375-.438-.626-.688-.876-.438-.125-.814.063-1.252-.188C.76 1.26.697.886.947.822h4.756M19.973 1.26c.25 1.69.75 3.193 1 4.945l1.315 6.447c.314 1.44.44 2.878.814 4.193.188.563.564.94 1.19 1 0 .19.187.314.062.44l-.187.187h-3.694c-.125-.187-.75 0-1-.187-.188-.94 1.19-.188 1.314-.877.313-.313.187-.94.124-1.314-.31-.626-.06-1.69-.686-2.128H17.72l-.25.125c-.064 1.128-.877 2.38-.188 3.506.25.188.75.125.94.313l-.064.375-3.568.062c-.375.125-.312-.438-.187-.563.75.062 1.19-.313 1.564-.69.438-1 .438-2.25.752-3.378l.686-4.38.627-3.632c.313-1.502.5-3.066.813-4.63.063-.313 1.252-.5 1.127.187M39.75.822c.064.126.188.377.064.5-.564.252-1.503 0-1.628.69-.126 1.94-.126 3.38-.126 5.32l-.062 7.635h-.063c.376.94-.5 2.817.877 2.88.313.062.94.062 1.25-.126 1.253-1 1.63-2.69 1.88-4.38.187-.876.062-1.94.31-2.817.127-.062.378-.062.502 0v7.636l-.062.312c-1 0-2.065 0-2.817.063l-3.567-.063h-1.94c-.313 0-.188-.438-.125-.626.626-.062 1.377 0 1.69-.5.25-.94.062-2.19.187-3.192-.125-.876.063-1.815-.062-2.816l.062-.815v-8.01c-.062-.313-.25-.69-.438-.876-.375-.438-1.877.187-1.314-.815h5.383M66.224.885l.125.314v7.196c-.063.187-.19.25-.313.313l-.314-.127c.063-2.253-.25-4.255-.876-6.07-.125-.375-.438-.69-.813-.876-.314 0-.626 0-.752.25v13.33h-.06c.06.94-.127 2.128.56 2.567.44.313 1.19-.188 1.253.5 0 .502-.688.125-1 .313h-1.378v-.062c-.438.188-.877-.126-1.252.062-.375-.062-1.19-.062-1.752-.062-.188-.063-.125-.438-.063-.564.69-.124 1.44-.186 1.69-.937V2.013c-.125-.313-.313-.376-.563-.44-.94.25-1.19 1.252-1.44 2.19-.313 1.38-.563 2.756-.438 4.445-.126.188 0 .5-.314.5l-.375-.125V1.01c.814-.25 6.134-.188 8.074-.125M73.672.885c1.064.314 1.94 1.002 2.44 1.94.44 1.377.69 3.63-.187 4.82-.438.626-.94 1.19-1.627 1.627-.125.438.313.438.564.813.876.626 1 2.066 1 3.193 0-.126-.124-.25-.187-.126-.063.188.063.313.25.313.062 1.064-.125 2.254.125 3.192.063.188.188.313.375.376.314-.063.377-.376.5-.564-.06-.564.064-1.19.127-1.753.188.126.375-.25.5 0 .126 1.44.063 2.942-.876 3.63-.375.25-.75.376-1.314.313-.626-.188-1.064-.563-1.377-1.064l-.188-1.19V11.9c-.188-.876-.375-1.815-1.252-2.065-.375-.125-1-.25-1.314 0l-.124.25v6.948c.125.375.25.688.563.813.313.063.75 0 .688.5l-.125.19-3.255.06c-.125 0-.313-.124-.376 0-.312-.25-1.377.314-1.126-.437 0-.44.564-.126.814-.314.312-.062.5-.375.688-.563 0-.313.188-.688.063-1l.063-3.63c0-1.504-.062-2.943 0-4.257 0-.94 0-2.254-.062-3.254.063-.626 0-1.565.063-2.19-.125-.565-.25-1.128-.75-1.315-.313-.126-.877.063-1.002-.25-.062-.25 0-.44.252-.502h6.07M86.878.885c.438.188.188 1.064.25 1.502.188 1.002-.125 2.13.062 3.005-.187.375.063.626 0 1-.124.44 0 1.065-.124 1.44-.877.063-.438-1.064-.564-1.627-.188-1.94-.876-3.692-2.503-4.505-.565-.19-1.503-.19-1.88.25-.374 1.126-.187 3.004-.187 4.068-.125.375.063.5 0 .94v1.75c.063.19-.062.69.376.627 1.5-.69 1.69-2.44 1.69-4.193 0-.25.124-.376.5-.314l.062.376c-.125.814.125 1.815-.062 2.69 0 .877 0 2.067.062 3.005-.062 1.125-.062 2.127 0 3.254 0 .25-.125.375-.375.375-.44-.376-.125-1.44-.314-2.004-.25-1.063-.5-2.315-1.69-2.565l-.187.125c-.125 1.378-.063 2.38-.063 3.63 0 1.128.063 2.567 0 3.693.376.75 1.314.438 2.19.438 1.565-.688 2.13-2.566 2.442-4.318l.75.188v4.63l-.187.19-7.26.06c-.5-.124-1.377.064-1.878-.124-.187-1 1.002-.313 1.377-.688.25-.125.376-.376.5-.626V2.388c-.124-.313-.312-.627-.562-.75-.44-.19-1.377.186-1.315-.565l.126-.188h8.762M95.952.885c.314.188 1.19-.124 1.378.25 0 2.317.062 4.32 0 6.572-.063.188-.376.188-.5.063-.25-2.44-.19-5.32-2.44-6.196-.502-.188-1.066.063-1.566.063-.314.312-.564.563-.564 1.064v6.07c.063.19.126.314.313.314 1.69-.438 1.565-2.503 1.816-4.193.06-.124.374-.124.5 0v2.567c.124.126 0 .126 0 .376.124.563 0 1 .06 1.69v1.69c-.186.938.064 2.127-.186 3.003-.126.126-.375.063-.438-.125-.126-1.438-.126-3.316-1.253-4.192-.124-.125-.5-.125-.687 0l-.126.438v4.07h.063c.063 1-.375 2.627.375 3.253.5.25 1.19.31 1.815.186 1.378-.438 1.753-1.878 2.254-3.13-.126-.5.187-1 .187-1.564l.125-2.003c.125-.126.25-.188.437-.063l.126.125c-.188.94.375 2.44-.5 2.816-.064.25-.376.25-.376.564.25-.25.563-.5.813-.876h.125l-.062 3.63c-.126.438.188 1.126-.313 1.25-1.064.127-2.065.064-3.13.064-2.003-.125-3.88-.063-5.82-.063-.188-.062-.188-.438-.063-.563.564-.188 1.314-.063 1.69-.626.563-.438.25-1.69.313-2.503.063-1.377-.125-3.192 0-4.444l-.063-3.566V2.45c-.188-.5-.563-.94-1.188-.94-.378 0-.816.064-.69-.437.063-.25 6.57-.188 7.572-.188M127.81 2.7c.813 1.127 1.063 2.754 1.44 4.32.437 3.253.124 7.008-1.128 9.386-.5.94-1.19 1.628-2.002 2.13-.752.187-1.878.25-2.38-.25-2.377-2.192-2.94-5.634-2.878-9.64.125-2.69.94-5.257 2.504-7.072.626-.69 1.814-.876 2.816-.563.626.44 1.252 1.002 1.627 1.69M106.906 1.073l.125.188.064 4.82c-.188.814 0 1.815-.126 2.63-.188.187-.375 0-.5-.064l-.19-3.066c-.248-1.44-.5-2.755-1.313-3.756-.188-.187-.626-.187-.75 0l-.25.25v15.21c.124.875 1.376.375 1.876.75.064.313-.06.5-.31.563-1.63.19-3.256-.125-4.883 0-.375.063-.375-.375-.25-.563.563-.125 1.252-.063 1.44-.626l.06-7.01V2.14c-.124-.19-.248-.377-.5-.438-1.125.124-1.188 1.25-1.502 2.064l-.5 3.38c-.125.563.125 1.315-.187 1.627l-.377-.06-.06-3.506c0-1.252-.063-2.817.06-4.068.44-.314 7.01-.125 8.076-.063M120.424 1.01c.314-.062.375.25.25.44-.625.124-1.25.124-1.627.562-.438 1 .063 2.316-.125 3.38.063.188-.063.563 0 .876.063.814 0 1.753 0 2.503V15.782c-.375 1.253-.94 2.505-2.19 2.817-1.252.313-2.066-.25-2.63-.876-.687-1-1.44-2.315-.875-3.816.25-.564.69-.877 1.314-.94.314.126.69.25.815.564-.063.563.313 1.19-.063 1.564-.062.5-.75.5-.75 1.065.062.75.375 1.376 1 1.627.564.125.876-.125 1.19-.438.438-1.252.187-3.255.187-4.632l.062-3.63V2.638c-.125-.376-.25-.69-.564-1-.375-.315-1.25.123-1.44-.377l.19-.375c1.94 0 3.316.188 5.256.126M134.13 1.073c.25-.125.752-.188.94.126.062.374-.188.437-.44.5-.374 0-.625.187-.875.375-.25.438-.25 1.064-.25 1.69v7.134l-.062.062c.124 1.878 0 3.13.124 5.07.188.75.626 1.44 1.315 1.814.562.125 1.314.063 1.69-.375.625-.437.75-1.125.875-1.814v-6.26l-.062-.374.062-5.508c.063-.563-.062-1.19-.375-1.627-.313-.25-.876-.25-1.25-.313l.06-.438 3.318-.063c.187 0 .313.188.313.313 0 .314-.5.125-.626.25-.313.064-.625.313-.625.626l-.19 1v12.52c-.124 1.063-.75 1.94-1.5 2.565-.5.44-1.503.25-2.066.376-1.252-.25-2.316-1.127-2.69-2.317-.753-1.563-.252-4.13-.44-5.82V2.513c-.124-.375-.313-.626-.625-.813-.312-.126-.875 0-.875-.377-.063-.375.375-.187.563-.312l3.692.063M144.206 1.136c1.88-.25 3.756.125 4.507 1.627.626 1 1 2.566.563 3.943-.563 1-1 2.253-2.128 2.754 0 .564.626.688.877 1.126.25.5.5.94.5 1.628l.125 3.19c0 .564-.063 1.503.5 1.754.752-.25.564-1.377.69-2.19.062-.063.312-.063.375 0 .188 1.377-.125 2.69-.94 3.504-.437.188-1 .438-1.5.25-.564 0-.564-.625-.94-.938l-.188-1.816v-3.63c-.06-.813-.124-1.752-.75-2.19-.438-.375-1.252-.5-1.878-.25l-.126.187c-.25 2.44.063 4.444 0 7.01.063.376.125.814.563 1.002.376.062.564 0 1.002.125.06.125 0 .313.06.5l-3.315.064-1.816-.126c-.126-.125-.126-.438 0-.5.562 0 1-.19 1.314-.5l.187-.627V2.638c-.124-.376-.186-.75-.562-.938-.313-.126-.876.06-.876-.377.188-.438.563-.062 1-.25.94.063 1.69.063 2.754.063M153.407 1.073c.125.126.376.188.438.376 1.252 3.504 2.19 7.133 3.63 10.514.375-.063-.126-.44.125-.626-.062-1.314.063-2.567-.062-3.943.125-.752 0-1.314.062-2.13-.188-.123.126-.31-.062-.374.125-.75-.063-1.814-.063-2.69-.313-.44-.876-.563-1.502-.563 0-.063-.125-.438.125-.5h3.63c.25.062.125.312.125.5-.375.187-.94.124-1.19.5l-.25.626-.062 3.38v10.702c-.06.5.064 1.314-.06 1.815-.126.126-.44.187-.564.063-.438-.564-.377-1.502-.815-2.066-.686-1.69-1.062-3.63-1.75-5.257l-1.252-3.567c-.188-.627-.5-1.127-.69-1.69l-.124.062c-.187.752-.187 1.378-.063 2.128l-.062 3.38v5.57c.126.313.25.626.564.814.313.188 1.064-.188 1.064.375l-.063.25-3.505.064c-.25-.063-.562-.063-.562-.377.25-.5 1.314 0 1.564-.626.25-.5.25-1.19.25-1.878l-.062-7.197V2.7c-.126-.876-1.002-.94-1.69-1.126-.188-.125 0-.313 0-.438.94-.125 1.878-.063 2.88-.063M165.612 4.265c.25 1.753.813 3.318 1 5.132l1.127 5.195c.374 1.252.313 2.88 1.5 3.505.314.062.69.062.502.563l-.063.126c-1.44.06-3.38.124-4.882-.063-.313-.877.75-.5 1.126-.752.313-.25.376-.75.313-1.313-.187-.876-.313-1.814-.688-2.503-1.002-.063-2.192-.063-3.068.062-.25.313-.312.814-.375 1.314-.126.752-.626 1.878.124 2.504.315.313 1.566-.25 1.128.69-1 .186-2.19.123-3.19.123-.315-.124-1.003.126-.816-.5 0-.376.626-.125.815-.25.563-.313.813-.876.938-1.44l.75-4.255.94-5.383.563-3.13c.188-.94.314-2.003.752-2.754l.813.063.69 3.065M175.125 1.136c.25.063.5.125.5.438-.125.438-.938.187-1.25.438-.44.188-.44.75-.564 1.127v13.955c-.188.438.125.75.376 1.002.5.312 1.628.25 2.253.062 1-.627 1.188-1.878 1.626-3.005l.438-3.254c.063-.124.313-.124.5 0v5.82h-.062c0 .314.063.815-.063 1.127-.313.126-.814 0-1.064.063l-.188-.063-3.38.063c-1.313-.063-2.753.125-3.817-.187-.124-.063-.124-.314-.062-.438.376-.25 1.19.062 1.377-.5l.063-.627V2.388c-.313-.627-1.002-.688-1.628-.688 0-.25-.125-.5.126-.564h4.82" fill="#1A1918"/><path d="M126.682 2.763l.126 1.19v3.942l.063.063-.062 8.136c-.126.626-.438 1.064-.75 1.565-.44.374-1.19.31-1.628.06-.94-.625-1.127-1.814-1.064-2.877-.063-.877.25-1.628 0-2.44.062-.94 0-2.004.125-3.006-.124-.062 0-.438-.124-.5.25-.314-.063-.5 0-.815.062-1.563 0-2.753 0-4.568.25-.813.626-1.753 1.502-1.94.938-.063 1.44.5 1.814 1.19M73.17 1.7c1.754 1.063 1.065 3.754 1.003 5.757-.126.564-.438 1.002-.876 1.377-.5.313-1.565.25-2.066.063l-.062-6.384c.063-.438.25-.876.815-.876.375-.126.75.063 1.188.063M146.96 2.7c.188.44.188 1.064.25 1.502l-.062 3.318c-.187.625-.375 1.19-.94 1.44-.5.187-1.625.187-2.25 0-.064-2.38-.064-4.194-.064-6.573.063-.312.312-.626.69-.75 1.187-.25 1.813.375 2.377 1.064M164.047 6.393c.375 2.378 1.126 4.506 1.44 6.947l-.126.125-2.503.063-.312-.188c.063-.688.187-1.44.375-2.19l.5-3.317c.126-.5.19-1.065.376-1.503l.25.063M19.597 9.71l.627 3.38c-.438.5-1.315 0-2.003.188l-.5-.063.063-.813.563-3.568.438-2.315.125.06.687 3.13" fill="#FFF"/></g></svg>