<svg width="41" height="45" viewBox="0 0 41 45" xmlns="http://www.w3.org/2000/svg"><title>Group</title><defs><linearGradient x1="31.484%" y1="-35.157%" x2="61.609%" y2="93.537%" id="a"><stop stop-color="#19A3B4" offset="0%"/><stop stop-color="#5BC3AF" offset="34.817%"/><stop stop-color="#C9F7A6" offset="92.234%"/><stop stop-color="#D7FEA5" offset="100%"/></linearGradient><linearGradient x1="8.41%" y1="-114.322%" x2="65.971%" y2="114.156%" id="b"><stop stop-color="#FC227C" offset="0%"/><stop stop-color="#FEEB7B" offset="100%"/></linearGradient><linearGradient x1="50%" y1="0%" x2="50%" y2="100%" id="c"><stop stop-color="#1C68A8" offset="0%"/><stop stop-color="#6BFED4" offset="100%"/></linearGradient><linearGradient x1="99.464%" y1="16.466%" x2="23.512%" y2="126.31%" id="d"><stop stop-color="#FC472E" offset="0%"/><stop stop-color="#FC472E" offset=".332%"/><stop stop-color="#893CD8" offset="100%"/></linearGradient></defs><g fill="none" fill-rule="evenodd"><path d="M30.608 15.644L4.276.954C3.53.537 2.84.44 2.282.617l21.57 21.884 6.756-6.858" fill="#FFF"/><path d="M28.608 15.144L2.276.454C1.53.037.84-.06.282.117l21.57 21.884 6.756-6.858" transform="translate(2 .5)" fill="url(#a)"/><path d="M30.642 29.393l8.99-5.016c1.822-1.02 1.822-2.68 0-3.7l-9.023-5.033-6.76 6.858 6.792 6.89" fill="url(#b)"/><path d="M2.28.618C1.48.873.963 1.695.963 2.94l.005 39.176c0 1.23.502 2.04 1.28 2.31l21.604-21.92L2.28.617" fill="#FFF"/><path d="M.962 2.94l.005 39.176c0 1.23.502 2.04 1.28 2.31l21.604-21.92L2.28.617C1.48.873.963 1.695.963 2.94z" fill="url(#c)"/><path d="M2.247 44.427c.56.193 1.263.103 2.03-.323l26.362-14.71-6.79-6.89L2.248 44.428" fill="#FFF"/><path d="M.247 21.927c.56.193 1.263.103 2.03-.323l26.362-14.71-6.79-6.89L.248 21.928" transform="translate(2 22.5)" fill="url(#d)"/></g></svg>