<svg width="512" height="512" xmlns="http://www.w3.org/2000/svg"><defs><linearGradient id="a" x1="50%" y1="0%" x2="50%" y2="100%"><stop offset="5%" stop-color="#1ad6fd"/><stop offset="95%" stop-color="#1e63f0"/></linearGradient></defs><rect rx="148" ry="148" width="512" height="512" fill="url(#a)"/><path d="M118.143 255.544h55.714c-5.7 9.87-11.398 19.743-17.097 29.614h-38.617v-29.614zM209.57 204.83l26.174 15.11L170.69 332.62 142.946 316.6l66.625-111.77zM140.286 321.616l27.174 16.54c-12.903 11.83-25.807 23.663-38.71 35.495l11.536-52.034zM213.143 197.687l26.626 15.372s4.242-6.763 8.23-13.298c6.04-14.2-18.18-26.786-27.498-14.027l-7.36 11.952zM318.143 292.687l26.935-15.55c4.364 7.558 8.73 15.117 13.093 22.677l-26.736 15.436-13.29-22.563zM314.57 284.83l25.556-14.754S290.808 184.34 265.85 141.66c-9.225-9.326-30.237 2.704-25.755 15.58 24.62 42.64 74.476 127.59 74.476 127.59zM337.07 323.4c8.15-4.703 16.296-9.406 24.443-14.11 18.23 13.35 17.567 38.596 14.116 58.594-1.026 13.662-8.298-11.764-15.513-14.36-9.665-8.362-20.34-16.813-23.046-30.123zM222.43 256.258h66.784c5.71 9.89 11.42 19.778 17.128 29.667H204.93c5.832-9.89 11.665-19.778 17.5-29.667zM339.57 255.544h54.287v28.93H357.07c-5.832-9.644-11.665-19.287-17.5-28.93z" fill="#fff"/><circle cx="256" cy="256" r="212" stroke="#fff" stroke-width="20" fill="none"/></svg>