<svg xmlns="http://www.w3.org/2000/svg" viewBox="149.9 148.5 335.3 286.6"><path fill="#B1CBE0" d="M439.3 225.7c2.7 0 4.4-2.9 3-5.2-24.7-43-71.2-72-124.4-72s-99.6 29-124.4 72c-1.3 2.3.4 5.2 3 5.2h242.8zM196.6 357.9c-2.7 0-4.4 2.9-3 5.2 24.7 43 71.2 72 124.4 72s99.6-29 124.4-72c1.3-2.3-.4-5.2-3-5.2H196.6z"/><g fill="#B1CBE0"><path d="M176.2 250.9l6.8 58.8h.3l8-58.8h29l8 58.8h.3l6.8-58.8h26.3l-16.6 81.8h-30.8l-8.3-57.9h-.3l-8.3 57.9h-30.8L150 250.9h26.2zM288 250.9l6.8 58.8h.3l8-58.8h29l8 58.8h.3l6.8-58.8h26.3L357 332.7h-30.8l-8.3-57.9h-.3l-8.3 57.9h-30.8l-16.6-81.8H288zM399.9 250.9l6.8 58.8h.3l8-58.8h29l8 58.8h.3l6.8-58.8h26.3l-16.6 81.8H438l-8.3-57.9h-.3l-8.3 57.9h-30.8l-16.6-81.8h26.2z"/></g></svg>