<svg width="43" height="41" viewBox="0 0 43 41" xmlns="http://www.w3.org/2000/svg"><title>Group Copy 10</title><g fill="none" fill-rule="evenodd"><path d="M.003 6.895V36.47c0 2.206 1.782 4.02 3.98 4.02h35.033c2.198 0 3.97-1.814 3.97-4.02V6.895H.002" fill="#E0E9F2"/><path d="M15.168.5H27.82v3.174H15.168V.5z" fill="#9BA6B0"/><path d="M12.032 3.698v3.197h3.16V.5L12.032 3.7M27.808 6.895h3.16V3.698L27.808.5v6.395" fill="#D0D9E3"/><path d="M.003 6.834h42.994V23.68H.003V6.835z" fill="#D0D9E3"/><path d="M37.58 28.79H21.5l6.265 11.7H39.24c.19-1.05.295-2.158.295-3.264 0-2.95-.708-5.973-1.955-8.435" fill="#FAC63E"/><path d="M6.83 26.63c-2.076 2.95-3.365 6.71-3.365 10.596 0 1.106.105 2.213.294 3.265h10.45L6.83 26.63" fill="#01A158"/><path d="M27.765 40.5L21.5 29.004h16.08c-2.98-5.88-9.06-9.884-16.08-9.884-6.09 0-11.52 3.034-14.785 7.675L14.063 40.5h13.702" fill="#DA4337"/><path d="M28.995 40.49a8.296 8.296 0 0 0 .668-3.264c0-4.52-3.662-8.195-8.163-8.195-4.5 0-8.163 3.677-8.163 8.196 0 1.15.24 2.27.668 3.265h14.99" fill="#FFF"/><path d="M27.306 40.49c.532-.96.838-2.087.838-3.264 0-3.684-2.974-6.67-6.644-6.67s-6.644 2.986-6.644 6.67c0 1.177.306 2.305.838 3.265h11.612" fill="#567FBF"/></g></svg>