<svg xmlns="http://www.w3.org/2000/svg" viewBox="0 0 623.6 107.8"><path fill="#8CC63E" d="M612.2 8.2c-7.9-5.4-20-8.2-35.7-8.2h-41.3l-15.4 83.3h-54.1l3.5-18.9h32.6l3.9-21.2-32.6.1 3.5-18.8h33.6L514.6 0h-68.2l-14.6 79.1h-25L421.6 0H386l-14.6 79.1H347L361.7 0h-35.6l-15.4 83.3h-54.5l3.4-18.9h32.7l3.9-21.1h-32.7l3.5-18.9h34L305.4 0H93L80.9 66l-24-66h-37L0 107.8h35.3l12-67.9 23.4 67.9h126.5l15.4-83.4h19.8L217 107.8h332.9l9.6-52.6 15.6 52.6h35.3l-16.2-43 3.8-.8c8.1-1.7 14.5-5.5 18.9-11.1 4.4-5.7 6.7-13 6.7-21.7 0-10.3-3.7-17.8-11.4-23zM166.5 83.3h-54l3.5-18.9h33.9l3.9-21.3h-33.6l3.2-18.7h54l-10.9 58.9zM583.1 47c-3.5 2.5-8.7 3.7-15.7 3.7h-7l5.4-28.9h5.1c5.8 0 10.1.9 13.1 2.9 2.3 1.5 5 4.5 5 10.1 0 6.7-3.2 10.4-5.9 12.2z"/></svg>