<svg width="22" height="25" viewBox="0 0 22 25" xmlns="http://www.w3.org/2000/svg"><title>network 2 copy 4</title><path d="M21.23 3.853c0-1.864-1.517-3.38-3.38-3.38-1.865 0-3.382 1.516-3.382 3.38 0 1.248.68 2.34 1.69 2.925v2.79l-5.07 2.537-5.07-2.536V6.777c1.008-.585 1.69-1.677 1.69-2.925 0-1.864-1.517-3.38-3.38-3.38C2.462.472.945 1.988.945 3.852c0 1.248.68 2.34 1.69 2.925v4.88l6.76 3.38v2.792c-1.008.585-1.69 1.677-1.69 2.926 0 1.864 1.518 3.38 3.382 3.38s3.38-1.516 3.38-3.38c0-1.25-.68-2.34-1.69-2.926v-2.79l6.76-3.382v-4.88c1.01-.585 1.692-1.677 1.692-2.925zM4.327 2.163c.933 0 1.69.756 1.69 1.69 0 .933-.757 1.69-1.69 1.69-.934 0-1.69-.757-1.69-1.69 0-.934.756-1.69 1.69-1.69zm6.76 20.283c-.933 0-1.69-.757-1.69-1.69 0-.934.757-1.69 1.69-1.69.934 0 1.69.756 1.69 1.69 0 .933-.756 1.69-1.69 1.69zM17.85 5.543c-.935 0-1.69-.757-1.69-1.69 0-.934.755-1.69 1.69-1.69.932 0 1.69.756 1.69 1.69 0 .933-.758 1.69-1.69 1.69z" fill="#2C3E50" fill-rule="evenodd"/></svg>