<svg width="20" height="20" viewBox="0 0 20 20" xmlns="http://www.w3.org/2000/svg"><title>ios7-close-outline</title><g fill="#E85E6F" fill-rule="evenodd"><path d="M17.072 17.072c-3.904 3.904-10.235 3.904-14.144 0-3.91-3.904-3.904-10.235 0-14.144 3.904-3.904 10.235-3.904 14.144 0 3.91 3.904 3.904 10.24 0 14.144zm-.59-13.553c-3.573-3.573-9.39-3.573-12.963 0-3.573 3.57-3.573 9.39 0 12.96 3.57 3.573 9.39 3.573 12.96 0 3.578-3.57 3.578-9.39 0-12.96z" id="Shape"/><path d="M14.048 14.615L9.99 10.567l-4.038 4.03-.567-.568L9.423 10 5.385 5.97l.567-.566 4.038 4.03 4.058-4.05.567.568L10.558 10l4.057 4.048-.567.567z"/></g></svg>