<svg xmlns="http://www.w3.org/2000/svg" viewBox="0 0 100 100"><path fill="#4683E8" d="M50 7c23.7 0 43 19.3 43 43S73.7 93 50 93 7 73.7 7 50 26.3 7 50 7m0-7C22.4 0 0 22.4 0 50s22.4 50 50 50 50-22.4 50-50S77.6 0 50 0z"/><path fill="#4683E8" d="M50 27.8c12.3 0 22.2 10 22.2 22.2S62.3 72.2 50 72.2 27.8 62.3 27.8 50 37.7 27.8 50 27.8m0-7c-16.2 0-29.2 13.1-29.2 29.2s13 29.2 29.2 29.2 29.2-13 29.2-29.2-13-29.2-29.2-29.2z"/><path fill="none" stroke="#4683E8" stroke-width="7" stroke-miterlimit="10" d="M32.4 32.4L14.9 14.9M32.4 67.6L14.9 85.1M67.6 67.6l17.5 17.5M67.6 32.4l17.5-17.5"/></svg>