<svg xmlns="http://www.w3.org/2000/svg" viewBox="-43 51 20 20"><title>final shape copy</title><path fill="#18347B" d="M-40.7 62.6c.2 0 .5.1.7.1.4 0 .9-.1 1.2-.2-1.9-.3-3.4-1.8-3.4-3.7v-.1c.6.3 1.2.5 1.9.5-1.2-.7-1.9-1.8-1.9-3.2 0-.7.2-1.4.6-1.9 2 2.3 5 3.8 8.4 4-.1-.3-.1-.5-.1-.8 0-2.1 1.8-3.8 4.1-3.8 1.2 0 2.3.5 3 1.2.9-.1 1.8-.5 2.6-.9-.3.9-.9 1.6-1.8 2.1.8-.1 1.6-.3 2.3-.6-.5.8-1.2 1.4-2 2v.5c0 6-5.2 10.9-11.6 10.9-2.3 0-4.5-.6-6.3-1.7.3 0 .7.1 1 .1 1.9 0 3.7-.6 5.2-1.6-1.9-.3-3.4-1.3-3.9-2.9z"/></svg>