<svg width="585" height="233" viewBox="0 0 585 233" xmlns="http://www.w3.org/2000/svg"><title>bitcore</title><path d="M177.95 101.783c2.914 0 5.43.516 7.555 1.548 2.123 1.032 3.883 2.428 5.28 4.187 1.394 1.76 2.426 3.823 3.093 6.19.668 2.366 1 4.914 1 7.645 0 4.186-.772 8.145-2.32 11.876-1.547 3.732-3.656 6.978-6.325 9.74-2.67 2.76-5.825 4.944-9.465 6.552-3.64 1.607-7.585 2.41-11.832 2.41-.546 0-1.502-.013-2.867-.044-1.366-.03-2.928-.166-4.69-.41-1.758-.242-3.623-.606-5.595-1.09-1.972-.487-3.838-1.154-5.598-2.004l15.746-66.167 14.106-2.183-5.643 23.48c1.213-.546 2.427-.97 3.64-1.273 1.214-.305 2.518-.457 3.913-.457zm-11.83 38.954c2.123 0 4.125-.516 6.006-1.547 1.88-1.03 3.504-2.412 4.87-4.14 1.364-1.73 2.44-3.688 3.23-5.87.79-2.186 1.183-4.46 1.183-6.827 0-2.913-.486-5.19-1.457-6.827-.97-1.638-2.76-2.457-5.37-2.457-.85 0-1.956.15-3.322.454-1.364.304-2.593.94-3.685 1.912l-6.006 24.937c.363.06.68.12.954.182.273.06.56.106.865.136.302.032.666.047 1.09.047h1.64zm45.87 9.92h-13.47l11.377-47.873h13.56l-11.467 47.873zm6.553-53.697c-1.88 0-3.58-.562-5.097-1.684-1.517-1.123-2.275-2.836-2.275-5.142 0-1.274.26-2.473.774-3.595.516-1.123 1.198-2.094 2.048-2.913.85-.82 1.836-1.472 2.958-1.957 1.123-.485 2.32-.73 3.595-.73 1.88 0 3.58.563 5.097 1.685 1.516 1.123 2.275 2.836 2.275 5.142 0 1.274-.258 2.473-.774 3.595-.516 1.123-1.198 2.093-2.047 2.912-.85.82-1.836 1.472-2.958 1.957-1.123.487-2.32.73-3.595.73zm18.748-6.098l14.108-2.184-3.458 14.106h15.108l-2.73 11.104H245.3l-4.004 16.747c-.364 1.395-.592 2.7-.682 3.913-.092 1.213.06 2.26.454 3.14.395.88 1.077 1.562 2.048 2.048.97.485 2.305.728 4.005.728 1.457 0 2.867-.137 4.233-.41 1.365-.272 2.745-.652 4.14-1.137l1.002 10.376c-1.82.667-3.792 1.243-5.916 1.73-2.124.484-4.643.727-7.555.727-4.186 0-7.432-.623-9.738-1.866-2.306-1.244-3.944-2.943-4.915-5.097-.97-2.154-1.396-4.626-1.274-7.417.12-2.79.546-5.734 1.274-8.828l8.92-37.68zm26.213 40.683c0-4.126.668-8.01 2.002-11.65 1.335-3.64 3.247-6.826 5.734-9.556 2.487-2.73 5.506-4.886 9.055-6.463 3.55-1.578 7.51-2.367 11.877-2.367 2.73 0 5.173.26 7.326.774 2.155.516 4.11 1.198 5.87 2.048l-4.64 10.557c-1.214-.486-2.473-.926-3.777-1.32-1.304-.394-2.896-.592-4.778-.592-4.55 0-8.13 1.532-10.74 4.596-2.608 3.064-3.913 7.236-3.913 12.514 0 3.095.667 5.598 2.002 7.51 1.334 1.91 3.79 2.866 7.372 2.866 1.76 0 3.458-.182 5.096-.546 1.638-.364 3.094-.82 4.37-1.366l1 10.83c-1.7.67-3.565 1.26-5.597 1.776-2.033.516-4.506.773-7.418.773-3.762 0-6.947-.544-9.556-1.637-2.61-1.092-4.764-2.563-6.463-4.414-1.7-1.85-2.928-4.02-3.686-6.51-.758-2.485-1.137-5.095-1.137-7.825zm60.34 20.386c-3.214 0-6.005-.484-8.37-1.455-2.368-.97-4.325-2.335-5.872-4.095-1.546-1.76-2.714-3.838-3.503-6.234-.788-2.397-1.183-5.05-1.183-7.965 0-3.638.592-7.28 1.775-10.92 1.182-3.64 2.926-6.916 5.232-9.83 2.306-2.912 5.127-5.293 8.464-7.144 3.337-1.85 7.16-2.776 11.468-2.776 3.155 0 5.93.486 8.327 1.456 2.4.97 4.37 2.337 5.917 4.096 1.548 1.76 2.716 3.838 3.505 6.235.788 2.396 1.182 5.05 1.182 7.963 0 3.64-.576 7.282-1.73 10.92-1.15 3.642-2.85 6.92-5.096 9.83-2.244 2.913-5.05 5.295-8.418 7.145-3.368 1.85-7.266 2.776-11.696 2.776zm6.737-38.952c-2.003 0-3.762.576-5.28 1.73-1.516 1.152-2.79 2.608-3.82 4.368-1.033 1.76-1.806 3.686-2.322 5.78-.516 2.092-.774 4.08-.774 5.96 0 3.095.486 5.476 1.456 7.145.97 1.67 2.73 2.504 5.28 2.504 2 0 3.76-.577 5.277-1.73 1.518-1.152 2.792-2.608 3.823-4.368 1.032-1.76 1.806-3.685 2.32-5.78.517-2.093.775-4.08.775-5.96 0-3.095-.486-5.477-1.456-7.145-.972-1.668-2.732-2.502-5.28-2.502zm60.432 1.456c-1.213-.303-2.41-.59-3.595-.865-1.183-.273-2.927-.41-5.233-.41-.85 0-1.79.076-2.82.227-1.033.152-1.882.32-2.55.5l-8.828 36.77h-13.56l10.92-45.324c2.61-.85 5.537-1.653 8.784-2.412 3.246-.757 6.9-1.137 10.966-1.137 1.517 0 3.2.137 5.05.41 1.852.273 3.475.713 4.87 1.32l-4.004 10.92zm3.095 17.475c0-3.884.682-7.646 2.048-11.287 1.365-3.64 3.292-6.87 5.78-9.693 2.487-2.82 5.506-5.096 9.055-6.826 3.55-1.73 7.478-2.594 11.786-2.594 2.124 0 4.096.304 5.916.91 1.82.607 3.413 1.487 4.778 2.64 1.365 1.152 2.427 2.564 3.186 4.232.758 1.668 1.138 3.565 1.138 5.69 0 3.396-.76 6.278-2.276 8.645-1.517 2.366-3.625 4.292-6.326 5.78-2.7 1.485-5.9 2.563-9.602 3.23-3.7.667-7.735 1-12.105 1 .426 2.55 1.35 4.355 2.776 5.416 1.428 1.062 3.688 1.593 6.782 1.593 1.942 0 3.914-.166 5.917-.5 2-.334 3.882-.835 5.64-1.502l1.002 10.65c-1.7.666-3.868 1.273-6.507 1.818-2.64.547-5.507.82-8.602.82-3.762 0-6.93-.53-9.51-1.593s-4.672-2.504-6.28-4.324c-1.608-1.82-2.776-3.944-3.504-6.37-.73-2.428-1.093-5.007-1.093-7.737zm26.485-19.66c-3.095 0-5.81 1.108-8.146 3.322-2.336 2.215-3.868 5.143-4.596 8.782 3.762-.12 6.795-.44 9.1-.955 2.307-.517 4.097-1.14 5.37-1.866 1.275-.73 2.125-1.517 2.55-2.367.424-.85.637-1.7.637-2.548 0-2.914-1.64-4.37-4.915-4.37z" fill="#5C5E63" fill-rule="evenodd"/></svg>