<svg width="242" height="29" viewBox="0 0 242 29" xmlns="http://www.w3.org/2000/svg"><title>Imported Layers</title><g fill="none" fill-rule="evenodd"><path d="M21.902 27.76c-.23 1.197-.493 1.32-1.472.63-2.827-2-4.544-4.795-5.616-8.02-.626-1.885-1.145-3.806-1.743-5.703-.162-.52-.436-1.004-.658-1.504l-.41.118c.03.336-.004.692.096 1.004.503 1.558 1.112 3.087 1.54 4.664.233.855.285 1.795.233 2.686-.08 1.42-1.646 2.603-3.08 2.363-1.34-.225-2.547-.708-3.265-2.02-.146-.268-.615-.42-.964-.505-.9-.223-1.918-.184-2.705-.6-1.776-.938-1.83-3.195-.142-4.277.872-.558 1.888-.892 2.847-1.31 1.28-.56 2.57-1.095 3.846-1.66.284-.126.586-.285.78-.514.15-.177.265-.542.18-.72-.076-.155-.5-.288-.69-.216-.748.284-1.456.673-2.194.987-1.41.6-2.797 1.297-4.26 1.718-1.1.316-2.415.672-3.34-.422-.994-1.176-1.095-2.614-.407-3.94.432-.834 1.14-1.594 1.893-2.17.576-.442.672-.778.597-1.46-.084-.77-.047-1.637.233-2.347.952-2.415 3.678-2.765 5.276-.71 1.34 1.722 1.957 3.76 2.387 5.865.07.34.13.708.308.994.14.225.53.53.67.47.26-.11.56-.445.59-.714.042-.393-.092-.827-.235-1.213-.58-1.568-1.258-3.103-1.776-4.692-.356-1.088-.442-2.297.643-3.06 1.196-.842 2.6-.776 3.765-.03.73.47 1.357 1.325 1.668 2.145.298.784.457 1.154 1.396.983 1.147-.21 2.297-.06 3.302.673 1.09.797 1.64 1.836 1.364 3.174-.245 1.187-1.2 1.7-2.277 1.877-1.826.3-3.674.448-5.495.756-.5.085-.946.507-1.417.776.532.11 1.08.367 1.593.306 1.316-.157 2.608-.51 3.923-.683 1.612-.214 3.172-.076 4.287 1.334 1.23 1.553.725 3.42-1.058 4.237-.28.128-.564.58-.58.893-.087 1.823-.843 3.137-2.06 3.414-1.474.333-3.007-.537-3.654-2.308-.475-1.3-.653-2.707-1.027-4.048-.19-.688-.495-1.35-.812-1.993-.074-.15-.443-.275-.612-.22-.136.047-.284.406-.245.584.91 4.073 1.994 8.09 4.546 11.507 1.067 1.428 2.026 2.02 4.236 2.903" fill="#F15A24"/><path d="M32.7 23.257V1.294h14.943V5.41H37.196v4.642H47.42v4.117H37.197v9.087H32.7M50.513 16.616c0-3.842 2.718-6.943 6.596-6.943 3.798 0 6.383 2.964 6.383 7.3v.768h-9.47c.21 1.675 1.503 3.075 3.666 3.075 1.08 0 2.585-.494 3.403-1.317l1.477 2.25c-1.267 1.208-3.27 1.84-5.25 1.84-3.88 0-6.807-2.72-6.807-6.972zm6.596-4.172c-2.085 0-2.983 1.62-3.14 2.937h6.278c-.08-1.26-.924-2.936-3.14-2.936zM66.738 4.953h3.35v18.304h-3.35V4.953zM73.888 6.49c0-1.153.923-2.058 2.004-2.058 1.108 0 2.006.905 2.006 2.058 0 1.152-.898 2.085-2.006 2.085-1.08 0-2.004-.933-2.004-2.085zm.342 3.512h3.35v13.255h-3.35V10.002zM80.905 16.616c0-4.06 2.823-6.943 6.754-6.943 2.61 0 4.193 1.18 5.037 2.387l-2.19 2.14c-.606-.932-1.53-1.426-2.69-1.426-2.032 0-3.456 1.537-3.456 3.842 0 2.304 1.425 3.87 3.457 3.87 1.16 0 2.084-.55 2.69-1.428l2.19 2.113c-.844 1.237-2.427 2.417-5.038 2.417-3.932 0-6.755-2.882-6.755-6.97M95.363 6.49c0-1.153.922-2.058 2.005-2.058 1.107 0 2.004.905 2.004 2.058 0 1.152-.897 2.085-2.004 2.085-1.083 0-2.005-.933-2.005-2.085zm.342 3.512h3.35v13.255h-3.35V10.002zM102.09 21.528l1.45-2.442c.924.905 2.823 1.81 4.405 1.81 1.45 0 2.137-.603 2.137-1.426 0-2.195-7.57-.412-7.57-5.626 0-2.223 1.872-4.17 5.223-4.17 2.163 0 3.878.767 5.144 1.81l-1.347 2.388c-.764-.85-2.215-1.537-3.772-1.537-1.212 0-2.004.576-2.004 1.317 0 1.976 7.546.33 7.546 5.68 0 2.415-1.98 4.255-5.514 4.255-2.216 0-4.353-.77-5.7-2.06M132.033 23.257l-8.168-21.963h5.128l5.858 16.893 5.825-16.893h5.13l-8.137 21.963h-5.635M147.504 16.616c0-3.842 2.717-6.943 6.595-6.943 3.798 0 6.383 2.964 6.383 7.3v.768h-9.47c.21 1.675 1.503 3.075 3.667 3.075 1.08 0 2.585-.494 3.402-1.317l1.478 2.25c-1.266 1.208-3.272 1.84-5.25 1.84-3.878 0-6.806-2.72-6.806-6.972zm6.595-4.172c-2.086 0-2.982 1.62-3.14 2.937h6.278c-.08-1.26-.923-2.936-3.14-2.936zM172.33 23.257v-8.013c0-1.84-.924-2.47-2.35-2.47-1.318 0-2.347.77-2.9 1.564v8.92h-3.352V10h3.35v1.73c.818-1.016 2.375-2.06 4.46-2.06 2.796 0 4.142 1.647 4.142 4.227v9.357h-3.35M180.48 19.964v-6.916h-2.11v-3.046h2.11V6.38h3.378v3.622h2.585v3.046h-2.585v5.983c0 .824.422 1.455 1.16 1.455.5 0 .977-.192 1.162-.384l.71 2.635c-.5.468-1.396.852-2.794.852-2.35 0-3.615-1.263-3.615-3.623M198.156 23.257v-1.674c-.87 1.016-2.4 2.004-4.486 2.004-2.795 0-4.116-1.592-4.116-4.172v-9.413h3.352v8.04c0 1.84.923 2.443 2.348 2.443 1.292 0 2.322-.74 2.902-1.51v-8.973h3.35v13.255h-3.35M205.648 23.257V10.002h3.35v1.81c.898-1.18 2.48-2.14 4.064-2.14v3.404c-.238-.055-.554-.083-.924-.083-1.107 0-2.585.66-3.14 1.51v8.754h-3.35M215.146 16.616c0-3.842 2.718-6.943 6.596-6.943 3.798 0 6.384 2.964 6.384 7.3v.768h-9.47c.21 1.675 1.503 3.075 3.666 3.075 1.08 0 2.586-.494 3.404-1.317l1.477 2.25c-1.267 1.208-3.27 1.84-5.25 1.84-3.878 0-6.807-2.72-6.807-6.972zm6.596-4.172c-2.084 0-2.98 1.62-3.14 2.937h6.28c-.08-1.26-.924-2.936-3.14-2.936zM230.263 21.528l1.45-2.442c.924.905 2.823 1.81 4.407 1.81 1.45 0 2.137-.603 2.137-1.426 0-2.195-7.572-.412-7.572-5.626 0-2.223 1.873-4.17 5.224-4.17 2.162 0 3.877.767 5.143 1.81l-1.345 2.388c-.765-.85-2.216-1.537-3.773-1.537-1.213 0-2.005.576-2.005 1.317 0 1.976 7.545.33 7.545 5.68 0 2.415-1.978 4.255-5.513 4.255-2.217 0-4.354-.77-5.7-2.06" fill="gray"/></g></svg>