<svg width="146" height="40" viewBox="0 0 146 40" xmlns="http://www.w3.org/2000/svg"><title>Imported Layers</title><g fill="none" fill-rule="evenodd"><path d="M88.432 15.335c-1.718 2.07-3.418 2.547-5.403 1.877-1.96-.662-2.8-2.24-3.07-4.136-.153-1.068-.168-2.18-.068-3.255.19-2.02.91-3.828 2.95-4.644 1.993-.797 3.783-.305 5.578 1.705 0-1.83.008-3.233-.002-4.634-.007-.842-.66-.702-1.18-.737-.494-.034-1.013-.376-.63-.734.647-.603 1.61-.23 2.435-.238.863-.01.662.71.664 1.208.013 4.24 0 8.48.016 12.72.003.77-.35 1.82 1.09 1.733.27-.017.41.224.383.5-.028.27-.208.474-.468.442-.996-.124-2.59.814-2.296-1.807zm.164-4.28c-.01-1.223-.152-2.426-.79-3.5-1.32-2.216-4.283-2.308-5.768-.195-1.35 1.922-1.344 5.678.014 7.603 1.555 2.207 4.582 2.016 5.794-.38.557-1.102.72-2.303.75-3.527zM67.333 37.407c1.643-4.775 3.14-9.09 4.61-13.414.437-1.29-.632-.778-1.15-.896-.374-.085-.978.154-.96-.495.015-.61.603-.478.99-.486 1.15-.024 2.302-.014 3.453 0 .355.006.777.007.81.502.026.42-.34.472-.632.46-1.05-.043-1.076.836-1.303 1.47-1.53 4.27-3.02 8.555-4.544 12.828-.23.646-.31 1.43-1.37 1.37-.96-.056-.957-.794-1.165-1.374-1.556-4.324-3.09-8.657-4.636-12.985-.176-.49-.192-1.096-.86-1.272-.393-.104-1.154.19-.95-.653.128-.528.71-.34 1.102-.35 1.03-.024 2.06-.013 3.09-.003.414.003.976-.048 1.002.504.03.655-.586.424-.96.473-.412.055-.832.065-1.425.107l4.9 14.213M70.042 6.402c.664-.515 1.204-1.178 2.047-1.423 2.62-.762 4.598.544 4.796 3.356.144 2.05.045 4.115.06 6.172.006.81-.25 1.798 1.15 1.678.338-.03.578.202.5.573-.078.362-.393.412-.71.413-1.15 0-2.3.003-3.45-.006-.305-.002-.63-.052-.665-.44-.044-.524.357-.587.723-.558.82.064 1.22-.194 1.193-1.104-.06-2.178-.004-4.36-.078-6.535-.044-1.304-.55-2.378-2.027-2.608-1.506-.234-2.644.337-3.22 1.753-1.04 2.563-.457 5.262-.54 7.903-.02.616.516.542.93.578.343.03.802-.043.804.477.003.648-.54.53-.933.537-1.028.018-2.057.01-3.086 0-.3-.004-.637-.023-.7-.407-.082-.508.275-.637.664-.596 1.11.115 1.107-.59 1.1-1.376-.02-2.238 0-4.478-.01-6.718-.004-.92.305-2.067-1.308-1.938-.144.012-.356-.273-.45-.463-.038-.076.12-.318.246-.4.854-.55 2.57.09 2.966 1.132M108.873 10.086c.817-1.087 1.553-2.038 2.254-3.015.168-.232.646-.578.046-.823-.404-.165-.92-.2-.648-.79.22-.473.754-.226 1.15-.267.36-.036.734-.054 1.088.004.548.09 1.4-.378 1.576.393.185.812-.87.396-1.168.776-1.118 1.427-2.2 2.884-3.275 4.344-.083.113-.092.395-.01.5 1.304 1.64 2.192 3.623 3.925 4.902.273.2.728.18.63.66-.097.486-.54.392-.883.4-.667.02-1.335.033-2 0-.38-.02-.93.2-1.05-.403-.13-.667.42-.594.823-.625.492-.037.42-.305.254-.6-.087-.16-.213-.295-.31-.448-2.253-3.483-2.907-3.445-4.955.213-.335.6-.373.86.397.862.35 0 .572.163.534.547-.04.4-.344.44-.656.45-.182.01-.367.033-.545.008-.916-.126-2.222.485-2.665-.368-.46-.885 1.304-.478 1.474-1.386.06-.322.483-.562.602-.89.557-1.547 3.237-2.323 1.923-4.467-.882-1.44-1.66-3.108-3.35-3.906-.246-.116-.42-.252-.41-.518.012-.414.34-.44.644-.445.727-.012 1.456-.034 2.18 0 .387.016.943-.216 1.095.34.17.618-.382.57-.78.7-.775.256-.2.644-.008.92.65.943 1.338 1.86 2.116 2.93M98.046 11.393c-.968 0-1.944.085-2.9-.02-1.497-.167-1.585.6-1.292 1.714.44 1.673 1.21 3.088 3.116 3.347 1.802.245 3.228-.34 3.89-2.187.154-.433.338-.842.875-.623.63.257.21.72.09 1.065-.633 1.825-2.055 2.654-3.87 2.778-2.015.138-3.73-.54-4.684-2.44-1.176-2.34-1.203-4.784-.252-7.2.818-2.078 2.452-3.057 4.7-2.976 2.01.073 3.374 1.13 4.125 3.226.14.395.246.808.327 1.22.405 2.084.396 2.09-1.766 2.096h-2.358zm-.727-.986V10.4c.965 0 1.932-.01 2.898.003.598.01.824-.217.833-.854.034-2.43-2.482-4.315-4.76-3.526-1.228.425-2.824 2.57-2.454 3.706.46 1.42 1.842.365 2.762.666.218.072.48.01.72.01zM88.795 27.96c1.37-1.58 3.11-1.924 4.942-1.15 1.725.726 1.833 2.405 1.843 4.024.01 1.636-.01 3.273.01 4.91.01.953-.395 2.183 1.304 2.14.23-.006.466.21.347.504-.05.13-.243.286-.374.288-1.332.025-2.665.025-3.997.02-.25-.002-.495-.095-.478-.405.02-.393.344-.49.642-.46 1.388.142 1.376-.744 1.356-1.725-.038-1.818.042-3.64-.042-5.455-.098-2.125-.917-3.1-2.497-3.203-1.582-.104-2.813.944-3.188 2.864-.433 2.22-.144 4.474-.192 6.713-.017.82.62.74 1.154.797.305.032.645.098.642.478-.004.41-.375.416-.668.42-1.152.012-2.304.017-3.455-.002-.27-.004-.647.07-.7-.366-.05-.413.265-.535.567-.515 1.352.088 1.185-.84 1.18-1.69-.01-2.182.005-4.364-.008-6.546-.006-.912.337-2.087-1.31-1.883-.257.032-.457-.156-.453-.438.003-.27.186-.396.438-.49 1.054-.388 2.342.105 2.937 1.17M137.46 36.52c0-.242-.036-.49.006-.725.074-.414-.275-1.077.515-1.114.64-.028.475.57.6.935.673 1.97 1.947 2.748 3.867 2.388 1.325-.25 1.996-1.097 2.097-2.376.106-1.338-.715-1.975-1.917-2.217-.83-.167-1.67-.28-2.5-.448-1.36-.275-2.4-.956-2.518-2.454-.12-1.49.38-2.768 1.764-3.51 1.367-.734 2.775-.754 4.164-.005.448.242.942 1.178 1.306-.084.015-.056.23-.11.322-.077.634.22.495.794.446 1.228-.102.917.518 2.11-.404 2.68-.63.392-.483-.56-.586-.956-.5-1.93-2.426-2.89-4.234-2.098-1.066.466-1.573 1.287-1.522 2.44.05 1.118.83 1.54 1.778 1.745.886.192 1.788.31 2.672.51 1.542.344 2.425 1.248 2.45 2.91.024 1.696-.586 2.955-2.28 3.497-1.245.398-2.492.408-3.72-.127-.507-.222-.976-1.353-1.603-.044-.114.24-.685.04-.697-.462-.013-.544-.003-1.09-.005-1.634M79.997 32.996c-.788.002-1.576 0-2.365.002-2.09.008-2.25.193-1.664 2.152.466 1.56 1.364 2.724 3.115 2.893 1.73.166 3.127-.337 3.764-2.13.155-.433.385-.88.878-.665.517.224.254.745.107 1.118-.642 1.623-1.874 2.49-3.592 2.653-2.01.19-3.83-.268-4.84-2.155-1.435-2.688-1.425-5.503.003-8.193 1.06-1.997 3.692-2.76 5.886-1.907 1.784.695 3.41 3.743 3.057 5.577-.14.728-.617.637-1.076.645-1.09.02-2.182.007-3.273.01zm-.696-.96v-.01c.97 0 1.94.002 2.908 0 .557 0 .884-.162.875-.842-.02-1.535-1.153-3.15-2.615-3.596-1.595-.485-3.142.16-4.01 1.675-1.272 2.213-.956 2.77 1.57 2.77.425.002.85.002 1.273.002zM114.125 37.293c-1.438 1.75-3.076 2.152-4.885 1.498-1.887-.683-2.007-2.4-2.034-4.074-.03-1.815-.008-3.63-.01-5.448 0-.765.21-1.663-1.085-1.538-.307.03-.63-.126-.585-.508.042-.355.37-.4.68-.46 1.774-.355 2.23.02 2.24 1.893.01 2.12-.035 4.24.033 6.356.05 1.563.52 2.906 2.415 3.048 1.62.122 2.924-.943 3.24-2.79.377-2.218.097-4.47.187-6.704.034-.827-.504-.82-1.08-.82-.306 0-.648-.037-.665-.434-.02-.504.38-.497.746-.554 1.914-.296 2.252-.03 2.255 1.84.004 2.48-.003 4.964.003 7.446.002.873-.282 1.946 1.24 1.797.325-.033.597.162.525.55-.053.288-.334.36-.558.32-.968-.174-2.42.718-2.66-1.417M131.507 32.996c-.665.002-1.33 0-1.997.002-2.48.003-2.715.36-1.743 2.7.582 1.398 1.565 2.284 3.138 2.364 1.592.082 2.867-.428 3.504-2.005.183-.456.318-1.09.924-.804.564.264.224.847.033 1.275-.746 1.67-2.082 2.426-3.873 2.515-2.057.102-3.753-.555-4.65-2.477-1.16-2.48-1.16-5.063-.02-7.548 1.007-2.188 3.473-3.09 5.863-2.317 1.897.614 3.57 3.548 3.28 5.592-.102.73-.532.693-1.01.698-1.15.012-2.3.004-3.45.006zm-.488-.965h2.708c.607 0 1.01-.097.95-.915-.132-1.777-1.342-3.32-2.993-3.63-1.65-.31-3.075.535-3.852 2.286-.894 2.016-.748 2.257 1.38 2.264.602.002 1.204 0 1.806-.003zM62.43 8.933c0-1.696.012-3.392-.006-5.088-.013-1.186.436-2.73-1.738-2.365-.335.057-.546-.22-.506-.58.033-.304.282-.372.53-.372 1.573-.005 3.148-.003 4.723.006.245.002.5.064.516.372.024.496-.347.648-.716.586-1.748-.29-1.617.838-1.608 1.988.028 3.695.036 7.39-.005 11.085-.012 1.06.1 1.806 1.44 1.61.376-.056.956-.103.874.566-.058.474-.517.43-.872.433-1.332.008-2.665.01-3.997 0-.415 0-.937.05-.888-.586.04-.51.523-.47.85-.417 1.358.22 1.443-.568 1.415-1.604-.05-1.876-.014-3.755-.013-5.633M99.873 32.786c0-.967.008-1.934-.002-2.9-.01-1.098.353-2.48-1.596-2.164-.252.04-.47-.112-.49-.4-.026-.385.23-.583.555-.535 1.558.228 1.64-.726 1.543-1.858-.05-.59.263-.958.832-.94.54.014.41.553.363.83-.276 1.65.447 2.173 2.002 1.958.418-.058 1.145-.208 1.145.486 0 .71-.742.533-1.14.466-1.812-.305-2.09.62-2.01 2.15.106 2.108.008 4.228.043 6.343.013.79.085 1.7 1.12 1.79 1.005.084 1.3-.687 1.395-1.54.048-.427.084-.954.673-.837.585.118.37.678.332 1.06-.15 1.492-1.24 2.422-2.693 2.34-1.548-.088-2.05-1.065-2.062-2.443-.01-1.27-.002-2.538-.002-3.807h-.007M121.44 28.14c.808-.88 1.56-1.573 2.66-1.672.44-.04.88-.062.935.546.047.52-.32.56-.703.596-2.223.203-2.897 1.75-3.02 3.644-.105 1.626-.017 3.263-.065 4.894-.03 1.015.037 1.84 1.403 1.68.322-.038.82-.005.763.507-.054.49-.543.378-.87.384-1.21.02-2.418.014-3.627-.004-.275-.004-.645.05-.713-.36-.07-.417.256-.545.553-.52 1.337.115 1.215-.788 1.21-1.65-.01-2.356-.016-4.714 0-7.07.003-.763.067-1.498-1.068-1.38-.34.036-.786.022-.72-.53.047-.38.378-.456.682-.432 1.026.082 2.405-.58 2.58 1.366" fill="#000"/><path d="M.286.525h21.12v4.218H.286V.525zM12.997 34.55h21.12v4.217h-21.12V34.55zM12.997 8.864h29.488v4.218H12.997V8.864zM12.997 26.04h29.488v4.218H12.997V26.04zM13.062 17.526h33.77v4.218H13.06v-4.218z" fill="#F00"/></g></svg>