<svg width="585" height="233" viewBox="0 0 585 233" xmlns="http://www.w3.org/2000/svg"><title>copay</title><g fill="#2C3E50" fill-rule="evenodd"><path d="M408.314 75.3c-1.704.193-3.505.58-5.435 1.192-.612.193-1.16.58-1.673 1.096-.515.547-.933.966-1.255 1.32-.32.355-.643.968-.997 1.87-.353.902-.61 1.58-.772 2.095-.16.483-.418 1.418-.77 2.77-.387 1.355-.645 2.386-.87 3.095-1.51 5.124-3.923 10.312-7.204 15.63-3.28 5.317-6.144 8.09-8.588 8.347-1.287.128-2.06-.935-2.316-3.255-.482-4.35.418-9.83 2.605-16.468 2.22-6.64 4.568-11.312 7.11-14.05.353-.452.546-.807.514-1.097-.033-.257-.193-.386-.45-.354-3.603.388-6.4 1.13-8.395 2.257-1.995 1.096-3.764 3.287-5.404 6.574-1.254 2.547-2.316 5.705-3.248 9.54-4.567 10.99-8.716 16.693-12.447 17.08-1.22.13-1.93-.677-2.122-2.45-.353-3.383.676-8.99 3.152-16.79 2.477-7.798 4.728-12.73 6.786-14.79l-1.03.096-5.113.45c-1.35.162-2.765.87-4.213 2.192-1.447 1.32-2.444 2.804-3.023 4.447-.836-2.094-2.283-3.544-4.277-4.318-2.027-.773-4.117-1.063-6.272-.806-4.63.517-8.684 2.676-12.22 6.543-3.507 3.835-6.048 8.347-7.592 13.44l-.096.29c-.225.515-.515 1.095-.772 1.707-1.737 3.803-3.088 6.51-4.085 8.12a43.472 43.472 0 0 1-6.69 8.25c-2.636 2.547-5.37 3.997-8.168 4.287l-.804.097c4.117-3.48 7.494-8.09 10.164-13.89 2.67-5.8 3.73-11.247 3.184-16.435-.676-6.253-3.28-9.12-7.848-8.638-4.824.516-9.97 5.35-15.373 14.437 2.67-7.155 4.92-11.538 6.754-13.085l-3.054.323c-4.02.42-6.754 1.547-8.202 3.35-.707.968-1.736 3.643-2.99 8.058-.45 1.58-1.062 3.9-1.866 6.93-2.412 5.542-5.275 8.474-8.587 8.83-1.897.192-3.44-.356-4.63-1.677 1.03-3.772 1.382-7.252 1.03-10.54-.934-8.57-5.437-12.406-13.54-11.536-4.826.515-9.04 2.61-12.61 6.316-2.154 2.224-3.923 4.64-5.273 7.25 0-.03.032-.063.032-.096-3.282 6.156-8.942 16.855-16.05 22.978-7.108 6.123-14.12 9.57-21.002 10.312-11.03 1.193-17.206-4.254-18.493-16.338-.836-7.8.354-15.727 3.603-23.72 3.248-8.024 7.91-14.76 13.99-20.205 6.08-5.445 12.607-8.57 19.554-9.345 5.243-.58 8.073 1.128 8.49 5.06.29 2.578-.61 4.898-2.668 6.993-2.06 2.062-4.407 3.255-7.044 3.545-.965.096-1.833.064-2.605-.13-.708 1.258-.997 2.386-.868 3.385.096 1.03.675 1.804 1.704 2.352 1.03.548 2.285.74 3.796.58 3.184-.354 6.175-1.643 8.94-3.867 2.767-2.224 4.536-4.77 5.308-7.702.386-1.546.515-2.932.386-4.156-.354-3.32-2.316-5.898-5.886-7.67-3.57-1.773-8.49-2.32-14.73-1.644-6.27.677-12.414 3.062-18.493 7.155-6.077 4.092-10.966 8.99-14.665 14.727a68.035 68.035 0 0 0-8.362 18.208c-1.865 6.413-2.476 12.44-1.865 18.08 1.608 14.888 10.388 21.462 26.405 19.722 6.882-.742 13.476-2.804 19.78-6.22 6.303-3.384 11.417-7.605 15.276-12.568.61-.806 1.157-1.58 1.704-2.32a30.5 30.5 0 0 0 .128 1.707c.45 4.255 1.866 7.285 4.246 9.12 2.38 1.838 5.242 2.58 8.65 2.193 5.308-.58 9.49-2.45 12.576-5.575 3.088-3.126 5.564-7.284 7.494-12.343 1.77 1.128 3.795 1.547 6.08 1.29 1.96-.227 3.955-1.226 6.013-3.063-.996 4.093-2.122 8.83-3.408 14.277-3.73 15.822-6.336 25.135-7.848 27.907l4.89-.516c1.35-.16 2.475-.45 3.312-.87.836-.45 1.576-1.288 2.154-2.545.58-1.257 1.35-3.964 2.284-8.12l3.795-18.434c1.19 3.256 5.016 4.512 11.577 3.803 6.53-.71 11.964-3.383 16.274-8.056 2.67-2.868 5.115-6.38 7.398-10.474-.064 1.644 0 3.287.16 4.93.676 6.253 3.282 9.12 7.85 8.638 6.592-.708 13.056-8.346 19.328-22.913a37.437 37.437 0 0 0-.804 12.665c.61 5.64 2.733 8.25 6.432 7.864 4.728-.516 9.874-6.06 15.438-16.597-.29 2.513-.354 4.608-.193 6.25.256 2.837 1.028 4.9 2.282 6.253 1.255 1.354 2.766 1.9 4.567 1.708 1.8-.192 3.344-.58 4.63-1.127 1.287-.548 2.992-1.966 5.114-4.222 2.123-2.254 4.567-5.574 7.365-9.924l-4.15 16.113c-2.67 10.247-6.786 15.693-12.285 16.273-1.416.16-2.638-.096-3.635-.805-.997-.677-1.576-1.676-1.704-2.965-.258-2.45.193-3.932 1.383-4.48-.42-.644-1.063-1.192-1.93-1.643-.87-.45-1.9-.613-3.09-.484-1.19.13-2.186.838-2.957 2.127-.804 1.29-1.094 2.675-.933 4.19.32 2.868 1.737 4.8 4.31 5.865 2.572 1.063 5.53 1.418 8.94 1.03 3.41-.353 6.69-1.578 9.842-3.576 3.152-2.03 5.693-4.544 7.655-7.573 1.96-3.03 3.505-7.027 4.695-11.957.45-1.644.997-3.932 1.673-6.93.675-2.996 1.125-4.865 1.286-5.64.194-.772.71-2.963 1.577-6.605.836-3.642 1.93-7.67 3.248-12.15 1.64-5.317 3.442-8.765 5.403-10.28l-4.374.452zm-143.28 23.944c-1.705.193-2.99.87-3.86 2.062-.868 1.193-1.222 2.707-.997 4.544.322 2.997 1.737 5.35 4.278 7.058a47.348 47.348 0 0 1-5.178 10.925c-2.155 3.35-4.696 5.188-7.622 5.51-3.57.194-5.564-1.772-6.015-5.833-.45-4.06.29-8.765 2.22-14.05 3.505-9.604 7.622-14.63 12.317-15.147 2.99-.322 4.825 1.29 5.468 4.866l-.61.064zm25.987 26.264c-1.96.226-3.12-1.29-3.473-4.48-.354-3.19.772-7.476 3.377-12.825 2.605-5.35 5.178-9.28 7.72-11.763 1.543-1.547 3.054-2.385 4.47-2.546.417-.032.707-.032.932 0 1.06.16 1.672 1.096 1.865 2.804.42 3.932-1.06 9.636-4.47 17.08-3.408 7.444-6.882 11.344-10.42 11.73zm54.16-22.655c-1.575 3.19-3.44 6.027-5.595 8.476-2.155 2.448-4.117 3.802-5.886 3.995-1.64.16-2.574-.774-2.8-2.9-.513-4.9.998-10.667 4.536-17.338 3.538-6.67 7.558-10.248 12.06-10.732 2.51-.258 4.246.645 5.146 2.74-1.48 3.383-3.955 8.636-7.46 15.758z"/><path d="M268.925 139.108c-23.188 3.964-45.444 9.57-61.14 16.017-6.56 2.674-8.2 8.056-6.142 13.116 26.662-12.18 39.88-15.63 59.37-20.463a10.438 10.438 0 0 0 7.334-6.832 63.79 63.79 0 0 1 .578-1.837zM355.698 136.465c.675-2.9-.097-3.03-3.056-3.448-16.177-2.352-33.962-2.19-55.382 2.417-3.602.774-6.56 3.287-7.14 6.96 0 0 26.887-8.86 65.578-5.93z"/></g></svg>