<svg width="29" height="22" viewBox="0 0 29 22" xmlns="http://www.w3.org/2000/svg"><title>downloadcloud</title><path d="M29 14.625c0-3.424-2.383-6.31-5.572-7.05-.772-4.228-4.464-7.45-8.928-7.45-5 0-9.062 4.06-9.062 9.062v.068A6.333 6.333 0 0 0 0 15.53c0 3.492 2.853 6.345 6.344 6.345h7.015l-6.244-6.21c-.168-.167-.202-.436-.134-.67a.62.62 0 0 1 .57-.37h4.53v-6.11h4.835v6.11h4.53a.62.62 0 0 1 .572.37c.066.234.032.503-.136.67l-6.243 6.21h6.11c3.994 0 7.25-3.256 7.25-7.25z" fill="#FFF" fill-rule="evenodd"/></svg>