<svg width="242" height="29" viewBox="0 0 242 29" xmlns="http://www.w3.org/2000/svg"><title>Imported Layers</title><g fill="none" fill-rule="evenodd"><path d="M21.902 27.76c-.23 1.196-.493 1.32-1.472.63-2.827-2-4.544-4.795-5.616-8.02-.626-1.886-1.145-3.807-1.743-5.703-.162-.52-.436-1.005-.658-1.505-.136.04-.273.08-.41.118.03.336-.004.692.096 1.004.503 1.558 1.112 3.086 1.54 4.663.233.856.285 1.795.233 2.686-.08 1.42-1.646 2.604-3.08 2.363-1.34-.224-2.547-.707-3.265-2.02-.146-.268-.615-.42-.964-.505-.9-.22-1.918-.183-2.705-.6-1.776-.937-1.83-3.193-.142-4.276.872-.558 1.888-.892 2.847-1.31 1.28-.56 2.57-1.095 3.846-1.66.284-.125.586-.284.78-.513.15-.178.265-.543.18-.72-.076-.156-.5-.288-.69-.217-.748.285-1.456.673-2.194.987-1.41.6-2.797 1.297-4.26 1.717-1.1.317-2.415.673-3.34-.42-.994-1.178-1.095-2.616-.407-3.942.432-.834 1.14-1.593 1.893-2.17.576-.44.672-.778.597-1.46-.084-.77-.047-1.637.233-2.347.952-2.413 3.678-2.763 5.276-.71 1.34 1.724 1.957 3.762 2.387 5.867.07.34.13.708.308.993.14.226.53.53.67.472.26-.11.56-.446.59-.715.042-.392-.092-.827-.235-1.212-.58-1.568-1.258-3.104-1.776-4.692-.356-1.09-.442-2.297.643-3.06 1.196-.843 2.6-.777 3.765-.03.73.47 1.357 1.324 1.668 2.144.298.785.457 1.155 1.396.984 1.147-.21 2.297-.062 3.302.673 1.09.797 1.64 1.836 1.364 3.173-.245 1.188-1.2 1.702-2.277 1.878-1.826.3-3.674.448-5.495.755-.5.085-.946.508-1.417.776.532.113 1.08.37 1.593.307 1.316-.157 2.608-.508 3.923-.683 1.612-.214 3.172-.076 4.287 1.335 1.23 1.552.725 3.42-1.058 4.236-.28.128-.564.58-.58.894-.087 1.822-.843 3.137-2.06 3.413-1.474.333-3.007-.537-3.654-2.308-.475-1.3-.653-2.707-1.027-4.048-.19-.688-.495-1.35-.812-1.992-.074-.15-.443-.276-.612-.22-.136.047-.284.405-.245.584.91 4.072 1.994 8.088 4.546 11.506 1.067 1.428 2.026 2.02 4.236 2.904" fill="#F15A24"/><path d="M32.7 23.257V1.293h14.943V5.41H37.196v4.642H47.42v4.116H37.197v9.09H32.7M50.513 16.615c0-3.842 2.718-6.943 6.596-6.943 3.798 0 6.383 2.964 6.383 7.3v.77h-9.47c.21 1.673 1.503 3.072 3.666 3.072 1.08 0 2.585-.494 3.403-1.317l1.477 2.25c-1.267 1.208-3.27 1.84-5.25 1.84-3.88 0-6.807-2.72-6.807-6.972zm6.596-4.17c-2.085 0-2.983 1.618-3.14 2.935h6.278c-.08-1.262-.924-2.936-3.14-2.936zM66.738 4.953h3.35v18.304h-3.35V4.953zM73.888 6.49c0-1.153.923-2.06 2.004-2.06 1.108 0 2.006.907 2.006 2.06 0 1.15-.898 2.084-2.006 2.084-1.08 0-2.004-.933-2.004-2.085zM74.23 10h3.35v13.256h-3.35V10zM80.905 16.615c0-4.06 2.823-6.943 6.754-6.943 2.61 0 4.193 1.18 5.037 2.388l-2.19 2.14c-.606-.933-1.53-1.427-2.69-1.427-2.032 0-3.456 1.537-3.456 3.842s1.425 3.87 3.457 3.87c1.16 0 2.084-.55 2.69-1.427l2.19 2.112c-.844 1.236-2.427 2.416-5.038 2.416-3.932 0-6.755-2.88-6.755-6.97M95.363 6.49c0-1.153.922-2.06 2.005-2.06 1.107 0 2.004.907 2.004 2.06 0 1.15-.897 2.084-2.004 2.084-1.083 0-2.005-.933-2.005-2.085zm.342 3.51h3.35v13.256h-3.35V10zM102.09 21.528l1.45-2.443c.924.905 2.823 1.812 4.405 1.812 1.45 0 2.137-.605 2.137-1.427 0-2.196-7.57-.412-7.57-5.626 0-2.223 1.872-4.172 5.223-4.172 2.163 0 3.878.77 5.144 1.812l-1.347 2.387c-.764-.85-2.215-1.536-3.772-1.536-1.212 0-2.004.576-2.004 1.317 0 1.977 7.546.33 7.546 5.682 0 2.415-1.98 4.254-5.514 4.254-2.216 0-4.353-.77-5.7-2.058M132.033 23.257l-8.168-21.964h5.128l5.858 16.893 5.825-16.893h5.13l-8.137 21.964h-5.635M147.504 16.615c0-3.842 2.717-6.943 6.595-6.943 3.798 0 6.383 2.964 6.383 7.3v.77h-9.47c.21 1.673 1.503 3.072 3.667 3.072 1.08 0 2.585-.494 3.402-1.317l1.478 2.25c-1.266 1.208-3.272 1.84-5.25 1.84-3.878 0-6.806-2.72-6.806-6.972zm6.595-4.17c-2.086 0-2.982 1.618-3.14 2.935h6.278c-.08-1.262-.923-2.936-3.14-2.936zM172.33 23.257v-8.014c0-1.84-.924-2.47-2.35-2.47-1.318 0-2.347.77-2.9 1.565v8.92h-3.352V10h3.35v1.73c.818-1.014 2.375-2.058 4.46-2.058 2.796 0 4.142 1.647 4.142 4.226v9.36h-3.35M180.48 19.964v-6.916h-2.11V10h2.11V6.38h3.378V10h2.585v3.048h-2.585v5.983c0 .824.422 1.454 1.16 1.454.5 0 .977-.192 1.162-.383l.71 2.635c-.5.467-1.396.85-2.794.85-2.35 0-3.615-1.26-3.615-3.62M198.156 23.257v-1.674c-.87 1.015-2.4 2.003-4.486 2.003-2.795 0-4.116-1.59-4.116-4.17V10h3.352v8.043c0 1.838.923 2.44 2.348 2.44 1.292 0 2.322-.74 2.902-1.507V10h3.35v13.257h-3.35M205.648 23.257V10h3.35v1.813c.898-1.18 2.48-2.14 4.064-2.14v3.402a4.29 4.29 0 0 0-.924-.082c-1.107 0-2.585.658-3.14 1.51v8.754h-3.35M215.146 16.615c0-3.842 2.718-6.943 6.596-6.943 3.798 0 6.384 2.964 6.384 7.3v.77h-9.47c.21 1.673 1.503 3.072 3.666 3.072 1.08 0 2.586-.494 3.404-1.317l1.477 2.25c-1.267 1.208-3.27 1.84-5.25 1.84-3.878 0-6.807-2.72-6.807-6.972zm6.596-4.17c-2.084 0-2.98 1.618-3.14 2.935h6.28c-.08-1.262-.924-2.936-3.14-2.936zM230.263 21.528l1.45-2.443c.924.905 2.823 1.812 4.407 1.812 1.45 0 2.137-.605 2.137-1.427 0-2.196-7.572-.412-7.572-5.626 0-2.223 1.873-4.172 5.224-4.172 2.162 0 3.877.77 5.143 1.812l-1.345 2.387c-.765-.85-2.216-1.536-3.773-1.536-1.213 0-2.005.576-2.005 1.317 0 1.977 7.545.33 7.545 5.682 0 2.415-1.978 4.254-5.513 4.254-2.217 0-4.354-.77-5.7-2.058" fill="gray"/></g></svg>