<svg width="194" height="40" viewBox="0 0 194 40" xmlns="http://www.w3.org/2000/svg"><title>FOUNDERS FUND + Group</title><g fill="none" fill-rule="evenodd"><text font-family="Karla" font-size="16" letter-spacing="1.7"><tspan x="51" y="39" fill="#EF5131">FOUNDERS</tspan> <tspan x="143.8" y="39" fill="#676767"> </tspan> <tspan x="149.308" y="39" fill="#232023">FUN</tspan> <tspan x="184.216" y="39" fill="#232023">D</tspan></text><g transform="translate(.25 .86)"><circle fill="#1C1A1C" cx="2" cy="2" r="2"/><circle fill="#1C1A1C" cx="11" cy="2" r="2"/><circle fill="#1C1A1C" cx="19.75" cy="1.5" r="1.5"/><path d="M29.5 3a1 1 0 1 0 0-2 1 1 0 0 0 0 2z" fill="#E05E31"/><circle fill="#1C1A1C" cx="38.25" cy="2" r="2"/><circle fill="#1C1A1C" cx="2" cy="10" r="2"/><circle fill="#E05E31" cx="11" cy="10" r="1"/><circle fill="#E05E31" cx="19.75" cy="10" r="1"/><circle fill="#E05E31" cx="29.5" cy="10" r="1"/><circle fill="#1C1A1C" cx="38.5" cy="10" r="2"/><circle fill="#1C1A1C" cx="2" cy="19" r="2"/><circle fill="#1C1A1C" cx="11" cy="19" r="2"/><circle fill="#E05E31" cx="19.75" cy="19" r="1"/><circle fill="#1C1A1C" cx="29.5" cy="19" r="2"/><circle fill="#1C1A1C" cx="38.5" cy="19" r="2"/><circle fill="#1C1A1C" cx="2" cy="28" r="2"/><circle fill="#E05E31" cx="11" cy="27" r="1"/><circle fill="#E05E31" cx="19.75" cy="28" r="1"/><circle fill="#E05E31" cx="29.5" cy="28" r="1"/><circle fill="#1C1A1C" cx="38.5" cy="28" r="2"/><circle fill="#1C1A1C" cx="2" cy="36.5" r="1.5"/><circle fill="#1C1A1C" cx="29.5" cy="36.5" r="1.5"/><circle fill="#E05E31" cx="11" cy="36" r="1"/><circle fill="#1C1A1C" cx="19.75" cy="36" r="1"/><circle fill="#1C1A1C" cx="38.5" cy="36" r="2"/></g></g></svg>