<svg width="146" height="40" viewBox="0 0 146 40" xmlns="http://www.w3.org/2000/svg"><title>Imported Layers</title><g fill="none" fill-rule="evenodd"><path d="M88.432 15.335c-1.717 2.07-3.418 2.548-5.403 1.877-1.958-.662-2.8-2.24-3.07-4.136a14.014 14.014 0 0 1-.067-3.255c.19-2.02.91-3.828 2.95-4.644 1.992-.796 3.783-.305 5.578 1.706 0-1.833.008-3.234-.002-4.636-.006-.842-.66-.7-1.18-.737-.493-.034-1.013-.375-.63-.733.647-.604 1.61-.23 2.436-.24.862-.008.66.71.663 1.21.014 4.24 0 8.48.017 12.72.002.77-.35 1.82 1.09 1.732.27-.017.41.225.382.5-.028.27-.207.474-.468.442-.996-.123-2.59.814-2.296-1.807zm.164-4.278c-.01-1.225-.15-2.428-.79-3.502-1.32-2.216-4.283-2.308-5.768-.195-1.35 1.923-1.344 5.678.014 7.603 1.555 2.207 4.582 2.016 5.794-.38.558-1.102.72-2.303.75-3.526zM67.333 37.408c1.643-4.776 3.14-9.09 4.61-13.414.437-1.29-.632-.78-1.15-.897-.374-.085-.978.155-.96-.495.015-.61.603-.478.99-.486 1.152-.023 2.303-.014 3.454 0 .354.006.776.007.808.503.027.418-.34.47-.63.46-1.052-.044-1.077.835-1.304 1.468-1.528 4.27-3.02 8.555-4.544 12.828-.23.646-.31 1.43-1.37 1.37-.96-.056-.956-.794-1.165-1.373-1.556-4.325-3.09-8.658-4.636-12.985-.176-.492-.192-1.096-.86-1.273-.393-.103-1.154.19-.95-.653.128-.528.71-.34 1.102-.348 1.03-.026 2.06-.015 3.09-.005.414.004.976-.048 1.002.505.03.654-.586.423-.96.472-.412.055-.832.065-1.425.107l4.9 14.214M70.042 6.402c.664-.515 1.204-1.178 2.048-1.423 2.62-.762 4.6.545 4.797 3.357.143 2.048.045 4.114.06 6.172.006.81-.25 1.796 1.15 1.676.338-.03.577.202.5.574-.08.362-.394.413-.71.413-1.15 0-2.3.004-3.45-.006-.306-.002-.63-.052-.665-.44-.046-.523.355-.586.72-.558.82.064 1.22-.194 1.195-1.104-.06-2.178-.005-4.358-.08-6.535-.043-1.304-.55-2.378-2.026-2.608-1.506-.234-2.644.337-3.22 1.753-1.04 2.563-.457 5.262-.54 7.903-.02.617.516.542.93.58.343.03.803-.045.805.476.003.647-.54.53-.934.536-1.027.018-2.057.01-3.086 0-.3-.004-.637-.023-.7-.407-.082-.508.275-.636.664-.596 1.11.115 1.107-.59 1.1-1.375-.02-2.24 0-4.48-.01-6.72-.004-.92.306-2.067-1.308-1.938-.144.012-.356-.272-.45-.462-.038-.078.12-.32.247-.4.853-.55 2.57.09 2.965 1.13M108.873 10.086c.818-1.086 1.553-2.038 2.254-3.014.168-.234.646-.58.046-.825-.404-.165-.92-.2-.648-.79.22-.473.754-.226 1.15-.266.36-.036.734-.054 1.09.004.546.09 1.398-.378 1.575.394.185.81-.87.396-1.167.775a184.498 184.498 0 0 0-3.276 4.344c-.083.113-.092.395-.01.5 1.304 1.64 2.192 3.623 3.926 4.902.272.2.727.18.63.662-.098.484-.54.39-.883.4a25.44 25.44 0 0 1-2-.003c-.38-.02-.93.2-1.048-.402-.13-.667.417-.595.82-.625.493-.038.42-.305.256-.602-.088-.157-.213-.293-.312-.445-2.252-3.484-2.906-3.445-4.954.212-.335.6-.373.86.397.862.35 0 .572.164.534.548-.04.398-.344.438-.656.45-.18.008-.367.032-.544.007-.917-.126-2.222.485-2.666-.367-.46-.886 1.304-.478 1.474-1.387.06-.322.484-.562.602-.89.557-1.547 3.238-2.322 1.924-4.467-.883-1.44-1.662-3.108-3.35-3.906-.247-.116-.42-.252-.412-.517.014-.414.34-.44.645-.444.728-.013 1.456-.035 2.182-.002.386.017.942-.214 1.093.34.17.62-.382.57-.778.702-.776.255-.202.643-.01.92.65.943 1.338 1.86 2.116 2.93M98.046 11.393c-.967 0-1.944.085-2.9-.02-1.496-.167-1.585.6-1.292 1.714.44 1.674 1.21 3.088 3.116 3.347 1.802.245 3.228-.34 3.89-2.187.154-.433.338-.842.876-.623.63.257.21.72.09 1.065-.634 1.825-2.056 2.655-3.87 2.78-2.016.136-3.73-.543-4.685-2.44-1.175-2.342-1.203-4.786-.252-7.202.818-2.078 2.453-3.057 4.7-2.975 2.01.072 3.374 1.13 4.125 3.225.142.395.247.808.327 1.22.405 2.084.396 2.09-1.766 2.096-.786.002-1.572 0-2.358 0zm-.727-.986V10.4c.966 0 1.932-.01 2.898.003.6.01.824-.217.833-.854.034-2.43-2.48-4.315-4.76-3.526-1.228.425-2.824 2.57-2.454 3.706.462 1.42 1.843.365 2.762.667.218.07.48.01.72.01zM88.795 27.96c1.37-1.58 3.11-1.924 4.942-1.15 1.725.726 1.834 2.405 1.843 4.024.01 1.637-.01 3.273.01 4.91.01.953-.395 2.183 1.305 2.14.23-.005.465.21.347.504-.053.13-.245.286-.376.29a172.16 172.16 0 0 1-3.997.017c-.25 0-.495-.094-.478-.404.02-.393.344-.49.642-.46 1.388.142 1.376-.744 1.356-1.725-.038-1.818.043-3.64-.04-5.454-.1-2.125-.92-3.1-2.5-3.202-1.582-.104-2.813.943-3.188 2.863-.433 2.22-.144 4.474-.19 6.713-.02.82.62.74 1.152.797.305.032.645.098.642.48-.004.41-.375.415-.668.418-1.15.012-2.303.017-3.454 0-.27-.006-.647.068-.7-.367-.05-.413.265-.534.566-.515 1.352.088 1.185-.838 1.18-1.69-.01-2.182.005-4.364-.008-6.546-.006-.91.337-2.086-1.31-1.883-.257.032-.457-.155-.453-.438.003-.27.186-.395.438-.49 1.054-.388 2.342.105 2.937 1.17M137.46 36.52c0-.242-.036-.49.006-.725.075-.413-.274-1.077.515-1.113.64-.03.475.568.6.933.673 1.97 1.948 2.75 3.867 2.388 1.325-.25 1.996-1.097 2.098-2.376.106-1.337-.715-1.975-1.918-2.217-.83-.167-1.67-.28-2.5-.448-1.36-.275-2.4-.956-2.518-2.454-.118-1.49.38-2.768 1.764-3.51 1.367-.734 2.775-.753 4.164-.005.448.242.942 1.178 1.306-.084.016-.055.23-.108.322-.076.634.22.495.793.447 1.227-.103.917.518 2.11-.404 2.68-.632.392-.484-.56-.587-.956-.5-1.93-2.427-2.89-4.235-2.098-1.065.466-1.573 1.288-1.522 2.44.05 1.118.83 1.54 1.778 1.745.886.192 1.788.31 2.672.51 1.542.344 2.425 1.248 2.45 2.91.024 1.696-.586 2.956-2.28 3.497-1.244.398-2.492.41-3.72-.127-.507-.222-.976-1.353-1.603-.043-.114.238-.685.04-.697-.463-.012-.544-.002-1.09-.005-1.634M79.997 32.996c-.788.002-1.576 0-2.365.003-2.09.006-2.25.19-1.664 2.15.466 1.56 1.364 2.725 3.115 2.893 1.73.166 3.127-.337 3.765-2.13.154-.433.385-.88.878-.665.516.225.253.745.106 1.118-.642 1.623-1.874 2.49-3.59 2.653-2.012.19-3.833-.268-4.84-2.154-1.437-2.69-1.427-5.504 0-8.194 1.062-1.997 3.693-2.76 5.887-1.907 1.784.695 3.412 3.744 3.057 5.578-.14.728-.617.636-1.076.645-1.09.02-2.182.006-3.273.008zm-.696-.96v-.01c.97 0 1.94.003 2.91 0 .556 0 .882-.16.874-.842-.02-1.534-1.153-3.15-2.616-3.596-1.594-.485-3.14.16-4.01 1.675-1.272 2.213-.956 2.77 1.57 2.772h1.273zM114.125 37.293c-1.438 1.75-3.076 2.153-4.884 1.498-1.887-.683-2.007-2.4-2.034-4.073-.03-1.816-.007-3.632-.01-5.448 0-.766.21-1.665-1.085-1.54-.307.03-.63-.126-.585-.508.042-.355.37-.4.68-.46 1.775-.355 2.232.02 2.24 1.893.01 2.12-.035 4.24.033 6.357.05 1.56.52 2.904 2.416 3.046 1.62.122 2.923-.943 3.238-2.79.378-2.218.1-4.47.188-6.704.034-.827-.503-.82-1.078-.82-.308.002-.65-.036-.666-.434-.02-.504.38-.497.746-.554 1.913-.295 2.25-.03 2.253 1.84.004 2.482-.002 4.964.003 7.446.002.874-.28 1.946 1.24 1.797.325-.033.597.162.525.552-.052.286-.333.36-.558.32-.967-.176-2.42.717-2.66-1.42M131.508 32.996c-.666.002-1.332.002-1.998.002-2.48.003-2.714.362-1.742 2.7.58 1.398 1.564 2.284 3.138 2.365 1.592.08 2.866-.428 3.503-2.005.183-.457.318-1.09.925-.805.563.264.223.847.032 1.275-.746 1.67-2.082 2.427-3.873 2.516-2.057.102-3.753-.556-4.65-2.478-1.158-2.48-1.16-5.063-.02-7.548 1.008-2.187 3.473-3.09 5.863-2.317 1.897.614 3.57 3.548 3.28 5.592-.102.73-.532.693-1.01.698-1.15.012-2.3.004-3.45.006zm-.49-.965c.904 0 1.807.002 2.71 0 .608 0 1.01-.097.95-.915-.13-1.776-1.342-3.318-2.992-3.63-1.65-.31-3.075.535-3.853 2.286-.894 2.016-.747 2.257 1.38 2.265.602 0 1.204 0 1.806-.004zM62.43 8.933c0-1.696.013-3.392-.006-5.088-.013-1.186.436-2.73-1.738-2.364-.335.057-.545-.22-.506-.58.033-.303.282-.37.53-.372 1.574-.005 3.148-.002 4.723.006.245.002.5.064.516.372.025.496-.347.648-.715.586-1.748-.29-1.617.84-1.61 1.99.03 3.694.037 7.39-.004 11.084-.01 1.058.1 1.805 1.44 1.61.376-.056.956-.103.874.566-.057.472-.516.43-.87.43-1.334.01-2.667.01-4 .002-.414-.002-.936.05-.887-.587.04-.51.524-.47.85-.417 1.358.22 1.443-.568 1.415-1.604-.05-1.876-.013-3.755-.013-5.633M99.874 32.787c0-.968.008-1.935-.003-2.902-.01-1.097.353-2.477-1.595-2.163-.253.042-.47-.112-.49-.4-.027-.385.23-.583.555-.535 1.56.23 1.64-.725 1.543-1.858-.05-.59.263-.958.832-.94.54.014.41.553.363.83-.276 1.65.447 2.173 2.003 1.958.418-.058 1.145-.208 1.145.486 0 .71-.74.534-1.14.466-1.81-.304-2.09.62-2.01 2.15.106 2.11.008 4.228.043 6.343.013.79.086 1.702 1.12 1.79 1.005.085 1.3-.687 1.396-1.54.047-.427.083-.954.672-.836.585.117.37.677.333 1.058-.152 1.494-1.24 2.423-2.694 2.34-1.548-.087-2.05-1.064-2.063-2.44-.01-1.27-.002-2.54-.002-3.808h-.006M121.44 28.14c.808-.88 1.56-1.572 2.66-1.672.44-.04.88-.062.936.546.046.52-.322.56-.704.596-2.222.203-2.897 1.75-3.02 3.644-.105 1.626-.016 3.264-.065 4.895-.03 1.013.037 1.84 1.404 1.678.323-.038.82-.005.764.507-.054.49-.543.38-.87.384-1.21.02-2.42.015-3.628-.004-.275-.004-.644.05-.713-.36-.07-.417.257-.544.554-.52 1.337.115 1.214-.788 1.21-1.648a645.45 645.45 0 0 1-.002-7.073c.005-.762.07-1.497-1.067-1.38-.34.037-.785.023-.718-.53.045-.38.376-.455.68-.43 1.026.08 2.406-.58 2.58 1.365" fill="#000"/><path d="M.286.525h21.12v4.218H.286V.525zM12.997 34.55h21.12v4.217h-21.12V34.55zM12.997 8.864h29.488v4.218H12.997V8.864zM12.997 26.04h29.488v4.218H12.997V26.04zM13.063 17.527h33.77v4.218h-33.77v-4.218z" fill="#F00"/></g></svg>