<svg xmlns="http://www.w3.org/2000/svg" xmlns:xlink="http://www.w3.org/1999/xlink" viewBox="0 0 500 500"><image overflow="visible" width="1024" height="395" xlink:href="64044F1B520A8F75.png" transform="translate(623 57)"/><circle fill="#ED1C24" cx="249.9" cy="250.1" r="249.9"/><path opacity=".75" fill="#00A14B" d="M759.7 252.1s-10 11-18.5 13.3c-8.5 2.3-9.4 1.4-9.4 1.4s-4.1-.6 0-4.8 26.6-27.3 34.9-40.2c8.3-12.8 11.7-18.3 14.5-21.2 2.8-2.8 5.2-6.2 9-6.2s5 4.7 5 7.7.3 7.8-1.5 17.3-7.7 44.3-6 52c1.7 7.7 3 7.7 3 7.7s2.8 2 6.5-.7c6.5-4.7 9.8-7.9 9.8-7.9s4.1-3.2 1.9 4.4c-2.2 7.7-5.5 20.4-13.8 26.7-8.3 6.2-16.7 9-16.7 9s-5.1 2.5-8.6-3-4.6-31.5 0-51.3c4.6-19.8-1.9-12.3-1.9-12.3l-8.2 8.1z"/><path fill="#FFF" d="M759.7 252.5s-10 11-18.5 13.3c-8.5 2.3-9.4 1.4-9.4 1.4s-4.1-.6 0-4.8 26.6-27.3 34.9-40.2c8.3-12.8 11.7-18.3 14.5-21.2 2.8-2.8 5.2-6.2 9-6.2s5 4.7 5 7.7.3 7.8-1.5 17.3-7.7 44.3-6 52c1.7 7.7 3 7.7 3 7.7s2.8 2 6.5-.7c6.5-4.7 9.8-7.9 9.8-7.9s4.1-3.2 1.9 4.4c-2.2 7.7-5.5 20.4-13.8 26.7-8.3 6.2-16.7 9-16.7 9s-5.1 2.5-8.6-3-4.6-31.5 0-51.3c4.6-19.8-1.9-12.3-1.9-12.3l-8.2 8.1zM794.7 140.5s-12.7 8.7-6.5 22c6.2 13.3 11.2 12.2 11.2 12.2s3 2.5 10.3-2.8c7.3-5.3 13.5-11.5 13.5-11.5s6-5.2 0-13c-6-7.9-17.7-15.6-28.5-6.9zM195.7 291.1s-20.1 22.1-37.3 26.8-19 2.9-19 2.9-8.3-1.3 0-9.6c8.3-8.3 53.5-55 70.3-80.9s23.5-36.9 29.2-42.6 10.4-12.4 18.1-12.4c7.7 0 10.1 9.4 10.1 15.4s.7 15.8-3 34.9-15.4 89.3-12.1 104.7c3.4 15.4 6 15.4 6 15.4s5.6 4.1 13.1-1.3c13.1-9.4 19.6-15.9 19.6-15.9s8.2-6.5 3.9 8.9-11.1 41-27.9 53.7c-16.6 12.6-33.6 18.1-33.6 18.1s-10.3 5-17.4-6-9.3-63.4 0-103.4S212 275 212 275l-16.3 16.1zM266.2 65.5s-25.5 17.5-13.1 44.3c12.4 26.8 22.5 24.5 22.5 24.5s6 5 20.8-5.7 27.2-23.2 27.2-23.2 12.1-10.4 0-26.2S288 48 266.2 65.5z"/></svg>