<svg width="102" height="104" viewBox="0 0 102 104" xmlns="http://www.w3.org/2000/svg"><title>Imported Layers</title><defs><linearGradient x1="50%" y1="2.974%" x2="50%" y2="100%" id="a"><stop stop-color="#517AE3" offset="0%"/><stop stop-color="#1C2D89" offset="100%"/></linearGradient></defs><g transform="translate(-363 -351)" fill="url(#a)" fill-rule="evenodd"><path d="M373.32 431.33l-.356-2.28 3.037-.474.358 2.278-3.037.475zm4.937-.773l-.357-2.278 3.037-.476.356 2.278-3.036.475zm4.935-.772l-.357-2.277 3.037-.476.357 2.278-3.038.475zm4.935-.772l-.357-2.277 3.038-.475.356 2.278-3.037.475zm41.188-69.278h2.306v3.074h-2.305v-3.075zm0 4.995h2.306v3.074h-2.305v-3.074zm0 4.995h2.306v3.075h-2.305v-3.075zm0 4.996h2.306v3.075h-2.305v-3.074zm0 9.99h2.306v3.076h-2.305v-3.075zm0 4.997h2.306v3.074h-2.305v-3.073zm0 4.995h2.306v3.074h-2.305v-3.074zm0 4.995h2.306v3.074h-2.305v-3.073zm0 4.995h2.306v3.075h-2.305v-3.075zm0 4.996h2.306v3.074h-2.305v-3.074zm-31.317 17.782l-.357-2.278 3.038-.475.357 2.278-3.037.475zm4.935-.772l-.357-2.278 3.038-.475.356 2.278-3.037.475zm4.935-.772l-.357-2.278 3.04-.475.355 2.278-3.037.476zm4.935-.772l-.356-2.277 3.037-.475.356 2.277-3.037.474zm4.936-.772l-.358-2.277 3.037-.475.356 2.277-3.037.475zm18.654 2.44l-2.51-1.773 1.33-1.885 2.51 1.774-1.33 1.882zm4.08 2.882l-2.51-1.774 1.33-1.883 2.51 1.774-1.33 1.884zm4.08 2.882l-2.51-1.774 1.33-1.883 2.51 1.773-1.33 1.883zm4.08 2.882l-2.51-1.774 1.33-1.883 2.51 1.775-1.33 1.883zm4.08 2.882l-2.51-1.774 1.33-1.883 2.51 1.774-1.33 1.883zm-56.628-48.478c-.31 0-.61-.03-.903-.085v35.79l-2.478.387.357 2.278 2.12-.332v19.07a4.99 4.99 0 0 1 .904-.084c.487 0 .958.072 1.402.202V389.67c-.444.13-.915.202-1.402.202zm-3.23-8.26l-21.567-15.006a4.808 4.808 0 0 1-1.56 1.723l21.8 15.166a4.74 4.74 0 0 1 1.327-1.885zm8.097 3.53c0 .272-.03.538-.075.798l28.437-4.133v.983h2.306v-1.318l24.473-3.557a4.59 4.59 0 0 1-.525-2.126c0-.044.006-.087.007-.13l-54.88 7.977c.166.473.258.978.258 1.504zm55.512 56.874l-55.77 8.106c.166.473.258.978.258 1.505 0 .272-.03.538-.075.798l56.04-8.145a4.583 4.583 0 0 1-.466-2.006c0-.087.008-.172.013-.258zm-88.736-15.98v-56.93c-.25.037-.502.062-.762.062-.54 0-1.058-.09-1.544-.248v57.3a4.963 4.963 0 0 1 1.544-.248c.26 0 .513.025.76.064zm4.055-60.952l54.1-8.46a4.585 4.585 0 0 1-.533-2.144c0-.036.005-.072.006-.108l-53.833 8.42c.197.513.31 1.066.31 1.646 0 .22-.02.434-.05.646zm21.072 83.013L371.2 433.03a4.825 4.825 0 0 1-1.638 1.668l21.967 15.283c.28-.73.738-1.374 1.327-1.883zm66.675-67.663v57.444a4.956 4.956 0 0 1 2.305-.307v-57.253a4.98 4.98 0 0 1-1.402.202c-.31 0-.61-.032-.903-.086zm-26.24-22.29l22.6 15.964c.285-.728.75-1.37 1.342-1.874l-22.53-15.915a4.77 4.77 0 0 1-1.413 1.825zm-6.403-3.664c0 1.76 1.493 3.194 3.33 3.194 1.835 0 3.33-1.433 3.33-3.194 0-1.76-1.495-3.194-3.33-3.194-1.837 0-3.33 1.433-3.33 3.194zm30.215 21.31c0 1.76 1.494 3.192 3.33 3.192s3.33-1.432 3.33-3.193c0-1.762-1.494-3.195-3.33-3.195s-3.33 1.433-3.33 3.194zm-61.02 12.545c1.837 0 3.33-1.433 3.33-3.194 0-1.76-1.493-3.192-3.33-3.192-1.835 0-3.33 1.433-3.33 3.193 0 1.762 1.495 3.195 3.33 3.195zM366.97 367.63c1.837 0 3.33-1.432 3.33-3.192 0-1.76-1.493-3.194-3.33-3.194-1.836 0-3.33 1.433-3.33 3.194 0 1.76 1.494 3.193 3.33 3.193zm3.33 63.072c0-1.76-1.493-3.193-3.33-3.193-1.836 0-3.33 1.43-3.33 3.192 0 1.76 1.494 3.194 3.33 3.194 1.837 0 3.33-1.433 3.33-3.194zm29.118 20.925c0-1.76-1.494-3.194-3.33-3.194s-3.33 1.433-3.33 3.194c0 1.76 1.494 3.193 3.33 3.193s3.33-1.433 3.33-3.193zm61.903-12.547c-1.838 0-3.332 1.433-3.332 3.194 0 1.76 1.494 3.193 3.33 3.193 1.837 0 3.33-1.432 3.33-3.193 0-1.76-1.493-3.194-3.33-3.194zm-27.77-18.15c0-1.76-1.495-3.193-3.33-3.193-1.837 0-3.33 1.433-3.33 3.194 0 1.762 1.493 3.195 3.33 3.195 1.835 0 3.33-1.433 3.33-3.194z"/><path d="M429.315 394.702h2.306v3.074h-2.305v-3.074zm0-4.995h2.306v3.074h-2.305v-3.073zm0 9.99h2.306v3.074h-2.305v-3.073zm0 9.99h2.306v3.075h-2.305v-3.074zm2.306 6.715v-1.72h-2.305v1.603a4.976 4.976 0 0 1 2.305.117zm-2.305-11.71h2.306v3.075h-2.305v-3.075zm0-39.962h2.306v3.074h-2.305v-3.074zm0 9.99h2.306v3.075h-2.305v-3.074zm0-14.985h2.306v3.074h-2.305v-3.075zm0 24.976h2.306v3.076h-2.305v-3.075zm0-14.985h2.306v3.075h-2.305v-3.075zm4.568 55.324l2.51 1.772 1.33-1.883-2.51-1.775-1.33 1.884zm4.08 2.88l2.51 1.774 1.33-1.883-2.51-1.773-1.33 1.883zm8.16 5.764l2.512 1.774 1.33-1.883-2.51-1.774-1.33 1.884zm8.16 5.764l2.326 1.643a4.683 4.683 0 0 1 1.13-2.022l-2.126-1.503-1.33 1.883zm-4.08-2.882l2.51 1.774 1.332-1.883-2.51-1.774-1.332 1.883zm-8.16-5.764l2.51 1.774 1.33-1.883-2.51-1.774-1.33 1.882zm-29.596-7.935l.356 2.277 3.037-.475-.356-2.278-3.037.475zm12.908-2.014v-.005l-3.037.475.356 2.278 3.037-.475-.113-.73a4.59 4.59 0 0 1-.245-1.474c0-.022.003-.044.003-.067zm-37.585 5.873l.357 2.277 3.037-.475-.356-2.277-3.038.476zm-9.87 1.543l.357 2.277 3.036-.475-.356-2.278-3.037.475zm-4.936.77l.357 2.28 3.038-.476-.357-2.278-3.036.475zm9.87-1.542l.358 2.277 3.037-.475-.358-2.278-3.037.476zm14.807-2.316l.358 2.278 3.037-.475-.357-2.278-3.037.475zm19.742-3.087l.357 2.277 3.036-.475-.357-2.277-3.038.475zm-14.806 2.315l.357 2.278 3.037-.475-.356-2.278-3.038.475zm4.935-.772l.358 2.278 3.037-.475-.356-2.277-3.04.475z"/></g></svg>