<svg xmlns="http://www.w3.org/2000/svg" xmlns:xlink="http://www.w3.org/1999/xlink" viewBox="0 0 400 400"><path fill="none" stroke="#3354A8" stroke-linecap="round" stroke-linejoin="round" stroke-miterlimit="10" d="M109.2 143.1c3.3-27.5 18.7-51.2 40.8-65.7M251.2 78.1c21.1 14.3 36 37.2 39.5 63.6M137.7 92.4c3.3-3.3 6.8-6.4 10.6-9.2M132.4 98.3c.9-1.1 1.8-2.1 2.7-3.2M113.9 138.9c2.3-13.8 7.9-26.4 15.8-37.2M146.4 222.5c-15.7-12.2-27.1-29.7-31.6-49.7M155.3 228.5c-1.6-1-3.2-2-4.7-3M277.3 194.1c-.7 1.3-1.4 2.5-2.1 3.7M285.7 170c-1.4 7.2-3.6 14.1-6.7 20.6M282.7 125.5c1.4 4 2.4 8.2 3.2 12.4M279.6 117.6c.6 1.4 1.2 2.7 1.7 4.1M252 83.4c11 8.2 20 18.9 26.2 31.3"/><g fill="#3354A8"><path d="M159.1 73.4l5.8-2.5c1.6-.7 3-.8 4.2-.5 1.1.3 1.9 1 2.4 2.1.3.8.4 1.6.2 2.4-.2.8-.7 1.4-1.4 2 .9-.2 1.7-.1 2.5.2s1.4.9 1.7 1.8c.8 1.8.4 3.3-1.1 4.7-.6.5-1.3 1-2.4 1.4l-5.8 2.5-6.1-14.1zm5.2 4.9l3.1-1.3c.8-.3 1.3-.8 1.5-1.3.3-.5.2-1.1 0-1.6s-.6-1-1.2-1.1c-.5-.2-1.2-.1-2 .2l-3.1 1.3 1.7 3.8zM170 83c.8-.4 1.4-.8 1.6-1.3.2-.5.2-1 0-1.6-.2-.6-.6-.9-1.2-1.1-.5-.2-1.2-.1-2 .3l-3.1 1.4 1.6 3.7L170 83zM176.6 66.9l2.7-.7 3.8 15.1-2.7.7-3.8-15.1zM185 64.9l12.4-1.2.2 2.4-4.8.5 1.3 13.1-2.8.3-1.3-13.2-4.8.5-.2-2.4zM212.3 65.8c.9.9 1.3 2.2 1.2 3.8-.1 1.6-.7 2.8-1.8 3.5s-2.5 1.1-4.2.9l-2.6-.2-.5 5.6-2.8-.2 1.3-15.5 5.5.5c1.6.1 3 .7 3.9 1.6zm-4.7 5.8c.9.1 1.6-.1 2-.5.5-.4.8-1 .8-1.7.1-.7-.1-1.3-.5-1.8s-1-.8-1.9-.9l-2.6-.2-.4 5 2.6.1zM220.9 66.3l3.4.9 1.1 16.4-2.9-.7-.2-3.5-5.6-1.4-1.9 3-2.9-.7 9-14zm-2.9 9.6l4.2 1.1-.4-7-3.8 5.9zM234.5 70.6l.5 7.1 5.9-4.1 3 1.4-8.9 6-2.7 5.8-2.6-1.2 2.7-5.8-1-10.5 3.1 1.3z"/></g><path fill="none" stroke="#3354A8" stroke-linecap="round" stroke-linejoin="round" stroke-miterlimit="10" d="M199.5 34v8M189 34.5l.7 8M178.7 35.9l1.4 7.9M168.5 38.2l2 7.7M158.5 41.4l2.7 7.5M148.8 45.5l3.4 7.2M139.6 50.3l4 7M130.8 56l4.5 6.5M122.5 62.4l5.1 6.1M114.8 69.5l5.7 5.7M107.8 77.2l6.1 5.2M101.4 85.6l6.6 4.6M95.8 94.4l7 4M91 103.7l7.3 3.4M87.1 113.4l7.5 2.8M84 123.4l7.7 2.1M81.7 133.7l7.9 1.3M80.4 144l8 .7M80 154.5h8M80.5 165l8-.7M81.9 175.3l7.9-1.4M84.2 185.5l7.7-2M87.4 195.5l7.5-2.7M91.5 205.2l7.2-3.4M96.3 214.4l7-4M102 223.2l6.5-4.5M108.4 231.5l6.1-5.1M115.5 239.2l5.7-5.7M276.7 244.6l-4.3-5.1M285.2 238.5l-5.7-5.7M292.2 230.8l-6.1-5.2M298.6 222.4l-6.6-4.6M304.2 213.6l-7-4M309 204.3l-7.3-3.4M312.9 194.6l-7.5-2.8M316 184.6l-7.7-2.1M319.6 164l-8-.7M320 153.5h-8M319.5 143l-8 .7M318.1 132.7l-7.9 1.4M315.8 122.5l-7.7 2M312.6 112.5l-7.5 2.7M308.5 102.8l-7.2 3.4M303.7 93.6l-7 4M298 84.8l-6.5 4.5M291.6 76.5l-6.1 5.1M284.5 68.8l-5.7 5.7M276.8 61.8l-5.2 6.1M268.4 55.4l-4.6 6.6M259.6 49.8l-4 7M250.3 45l-3.4 7.3M240.6 41.1l-2.8 7.5M230.6 38l-2.1 7.7M220.3 35.7l-1.3 7.9M215.2 35l-.7 4.7M204.7 34.1l-.2 4.7M194.3 34.1l.2 4.8M183.8 35.1l.7 4.7M173.5 37l1.1 4.6M163.4 39.7l1.5 4.5M153.6 43.3l1.8 4.4M144.1 47.8l2.2 4.2M135.1 53.1l2.6 4M126.6 59.1l2.8 3.8M118.6 65.9l3.2 3.5M111.2 73.3l3.5 3.2M104.5 81.3l3.8 2.9M98.5 89.9l4 2.6M93.3 99l4.2 2.2M88.9 108.5l4.4 1.9M85.4 118.4l4.5 1.4M82.7 128.5l4.7 1M81 138.8l4.7.7M80.1 149.3l4.7.2M80.1 159.7l4.8-.2M81.1 170.2l4.7-.7M83 180.5l4.6-1.1M85.7 190.6l4.5-1.5M89.3 200.4l4.4-1.8M93.8 209.9l4.2-2.2M99.1 218.9l4-2.6M105.1 227.4l3.8-2.8M111.9 235.4l3.5-3.2M119.3 242.8l3.2-3.5M281.4 242.1l-3.2-3.5M288.8 234.7l-3.5-3.2M295.5 226.7l-3.8-2.9M301.5 218.1l-4-2.6M306.7 209l-4.2-2.2M311.1 199.5l-4.4-1.9M314.6 189.6l-4.5-1.4M317.3 179.5l-4.7-1M319 169.2l-4.7-.7M319.9 158.7l-4.7-.2M319.9 148.3l-4.8.2M318.9 137.8l-4.7.7M317 127.5l-4.6 1.1M314.3 117.4l-4.5 1.5M310.7 107.6l-4.4 1.8M306.2 98.1l-4.2 2.2M300.9 89.1l-4 2.6M294.9 80.6l-3.8 2.8M288.1 72.6l-3.5 3.2M280.7 65.2l-3.2 3.5M272.7 58.5l-2.9 3.8M264.1 52.5l-2.6 4M255 47.3l-2.2 4.2M245.5 42.9l-1.9 4.4M235.6 39.4l-1.4 4.5M225.5 36.7l-1 4.7M210 34.4l-.7 8"/><path id="a" fill="none" d="M210 34.4l-.7 8"/><text><textPath xlink:href="#a" startOffset="0%"> </textPath></text><path fill="#3354A8" d="M229 155.6c2.6-2.8 4.3-6.4 4.3-10.4 0-12.6-8.2-20.2-21.9-20.2v-16.2h-8.7V125h-8.8v-16.2h-8.8V125h-19.8v8.1h2.2c4.8 0 8.8 3.6 8.8 8.1v32.3c0 4.2 0 7.9-5.8 7.9h-5.2v8.3h19.8v16.2h8.8v-16.2h8.8V206h8.7v-16.3h4.4c13.7 0 21.9-7.6 21.9-20.2 0-6-3.5-11.1-8.7-13.9zm-35.2-18.5H207c4.8 0 8.8 3.6 8.8 8.1s-3.9 8.1-8.8 8.1h-13.2v-16.2zm17.6 40.4h-17.5v-16.2h17.5c4.8 0 8.8 3.6 8.8 8.1s-4 8.1-8.8 8.1z"/><path fill="none" stroke="#3354A8" stroke-width="2" stroke-linecap="round" stroke-linejoin="round" stroke-miterlimit="10" d="M115.1 146.2l2.7 6.6 7.2-.5-5.5 4.3 2.7 6.5-6.1-3.8-5.4 4.6 1.7-6.7-6.1-3.5 7.1-.5zM285.2 146.2l1.9 6.9 7.1.3-5.9 3.7 1.9 6.7-5.6-4.5-6 3.9 2.5-6.4-5.5-4.2 7.1.3z"/><path fill="none" stroke="#3354A8" stroke-linecap="round" stroke-linejoin="round" stroke-miterlimit="10" d="M159.1 230.7c5.8 3.1 12 5.5 18.5 7.2 7.5-.4 15-.6 22.4-.6 7.5 0 15.1.2 22.7.5 20.8-5.6 38.5-18.6 50.1-36.1"/><path fill="none" stroke="#3354A8" stroke-linecap="round" stroke-linejoin="round" stroke-miterlimit="10" d="M109.9 169.9c5.5 31.3 26.9 57.1 55.6 68.8 11.6-.9 23.2-1.3 34.6-1.3 11.6 0 23.3.4 34.9 1.2 28.9-11.9 50.3-38.2 55.4-70"/><path fill="none" stroke="#3354A8" stroke-linecap="round" stroke-linejoin="round" stroke-miterlimit="10" d="M146.8 240.6c17.9-2.2 35.8-3.2 53.2-3.2 17.8 0 35.8.8 53.6 2.9 28.8-17.9 48-49.9 48-86.3 0-56.1-45.5-101.6-101.6-101.6S98.4 97.9 98.4 154c0 36.6 19.4 68.7 48.4 86.6z"/><path fill="none" stroke="#3354A8" stroke-width="2" stroke-linecap="round" stroke-linejoin="round" stroke-miterlimit="10" d="M142.9 241.1c19.1-2.5 38.4-3.7 57.1-3.7 19.1 0 38.4 1 57.5 3.4 28.1-18.6 46.6-50.6 46.6-86.8 0-57.5-46.6-104.1-104.1-104.1S95.9 96.5 95.9 154c0 36.4 18.7 68.5 47 87.1z"/><path fill="none" stroke="#3354A8" stroke-width="3" stroke-linecap="round" stroke-linejoin="round" stroke-miterlimit="10" d="M121.3 244.6c26.1-5 53-7.2 78.7-7.2 26.3 0 52.9 1.8 79.1 6.9 25.1-22 40.9-54.3 40.9-90.2 0-66.3-53.7-120-120-120S80 87.7 80 154c0 36.2 16 68.6 41.3 90.6z"/><g><path fill="none" stroke="#3354A8" stroke-linecap="round" stroke-linejoin="round" stroke-miterlimit="10" d="M345.6 272.9c7 3.1 9.6 4.9 9.6 4.9"/><path fill="none" stroke="#3354A8" stroke-width="3" stroke-linecap="round" stroke-linejoin="round" stroke-miterlimit="10" d="M93.7 314.8l4.9 15.1c-42.9 6.7-72.9 21.5-72.9 21.5l10-27.5L7 314c14.7-8.2 31-14.1 42.4-17.5"/><path fill="#FFF" stroke="#3354A8" stroke-width="3" stroke-linecap="round" stroke-linejoin="round" stroke-miterlimit="10" d="M57 323.7l41.6 6.2"/><path fill="none" stroke="#3354A8" stroke-width="3" stroke-linecap="round" stroke-linejoin="round" stroke-miterlimit="10" d="M306.1 314.1l-4.7 15.8c42.9 6.7 72.9 21.5 72.9 21.5l-10-27.5 28.7-10c-14.7-8.2-31-14.1-42.4-17.5"/><path fill="none" stroke="#3354A8" stroke-width="3" stroke-linecap="round" stroke-linejoin="round" stroke-miterlimit="10" d="M200 237.4c53 0 107 7.4 156.5 33.3 0 .5-13.5 53-13.5 53-68.3-19.5-106.9-21.9-143-21.9s-78 4.8-143 21.9c0 0-13.5-52.5-13.5-53C89 246.7 147 237.4 200 237.4"/><path fill="#FFF" stroke="#3354A8" stroke-width="3" stroke-linecap="round" stroke-linejoin="round" stroke-miterlimit="10" d="M343 323.7l-41.6 6.2"/><g fill="#3354A8"><path d="M86.7 273.8l7.3-1.9c2-.5 3.7-.5 5.1.2 1.3.6 2.1 1.6 2.5 3 .3 1 .2 2-.2 2.9-.4.9-1 1.6-2 2.2 1.1-.1 2.1.2 2.9.7.9.5 1.4 1.4 1.7 2.5.6 2.2-.1 4.1-2.1 5.5-.8.5-1.8.9-3.1 1.3l-7.4 1.9-4.7-18.3zm5.3 6.8l3.9-1c1-.3 1.7-.7 2.1-1.2.4-.6.5-1.2.3-2-.2-.7-.6-1.3-1.2-1.6-.6-.3-1.4-.3-2.4-.1l-3.9 1 1.2 4.9zm6 6.6c1.1-.3 1.8-.7 2.1-1.3.4-.6.5-1.2.3-1.9s-.6-1.2-1.2-1.5-1.4-.3-2.5-.1l-4 1 1.2 4.7 4.1-.9zM106 269.1c-.1-.6-.1-1.1.2-1.5.3-.4.8-.7 1.4-.9.6-.1 1.2-.1 1.6.2.4.3.7.7.9 1.3.1.6.1 1.1-.2 1.6-.3.4-.8.7-1.4.9-.7.1-1.2.1-1.6-.2-.5-.3-.8-.8-.9-1.4zm1.4 4.4l3.3-.7 3.1 13.8-3.3.7-3.1-13.8zM127.8 283.3c-1.2.7-2.1 1.2-2.8 1.3-.7.1-1.4.2-1.9.1-.6-.1-1.1-.2-1.6-.5-1-.6-1.7-1.6-1.9-3l-1.5-7.7-1.9.4-.4-2.2 1.9-.4-.7-3.6 3.4-.7.7 3.6 3.8-.7.4 2.2-3.8.7 1.5 7.6c.2 1.1.9 1.6 2 1.4.5-.1 1.2-.4 2-.9l.8 2.4zM134.9 267.8c.9-.1 1.7-.1 2.4.1s1.4.5 1.9.9c1.1.8 1.8 1.8 2.2 3.2l-3.4.6c-.3-.6-.6-1-1.1-1.4-.5-.3-1-.5-1.5-.4-.5.1-1 .2-1.3.5-.4.2-.6.5-.9.9-.5.9-.7 2.1-.4 3.5.2 1.4.7 2.4 1.4 3 .7.6 1.5.9 2.4.7s1.5-.4 1.8-.9.4-1.1.3-1.8l3.4-.5c.2 1.5-.1 2.9-.9 4.1-.9 1.2-2.2 1.9-4.1 2.2-1.8.3-3.5-.1-4.9-1.3-1.5-1.2-2.5-2.9-2.8-5-.4-2.3 0-4.2 1.1-5.7s2.5-2.4 4.4-2.7zM151.3 265.5c.9-.1 1.8-.1 2.7.1.9.2 1.6.6 2.3 1.1 1.5 1.2 2.4 3 2.7 5.4.3 2.3-.2 4.3-1.3 5.8-1 1.4-2.6 2.2-4.6 2.4-2 .2-3.7-.2-5.1-1.3-1.5-1.2-2.4-2.9-2.6-5.3-.3-2.4.2-4.3 1.3-5.8 1.1-1.3 2.6-2.1 4.6-2.4zm4.3 7c-.2-1.5-.6-2.6-1.3-3.2-.7-.7-1.5-.9-2.5-.8-1 .1-1.8.6-2.4 1.4-.6.8-.8 2-.6 3.4s.6 2.6 1.3 3.2c.7.7 1.5.9 2.5.8 1-.1 1.8-.6 2.4-1.4.6-.8.8-1.9.6-3.4zM162.7 260.1c-.1-.6.1-1.1.4-1.5.3-.4.8-.6 1.5-.7.7-.1 1.2.1 1.6.4.4.3.6.8.7 1.4.1.6-.1 1.1-.4 1.5-.3.4-.8.6-1.5.7-.7.1-1.2-.1-1.6-.4-.4-.3-.6-.7-.7-1.4zm.8 4.5l3.4-.3 1.2 14.1-3.4.3-1.2-14.1zM177.2 266.1c.8-1.9 2.3-2.9 4.3-3 1.7-.1 3.1.4 4 1.5.9 1.1 1.5 2.6 1.6 4.4l.4 8.2-3.4.2-.4-8.2c-.1-1-.3-1.8-.9-2.3s-1.2-.7-2.2-.7c-.9 0-1.7.5-2.3 1.3-.6.8-.9 2.1-.8 3.7l.3 6.5-3.4.2-.7-14.1 3-.2.5 2.5zM201.2 258.1l7.6.1c2.1 0 3.7.5 4.8 1.5 1.1.9 1.6 2.1 1.6 3.5 0 1.1-.3 2-.9 2.7-.6.7-1.4 1.3-2.5 1.6 1.1.2 1.9.7 2.6 1.5.7.8 1 1.7 1 2.9 0 2.3-1.2 3.9-3.5 4.7-.9.3-2 .4-3.3.4l-7.6-.1.2-18.8zm7.3 15.9c1.1 0 1.9-.2 2.4-.6.5-.4.8-1 .8-1.8 0-.7-.2-1.3-.7-1.8-.5-.5-1.3-.7-2.4-.7l-4.1-.1-.1 4.9 4.1.1zm-4-7.9l4 .1c1 0 1.8-.2 2.3-.6.5-.4.8-1 .8-1.8s-.2-1.4-.7-1.8c-.5-.5-1.3-.7-2.3-.7l-4.1-.1v4.9zM231.7 267.7c.2.8.3 1.6.2 2.2 0 .7-.1 1.3-.2 1.8l-9.1-.5c0 1.1.2 2.1.7 2.8s1.3 1.1 2.3 1.2c1.4.1 2.3-.5 2.6-1.7l3.4.2c-.3 1.4-1 2.5-2.1 3.2-1.1.8-2.5 1.1-4.1 1-1.9-.1-3.4-.9-4.5-2.3-1.2-1.5-1.8-3.3-1.6-5.5.1-2.3.9-4 2.2-5.3 1.3-1.2 2.9-1.8 4.8-1.7 1.9.1 3.4.9 4.4 2.3.5.7.8 1.5 1 2.3zm-5.5-1.8c-1-.1-1.7.2-2.3.8-.6.6-.9 1.4-1.1 2.4l6 .3c.1-1.5-.3-2.6-1.3-3.1-.4-.2-.8-.4-1.3-.4zM238.4 274.2c-.1 1.3.8 2.1 2.7 2.3.7.1 1.3 0 1.8-.3s.8-.6.8-1-.1-.8-.3-1c-.3-.3-.7-.5-1.3-.8l-3-1.4c-2.2-1-3.2-2.4-3-4.2.1-1.2.7-2.1 1.9-2.7s2.6-.8 4.4-.7c1.8.2 3.1.7 4 1.6.9.9 1.3 1.9 1.2 3.1l-3.2-.3c0-.5-.2-.9-.6-1.2-.4-.3-.9-.5-1.7-.6-.8-.1-1.3 0-1.8.3s-.7.6-.7 1c-.1.7.5 1.2 1.6 1.7l3.2 1.6c1.1.5 1.9 1 2.4 1.6.5.6.8 1.4.7 2.3-.1 1.2-.8 2.1-1.9 2.8-1.2.8-2.8 1.1-4.6.9-1.9-.2-3.3-.7-4.4-1.7-1.1-.9-1.5-2.1-1.4-3.6l3.2.3zM259.7 280.7c-1.3.3-2.4.5-3.1.4-.7-.1-1.4-.3-1.9-.5s-1-.6-1.4-1c-.8-.9-1.1-2-.9-3.4l1-7.8-2-.3.3-2.3 2 .3.5-3.7 3.4.4-.5 3.7 3.8.5-.3 2.3-3.8-.5-1 7.7c-.2 1.2.3 1.8 1.4 1.9.6.1 1.3 0 2.2-.2l.3 2.5zM275.1 264.4l7.5 1.5c2 .4 3.5 1.2 4.5 2.4.9 1.1 1.2 2.3.9 3.8-.2 1-.7 1.9-1.4 2.5-.7.6-1.6 1-2.7 1.1 1 .4 1.8 1 2.3 1.9s.7 1.9.5 3c-.4 2.3-1.9 3.6-4.3 4-.9.1-2 .1-3.3-.2l-7.5-1.5 3.5-18.5zm4.4 17c1.1.2 1.9.1 2.5-.2.6-.3.9-.9 1.1-1.6.1-.7 0-1.4-.4-1.9s-1.1-.9-2.2-1.1l-4-.8-.9 4.8 3.9.8zm-2.5-8.5l4 .8c1 .2 1.8.1 2.4-.2.6-.3 1-.9 1.1-1.6.1-.7 0-1.4-.4-1.9s-1.1-.9-2.1-1.1l-4-.8-1 4.8zM294 273.1l3.3.8-3.2 13.7-3.3-.8 3.2-13.7zm.6-4.5c.1-.6.4-1 .9-1.3.4-.3 1-.3 1.6-.2.6.2 1.1.4 1.4.9.3.4.4 1 .2 1.6s-.4 1-.9 1.3c-.4.3-1 .3-1.6.2-.7-.2-1.1-.4-1.4-.9-.3-.5-.3-1-.2-1.6zM309.6 289.5c-1.3 1.4-2.8 1.9-4.5 1.4-1.7-.5-3-1.5-3.8-3.2-.8-1.7-.9-3.6-.4-5.8.6-2.1 1.7-3.7 3.2-4.7 1.5-1 3.1-1.2 4.8-.7 1.7.5 2.8 1.5 3.3 3.1l2-7.3 3.3.9-5.3 19.2-2.7-.8.1-2.1zm-1-9.9c-.9-.3-1.8-.1-2.6.5s-1.4 1.5-1.8 2.8-.3 2.4.1 3.3c.4 1 1.1 1.6 2.1 1.8.8.2 1.6.1 2.4-.3.8-.5 1.4-1.2 1.7-2.2l.5-1.8c.2-1 .1-1.9-.3-2.6-.5-.7-1.1-1.2-2.1-1.5z"/></g><g fill="none" stroke="#3354A8" stroke-linecap="round" stroke-linejoin="round" stroke-miterlimit="10"><path d="M45.3 276.4l3.9-1.8M47.3 282.4s3.2-1.4 3.7-1.6M48.4 288.8s5.4-2.4 6.5-2.7M49.4 294.2s11-4.1 13-4.6M55.7 318.5s4.7-1.8 6.7-2.4M50.5 300.3s10.5-3.9 14.7-5.1M51.9 306.6s8.2-3.2 13.3-4.8M53.4 312.6s7.9-3 10.7-3.8"/></g><path fill="none" stroke="#3354A8" stroke-linecap="round" stroke-linejoin="round" stroke-miterlimit="10" d="M353 282.8s-10.3-4.9-10.8-5.1M351.6 289.1s-14.1-6.5-15.2-6.8M350.4 295.1s-12-5.4-14-6M343 318.5s-4.6-2-6.6-2.7M349 300.5s-10.3-4.4-14.5-5.8M347.4 306.7s-8-3.5-13.1-5.3M345.7 312.7s-7.8-3.3-10.6-4.2M305.5 257.2c8.1 2.4 26.2 8.5 34.9 13.1M15.6 317.3c7.5-3.8 22.8-11.1 36.1-14.5M323.5 327c8.1 2.4 35.8 9.6 47.8 16.1M29.3 342.4c8-2.8 34.7-12.9 48.3-14.5M295.8 254.6c1.7.4 3.3.9 5 1.3M55.7 272c77.4-33.5 167.5-34.5 234.3-18.8"/><g fill="none" stroke="#3354A8" stroke-linecap="round" stroke-linejoin="round" stroke-miterlimit="10"><path d="M68.6 321.1l3.8 4.9M72.4 320.3l4.1 6.3M76.5 319.4l4.7 7.9M80.2 318.5l5.6 9.6M84.5 317.9l6 10.8M88.8 317.3l5.8 11.8"/></g><g fill="none" stroke="#3354A8" stroke-linecap="round" stroke-linejoin="round" stroke-miterlimit="10"><path d="M331.6 320.1l-3.7 4.9M327.9 319.3l-4.1 6.3M323.8 318.4l-4.8 7.9M320 317.5l-5.5 9.6M315.8 316.9l-6 10.8M311.5 316.3l-5.9 11.8"/></g><path fill="none" stroke="#3354A8" stroke-linecap="round" stroke-linejoin="round" stroke-miterlimit="10" d="M67.1 314.7c48.8-14.4 96.1-19.8 132.7-20.4 36.6-.6 84.2 6 130.9 19.7M347.5 303c8.1 2.4 24.2 7.5 36.3 14.1"/></g></svg>