<svg width="232" height="58" viewBox="0 0 232 58" xmlns="http://www.w3.org/2000/svg"><title>Imported Layers Copy</title><path d="M25.25 17.54c2.317 0 4.318.41 6.006 1.23 1.688.82 3.087 1.93 4.197 3.328 1.11 1.4 1.93 3.04 2.46 4.92.53 1.882.795 3.908.795 6.078 0 3.328-.615 6.475-1.845 9.44-1.23 2.968-2.906 5.55-5.028 7.744-2.122 2.194-4.63 3.93-7.525 5.21-2.894 1.277-6.03 1.916-9.405 1.916-.435 0-1.194-.012-2.28-.037-1.085-.024-2.327-.133-3.726-.326a43.64 43.64 0 0 1-4.45-.868A22.69 22.69 0 0 1 0 54.584l12.517-52.6L23.73.248l-4.484 18.667a17.19 17.19 0 0 1 2.894-1.013c.965-.24 2-.362 3.11-.362zm-9.405 30.967c1.69 0 3.28-.41 4.776-1.23a12.632 12.632 0 0 0 3.87-3.292 16.553 16.553 0 0 0 2.57-4.667c.627-1.736.94-3.545.94-5.426 0-2.315-.385-4.125-1.157-5.427-.772-1.302-2.195-1.953-4.27-1.953-.674 0-1.554.12-2.64.36-1.085.243-2.062.75-2.93 1.52l-4.775 19.825c.29.05.542.097.76.145a5.8 5.8 0 0 0 .687.108c.24.025.53.037.868.037h1.302zm36.466 7.886H41.603l9.045-38.057h10.78L52.31 56.393zm5.21-42.687a6.646 6.646 0 0 1-4.052-1.34c-1.205-.892-1.808-2.254-1.808-4.087a6.76 6.76 0 0 1 .615-2.86 7.57 7.57 0 0 1 1.627-2.314 7.837 7.837 0 0 1 2.352-1.556A7.13 7.13 0 0 1 59.11.97c1.497 0 2.847.448 4.053 1.34 1.206.893 1.81 2.255 1.81 4.088a6.76 6.76 0 0 1-.616 2.858 7.573 7.573 0 0 1-1.628 2.315 7.824 7.824 0 0 1-2.352 1.556 7.117 7.117 0 0 1-2.858.58zm14.904-4.848L83.64 7.122l-2.75 11.214H92.9l-2.17 8.827H78.79L75.61 40.476a17.57 17.57 0 0 0-.542 3.11c-.073.965.047 1.797.36 2.497.314.7.857 1.242 1.63 1.628.77.387 1.832.58 3.183.58 1.156 0 2.277-.11 3.363-.326a24.835 24.835 0 0 0 3.292-.904l.795 8.248a38.86 38.86 0 0 1-4.703 1.375c-1.687.385-3.69.578-6.005.578-3.328 0-5.908-.493-7.74-1.482-1.834-.99-3.136-2.34-3.908-4.052-.772-1.712-1.11-3.678-1.013-5.896.097-2.22.435-4.56 1.014-7.018l7.09-29.954zm20.837 32.34c0-3.28.532-6.366 1.593-9.26 1.062-2.894 2.58-5.426 4.56-7.597 1.976-2.17 4.376-3.882 7.198-5.136s5.97-1.88 9.442-1.88c2.17 0 4.112.204 5.825.614 1.712.41 3.267.952 4.667 1.628l-3.69 8.393a36.8 36.8 0 0 0-3.003-1.05c-1.036-.314-2.302-.47-3.798-.47-3.617 0-6.463 1.217-8.537 3.653-2.074 2.436-3.11 5.752-3.11 9.948 0 2.462.53 4.45 1.59 5.97 1.062 1.52 3.015 2.28 5.86 2.28 1.4 0 2.75-.145 4.053-.434 1.302-.29 2.46-.652 3.473-1.086l.796 8.61c-1.35.53-2.833 1-4.45 1.41-1.615.41-3.58.616-5.896.616-2.99 0-5.523-.434-7.597-1.302-2.074-.87-3.786-2.038-5.136-3.51-1.35-1.47-2.328-3.195-2.93-5.173a21.213 21.213 0 0 1-.906-6.22zm47.97 16.208c-2.555 0-4.774-.386-6.655-1.158-1.882-.772-3.437-1.857-4.667-3.256-1.23-1.398-2.16-3.05-2.786-4.956-.626-1.905-.94-4.015-.94-6.33 0-2.894.47-5.788 1.41-8.683.94-2.894 2.328-5.498 4.16-7.814 1.834-2.316 4.077-4.21 6.73-5.68 2.652-1.472 5.69-2.207 9.116-2.207 2.508 0 4.715.386 6.62 1.157 1.906.772 3.473 1.858 4.703 3.256 1.23 1.4 2.16 3.05 2.787 4.957.626 1.905.94 4.015.94 6.33 0 2.895-.458 5.79-1.375 8.682-.916 2.894-2.267 5.5-4.052 7.815-1.784 2.315-4.015 4.208-6.692 5.68-2.677 1.47-5.776 2.206-9.297 2.206zm5.355-30.967c-1.592 0-2.99.458-4.196 1.374-1.208.917-2.22 2.074-3.04 3.473a17.14 17.14 0 0 0-1.845 4.594c-.41 1.665-.615 3.245-.615 4.74 0 2.46.386 4.353 1.157 5.68.772 1.326 2.17 1.99 4.197 1.99 1.592 0 2.99-.46 4.196-1.375 1.206-.916 2.22-2.074 3.04-3.473.82-1.4 1.434-2.93 1.844-4.595.41-1.664.615-3.243.615-4.738 0-2.46-.387-4.355-1.158-5.68-.772-1.328-2.17-1.99-4.197-1.99zm48.04 1.157c-.963-.24-1.916-.47-2.857-.688-.94-.217-2.327-.326-4.16-.326-.675 0-1.423.06-2.243.18-.82.122-1.495.254-2.026.4l-7.018 29.23h-10.78l8.68-36.032c2.076-.675 4.403-1.314 6.983-1.917s5.487-.905 8.72-.905c1.204 0 2.543.108 4.014.326 1.47.217 2.76.566 3.87 1.05l-3.184 8.68zm2.462 13.892c0-3.088.542-6.08 1.627-8.973 1.086-2.894 2.617-5.462 4.595-7.705 1.977-2.244 4.376-4.052 7.198-5.427 2.82-1.375 5.945-2.062 9.37-2.062 1.688 0 3.255.242 4.702.724s2.713 1.182 3.8 2.097a9.477 9.477 0 0 1 2.53 3.365c.604 1.325.906 2.833.906 4.52 0 2.702-.604 4.993-1.81 6.875-1.205 1.88-2.88 3.412-5.028 4.594-2.147 1.18-4.69 2.037-7.633 2.567-2.942.53-6.15.797-9.623.797.338 2.025 1.074 3.46 2.207 4.304 1.132.844 2.93 1.267 5.39 1.267 1.543 0 3.11-.133 4.702-.4a23.56 23.56 0 0 0 4.486-1.192l.796 8.465c-1.35.53-3.075 1.013-5.173 1.447-2.098.434-4.377.65-6.837.65-2.99 0-5.51-.42-7.56-1.265s-3.714-1.99-4.993-3.437c-1.278-1.447-2.207-3.135-2.785-5.065-.58-1.93-.868-3.98-.868-6.15zm21.054-15.63c-2.46 0-4.618.88-6.475 2.64-1.856 1.762-3.075 4.09-3.653 6.983 2.99-.096 5.402-.35 7.235-.76 1.833-.41 3.256-.904 4.268-1.482 1.013-.58 1.69-1.205 2.027-1.88.337-.676.506-1.35.506-2.027 0-2.315-1.303-3.472-3.907-3.472z" fill="#393939" fill-rule="evenodd"/></svg>