<svg xmlns="http://www.w3.org/2000/svg" viewBox="0 0 120 100"><path fill="#3354A8" d="M67 74.9c-.3 0-.7 0-1-.1-1.1-.2-2-.9-2.5-1.8s-.6-2-.2-3c.4-1 1.1-1.9 2.1-2.4 1.1-.6 2.4-.7 3.5-.4.3.1.4.4.3.6.1.2-.2.3-.5.2-.9-.3-1.9-.2-2.8.3-.8.4-1.4 1.1-1.7 1.9-.2.8-.2 1.6.2 2.3.4.7 1 1.1 1.8 1.3.8.2 1.7.1 2.5-.4.2-.1.5 0 .7.2.1.2 0 .5-.2.7-.7.4-1.5.6-2.2.6zM46.5 74.7l.5-1c-.6-.3-1-.7-1.3-1.1l.5-.5c.2.4.6.8 1.2 1.1.7.3 1.3.2 1.6-.4.3-.5 0-1-.5-1.7-.8-.9-1.2-1.6-.8-2.4.4-.8 1.3-1.1 2.2-.8l.5-1 .6.3-.4.8c.6.3.9.7 1.1 1l-.6.5c-.1-.2-.4-.6-1.1-.9-.7-.4-1.2-.1-1.4.3-.2.5 0 .9.7 1.7.8.9 1.1 1.6.6 2.5-.4.8-1.3 1.2-2.3.9l-.5 1-.6-.3z"/><ellipse fill="#FFF" cx="90.6" cy="41.2" rx="20.8" ry="3.7"/><path fill="#3354A8" d="M90.6 45.9c-2.2 0-21.8-.1-21.8-4.7s19.6-4.7 21.8-4.7 21.8.1 21.8 4.7-19.6 4.7-21.8 4.7zm-19.8-4.7c1 1 7.5 2.7 19.7 2.7s18.8-1.7 19.7-2.7c-1-1-7.5-2.7-19.7-2.7s-18.7 1.7-19.7 2.7z"/><ellipse fill="#FFF" cx="90.6" cy="41.4" rx="16.1" ry="1.5"/><path fill="#3354A8" d="M90.6 43.4c-5 0-16.6-.2-16.6-2s11.6-2 16.6-2c5 0 16.6.2 16.6 2s-11.7 2-16.6 2zm-15.1-2c1.7.5 7.1 1 15.1 1s13.4-.5 15.1-1c-1.7-.5-7.1-1-15.1-1s-13.4.5-15.1 1zM90.6 63.9c-2.2 0-21.8-.1-21.8-4.7v-6c0-.6.4-1 1-1s1 .4 1 1v5.9c.7 1 7.2 2.8 19.8 2.8 12.5 0 19.1-1.8 19.8-2.8v-5.9c0-.6.4-1 1-1s1 .4 1 1v6c-.1 4.5-19.6 4.7-21.8 4.7z"/><path fill="#3354A8" d="M90.6 57.9c-2.2 0-21.8-.1-21.8-4.7v-6c0-.6.4-1 1-1s1 .4 1 1v5.9c.7 1 7.2 2.8 19.8 2.8 12.5 0 19.1-1.8 19.8-2.8v-5.9c0-.6.4-1 1-1s1 .4 1 1v6c-.1 4.5-19.6 4.7-21.8 4.7z"/><path fill="#3354A8" d="M90.6 51.9c-2.2 0-21.8-.1-21.8-4.7v-6c0-.6.4-1 1-1s1 .4 1 1v5.9c.7 1 7.2 2.8 19.8 2.8s19.1-1.8 19.8-2.8v-5.9c0-.6.4-1 1-1s1 .4 1 1v6c-.1 4.5-19.6 4.7-21.8 4.7zM90.6 69.9c-2.2 0-21.8-.1-21.8-4.7v-6c0-.6.4-1 1-1s1 .4 1 1v5.9c.7 1 7.2 2.8 19.8 2.8 12.5 0 19.1-1.8 19.8-2.8v-5.9c0-.6.4-1 1-1s1 .4 1 1v6c-.1 4.5-19.6 4.7-21.8 4.7z"/><path fill="#3354A8" d="M90.6 75.9c-2.2 0-21.8-.1-21.8-4.7v-6c0-.6.4-1 1-1s1 .4 1 1v5.9c.7 1 7.2 2.8 19.8 2.8 12.5 0 19.1-1.8 19.8-2.8v-5.9c0-.6.4-1 1-1s1 .4 1 1v6c-.1 4.5-19.6 4.7-21.8 4.7z"/><path fill="#3354A8" d="M90.6 81.9c-2.2 0-21.8-.1-21.8-4.7v-6c0-.6.4-1 1-1s1 .4 1 1v5.9c.7 1 7.2 2.8 19.8 2.8 12.5 0 19.1-1.8 19.8-2.8v-5.9c0-.6.4-1 1-1s1 .4 1 1v6c-.1 4.5-19.6 4.7-21.8 4.7z"/><path fill="#3354A8" d="M90.6 87.9c-2.2 0-21.8-.1-21.8-4.7v-6c0-.6.4-1 1-1s1 .4 1 1v5.9c.7 1 7.2 2.8 19.8 2.8 12.5 0 19.1-1.8 19.8-2.8v-5.9c0-.6.4-1 1-1s1 .4 1 1v6c-.1 4.5-19.6 4.7-21.8 4.7z"/><path fill="#3354A8" d="M90.6 93.9c-2.2 0-21.8-.1-21.8-4.7v-6c0-.6.4-1 1-1s1 .4 1 1v5.9c.7 1 7.2 2.8 19.8 2.8 12.5 0 19.1-1.8 19.8-2.8v-5.9c0-.6.4-1 1-1s1 .4 1 1v6c-.1 4.5-19.6 4.7-21.8 4.7z"/><path fill="#3354A8" d="M90.6 99.9c-2.2 0-21.8-.1-21.8-4.7v-6c0-.6.4-1 1-1s1 .4 1 1v5.9c.7 1 7.2 2.8 19.8 2.8 12.5 0 19.1-1.8 19.8-2.8v-5.9c0-.6.4-1 1-1s1 .4 1 1v6c-.1 4.5-19.6 4.7-21.8 4.7z"/><circle fill="#FFF" cx="90.6" cy="22.7" r="20.7"/><path fill="#3354A8" d="M90.6 44.5c-12 0-21.7-9.8-21.7-21.7 0-12 9.8-21.7 21.7-21.7 12 0 21.7 9.8 21.7 21.7 0 11.9-9.7 21.7-21.7 21.7zm0-41.5c-10.9 0-19.7 8.9-19.7 19.7s8.9 19.7 19.7 19.7c10.9 0 19.7-8.9 19.7-19.7S101.5 3 90.6 3z"/><path fill="#3354A8" d="M90.6 40.8c-10 0-18.1-8.1-18.1-18.1s8.1-18 18.1-18 18.1 8.1 18.1 18.1-8.2 18-18.1 18zm0-35.1c-9.4 0-17.1 7.7-17.1 17.1s7.7 17.1 17.1 17.1 17.1-7.7 17.1-17.1S100 5.7 90.6 5.7z"/><path fill="#3354A8" d="M95.5 22.5c.5-.5.8-1.2.8-1.9 0-2.3-1.5-3.7-4-3.7v-3h-1.6v3h-1.6v-3h-1.5v3h-3.5v1.8h.2c.9 0 1.6.5 1.6 1.3v5.9c0 .8.1 1.4-1 1.4h-.8v1.5l3.5-.1-.1 2.9h1.6v-3h1.6v3h1.6v-3h.8c2.5 0 4-1.3 4-3.7 0-1-.6-1.9-1.6-2.4zm-6.2-3.3h2.1c.9 0 1.6.7 1.6 1.5s-.7 1.5-1.6 1.5h-2.1v-3zm3 7.1h-2.9v-3h2.9c.9 0 1.6.7 1.6 1.5s-.7 1.5-1.6 1.5zM84.6 6.7c-.2 0-.4-.1-.5-.3l-1.1-3c-.1-.3 0-.5.3-.6.3-.1.5 0 .6.3l1.1 3c.1.3 0 .5-.3.6h-.1zM83.1 7.3c-.2 0-.4-.1-.5-.3l-1.3-2.9c-.1-.3 0-.5.2-.7.2-.1.5 0 .7.2l1.3 2.9c.1.3 0 .5-.2.7 0 .1-.1.1-.2.1zM81.8 8c-.2 0-.3-.1-.4-.2L79.8 5c-.1-.2-.1-.5.2-.7.2-.1.5-.1.7.2l1.6 2.7c0 .3 0 .6-.3.8h-.2zM80.5 8.8c-.2 0-.3-.1-.4-.2L78.3 6c-.2-.2-.1-.5.1-.7.2-.2.5-.1.7.1L80.9 8c.2.2.1.5-.1.7-.1.1-.2.1-.3.1zM79.3 9.8c-.1 0-.3-.1-.4-.2l-2-2.4c-.2-.2-.2-.5.1-.7.2-.2.5-.2.7.1l2 2.4c.2.2.2.5-.1.7-.1 0-.2.1-.3.1zM78.1 10.8c-.1 0-.3 0-.4-.1l-2.2-2.2c-.2-.2-.2-.5 0-.7s.5-.2.7 0l2.2 2.2c.2.2.2.5 0 .7 0 .1-.1.1-.3.1zM77.1 11.9c-.1 0-.2 0-.3-.1l-2.4-2c-.2-.2-.2-.5-.1-.7.2-.2.5-.3.7-.1l2.4 2c.2.2.2.5.1.7-.1.2-.3.2-.4.2zM76.2 13.2c-.1 0-.2 0-.3-.1l-2.6-1.8c-.2-.2-.3-.5-.1-.7.2-.2.5-.3.7-.1l2.6 1.8c.2.2.3.5.1.7-.1.1-.3.2-.4.2zM75.3 14.5c-.1 0-.2 0-.2-.1l-2.7-1.6c-.2-.1-.3-.4-.2-.7.1-.2.4-.3.7-.2l2.7 1.6c.2.1.3.4.2.7-.1.2-.3.3-.5.3zM74.6 15.8h-.2l-2.9-1.3c-.3-.1-.4-.4-.2-.7.1-.3.4-.4.7-.2l2.9 1.3c.3.1.4.4.2.7-.1.1-.3.2-.5.2zM74.1 17.2h-.2l-3-1.1c-.3-.1-.4-.4-.3-.6s.4-.4.6-.3l3 1.1c.3.1.4.4.3.6-.1.2-.2.3-.4.3zM73.6 18.7h-.1l-3.1-.8c-.3-.1-.4-.3-.4-.6.1-.3.3-.4.6-.4l3.1.8c.3.1.4.3.4.6-.1.2-.3.4-.5.4zM73.3 20.2c-.1 0-.1 0 0 0l-3.2-.6c-.3 0-.5-.3-.4-.6 0-.3.3-.5.6-.4l3.1.5c.3 0 .5.3.4.6-.1.3-.3.5-.5.5zM73.1 21.7c-.1 0-.1 0 0 0l-3.2-.3c-.3 0-.5-.3-.5-.5 0-.3.3-.5.5-.5l3.2.3c.3 0 .5.3.5.5-.1.3-.3.5-.5.5zM73 23.2h-3.2c-.3 0-.5-.2-.5-.5s.2-.5.5-.5H73c.3 0 .5.2.5.5s-.2.5-.5.5zM69.9 25c-.3 0-.5-.2-.5-.5s.2-.5.5-.5l3.2-.3c.3 0 .5.2.5.5s-.2.5-.5.5l-3.2.3zM70.1 26.8c-.2 0-.4-.2-.5-.4 0-.3.1-.5.4-.6l3.1-.6c.3-.1.5.1.6.4 0 .3-.1.5-.4.6l-3.2.6c.1 0 .1 0 0 0zM70.5 28.6c-.2 0-.4-.1-.5-.4-.1-.3.1-.5.4-.6l3.1-.8c.3-.1.5.1.6.4.1.3-.1.5-.4.6l-3.1.8h-.1zM71.1 30.3c-.2 0-.4-.1-.5-.3-.1-.3 0-.5.3-.6l3-1.1c.3-.1.5 0 .6.3.1.3 0 .5-.3.6l-3 1.1h-.1zM71.8 32c-.2 0-.4-.1-.5-.3-.1-.3 0-.5.2-.7l2.9-1.3c.2-.1.5 0 .7.2.1.3 0 .5-.2.7L72 32h-.2zM72.6 33.6c-.2 0-.3-.1-.4-.2-.1-.2-.1-.5.2-.7l2.7-1.6c.2-.1.5-.1.7.2.1.2.1.5-.2.7l-2.7 1.6h-.3zM73.6 35.1c-.2 0-.3-.1-.4-.2-.2-.2-.1-.5.1-.7l2.6-1.8c.2-.2.5-.1.7.1.2.2.1.5-.1.7L73.9 35c-.1.1-.2.1-.3.1zM74.7 36.6c-.1 0-.3-.1-.4-.2-.2-.2-.2-.5.1-.7l2.4-2c.2-.2.5-.2.7.1.2.2.2.5-.1.7l-2.4 2c-.1 0-.2.1-.3.1zM75.9 37.9c-.1 0-.3 0-.4-.1-.2-.2-.2-.5 0-.7l2.2-2.2c.2-.2.5-.2.7 0s.2.5 0 .7l-2.2 2.2c0 .1-.2.1-.3.1zM77.2 39.1c-.1 0-.2 0-.3-.1-.2-.2-.2-.5-.1-.7l2-2.4c.2-.2.5-.2.7-.1s.2.5.1.7l-2 2.4c-.1.2-.2.2-.4.2zM78.7 40.2c-.1 0-.2 0-.3-.1-.2-.2-.3-.5-.1-.7l1.8-2.6c.2-.2.5-.3.7-.1.2.2.3.5.1.7L79.1 40c-.1.2-.3.2-.4.2zM80.2 41.2c-.1 0-.2 0-.2-.1-.2-.1-.3-.4-.2-.7l1.6-2.7c.1-.2.4-.3.7-.2.2.1.3.4.2.7L80.6 41c-.1.1-.2.2-.4.2zM81.8 42h-.2c-.3-.1-.4-.4-.2-.7l1.3-2.9c.1-.3.4-.4.7-.2.3.1.4.4.2.7l-1.3 2.9c-.1.1-.3.2-.5.2zM83.5 42.7h-.2c-.3-.1-.4-.4-.3-.6l1.1-3c.1-.3.4-.4.6-.3.3.1.4.4.3.6l-1.1 3c0 .2-.2.3-.4.3zM85.2 43.3h-.1c-.3-.1-.4-.3-.4-.6l.8-3.1c.1-.3.3-.4.6-.4.3.1.4.3.4.6l-.8 3.1c-.1.2-.3.4-.5.4zM87 43.7c-.1 0-.1 0 0 0-.4-.1-.5-.3-.5-.6L87 40c0-.3.3-.5.6-.4.3 0 .5.3.4.6l-.5 3.1c-.1.2-.3.4-.5.4zM88.8 43.9c-.1 0-.1 0 0 0-.3 0-.5-.3-.5-.5l.3-3.2c0-.3.3-.5.5-.5.3 0 .5.3.5.5l-.3 3.2c-.1.3-.3.5-.5.5zM90.6 44c-.3 0-.5-.2-.5-.5v-3.2c0-.3.2-.5.5-.5s.5.2.5.5v3.2c0 .3-.3.5-.5.5zM92.4 43.9c-.3 0-.5-.2-.5-.5l-.3-3.2c0-.3.2-.5.5-.5s.5.2.5.5l.3 3.2c0 .2-.2.5-.5.5zM94.2 43.7c-.2 0-.4-.2-.5-.4l-.5-3.1c0-.3.1-.5.4-.6.3 0 .5.1.6.4l.5 3.1c0 .3-.2.5-.5.6zM97.7 42.7c-.2 0-.4-.1-.5-.3l-1.1-3c-.1-.3 0-.5.3-.6s.5 0 .6.3l1.1 3c.1.3 0 .5-.3.6h-.1zM100.9 41.2c-.2 0-.3-.1-.4-.2l-1.6-2.7c-.1-.2-.1-.5.2-.7.2-.1.5-.1.7.2l1.6 2.7c.1.2.1.5-.2.7h-.3zM103.9 39.1c-.1 0-.3-.1-.4-.2l-2-2.4c-.2-.2-.2-.5.1-.7.2-.2.5-.2.7.1l2 2.4c.2.2.2.5-.1.7-.1.1-.2.1-.3.1zM106.5 36.6c-.1 0-.2 0-.3-.1l-2.4-2c-.2-.2-.2-.5-.1-.7.2-.2.5-.2.7-.1l2.4 2c.2.2.2.5.1.7-.2.1-.3.2-.4.2zM108.5 33.6c-.1 0-.2 0-.2-.1l-2.7-1.6c-.2-.1-.3-.4-.2-.7.1-.2.4-.3.7-.2l2.7 1.6c.2.1.3.4.2.7-.1.2-.3.3-.5.3zM110.1 30.3h-.2l-3-1.1c-.3-.1-.4-.4-.3-.6.1-.3.4-.4.6-.3l3 1.1c.3.1.4.4.3.6 0 .2-.2.3-.4.3zM111 26.8s-.1 0 0 0l-3.2-.6c-.3 0-.5-.3-.4-.6 0-.3.3-.5.6-.4l3.1.6c.3 0 .5.3.4.6-.1.3-.3.4-.5.4zM111.3 23.2h-3.2c-.3 0-.5-.2-.5-.5s.2-.5.5-.5h3.2c.3 0 .5.2.5.5s-.2.5-.5.5zM107.9 20.2c-.2 0-.4-.2-.5-.4 0-.3.1-.5.4-.6l3.1-.5c.3 0 .5.1.6.4 0 .3-.1.5-.4.6l-3.2.5zM107.1 17.2c-.2 0-.4-.1-.5-.3-.1-.3 0-.5.3-.6l3-1.1c.3-.1.5 0 .6.3s0 .5-.3.6l-3 1.1h-.1zM105.8 14.5c-.2 0-.3-.1-.4-.2-.1-.2-.1-.5.2-.7l2.7-1.6c.2-.1.5-.1.7.2.1.2.1.5-.2.7l-2.7 1.6c-.1-.1-.2 0-.3 0zM104 11.9c-.1 0-.3-.1-.4-.2-.2-.2-.2-.5.1-.7l2.4-2c.2-.2.5-.2.7.1.2.2.2.5-.1.7l-2.4 2c0 .1-.2.1-.3.1zM101.9 9.8c-.1 0-.2 0-.3-.1-.2-.2-.2-.5-.1-.7l2-2.4c.2-.2.5-.2.7-.1.2.2.2.5.1.7l-2 2.4c-.2.1-.3.2-.4.2zM99.4 8c-.1 0-.2 0-.2-.1-.2-.1-.3-.4-.2-.7l1.6-2.7c.1-.2.4-.3.7-.2.2.1.3.4.2.7l-1.6 2.7c-.2.2-.4.3-.5.3zM96.6 6.7h-.2c-.3-.1-.4-.4-.3-.6l1.1-3c.1-.3.4-.4.6-.3.3.1.4.4.3.6l-1.1 3c0 .2-.2.3-.4.3zM93.6 5.9c-.4-.1-.5-.3-.5-.6l.5-3.1c0-.3.3-.5.6-.4.3 0 .5.3.4.6l-.5 3.1c0 .3-.2.4-.5.4zM90.6 5.7c-.3 0-.5-.2-.5-.5V2c0-.3.2-.5.5-.5s.5.2.5.5v3.2c0 .2-.3.5-.5.5zM87.5 5.9c-.2 0-.4-.2-.5-.4l-.5-3.1c0-.3.1-.5.4-.6.3-.1.5.1.6.4l.5 3.1c.1.3-.1.6-.5.6.1 0 0 0 0 0zM95.9 43.3c-.2 0-.4-.1-.5-.4l-.8-3.1c-.1-.3.1-.5.4-.6.3-.1.5.1.6.4l.8 3.1c.1.3-.1.5-.4.6h-.1zM99.3 42c-.2 0-.4-.1-.5-.3l-1.3-2.9c-.1-.3 0-.5.2-.7.2-.1.5 0 .7.2l1.3 2.9c.1.3 0 .5-.2.7 0 .1-.1.1-.2.1zM102.5 40.2c-.2 0-.3-.1-.4-.2l-1.8-2.6c-.2-.2-.1-.5.1-.7.2-.2.5-.1.7.1l1.8 2.6c.2.2.1.5-.1.7-.1.1-.2.1-.3.1zM105.2 37.9c-.1 0-.3 0-.4-.1l-2.2-2.2c-.2-.2-.2-.5 0-.7s.5-.2.7 0l2.2 2.2c.2.2.2.5 0 .7 0 .1-.1.1-.3.1zM107.6 35.1c-.1 0-.2 0-.3-.1l-2.6-1.8c-.2-.2-.3-.5-.1-.7.2-.2.5-.3.7-.1l2.6 1.8c.2.2.3.5.1.7-.1.2-.3.2-.4.2zM109.4 32h-.2l-2.9-1.3c-.3-.1-.4-.4-.2-.7s.4-.4.7-.2l2.9 1.3c.3.1.4.4.2.7-.2.1-.3.2-.5.2zM110.6 28.6h-.1l-3.1-.8c-.3-.1-.4-.3-.4-.6.1-.3.4-.4.6-.4l3.1.8c.3.1.4.3.4.6-.1.3-.3.4-.5.4zM111.2 25l-3.2-.3c-.3 0-.5-.3-.5-.5 0-.3.3-.5.5-.5l3.2.3c.3 0 .5.3.5.5 0 .4-.2.5-.5.5zM108.1 21.7c-.3 0-.5-.2-.5-.5s.2-.5.5-.5l3.2-.3c.3 0 .5.2.5.5s-.2.5-.5.5l-3.2.3zM107.5 18.7c-.2 0-.4-.1-.5-.4-.1-.3.1-.5.4-.6l3.1-.8c.3-.1.5.1.6.4.1.3-.1.5-.4.6l-3.1.8h-.1zM106.5 15.8c-.2 0-.4-.1-.5-.3-.1-.3 0-.5.2-.7l2.9-1.3c.2-.1.5 0 .7.2.1.3 0 .5-.2.7l-2.9 1.3c-.1.1-.1.1-.2.1zM105 13.2c-.2 0-.3-.1-.4-.2-.2-.2-.1-.5.1-.7l2.6-1.8c.2-.2.5-.1.7.1.2.2.1.5-.1.7l-2.6 1.8c-.1 0-.2.1-.3.1zM103 10.8c-.1 0-.3 0-.4-.1-.2-.2-.2-.5 0-.7l2.2-2.2c.2-.2.5-.2.7 0s.2.5 0 .7l-2.2 2.2c-.1.1-.2.1-.3.1zM100.6 8.8c-.1 0-.2 0-.3-.1-.2-.2-.3-.5-.1-.7l1.8-2.6c.2-.2.5-.3.7-.1.2.2.3.5.1.7L101 8.6c0 .2-.2.2-.4.2zM98 7.3h-.2c-.3-.1-.4-.4-.2-.7l1.3-2.9c.1-.3.4-.4.7-.2.3.1.4.4.2.7L98.4 7c0 .2-.2.3-.4.3zM95.1 6.3H95c-.3-.1-.4-.3-.4-.6l.8-3.1c.1-.3.3-.4.6-.4.3.1.4.3.4.6l-.8 3.1c-.1.2-.3.4-.5.4zM92.1 5.7c-.3 0-.5-.3-.5-.5l.3-3.2c0-.3.3-.5.5-.5.3 0 .5.3.5.5l-.3 3.2c0 .3-.2.5-.5.5zM89 5.7c-.3 0-.5-.2-.5-.5L88.2 2c0-.3.2-.5.5-.5s.5.2.5.5l.3 3.2c.1.3-.1.5-.5.5.1 0 0 0 0 0zM86 6.3c-.2 0-.4-.1-.5-.4l-.8-3.1c-.1-.3.1-.5.4-.6.3-.1.5.1.6.4l.8 3.1c.1.3-.1.5-.4.6H86zM69.8 80.3H7.6c-.4 0-.8-.2-.9-.6-.2-.4-.1-.8.2-1.1l16.9-16.8c.2-.2.4-.3.7-.3h45.2c.6 0 1 .4 1 1s-.4 1-1 1H24.9L10 78.3h59.8c.6 0 1 .4 1 1s-.4 1-1 1z"/><path fill="#3354A8" d="M69.6 77.5H13.8c-.2 0-.4-.1-.5-.3s0-.4.1-.5l12.3-12.3c.1-.1.2-.1.4-.1h43.5c.3 0 .5.2.5.5s-.2.5-.5.5H26.3L15 76.5h54.7c.3 0 .5.2.5.5s-.3.5-.6.5zM69.8 96.4H7c-.3 0-.5-.2-.5-.5V79.3c0-.3.2-.5.5-.5h62.8c.3 0 .5.2.5.5v16.6c0 .3-.2.5-.5.5zm-62.3-1h61.8V79.8H7.5v15.6z"/><path fill="#3354A8" d="M69.8 82.4H7.2c-.3 0-.5-.2-.5-.5s.2-.5.5-.5h62.6c.3 0 .5.2.5.5s-.2.5-.5.5zM69.8 84.4H7.2c-.3 0-.5-.2-.5-.5s.2-.5.5-.5h62.6c.3 0 .5.2.5.5s-.2.5-.5.5zM69.8 86.4H7.2c-.3 0-.5-.2-.5-.5s.2-.5.5-.5h62.6c.3 0 .5.2.5.5s-.2.5-.5.5zM69.8 88.4H7.2c-.3 0-.5-.2-.5-.5s.2-.5.5-.5h62.6c.3 0 .5.2.5.5s-.2.5-.5.5zM69.8 90.4H7.2c-.3 0-.5-.2-.5-.5s.2-.5.5-.5h62.6c.3 0 .5.2.5.5s-.2.5-.5.5zM69.8 92.4H7.2c-.3 0-.5-.2-.5-.5s.2-.5.5-.5h62.6c.3 0 .5.2.5.5s-.2.5-.5.5zM69.8 94.4H7.2c-.3 0-.5-.2-.5-.5s.2-.5.5-.5h62.6c.3 0 .5.2.5.5s-.2.5-.5.5zM69.8 96.4H7.2c-.3 0-.5-.2-.5-.5s.2-.5.5-.5h62.6c.3 0 .5.2.5.5s-.2.5-.5.5zM28.9 74.9c-1.5 0-2.8-.7-3.4-1.9-.5-.9-.6-2-.2-3 .4-1 1.1-1.9 2.1-2.4.7-.4 1.5-.6 2.2-.6 1.5 0 2.8.7 3.4 1.9.5.9.6 2 .2 3-.4 1-1.1 1.9-2.1 2.4-.6.4-1.4.6-2.2.6zm.8-7c-.6 0-1.2.2-1.8.5-.8.4-1.4 1.1-1.7 1.9-.2.7-.2 1.5.2 2.2.5.9 1.4 1.4 2.5 1.4.6 0 1.2-.2 1.8-.5.8-.4 1.4-1.1 1.7-1.9.3-.8.2-1.6-.1-2.2-.5-.9-1.5-1.4-2.6-1.4z"/><path fill="#3354A8" d="M69.8 96.4c-.1 0-.3 0-.4-.1L52.8 79.6c-.2-.2-.2-.5 0-.7s.5-.2.7 0l16.6 16.6c.2.2.2.5 0 .7-.1.1-.2.2-.3.2zM69.8 94.4c-.1 0-.3 0-.4-.1L54.9 79.7c-.2-.2-.2-.5 0-.7s.5-.2.7 0l14.6 14.6c.2.2.2.5 0 .7-.2 0-.3.1-.4.1zM69.8 92.4c-.1 0-.3 0-.4-.1L56.9 79.7c-.2-.2-.2-.5 0-.7s.5-.2.7 0l12.6 12.6c.2.2.2.5 0 .7-.2 0-.3.1-.4.1zM69.8 90.4c-.1 0-.3 0-.4-.1L59.1 79.9c-.2-.2-.2-.5 0-.7s.5-.2.7 0l10.3 10.3c.2.2.2.5 0 .7-.1.1-.2.2-.3.2zM69.8 88.4c-.1 0-.3 0-.4-.1L61.1 80c-.2-.2-.2-.5 0-.7s.5-.2.7 0l8.3 8.3c.2.2.2.5 0 .7-.1 0-.2.1-.3.1zM69.8 86.4c-.1 0-.3 0-.4-.1l-6.2-6.2c-.2-.2-.2-.5 0-.7s.5-.2.7 0l6.2 6.2c.2.2.2.5 0 .7-.1 0-.2.1-.3.1zM69.8 84.4c-.1 0-.3 0-.4-.1l-4.6-4.6c-.2-.2-.2-.5 0-.7s.5-.2.7 0l4.6 4.6c.2.2.2.5 0 .7-.1 0-.2.1-.3.1zM69.8 82.4c-.1 0-.3 0-.4-.1l-2.6-2.6c-.2-.2-.2-.5 0-.7s.5-.2.7 0l2.6 2.6c.2.2.2.5 0 .7-.1 0-.2.1-.3.1z"/><path fill="#3354A8" d="M53.1 79.7c-.2 0-.4-.1-.5-.3l-7.4-16.8c-.1-.3 0-.5.3-.7.3-.1.5 0 .7.3L53.6 79c.1.3 0 .5-.3.7h-.2zM55.1 79.7c-.2 0-.4-.1-.5-.3l-7.4-16.8c-.1-.3 0-.5.3-.7.3-.1.5 0 .7.3L55.6 79c.1.3 0 .5-.3.7h-.2zM57.1 79.7c-.2 0-.4-.1-.5-.3l-7.4-16.8c-.1-.3 0-.5.3-.7.3-.1.5 0 .7.3L57.6 79c.1.3 0 .5-.3.7h-.2zM59.1 79.7c-.2 0-.4-.1-.5-.3l-7.4-16.8c-.1-.3 0-.5.3-.7.3-.1.5 0 .7.3L59.6 79c.1.3 0 .5-.3.7h-.2zM61.1 79.7c-.2 0-.4-.1-.5-.3l-7.4-16.8c-.1-.3 0-.5.3-.7.3-.1.5 0 .7.3L61.6 79c.1.3 0 .5-.3.7h-.2zM63.1 79.7c-.2 0-.4-.1-.5-.3l-7.4-16.8c-.1-.3 0-.5.3-.7.3-.1.5 0 .7.3L63.6 79c.1.3 0 .5-.3.7h-.2zM65.1 79.7c-.2 0-.4-.1-.5-.3l-7.4-16.8c-.1-.3 0-.5.3-.7.3-.1.5 0 .7.3L65.6 79c.1.3 0 .5-.3.7h-.2zM67.1 79.7c-.2 0-.4-.1-.5-.3l-7.4-16.8c-.1-.3 0-.5.3-.7.3-.1.5 0 .7.3L67.6 79c.1.3 0 .5-.3.7h-.2zM69.1 79.7c-.2 0-.4-.1-.5-.3l-7.4-16.8c-.1-.3 0-.5.3-.7.3-.1.5 0 .7.3L69.6 79c.1.3 0 .5-.3.7h-.2zM69.6 76.3c-.2 0-.4-.1-.5-.3l-5.9-13.4c-.1-.3 0-.5.3-.7.2-.1.5 0 .7.3l5.9 13.4c.1.3 0 .5-.3.7h-.2zM69.8 72.2c-.2 0-.4-.1-.5-.3l-4.1-9.3c-.1-.3 0-.5.3-.7.3-.1.5 0 .7.3l4.1 9.3c.1.3 0 .5-.3.7h-.2zM69.9 67.9c-.2 0-.4-.1-.5-.3l-2.2-4.9c-.1-.3 0-.5.3-.7.2-.1.5 0 .7.3l2.2 4.9c.1.3 0 .5-.3.7h-.2z"/></svg>