<svg width="261" height="62" viewBox="0 0 261 62" xmlns="http://www.w3.org/2000/svg"><title>doc-logo</title><g fill="none" fill-rule="evenodd"><path d="M80.15 23.775H76.07l-2.36 10.02-.33 1.373c-.23.063-.456.125-.684.167-.414.083-.85.125-1.304.125-.517 0-.93-.083-1.242-.23-.29-.145-.517-.353-.64-.645-.125-.27-.167-.604-.146-.98.02-.373.103-.79.207-1.207l1.24-5.207.81-3.457h-4.16l-1.885 7.998a14.88 14.88 0 0 0-.393 2.75c-.042.876.103 1.625.393 2.313.29.666.807 1.187 1.51 1.583.705.396 1.72.583 3.002.583.89 0 1.676-.084 2.34-.23.02 0 .06-.02.082-.02-.187.832-.56 1.5-1.14 2.02-.6.52-1.468.79-2.627.79-.497 0-.952-.02-1.366-.082l-.81 3.395c.54.062 1.14.104 1.802.104 1.242 0 2.318-.146 3.25-.417.93-.29 1.717-.708 2.4-1.29.663-.584 1.222-1.313 1.677-2.167.455-.875.806-1.896 1.076-3.104l2.814-11.915.56-2.27zm-17.077 8.56a9.5 9.5 0 0 0-.227 3.146c.103 1.063.517 2.667.91 3.48h-3.932c-.476-.813-.456-1.21-.56-1.46a7.456 7.456 0 0 1-1.696 1.043 5.14 5.14 0 0 1-2.09.416c-.91 0-1.698-.168-2.34-.48a4.427 4.427 0 0 1-1.594-1.29c-.413-.543-.703-1.168-.89-1.897a9.36 9.36 0 0 1-.268-2.333c0-1.27.227-2.458.662-3.582a9.322 9.322 0 0 1 1.863-2.937c.787-.832 2.712-2.686 5.858-2.686h6.313l-2.007 8.58zm-2.877-5.103c-1.904 0-2.256 0-3.042.396-.56.292-1.014.73-1.408 1.23a5.912 5.912 0 0 0-.952 1.75 6.35 6.35 0 0 0-.352 2.06c0 .876.145 1.584.435 2.104.29.52.828.77 1.615.77.413 0 .807-.082 1.138-.25.33-.165.703-.436 1.076-.832.04-.458.103-.937.186-1.437s.187-.98.27-1.396l1.034-4.395zm-10.928 2.562c0 1.354-.228 2.583-.662 3.708a8.536 8.536 0 0 1-1.843 2.895 8.31 8.31 0 0 1-2.814 1.896c-1.1.458-2.28.687-3.56.687-.623 0-1.244-.063-1.885-.167l-1.242 5.02h-4.077l4.74-20.037h5.443c1.034 0 1.924.166 2.648.48.745.31 1.345.748 1.842 1.29a5.235 5.235 0 0 1 1.056 1.916c.248.71.352 1.48.352 2.312zM39.27 35.48c.31.084.705.105 1.16.105.724 0 1.366-.125 1.966-.396a4.507 4.507 0 0 0 1.51-1.126c.415-.48.726-1.062.974-1.73a6.878 6.878 0 0 0 .352-2.227c0-.792-.166-1.48-.518-2.02-.352-.563-.952-.855-1.82-.855h-1.616l-2.007 8.25zm-8.568 0c-.518 0-.932-.083-1.242-.228-.29-.146-.518-.355-.642-.646-.124-.27-.166-.604-.145-.98.02-.374.104-.79.207-1.207l1.242-5.21h4.637l.847-3.456H30.95l1.076-4.374-4.346.687-2.753 11.706a14.91 14.91 0 0 0-.393 2.75 5.18 5.18 0 0 0 .393 2.312c.29.666.807 1.187 1.51 1.583.704.395 1.72.583 3.002.583.89 0 1.676-.083 2.338-.228.062-.02.165-.042.228-.063l.848-3.563c-.29.105-.58.167-.848.21-.414.082-.85.124-1.304.124zm-10.37-11.705L16.73 38.98h4.078l3.58-15.205h-4.056zm4.492-1.75l.62-2.645h-4.077l-.62 2.645h4.077zm-13.516 1.77c.87 0 1.635.167 2.276.48a4.55 4.55 0 0 1 1.594 1.27 5.68 5.68 0 0 1 .932 1.875c.206.708.31 1.48.31 2.312a9.24 9.24 0 0 1-.704 3.603c-.476 1.125-1.097 2.125-1.904 2.958a8.905 8.905 0 0 1-2.856 1.98 8.78 8.78 0 0 1-3.56.728c-.166 0-.456 0-.87-.02-.414 0-.89-.042-1.407-.125a18.114 18.114 0 0 1-1.678-.333 8.423 8.423 0 0 1-1.676-.604l4.74-20.038 4.243-.666-1.678 7.102c.373-.166.704-.29 1.076-.375a4.118 4.118 0 0 1 1.16-.144zm-3.56 11.79c.64 0 1.24-.146 1.8-.48a4.955 4.955 0 0 0 1.47-1.25c.414-.52.745-1.124.973-1.77a6.35 6.35 0 0 0 .353-2.062c0-.874-.146-1.562-.435-2.062-.29-.5-.89-.728-1.677-.728-.247 0-.516.02-.93.125-.414.084-.766.292-1.097.584l-1.78 7.562c.538.083.704.104.85.104.102-.02.267-.02.475-.02z" fill="#FFF"/><text font-family="Karla" font-size="17" letter-spacing=".603" fill="#FFF"><tspan x="122" y="37">Documentation</tspan></text><path d="M101.5 14.5v32.016" stroke="#5A6FA1" stroke-linecap="square"/></g></svg>