<?xml version="1.0" encoding="UTF-8" standalone="no"?>
<svg width="261px" height="62px" viewBox="0 0 261 62" version="1.1" xmlns="http://www.w3.org/2000/svg" xmlns:xlink="http://www.w3.org/1999/xlink" xmlns:sketch="http://www.bohemiancoding.com/sketch/ns">
    <!-- Generator: Sketch 3.4 (15575) - http://www.bohemiancoding.com/sketch -->
    <title>doc-logo</title>
    <desc>Created with Sketch.</desc>
    <defs></defs>
    <g id="Page-1" stroke="none" stroke-width="1" fill="none" fill-rule="evenodd" sketch:type="MSPage">
        <g id="doc-logo" sketch:type="MSArtboardGroup">
            <g id="logo-light-3" sketch:type="MSLayerGroup" transform="translate(1.000000, 17.000000)" fill="#FFFFFF">
                <path d="M79.1493836,6.775 L75.0716918,6.775 L72.7121258,16.794 L72.3812201,18.1685 C72.1531635,18.231 71.9256038,18.2935 71.698044,18.335 C71.2841635,18.4185 70.8494151,18.46 70.3937987,18.46 C69.8765723,18.46 69.4626918,18.377 69.1521572,18.231 C68.8624906,18.085 68.6349308,17.877 68.510717,17.5855 C68.3865031,17.3145 68.3447673,16.981 68.3656352,16.6065 C68.3865031,16.2315 68.4689811,15.815 68.5728239,15.398 L69.8144654,10.191 L70.6218553,6.7335 L66.4616855,6.7335 L64.5781069,14.7315 C64.3500503,15.69 64.2258365,16.6065 64.1845975,17.481 C64.1433585,18.356 64.2879434,19.1055 64.5781069,19.793 C64.8677736,20.4595 65.385,20.9805 66.089044,21.376 C66.7925912,21.772 67.806673,21.9595 69.0900503,21.9595 C69.9799182,21.9595 70.7664403,21.876 71.4287484,21.7305 C71.4496164,21.7305 71.4908553,21.7095 71.5117233,21.7095 C71.3254025,22.5425 70.952761,23.209 70.3734277,23.73 C69.7732264,24.2505 68.9037296,24.5215 67.744566,24.5215 C67.2482075,24.5215 66.7925912,24.5005 66.3787107,24.438 L65.5713208,27.833 C66.1094151,27.8955 66.7096164,27.9375 67.3719245,27.9375 C68.6140629,27.9375 69.6902516,27.7915 70.6218553,27.5205 C71.5529623,27.229 72.3394843,26.8125 73.0226604,26.2295 C73.6849686,25.646 74.2439308,24.917 74.6990503,24.063 C75.1546667,23.1885 75.5064403,22.1675 75.7757358,20.9595 L78.5904214,9.0455 L79.1493836,6.775 Z M62.0734591,15.3355 C61.8250314,16.377 61.7420566,17.4395 61.8458994,18.481 C61.9492453,19.543 62.3631258,21.147 62.7566352,21.9595 L58.8240252,21.9595 C58.3480377,21.147 58.3684088,20.751 58.2650629,20.5015 C57.7473396,20.918 57.1888742,21.272 56.567805,21.543 C55.9467358,21.8135 55.2635597,21.9595 54.4770377,21.9595 C53.5667987,21.9595 52.7797799,21.7925 52.1383396,21.4805 C51.4968994,21.168 50.9583082,20.7305 50.5444277,20.189 C50.1305472,19.6475 49.8408805,19.0225 49.6545597,18.2935 C49.468239,17.5645 49.385761,16.794 49.385761,15.9605 C49.385761,14.69 49.6133208,13.5025 50.0480692,12.378 C50.5031887,11.253 51.1242579,10.274 51.9107799,9.441 C52.6973019,8.608 54.6221195,6.754 57.7682075,6.754 L64.0812516,6.754 L62.0734591,15.3355 Z M59.1961698,10.2325 C57.2922201,10.2325 56.9404465,10.2325 56.1539245,10.6285 C55.5949623,10.92 55.1398428,11.3575 54.7463333,11.8575 C54.3533208,12.357 54.0219182,12.9405 53.7943585,13.607 C53.5667987,14.2735 53.4420881,14.961 53.4420881,15.669 C53.4420881,16.544 53.5871698,17.252 53.8768365,17.7725 C54.167,18.2935 54.7050943,18.5435 55.4916164,18.5435 C55.9054969,18.5435 56.2985094,18.46 56.6299119,18.2935 C56.9608176,18.127 57.3334591,17.856 57.7061006,17.4605 C57.7473396,17.002 57.8094465,16.523 57.8924214,16.023 C57.9753962,15.523 58.0787421,15.044 58.161717,14.6275 L59.1961698,10.2325 Z M48.2678365,12.7945 C48.2678365,14.1485 48.0402767,15.3775 47.6055283,16.502 C47.1707799,17.627 46.5497107,18.585 45.7631887,19.3975 C44.9766667,20.2095 44.0455597,20.8345 42.9485031,21.293 C41.8514465,21.751 40.6714151,21.98 39.3885346,21.98 C38.7674654,21.98 38.1463962,21.9175 37.504956,21.8135 L36.2628176,26.8335 L32.1856226,26.8335 L36.9251258,6.796 L42.368673,6.796 C43.4036226,6.796 44.2939874,6.9625 45.0184025,7.275 C45.7631887,7.5875 46.3633899,8.0245 46.8602453,8.5665 C47.3362327,9.108 47.6885031,9.7535 47.9160629,10.4825 C48.1644906,11.191 48.2678365,11.9615 48.2678365,12.7945 Z M38.2706101,18.481 C38.5811447,18.564 38.9746541,18.585 39.4297736,18.585 C40.1541887,18.585 40.7956289,18.46 41.396327,18.1895 C41.9756604,17.9185 42.4928868,17.5435 42.9072642,17.0645 C43.3211447,16.5855 43.6316792,16.002 43.8796101,15.3355 C44.1076667,14.669 44.2318805,13.9195 44.2318805,13.107 C44.2318805,12.3155 44.0659308,11.628 43.7141572,11.0865 C43.3623836,10.524 42.7621824,10.2325 41.8926855,10.2325 L40.2784025,10.2325 L38.2706101,18.481 Z M29.7018428,18.481 C29.1841195,18.481 28.770239,18.3975 28.4597044,18.252 C28.1700377,18.106 27.942478,17.8975 27.8182642,17.606 C27.6940503,17.3355 27.6523145,17.002 27.6731824,16.627 C27.6940503,16.252 27.7770252,15.8355 27.8803711,15.419 L29.1220126,10.2115 L33.7586667,10.2115 L34.6072956,6.754 L29.9502704,6.754 L31.0264591,2.38 L26.6799686,3.0675 L23.9268931,14.7735 C23.6993333,15.7315 23.5751195,16.648 23.5338805,17.5225 C23.4921447,18.3975 23.6372264,19.1475 23.9268931,19.835 C24.2165597,20.5015 24.734283,21.022 25.4378302,21.418 C26.1413774,21.8135 27.155956,22.001 28.4393333,22.001 C29.3292013,22.001 30.1157233,21.9175 30.7780314,21.772 C30.8401384,21.751 30.9434843,21.7305 31.0055912,21.7095 L31.8542201,18.1475 C31.5645535,18.252 31.2748868,18.3145 31.0055912,18.356 C30.5917107,18.4395 30.1569623,18.481 29.7018428,18.481 Z M19.3319748,6.775 L15.7302704,21.98 L19.8079623,21.98 L23.3887987,6.775 L19.3319748,6.775 Z M23.8235472,5.0255 L24.4441195,2.38 L20.3669245,2.38 L19.7458553,5.0255 L23.8235472,5.0255 Z M10.3075912,6.796 C11.1770881,6.796 11.9427421,6.9625 12.5841824,7.275 C13.2261195,7.5875 13.7433459,8.004 14.1780943,8.5455 C14.5919748,9.087 14.9025094,9.712 15.1096981,10.42 C15.3163899,11.1285 15.4202327,11.899 15.4202327,12.732 C15.4202327,14.0025 15.1921761,15.19 14.7161887,16.3355 C14.2402013,17.4605 13.6191321,18.46 12.812239,19.293 C12.0048491,20.1265 11.0528742,20.793 9.95581761,21.272 C8.85876101,21.751 7.67922642,22.001 6.39584906,22.001 C6.22989937,22.001 5.9402327,22.001 5.5263522,21.98 C5.1124717,21.98 4.63648428,21.9385 4.11876101,21.855 C3.58066667,21.772 3.0217044,21.668 2.44237107,21.522 C1.84216981,21.376 1.28320755,21.168 0.765981132,20.918 L5.50548428,0.8805 L9.74862893,0.214 L8.07223899,7.3165 C8.4448805,7.15 8.77578616,7.025 9.14842767,6.9415 C9.50020126,6.8375 9.89371069,6.796 10.3075912,6.796 Z M6.74762264,18.585 C7.38906289,18.585 7.98926415,18.4395 8.54822642,18.106 C9.10718868,17.7935 9.60404403,17.377 10.0179245,16.856 C10.431805,16.3355 10.7632075,15.7315 10.9907673,15.086 C11.218327,14.4195 11.3425409,13.732 11.3425409,13.0235 C11.3425409,12.149 11.1974591,11.4615 10.9077925,10.9615 C10.6181258,10.4615 10.0179245,10.2325 9.23140252,10.2325 C8.98297484,10.2325 8.71367925,10.2535 8.29979874,10.3575 C7.88591824,10.441 7.53414465,10.649 7.20274214,10.941 L5.42300629,18.502 C5.96110063,18.585 6.12655346,18.606 6.27163522,18.606 C6.37498113,18.585 6.54043396,18.585 6.74762264,18.585 L6.74762264,18.585 Z" id="Fill-1" sketch:type="MSShapeGroup"></path>
            </g>
            <text id="Documentation-Copy" sketch:type="MSTextLayer" font-family="Karla" font-size="17" font-weight="normal" letter-spacing="0.603225708" fill="#FFFFFF">
                <tspan x="122" y="37">Documentation</tspan>
            </text>
            <path d="M101.5,14.5 L101.5,46.5156212" id="Line" stroke="#5A6FA1" stroke-linecap="square" sketch:type="MSShapeGroup"></path>
        </g>
    </g>
</svg>