<svg width="114" height="113" viewBox="0 0 114 113" xmlns="http://www.w3.org/2000/svg"><title>Imported Layers</title><defs><linearGradient x1="50%" y1="2.974%" x2="50%" y2="100%" id="a"><stop stop-color="#517AE3" offset="0%"/><stop stop-color="#1C2D89" offset="100%"/></linearGradient></defs><path d="M66.217 67.615l-.078.29-24.257 3.527a4.905 4.905 0 0 1 .384 2.432l23.186-3.37-.062.232 2.38.632.332-1.25 36.03-5.235a4.896 4.896 0 0 1-.367-2.435L66.9 67.796l-.683-.18zm-9.39 35.387l-.37 1.388c.863.01 1.676.222 2.39.593l.358-1.35-2.38-.63zm-46.59-54.988l-1.604.25c.277.62.434 1.3.434 2.015 0 .14-.01.276-.022.413l1.574-.247-.382-2.432zm94.094 17.273l-44.824 40.11a5.108 5.108 0 0 1 1.588 1.882l44.894-40.172a5.138 5.138 0 0 1-1.657-1.82zM8.405 47.817l45.55-39.826-9.704 34.705-1.533.24.38 2.432.424-.067-6.443 23.043h.016c.86 0 1.668.206 2.383.566l6.72-24.028.032-.005-.01-.073L56.362 8.52a5.236 5.236 0 0 1-4.245-2.194L6.693 46.044a5.145 5.145 0 0 1 1.71 1.774zm48.68-39.343l1.566 2.896 1.513-.817 1.5 1.672-1.974 1.067 1.66 3.073 2.166-1.17-1.226-2.27 38.306 42.735-.85-.6-1.42 2.01 2.587 1.828 1.14-1.613 1.356 1.512-.88 1.244 1.56 1.102a5.126 5.126 0 0 1 2.37-2.63L60.2 6.908a5.232 5.232 0 0 1-3.115 1.566zm-2.255 96.152L40.394 77.293c-.636.51-1.4.874-2.233 1.044l12.15 23.012L11.357 57.09l20.878 14.525a5.066 5.066 0 0 1 1.426-2.007L8.666 52.222a5.144 5.144 0 0 1-2.574 2.617l45.825 52.058a5.192 5.192 0 0 1 2.912-2.272zM12.193 47.708l.38 2.432 3.13-.49-.38-2.432-3.13.49zm35.61-5.57l.38 2.433 3.13-.488-.38-2.433-3.13.49zm15.262-2.386l.38 2.432 3.13-.49-.38-2.432-3.13.49zm6.176-.966l-1.09.17.38 2.433 1.41-.222a4.108 4.108 0 0 1-.705-2.298c0-.028.004-.056.005-.084zm-51.96 8.126l.38 2.433 3.13-.49-.38-2.432-3.13.49zm35.61-5.57l.38 2.433 3.13-.49-.38-2.43-3.13.488zm5.087-.794l.38 2.432 3.13-.49-.38-2.432-3.13.49zm-16.84 5.125l-.38-2.433-3.13.49.38 2.433 3.13-.49zm-5.466-1.637l-3.13.49.38 2.432 3.13-.49-.38-2.432zm-13.306 2.08l.38 2.433 3.132-.49-.38-2.433-3.132.49zm5.088-.795l.38 2.433 3.13-.49-.38-2.432-3.13.49zm46.59-10.643L72.655 32.1l-2.166 1.17 1.023 1.89a4.413 4.413 0 0 1 2.537-.483zm-7.296-8.322l2.166-1.17-1.662-3.075-2.166 1.17 1.662 3.075zm2.7 4.994l2.166-1.172-1.662-3.074-2.165 1.172 1.66 3.073zm-3.234-11.16l-1.66-3.075-2.167 1.17 1.66 3.075 2.166-1.17zM77.3 42.22l2.587 1.826 1.42-2.01-2.587-1.83-1.42 2.013zm8.41 5.94l2.587 1.827 1.42-2.01-2.586-1.83-1.42 2.012zm-4.205-2.97l2.588 1.827 1.42-2.01-2.588-1.83-1.42 2.012zm8.41 5.94l2.587 1.827 1.42-2.01-2.586-1.83-1.42 2.013zm4.205 2.97l2.588 1.828 1.42-2.01-2.587-1.83-1.42 2.012zM64.05 75.78l2.38.633.825-3.11-2.38-.633-.826 3.11zM57.34 101.06l2.38.632.825-3.11-2.38-.633-.825 3.11zm2.683-10.11l2.38.63.825-3.11-2.38-.632-.825 3.11zm2.683-10.11l2.38.63.825-3.11-2.38-.632-.825 3.11zm-4.025 15.165l2.38.63.825-3.11-2.38-.63-.825 3.11zm2.683-10.11l2.38.63.826-3.11-2.38-.632-.826 3.112zm5.367-20.222l2.38.632.825-3.11-2.38-.632-.825 3.11zm4.025-15.165l2.38.632.825-3.11-2.38-.633-.825 3.11zm1.99-7.495l-.65 2.44 2.38.63.826-3.11-.364-.097a4.426 4.426 0 0 1-2.193.137zm-3.332 12.55l2.38.632.825-3.11-2.38-.633-.824 3.11zm-1.34 5.055l2.378.632.826-3.11-2.38-.632-.825 3.11zm40.86-1.073c-1.96 0-3.557 1.53-3.557 3.41 0 1.88 1.595 3.41 3.556 3.41 1.96 0 3.557-1.53 3.557-3.41 0-1.88-1.596-3.41-3.557-3.41zM56.402 6.882c1.96 0 3.557-1.53 3.557-3.41 0-1.88-1.597-3.41-3.558-3.41-1.96 0-3.556 1.53-3.556 3.41 0 1.88 1.595 3.41 3.556 3.41zM7.425 50.28c0-1.88-1.595-3.41-3.557-3.41-1.96 0-3.556 1.53-3.556 3.41 0 1.88 1.596 3.41 3.556 3.41 1.962 0 3.557-1.53 3.557-3.41zm48.977 55.75c-1.96 0-3.556 1.53-3.556 3.41 0 1.88 1.595 3.41 3.556 3.41 1.96 0 3.557-1.53 3.557-3.41 0-1.88-1.597-3.41-3.558-3.41zM40.65 73.393c0-1.88-1.596-3.41-3.557-3.41-1.96 0-3.556 1.53-3.556 3.41 0 1.88 1.595 3.41 3.556 3.41 1.96 0 3.557-1.53 3.557-3.41zM76.548 38.87c0-1.57-1.332-2.848-2.97-2.848-1.638 0-2.97 1.278-2.97 2.848 0 1.57 1.332 2.848 2.97 2.848 1.638 0 2.97-1.277 2.97-2.848z" transform="translate(.57 .06)" fill="url(#a)" fill-rule="evenodd"/></svg>