<svg width="227" height="99" viewBox="0 0 227 99" xmlns="http://www.w3.org/2000/svg"><title>copay-black-and-white</title><g fill="#2C3E50" fill-rule="evenodd"><path d="M222.636 11.335c-1.606.182-3.304.547-5.122 1.124-.576.18-1.09.545-1.576 1.03-.485.518-.88.912-1.182 1.246-.303.334-.606.91-.94 1.762-.333.85-.575 1.488-.727 1.974-.152.455-.395 1.336-.728 2.61-.364 1.277-.606 2.25-.82 2.917-1.423 4.827-3.696 9.716-6.787 14.727-3.092 5.01-5.79 7.623-8.092 7.866-1.213.12-1.94-.88-2.182-3.068-.454-4.1.394-9.262 2.455-15.518 2.092-6.256 4.304-10.66 6.698-13.24.334-.425.515-.76.485-1.033-.03-.243-.182-.364-.424-.334-3.395.365-6.03 1.063-7.91 2.126-1.88 1.032-3.546 3.098-5.092 6.195-1.182 2.4-2.182 5.376-3.06 8.99-4.304 10.356-8.214 15.73-11.73 16.095-1.15.122-1.818-.638-2-2.308-.333-3.19.636-8.473 2.97-15.822 2.334-7.35 4.455-11.995 6.395-13.94l-.97.093-4.82.425c-1.272.152-2.605.82-3.97 2.065-1.363 1.245-2.302 2.642-2.848 4.19-.79-1.973-2.153-3.34-4.032-4.07-1.91-.728-3.88-1-5.91-.758-4.364.486-8.182 2.52-11.516 6.165-3.304 3.613-5.698 7.865-7.153 12.663-.03.09-.06.182-.092.274-.212.485-.485 1.032-.727 1.61-1.636 3.582-2.91 6.133-3.848 7.652a40.965 40.965 0 0 1-6.304 7.774c-2.485 2.4-5.06 3.766-7.698 4.04l-.758.09c3.88-3.28 7.062-7.622 9.577-13.09 2.515-5.465 3.515-10.597 3-15.486-.637-5.892-3.09-8.594-7.395-8.14-4.546.487-9.395 5.042-14.487 13.606 2.516-6.742 4.637-10.872 6.365-12.33l-2.88.304c-3.788.395-6.364 1.458-7.728 3.158-.667.912-1.636 3.432-2.818 7.592-.425 1.49-1 3.675-1.758 6.53-2.274 5.223-4.972 7.986-8.093 8.32-1.788.183-3.243-.334-4.364-1.58.97-3.552 1.303-6.83.97-9.93-.88-8.077-5.122-11.69-12.76-10.87-4.546.485-8.516 2.46-11.88 5.95-2.03 2.097-3.698 4.374-4.97 6.834 0-.03.03-.06.03-.09-3.092 5.8-8.426 15.882-15.124 21.652-6.698 5.77-13.305 9.02-19.79 9.717C18.123 70.22 12.304 65.087 11.09 53.7c-.788-7.35.334-14.82 3.395-22.352 3.06-7.562 7.455-13.91 13.183-19.04 5.728-5.133 11.88-8.08 18.427-8.808 4.94-.546 7.607 1.063 8 4.768.274 2.43-.575 4.616-2.514 6.59-1.94 1.943-4.152 3.067-6.638 3.34-.91.09-1.727.06-2.454-.12-.666 1.183-.94 2.246-.818 3.188.09.97.637 1.7 1.607 2.216.968.517 2.15.7 3.575.547 3-.335 5.82-1.55 8.425-3.645 2.607-2.096 4.273-4.495 5-7.258.364-1.458.486-2.764.364-3.918-.333-3.128-2.182-5.558-5.546-7.228-3.364-1.67-8-2.187-13.88-1.55-5.91.64-11.7 2.886-17.427 6.743S13.457 15.647 9.97 21.053A64.112 64.112 0 0 0 2.09 38.21C.334 44.255-.24 49.934.334 55.248c1.516 14.03 9.79 20.226 24.882 18.586 6.486-.7 12.7-2.642 18.64-5.86 5.94-3.19 10.758-7.168 14.395-11.845.576-.76 1.09-1.488 1.606-2.186.03.546.06 1.063.122 1.61.424 4.008 1.758 6.862 4 8.593 2.243 1.73 4.94 2.43 8.153 2.065 5.002-.546 8.94-2.308 11.85-5.253 2.91-2.946 5.244-6.864 7.062-11.63 1.667 1.062 3.577 1.456 5.728 1.213 1.85-.212 3.728-1.154 5.668-2.885-.94 3.857-2 8.32-3.213 13.453-3.515 14.91-5.97 23.688-7.395 26.3l4.607-.487c1.273-.15 2.334-.424 3.122-.82.787-.424 1.484-1.213 2.03-2.398.545-1.184 1.272-3.735 2.15-7.652l3.577-17.37c1.122 3.066 4.728 4.25 10.91 3.582 6.153-.668 11.275-3.188 15.336-7.592 2.516-2.702 4.82-6.012 6.97-9.87-.06 1.55 0 3.098.152 4.647.637 5.892 3.092 8.594 7.395 8.14 6.213-.67 12.305-7.867 18.215-21.593a35.278 35.278 0 0 0-.758 11.935c.576 5.313 2.576 7.773 6.062 7.41 4.454-.487 9.303-5.71 14.546-15.64-.273 2.368-.333 4.342-.182 5.89.243 2.673.97 4.616 2.152 5.892 1.182 1.275 2.606 1.792 4.304 1.61 1.697-.183 3.152-.547 4.364-1.064 1.212-.516 2.818-1.852 4.82-3.978 2-2.126 4.302-5.253 6.94-9.353l-3.91 15.184c-2.516 9.658-6.395 14.79-11.578 15.337-1.333.152-2.485-.09-3.425-.76-.938-.637-1.484-1.58-1.605-2.793-.242-2.308.182-3.705 1.303-4.22-.394-.61-1-1.125-1.818-1.55-.818-.425-1.788-.577-2.91-.456-1.12.122-2.06.79-2.788 2.005-.758 1.214-1.03 2.52-.88 3.947.304 2.703 1.638 4.525 4.062 5.527 2.425 1.003 5.213 1.337 8.426.972 3.212-.335 6.304-1.49 9.274-3.372 2.97-1.913 5.364-4.282 7.213-7.136 1.85-2.855 3.303-6.62 4.425-11.267.424-1.55.94-3.705 1.576-6.53.636-2.823 1.06-4.584 1.212-5.313.182-.73.667-2.794 1.485-6.226.788-3.43 1.818-7.227 3.06-11.45 1.547-5.01 3.244-8.26 5.093-9.686l-4.122.425zM87.618 33.9c-1.607.18-2.82.82-3.637 1.942-.817 1.124-1.15 2.55-.94 4.282.304 2.824 1.638 5.04 4.032 6.65a44.618 44.618 0 0 1-4.88 10.296c-2.03 3.158-4.424 4.89-7.182 5.192-3.364.183-5.243-1.67-5.667-5.496-.425-3.827.272-8.26 2.09-13.24 3.304-9.05 7.184-13.788 11.608-14.274 2.82-.303 4.547 1.215 5.154 4.586l-.576.06zm24.488 24.75c-1.85.21-2.94-1.216-3.273-4.222-.334-3.007.727-7.046 3.182-12.087 2.455-5.04 4.88-8.745 7.274-11.083 1.453-1.458 2.878-2.248 4.21-2.4.395-.03.668-.03.88 0 1 .152 1.576 1.033 1.758 2.643.394 3.705-1 9.08-4.213 16.095-3.212 7.015-6.485 10.69-9.82 11.054zm51.037-21.35c-1.485 3.006-3.243 5.68-5.273 7.987-2.03 2.308-3.88 3.583-5.547 3.765-1.545.152-2.424-.728-2.636-2.733-.485-4.617.94-10.053 4.273-16.34 3.334-6.285 7.122-9.656 11.365-10.11 2.364-.244 4 .606 4.85 2.58-1.395 3.19-3.73 8.14-7.032 14.85z"/><path d="M91.285 71.464C69.435 75.2 48.46 80.484 33.67 86.557c-6.18 2.52-7.727 7.592-5.787 12.36 25.124-11.48 37.58-14.73 55.946-19.284a9.836 9.836 0 0 0 6.91-6.438 60.11 60.11 0 0 1 .545-1.73zM173.053 68.974c.637-2.733-.09-2.855-2.88-3.25-15.243-2.216-32.003-2.065-52.188 2.278-3.394.73-6.182 3.098-6.728 6.56 0 0 25.337-8.352 61.796-5.588z"/></g></svg>