<svg xmlns="http://www.w3.org/2000/svg" viewBox="0 0 130 100"><path fill="#FFF" d="M46.5 72.2h-7.3L41 53h3.7z"/><path fill="#3354A8" d="M47.1 72.7h-8.4l1.9-20.2h4.7l1.8 20.2zm-7.3-1H46l-1.7-18.2h-2.8l-1.7 18.2z"/><path fill="#FFF" d="M23.9 72.2h38.3V75H23.9z"/><path fill="#3354A8" d="M62.7 75.5H23.4v-3.8h39.3v3.8zm-38.3-1h37.3v-1.8H24.4v1.8z"/><path fill="#FFF" d="M83 58.2H3.2C2 58.2 1 57.2 1 56V5.2C1 4 2 3 3.2 3H83c1.2 0 2.2 1 2.2 2.2V56c0 1.2-1 2.2-2.2 2.2z"/><path fill="#3354A8" d="M83 59.2H3.2C1.4 59.2 0 57.8 0 56V5.2C0 3.4 1.4 2 3.2 2H83c1.7 0 3.2 1.4 3.2 3.2V56c0 1.8-1.5 3.2-3.2 3.2zM3.2 4C2.5 4 2 4.5 2 5.2V56c0 .6.5 1.2 1.2 1.2H83c.6 0 1.2-.5 1.2-1.2V5.2c0-.7-.6-1.2-1.2-1.2H3.2z"/><path fill="#FFF" d="M4.4 9.1h76.5v45.6H4.4z"/><path fill="#3354A8" d="M81.4 55.2H3.9V8.6h77.5v46.6zm-76.5-1h75.5V9.6H4.9v44.6z"/><path fill="#FFF" d="M117.7 94.2H61.1c-1.1 0-1.9-.9-1.9-1.9V55.1c0-1.1.9-1.9 1.9-1.9h56.7c1.1 0 1.9.9 1.9 1.9v37.1c0 1.1-.9 2-2 2z"/><path fill="#3354A8" d="M117.7 95.2H61.1c-1.6 0-2.9-1.3-2.9-2.9V55.1c0-1.6 1.3-2.9 2.9-2.9h56.7c1.6 0 2.9 1.3 2.9 2.9v37.1c0 1.7-1.3 3-3 3zm-56.6-41c-.5 0-.9.4-.9.9v37.1c0 .5.4.9.9.9h56.7c.5 0 .9-.4.9-.9V55.1c0-.5-.4-.9-.9-.9H61.1z"/><path fill="#FFF" d="M128 98H50.8c-.6 0-1-.4-1-1v-3.7H129V97c0 .5-.5 1-1 1z"/><path fill="#3354A8" d="M128 99H50.8c-1.1 0-2-.9-2-2v-4.7H130V97c0 1.1-.9 2-2 2zm-77.2-4.7V97H128v-2.6H50.8z"/><path fill="#FFF" d="M62.4 57.9h54v31.8h-54z"/><path fill="#3354A8" d="M116.9 90.2h-55V57.4h55v32.8zm-54-1h53V58.4h-53v30.8z"/><circle fill="#3354A8" cx="41.2" cy="6.3" r="1.1"/><circle fill="#3354A8" cx="89.4" cy="55.8" r=".7"/><path fill="#3354A8" d="M44.7 31.7c.3-.4.6-.8.6-1.4 0-1.6-1.1-2.6-2.8-2.6v-2.1h-1.1v2.1h-1.1v-2.1h-1v2.1h-2.5V29h.1c.6 0 1.1.4 1.1.9V34c0 .5.1 1-.7 1h-.6v1.1h2.5l-.2 2h1.1V36h1.1v2.1h1.1V36h.7c1.8 0 2.8-.9 2.8-2.6 0-.7-.4-1.4-1.1-1.7zm-4.4-2.3h1.5c.6 0 1.1.5 1.1 1s-.5 1-1.1 1h-1.5v-2zm2.1 5h-2.1v-2.1h2.1c.6 0 1.1.5 1.1 1s-.5 1.1-1.1 1.1z"/><path fill="#3354A8" d="M40.8 44.9c-7.4 0-13.5-6.1-13.5-13.5s6.1-13.5 13.5-13.5S54.3 24 54.3 31.4s-6 13.5-13.5 13.5zm0-26c-6.9 0-12.5 5.6-12.5 12.5s5.6 12.5 12.5 12.5 12.5-5.6 12.5-12.5-5.6-12.5-12.5-12.5z"/><path fill="#FFF" d="M74.3 63.9H113v23.5H74.3z"/><path fill="#3354A8" d="M113.4 88H73.8V63.4h39.7V88zm-38.6-1h37.7V64.4H74.8V87z"/><path fill="#FFF" d="M65.6 61h38.7v23.5H65.6z"/><path fill="#3354A8" d="M104.8 85H65.1V60.5h39.7V85zm-38.7-1h37.7V61.5H66.1V84z"/><path fill="#3354A8" d="M65.6 64.7h38.7v1H65.6zM104.3 67.1h8.6v1h-8.6z"/><path fill="#FFF" d="M69.5 69.2l2.4 2.8"/><path fill="#3354A8" d="M71.9 73c-.3 0-.6-.1-.8-.3l-2.4-2.8c-.4-.4-.3-1 .1-1.4.4-.4 1-.3 1.4.1l2.4 2.8c.4.4.3 1-.1 1.4-.1.1-.3.2-.6.2z"/><path fill="#FFF" d="M69.5 74.8l2.4-2.8"/><path fill="#3354A8" d="M69.5 75.8c-.2 0-.5-.1-.7-.2-.4-.4-.5-1-.1-1.4l2.4-2.8c.4-.4 1-.5 1.4-.1.4.4.5 1 .1 1.4l-2.4 2.8c-.1.2-.4.3-.7.3zM80.3 77.1h-6.8c-.3 0-.5-.2-.5-.5s.2-.5.5-.5h6.8c.3 0 .5.2.5.5s-.3.5-.5.5z"/><path fill="#FFF" d="M21.5 68.9c5.4 4 7.7 12.3 3.8 17.4s-12.4 5.3-17.8 1.3C-.8 81.4.9 76.2 4.8 71s8.5-8.1 16.7-2.1z"/><path fill="#3354A8" d="M16.2 91.5c-3.3 0-6.7-1.1-9.3-3C2.8 85.4.7 82.3.6 79c-.2-3.3 1.7-6.3 3.4-8.5 2-2.7 5-5.9 9.3-5.9 2.7 0 5.5 1.2 8.8 3.6 5.5 4.1 8.4 13 4 18.8-2.1 2.8-5.7 4.5-9.9 4.5zm-2.9-24.9c-2.7 0-5.1 1.6-7.7 5.1-2.2 2.9-3.1 5.1-3 7.3.1 2.7 1.9 5.2 5.5 7.9 2.2 1.7 5.2 2.6 8.1 2.6 3.5 0 6.5-1.3 8.3-3.7 3.7-4.9 1.1-12.5-3.6-16-2.9-2.2-5.4-3.2-7.6-3.2z"/><path fill="#3354A8" d="M35.3 97.3c-.3 0-.7-.1-.9-.3l-10.5-9.2.7-.8L35 96.2c.1.1.2.1.3.1.2 0 .4-.1.5-.3l1.6-2.2c.1-.2.2-.4.2-.6 0-.1-.1-.2-.2-.3l-11.8-7.4.5-.8L38 92c.3.2.6.5.6.9.1.5 0 1-.3 1.4l-1.6 2.2c-.3.4-.8.7-1.2.7-.1.1-.2.1-.2.1z"/><circle fill="#FFF" cx="13.5" cy="91.9" r="4.3"/><path fill="#3354A8" d="M13.5 96.6c-2.6 0-4.8-2.1-4.8-4.8s2.1-4.8 4.8-4.8 4.8 2.1 4.8 4.8-2.2 4.8-4.8 4.8zm0-8.5c-2.1 0-3.8 1.7-3.8 3.8s1.7 3.8 3.8 3.8 3.8-1.7 3.8-3.8-1.8-3.8-3.8-3.8z"/><g><circle fill="#FFF" cx="19.9" cy="94.2" r="4.3"/><path fill="#3354A8" d="M19.9 99c-2.6 0-4.8-2.1-4.8-4.8s2.1-4.8 4.8-4.8 4.8 2.1 4.8 4.8-2.2 4.8-4.8 4.8zm0-8.6c-2.1 0-3.8 1.7-3.8 3.8s1.7 3.8 3.8 3.8 3.8-1.7 3.8-3.8-1.7-3.8-3.8-3.8z"/></g><g><circle fill="#FFF" cx="7.1" cy="94.2" r="4.3"/><path fill="#3354A8" d="M7.1 99c-2.6 0-4.8-2.1-4.8-4.8s2.1-4.8 4.8-4.8 4.8 2.1 4.8 4.8S9.7 99 7.1 99zm0-8.6c-2.1 0-3.8 1.7-3.8 3.8S5 98 7.1 98c2.1 0 3.8-1.7 3.8-3.8s-1.8-3.8-3.8-3.8z"/></g><path fill="#3354A8" d="M27.2 88.1c-.3 0-.5-.2-.5-.5v-1.8c0-.3.2-.5.5-.5s.5.2.5.5v1.8c0 .3-.2.5-.5.5zM28.8 89.5c-.3 0-.5-.2-.5-.5v-1.8c0-.3.2-.5.5-.5s.5.2.5.5V89c0 .2-.2.5-.5.5zM30.4 90.3c-.3 0-.5-.2-.5-.5V88c0-.3.2-.5.5-.5s.5.2.5.5v1.8c0 .3-.3.5-.5.5zM31.9 91.3c-.3 0-.5-.2-.5-.5V89c0-.3.2-.5.5-.5s.5.2.5.5v1.8c0 .3-.2.5-.5.5zM33.5 92.3c-.3 0-.5-.2-.5-.5V90c0-.3.2-.5.5-.5s.5.3.5.5v1.8c0 .3-.2.5-.5.5zM35.1 93.2c-.3 0-.5-.2-.5-.5v-1.8c0-.3.2-.5.5-.5s.5.2.5.5v1.8c0 .3-.2.5-.5.5zM36.7 94.3c-.3 0-.5-.2-.5-.5V92c0-.3.2-.5.5-.5s.5.2.5.5v1.8c0 .3-.3.5-.5.5zM43.5 62.7c-.1 0-.3 0-.4-.1l-2.7-2.7c-.2-.2-.2-.5 0-.7s.5-.2.7 0l2.7 2.7c.2.2.2.5 0 .7 0 0-.1.1-.3.1zM42.5 64c-.1 0-.3 0-.4-.1L40 61.7c-.2-.2-.2-.5 0-.7s.5-.2.7 0l2.2 2.2c.2.2.2.5 0 .7-.1.1-.2.1-.4.1zM41.5 65.3c-.1 0-.3 0-.4-.1l-1.3-1.3c-.2-.2-.2-.5 0-.7s.5-.2.7 0l1.3 1.3c.2.2.2.5 0 .7-.1 0-.2.1-.3.1zM40.4 66.6c-.1 0-.3 0-.4-.1l-.4-.4c-.2-.2-.2-.5 0-.7s.5-.2.7 0l.4.4c.2.2.2.5 0 .7-.1 0-.2.1-.3.1zM44.5 61.3c-.1 0-.3 0-.4-.1l-2.9-2.9c-.2-.2-.2-.5 0-.7s.5-.2.7 0l2.9 2.9c.2.2.2.5 0 .7 0 .1-.1.1-.3.1z"/></svg>