<svg xmlns="http://www.w3.org/2000/svg" viewBox="92 39 284 324"><title>diagram</title><ellipse fill="none" stroke="#DCDCDC" stroke-width="2" stroke-linecap="round" stroke-dasharray="1,4" cx="235.1" cy="202.7" rx="107.2" ry="107.2"/><path fill="none" stroke="#5A7CD9" stroke-width="2" stroke-linecap="round" stroke-dasharray="1,4" d="M234 254.4v108.1"/><path fill="none" stroke="#6484DC" stroke-width="2" stroke-linecap="round" stroke-dasharray="1,4" d="M93 282.3l282-162.6M92.5 120.2l283 161.6"/><ellipse fill="#FFF" stroke="#496FD6" stroke-width="1.5" cx="235.1" cy="202.7" rx="50.2" ry="50.6"/><path fill="none" stroke="#496FD6" stroke-width="2" stroke-linecap="round" stroke-dasharray="1,4" d="M234 39.4v114"/><path fill="#496FD6" d="M251.1 203.1c1.4-1.5 2.3-3.5 2.3-5.7 0-6.9-4.5-11.1-12.1-11.1V178v-.6h-4.8v8.9h-4.8V178v-.6H227v8.8h-10.9v4.5h1.2c2.7 0 4.8 2 4.8 4.4v17.8c0 2.3 0 4.3-3.2 4.3H216v4.5h11v8.9h4.8v-8.9h4.8v8.9h4.8v-8.9h2.4c7.5 0 12.1-4.2 12.1-11.1 0-3.1-1.9-5.9-4.8-7.5zm-19.3-10.2h7.2c2.7 0 4.8 2 4.8 4.4s-2.2 4.4-4.8 4.4h-7.2v-8.8zm9.6 22.2h-9.6v-8.9h9.6c2.7 0 4.8 2 4.8 4.4s-2.1 4.5-4.8 4.5z"/></svg>