<svg xmlns="http://www.w3.org/2000/svg" viewBox="0 0 100 100"><path fill="#FFF" d="M61.9 47.8c4.2 1.5 7.3 3.3 9.4 5.5 2.1 2.2 3.1 5.1 3.1 8.8 0 4-1.6 7.4-4.9 10.3-3.6 3.1-8.6 4.8-15 5.3v7.4h-7.1v-7.6c-5.8-.6-10.6-2.3-14.2-5.2-3.9-3.1-5.8-7.4-5.8-12.8h9.8c0 2.7.9 4.7 2.6 6.1 1.7 1.4 4.3 2.3 7.6 2.7V52.1l-4.2-1.4c-4.7-1.6-8.3-3.5-10.9-5.7-2.6-2.2-3.9-5.3-3.9-9.3 0-4 1.6-7.3 4.8-10 3.2-2.7 7.9-4.2 14.2-4.7v-6.4h7.1v6.5c5.4.6 9.6 2.2 12.4 5 2.9 2.8 4.7 6.4 5.5 10.9h-9.8c-.3-1.7-1.1-3.2-2.5-4.5-1.4-1.3-3.2-2.2-5.6-2.7v15.3l7.4 2.7zM41.4 31.9c-1.4 1.2-2.1 2.5-2.1 4.1 0 1.6.4 2.8 1.3 3.7.9.9 2.3 1.7 4.3 2.4l2.5 1V29.7c-2.6.3-4.7 1.1-6 2.2zm19.7 34.4c1.4-1.2 2.1-2.7 2.1-4.4 0-3.2-2-5.5-6-7.1l-2.7-1v14.7c3-.2 5.2-1 6.6-2.2z"/></svg>