<svg width="1274" height="706" viewBox="0 0 1274 706" xmlns="http://www.w3.org/2000/svg"><title>Fill 1</title><path d="M721.68 323.71v24.31l6.555 6.56v12.07l5.206 5.213v7.33L751.23 397v5.766h4.71l5.753-5.766h18.732v11.94l-11.62 11.63v10.78l-32.42 32.454v26.616l5.035 5.038v24.75l-5.363 5.366h-8.637l-10.724 10.735 6.28 6.286v16.762h-10.18v6.04l4.162 4.17-28.517 28.54h-9.417l-4.71 4.714h-13.6v-7.332l4.174-4.182-6.29-6.296v-13.065l-6.26-6.265v-22.04l-16.22-16.237V510.12l4.71-4.714v-36.133l-17.003-17.02 8.632-8.643v-11.914h-20.928v-10.28h-11.183l-10.27 10.28h-27.862l-12.162-12.18v-9.684l-21.19-21.21 8.897-8.905v-20.423l-4.19-4.19v-10.998l17.252-17.268h7.862v-20.964l13.08-13.092h16.224l8.37-8.38h36.1l4.973 4.976-5.493 5.497v7.71h12.553l9.073 9.08h6.1l4.697 4.7v-13.78h6.293l8.97 8.977h21.9l3.886-3.89h7.97l8.3 16.038zm217.91 101.573h6.802l15.437 15.448v9.165l11.116 11.13v6.152l-5.17 5.17-12.26-12.273v-9.13l-16.073-16.085.147-9.577zm42.732 12.74v9.43l4.535 4.54v8.725l6.448 6.46h9.597l11.816-11.83V443.61l2.816-2.813-5.914-5.917v-8.03h5.914l3.318-3.326-9.408-9.414-21.098 23.39-8.024.524zm-4.88 34.325l-4.835 4.837 4.656 4.66h20.407l4.312 4.314h26.732l4.862-4.865h-25.79l-5.88-5.882h-19.584l-4.88-3.065zm85.804-23.532v6.317h7.676v3.84l-5.552 5.556h10.086l11.348 11.36-5.42 5.427h12.906v4.842h10.118v-6.902h8.373l9.574 9.583h11.7l-13.525-13.533v-4.814h-6.706l-14.566-14.574h-8.105l-5.277-5.282-6.933 6.94v-8.762h-15.697zM561.443 186.624l-4.228 4.28h-3.17v6.683l3.964 4.012h-3.965v5.478h7.398l7.064-7.15v-13.304h-7.064zm11.224-14.44l-3.895 3.946 4.293 4.343v9.494h4.887l3.5 3.542-3.765 3.81h-3.434v8.824h5.945l-9.578 9.693h2.708l3.732-3.776h17.4v-4.446l3.238-3.274v-3.545h-4.556v-6.148l-11.888-12.035-1.454-1.47 3.698-3.744v-5.214h-5.15v-2.27l4.954-5.016v-2.74h-4.556l-3.37 3.41h-2.444l-.265 6.616zM321.14 410.62v22.517l-17.79 17.807v20.422l26.685 26.714v17.276l10.986 11v71.748l-5.493 5.5v31.16L330 640.297v7.56h4.22v-8.046h2.618v14.85l-7.065 7.072v32.207l11.38 11.394h19.753L349.46 693.88v-8.838l13.31-13.323v-5.01h-7.623v-6.806l6.692-6.695V639.81h11.098v-13.948h14.13l8.11-8.12-13.343-13.357h18.31l7.326-7.33v-10.474l12.297-12.31V563.54l15.828-15.842h10.595l10.4-10.41v-28.215l17.037-17.053v-18.035h-13.31l-9.417-9.424h-15.7v-11.523h-12.03l-7.85-7.857v-15.71l-5.755-5.763h-21.078l-18.236-18.253h-15.624l-5.53-5.537h-5.46v9.13h-4.707v-12.05l-4.446 4.456h-6.02l-7.325 9.167zm-74.297-82.75v31.424l10.986 10.995h13.082l10.464-10.474h6.278v18.855h11.51v23.568l6.543 6.546h15.432v6.02h-20.93l-6.016-6.02h-6.54v-8.12l-4.972-4.97h-9.156l-14.258-14.274h-21.845l-17.568-17.586v-9.778l-15.545-15.56v-6.96l-15.885-15.898h-3.323l8.985 9v7.422l12.512 12.524h-5.802l-9.92-9.93h-5.776V323.71l-7.694-7.7v-13.424h-6.433l-11.7-11.71v-8.57l-6.447-6.45v-46.964h4.02l3.66 3.66v-6.807l-11.772-11.78h-9.156v-6.024l-17.79-17.803h-5.23v-18.332h-7.85l-9.678-9.688H76.268l-5.098-5.105h-5.366v4.32h4.71v3.14H60.05l-7.064 7.07-2.354-2.354v-5.763l5.756-5.76v-4.19l-4.972 4.975-6.538 6.546v6.286l-15.696 15.71h-7.33l-9.677 9.688H5.113l13.47-13.484h7.46l10.135-10.147H22.902l-4.61 4.616v-12.67H8.25v-8.377H.926v-3.145l7.324-7.33h9.42v-8.903H.926v-7.857l4.708-4.715h3.662l7.064 7.07v-7.07L2.63 110.923v-5.105h6.67l11.25-11.26h21.714l5.885 5.892h41.726l14.454 14.467h7v-7.528l6.54-6.547h16.48l4.056 4.06h5.364l-5.558-5.567h6.08l8.992 9.003h32.866v10.05h12.034v-4.718l9.94 9.953v-14.142h9.942l5.495 5.497h22.235l10.857-10.865-4.314-4.32 8.37-8.38 8.11 8.117-4.446 4.455 8.63 8.637 5.234-5.235 3.14 3.143-3.926 3.927 6.802 6.806v8.12l-25.77 25.793v15.057h6.674v6.805h10.46l15.176 15.188h13.08v9.425l8.894 8.905 6.02-6.023-6.28-6.284v-6.023l9.547-9.557-9.546-9.558 7.326-7.333-5.497-5.498v-10.998h19.885l7.063 7.07h6.54v9.165l7.85 7.855 12.033-12.043v7.856l8.11 8.117v9.687h15.434v8.38l4.45 4.45v8.64h-9.158l-5.232 5.24h-23.544l-15.437 15.45v4.972l14.78-14.792h10.072v10.605l4.448 4.45v6.546h-13.864v5.763h-8.897l-5.036 5.04v7.53l-11.607 11.62-3.14 3.14v8.806h-3.24v-7.857l-3.922 3.93v4.452l3.53 3.532v6.415L308.65 310.13v8.315l3.597 8.38v10.472h-6.278l-7.065-7.07v-6.517l-6.684-6.692h-16.6l5.174 5.182h-10.407l-5.798-5.808h-8.85l-8.894 11.478zm205.625-196.914v8.902l-5.754 5.763v18.328h-9.942l-7.586-7.59h-6.016l-12.132-12.143 7.98-7.987-6.624-6.63h-6.49v-14.352l10.985-11-13.605-13.616v3.142h-5.233V74.394l-14.647-14.662h-19.883l-6.018 6.023-20.49-20.51 5.493-5.5h20.49l4.926-4.93-4.4-4.413h-8.376l11.513-11.52h10.464l5.235-5.24h25.635l7.59 7.595V10.504H428.4l3.137-3.144h17.266l6.637-6.64h33.65v6.64h18.836l9.155 9.165h-25.898l-1.963 1.963H509.5v9.82l10.725-10.738h14.913l5.887-5.888h9.285l7 7.002-4.384 4.387h-9.418l-17.264 17.282v9.953h5.754v6.808H520.49V70.73l-8.372 8.377-4.973-4.975h-4.448v8.204h14.13v9.08L496.55 111.71h-14.78l-12.23 12.24h-10.27l-6.802 7.006zm58.08-3.664v7.33l7.358 7.367h13.046l13.098-13.11-6.818-6.826H527.3l-4.977 4.978-3.668-3.67h-8.107v3.93zM753.32 522.168v14.14l-6.012 6.023v13.88l10.354 10.364 10.857-10.865v-20.45l10.975-10.986v-15.2l-6.543-6.552-19.63 19.646zm513.286-407.795h-10.113v7.33l-5.932-5.935v-10.125h-15l-8.022-8.032h-20.23v10.477h-9.073l-8.367-8.377h-18.137l-4.536 4.537-8.72-8.73h-29.3V81.904h-7.323l-5.234 5.236-8.37-8.378H1091.5v10.47h-20.23l-10.118 10.125-10.813-10.823 5.23-5.238-11.51-11.518h-11.858v9.14h-6.96l-6.295-6.303h-19.492l-16.787 16.8-6.317-2.836 23.063-23.088v-8.38h-27.21V45.768H961.91L946.767 60.93l-6.653-6.66H925.41l-10.413 10.42H901.64l-9.87 9.88v15.94l-5.002 5.008V84.674l-6.65-6.658h-6.15l-5.58 5.586 4.928 4.935v9.6l-6.713-6.72V79.89l-7.938 7.947v27.406l-7.148 7.158h-5.232l9.416-9.427v-29.37h-11.987l-7.8 7.81v18.323l-12.305-12.312H804.26l7.49 7.49h-35.42l-13.17 13.188-7.92-7.923v8.86h-10.942l-18.802 18.817-5.835-5.84v-9.966h-6.28l5.41-5.413 7.154 7.163h6.624l8.81-8.82-11.253-11.26H713.56l-5.063-5.06h-8.02l-4.533-4.54h-19.537l-7.672 7.68h-8.373l-20.23 20.25v9.967h-7.676v9.443h-7.53l-9.91 9.916 5.235 5.24-7.325 7.328v9.08h13.95l6.265-6.27 8.72 8.73 5.894 5.9 6.96-6.964v-5.514l6.345-6.358 3.56-3.56-4.814-4.816v-12.012l10.575-10.587 3.238-3.237h13.956l-17.447 17.456v11.52h4.71v6.46l6.454-6.46h17.79l-6.625 6.632H681.29v10.3h-11.163v13.795h-5.925v5.235l-5.13-5.134-4.43 4.434h-7.536l-9.07-9.077h-4.705v-9.252l-5.406 5.413v17.11l-2.792 2.79h-15.038v9.564l-13.468 13.48h-5.503l-4.71 4.717h-6.278v4.467h4.954l6.524 6.53v11.754l-3.628 3.633h-6.87l-4.12-4.126h-12.033l-6.572 6.58h6.573v7.823l-6.687 6.692v6.4l7.004 7.012h5.96v4.508l5.233-5.235h9.94l5.497-5.5v-8.772l10.792-10.802v-8.706h8.826l3.337 3.34 5.494-5.5h7.912l6.703 6.71v5.663h4.807l10.727 10.736v11.78l5.884-5.893v-5.625h5.887v-3.144l-7.637-4.712-15.802-15.817v-7.228l5.443 5.448 5.1 5.107h10.806v7.252l4.97 4.975v10.212h5.493v6.286l5.492 5.497v-14.402l7.458-7.464h13.732v-9.69l10.01-10.015v-5.827h5.692v6.812l5.1 5.105 4.968-4.975h8.242l7.326 7.33 7.366 5.41-6.148 6.154h-12.556l-2.792-2.79h-12.558l-10.462 10.474H691.06v5.583l13.08 13.095 5.06-5.062h17.376v10.06l-13.196 13.21 8.3 16.037h3.216v13.76l11.512 11.523v12.22h6.624l10.813 10.822v20.275h10.978l14.672-14.687h9.93l18.836-18.852V343.76h-9.415l-5.932-5.935-6.975 6.98H775.47v-13.266H767.8v-13.442h5.757l13.777 13.79h15l10.812 10.823h19.536l15.267 15.286 6.008-6.016v28.787l7.326 7.33v18.856l10.182 10.192 16.462-16.477v-15.228l11.995-12.003v-10.686l13.6-13.614 17.527 17.54v16.54l5.37-5.387 8.17 8.176v24.85l10.75 10.76v8.504l17.318 17.337v-6.392l-6.876-6.877v-13.12l-13.11-13.12v-17.052l17.036 17.053 10.757-10.773v-18.74l-12.904-12.917 9.77-9.783 7.917 7.923v-10.69l9.282-9.29h12.125l24.688-24.708v-20.41l-10.13-10.138 5.933-5.938-4.71-4.715h-7.676l-7.675-7.68h12.56l8.37-8.376v14.66l5.585-5.582h5.575v8.38h4.19v13.964l4.358 4.362 8.897-8.902v-14.315h-10.446v-11.152l15.33-15.336h10.765l25.858-25.882v-27.582l-4.656-4.66-4.762 4.77h-12.798l26.75-26.776h20.712l7.89-7.9v5.034h12.967l6.145-6.155 14.378-14.39h9.418v10.97l-26.162 26.187v27.3h6.347l15.415-15.43v-8.94l3.623-3.63v-11.86l12.286-12.3h18.42l14.37-14.383h13.808l-11.018-11.033h19.01v-9.95l11.683 11.697h9.423l11.86-11.87-6.63-6.634zM794.31 264.4h-4.886v21.544h-11.47l-6.077-6.08V268.8l-8.48-8.487v-17.457l20.003-12.57v16.312l10.91 10.923v6.88zm298.586-6.284v14.766l-13.256 13.267h-10.467l-8.37 8.378v8.058l10.653-10.66 5.044 5.046h7.326v-4.54h9.07l5.58-8.03v-10.125h4.187V266.6l-9.767-8.484zm4.186-23.467v11.958l-4.973 4.978v6.53l4.875-4.882 7.022 7.026 10.593-10.6-5.185-5.188h-6.06l-6.273-9.823zm-92.348 312.855v16.37h-5.58l14.744 14.76v15.09l-8.228 8.24v7.997h18.598l18.572-18.592h16.312l4.663-4.673h9.985l11.71 11.718 4.86-4.867v9.603l7.278 7.287v10.19h20.103l4.22 4.22 10.644-10.66v-11.368l15.16-15.173v-23.77l-9.685-9.7v-6.672l-17.555-17.57v-11.957l-6.973-6.976v-8.48l-7.277-7.283v19.944l-8.265 8.273-9.96-9.97V502.52h-21.236l-11.557 11.57-5.885-5.892-22.577 22.602h-8.113l-13.958 16.703zM1112.1 637.26l6.35 11.98h6.976l10.45-10.468v-9.07l-5.477 5.488h-11.95l-.196-5.487h-6.155v7.557zm83.734 23.3l8.508-9.036v-6.808h4.708l9.253-9.26-8.728-8.738v8.57h-6.8v4.524h-4.71l-11.343 11.354 9.112 9.393zm16.097-38.366l5.66 3.832v6.384h5.846l2.66-2.662v-7.554h4.145v-8.9h-2.615l-2.352 2.357-4.513-4.518v-4.648l-8.732-8.738-2.713 2.717 6.013 6.02v11.787l-3.397 3.924zm-187.057-287.866l-6.542 6.554v9.268h7.943v-5.69l5.235-5.242-6.635-4.89zm16.397 144.93l-8.635 8.644v4.24h4.317l7.738-7.748v-5.136h-3.42zm83.02-8.765v4.54h9.765l6.716-6.72v-7.592l-6.67-6.677-4.058 4.062 5.898 5.906-5.447 5.454-6.202 1.03z" fill="#112C65" fill-rule="evenodd"/></svg>