<svg version="1.2" baseProfile="tiny" xmlns="http://www.w3.org/2000/svg" viewBox="0 0 100 100"><g fill="#3354A8"><path d="M99.3 45.2c-.1-.1-.3-.1-.4-.1C96.5 20.6 75.7 1.4 50.6 1.4 23.8 1.4 2 23.2 2 50s21.8 48.6 48.6 48.6c21.4 0 39.7-14 46.1-33.3.5-.6.7-1.4.7-2.2v-.2c1.1-4.1 1.8-8.5 1.8-12.9 0-1.3-.1-2.5-.2-3.8l.3-.3c.2-.2.2-.5 0-.7zM80 13.9c-.4.6-1 1-1.4 1.1l-.6.3c-.9.5-1.8.9-2.4 1.8-.3.4-.4.9-.6 1.3-.1.2-.1.5-.2.7-.1.2-.4 1-1 1.1-.2 0-.5-.1-.8-.1l-1.6-.5c-.3-.1-.6-.2-.7-.4-.2-.2-.3-.6-.3-1v-.1c-.2-1.4-.6-2.7-1.3-3.9l-.1-.3c-.4-.7-.8-1.4-.7-2 .1-.7.9-1.2 1.6-1.6l2.5-1.5c2.7 1.5 5.3 3.2 7.6 5.1zM4 50v-1.8c.6.6 1.3 1.2 2.1 1.5.5.2.9.3 1.4.4 1 .3 1.9.5 2.4 1.2.2.3.4.7.5 1.1.2.5.4 1 .8 1.5.2.3.5.5.8.7.3.2.6.4.7.7.1.2.2.5.3.9 0 .2.1.3.1.5.4 1.4 1.6 2.6 3 3 .4.8.6 1.8.7 2.8.1.9.3 1.8.6 2.6.4 1.1 1.2 1.9 1.9 2.7l1.5 1.7c-.1.1-.2.3-.1.5.1.3.4.4.6.3h.1c.3-.1.8.2 1.3.5.4.4.7.8.6 1.2 0 .2-.1.5.1.8.3.5.8.5 1 .5.9 0 2 0 2.8-.7l.3-.3.3-.3c.1 0 .2-.1.5 0 .4.2.7.6.8 1 .1.5 0 .9-.1 1.4 0 .4-.1.7-.1 1.1a9.67 9.67 0 0 1-4.9 2c-.4 0-.8.1-1.2.4-.3.3-.3.6-.4.8-.1.5-.4 1.5.2 2.3.1.2.3.3.4.4l.3.3c.2.3.2.7.2 1.3 0 .5-.1 1 .1 1.5.3.7.9 1.1 1.4 1.5.3.2.5.4.7.6.3.3.5.8.8 1.2l1.7 3.1C13.8 82.9 4 67.6 4 50zm25.6 41.6v-.3l-2.2-4.1c-.2-.5-.5-1-.9-1.4-.3-.3-.6-.5-.9-.7-.5-.3-.9-.6-1-1-.1-.3-.1-.7-.1-1.1 0-.6.1-1.3-.4-1.9-.1-.2-.3-.3-.4-.4l-.3-.3c-.3-.3-.1-.9 0-1.5 0-.1.1-.3.1-.4.1-.1.3-.1.6-.1 2-.2 4-1 5.6-2.3.1-.1.2-.3.2-.4 0-.4 0-.8.1-1.2.1-.6.1-1.1 0-1.7-.1-.7-.7-1.5-1.4-1.8-.5-.2-1-.2-1.4.1-.2.1-.4.3-.5.5-.1.1-.1.2-.2.2-.5.4-1.3.4-2 .4h-.1V72c.1-.7-.2-1.4-1-2.1-.3-.3-.8-.6-1.2-.7l-2-2.2c-.7-.7-1.3-1.5-1.7-2.4-.3-.7-.4-1.5-.5-2.4-.2-1.2-.4-2.4-1-3.3-.1-.1-.2-.2-.3-.2-1.2-.3-2.2-1.2-2.5-2.4 0-.1-.1-.3-.1-.4-.1-.4-.2-.8-.4-1.2-.3-.4-.6-.7-1-.9-.2-.2-.4-.3-.6-.5-.3-.3-.4-.7-.6-1.2-.2-.5-.4-.9-.7-1.3-.7-1-1.9-1.2-2.9-1.5-.5-.3-.9-.4-1.3-.5-1-.4-1.9-1.2-2.4-2.1.5-6.4 2.2-12.3 4.9-17.7.1.2.3.3.5.3 1.6-.2 3.2.3 4.3 1.4l.4.4c.5.5 1.1 1.2 2 1.3.9.1 1.6-.3 2.3-.6l.2-.1c3.6-1.9 7.9-2 11.6-2.2l10.7-.4c.6 1.6.6 3.5.1 5.1l-.1.2c-.2.5-.3 1.1-.2 1.7.2 1.5 1.8 1.9 3.1 2.2.9.2 1.9.4 2.5 1 1 1 .3 2.8-.5 4.6-1.4 2.9-2.3 6.1-3.2 9.1-.3.9-.6 2-.6 3-.2-.4-.2-.9-.3-1.6-.2-1.2-.3-2.5-1.3-3.2-.6-.5-1.4-.5-2.1-.6-1.1-.1-4.4-.4-5.5 2-.1.3-.2.7-.3 1-.1.5-.2.8-.5 1.1-.5.6-1.6.3-2.6.1l-.4-.1c-2.3-.5-4.8 0-6.6 1.5-.1.1-.2.2-.2.4-.1 2.1-.7 4.1-1.6 6.1-.3.6-.6 1.2-.5 1.9.1.6.5 1.1.8 1.4l2 2.5c.4.5.8 1 1.4 1.3 1.2.6 2.7.3 3.9-.1 1.6-.4 2.5-.6 3.2.1.2.3.4.7.5 1.1.2.5.3 1.1.7 1.5 1.3 1.4 3.2.6 4.8-.1l.4-.2c1.6-.7 3.5-.8 5.3-.4-.3 1.5.8 2.9 2.2 4 1.1.8 2.4 1.8 2.4 3.1 0 .2-.1.4-.1.6-.1.3-.1.7-.1 1 0 .6.3 1.1.8 1.5.9.8 2.5.9 3.4.9 0 .9.3 1.8.6 2.6s.6 1.6.5 2.4c-.1.8-.6 1.6-1.1 2.2L48 95.5c-.2.2-.1.5.1.7.1.1.2.1.3.1.2 0 .3-.1.4-.2l3.9-5.6c.5-.7 1.1-1.6 1.3-2.7.1-1-.2-2-.6-2.9-.3-.9-.7-1.8-.4-2.6 0-.2 0-.3-.1-.5-.1-.1-.3-.2-.4-.2-1.1.1-2.5 0-3.3-.6-.3-.2-.4-.5-.4-.8 0-.2 0-.5.1-.8.1-.3.1-.5.1-.8.1-1.8-1.5-3-2.9-4-1.1-.8-2.2-2.1-1.7-3.2.1-.1.1-.3 0-.4l-.3-.3c-2.1-.7-4.4-.6-6.4.2l-.4.2c-1.6.7-2.9 1.1-3.6.3-.3-.3-.4-.7-.5-1.1-.2-.5-.3-1-.7-1.4-1.1-1.3-2.7-.9-4.2-.5-1.2.3-2.3.6-3.2.2-.4-.2-.8-.7-1.1-1.1L22 65c-.2-.3-.5-.6-.6-1-.1-.4.2-.9.4-1.4.9-1.9 1.5-4 1.7-6.2 1.6-1.2 3.7-1.6 5.6-1.2l.4.1c1.1.3 2.6.6 3.5-.3.4-.5.6-1 .7-1.6.1-.3.1-.6.2-.8.5-1.1 2-1.6 4.5-1.4.6.1 1.2.1 1.5.4.6.5.8 1.5.9 2.5.2 1.3.4 2.8 1.8 3.2.2 0 .4 0 .5-.1.1-.1.2-.3.1-.5-.3-1.3.1-2.7.4-3.9.8-3 1.7-6.1 3.1-9 .7-1.4 1.9-4 .3-5.7-.8-.8-1.9-1-3-1.3-1.4-.3-2.2-.5-2.3-1.3-.1-.4.1-.8.2-1.2l.1-.2c.6-2 .5-4.2-.2-6.1-.1-.2-.3-.3-.5-.3l-11 .4c-3.9.1-8.3.3-12.1 2.3l-.2.1c-.6.3-1.2.6-1.7.5-.5-.1-1-.5-1.4-1l-.4-.4c-1.4-1.3-3.3-1.9-5.2-1.7 8-14.4 23.5-24.5 41.3-24.5 7.5 0 14.5 1.8 20.8 4.9l-2 1.1c-.9.5-1.8 1.2-2.1 2.2-.2 1 .3 1.9.8 2.7l.2.3c.6 1.1 1 2.3 1.2 3.5v.1c.1.5.1 1.1.6 1.6.3.4.8.5 1.1.6l1.6.5c.3.1.6.2 1 .2h.2c.8-.1 1.5-.7 1.9-1.7.1-.2.2-.5.3-.8.1-.4.3-.8.5-1.1.4-.7 1.2-1.1 2-1.5l.6-.3c.7-.4 1.3-.9 1.6-1.4 7.1 6 12.3 14.1 14.8 23.4-.2-.1-.4-.1-.6 0-.5.4-1.4.2-1.7.1-.4.2-.6.2-.8.1-.5-.2-1.1-.4-1.7-.4-.8 0-1.5.2-2.2.5l-.3.1c-.6.2-1.3.5-2 .3-.3-.1-.6-.3-.7-.6-.1-.1-.1-.3 0-.5.1-.1.2-.2.3-.4.3-.3.7-.8.4-1.4-.1-.3-.3-.4-.4-.6v-.2c-.4-.5-.3-1.4.1-1.9.3-.4.7-.8 1.1-1.2.3-.2.5-.5.8-.7 1.2-1.2 1.8-2.8 2.4-4.2.1-.3 0-.7-.2-.8-.2-.1-.5-.2-.7-.1-.2.1-.3.4-.2.6 0 .1 0 .1.1.2-.5 1.3-1.1 2.6-2.1 3.6l-.7.7c-.5.4-.9.8-1.3 1.4-.6.9-.8 2.3 0 3.2 0 .1.1.1.1.1.1.1.2.1.2.2s-.1.3-.3.5c-.1.2-.3.4-.4.6-.2.4-.2.9 0 1.3.2.5.7 1 1.3 1.2.3.1.5.1.8.1.6 0 1.2-.2 1.8-.4l.3-.1c.6-.2 1.2-.5 1.8-.4.5 0 .9.2 1.4.4.2.1.5.2.7.2 1.1.3 2.1.2 2.7-.3l.1-.1c.6 2.5 1 5 1.3 7.6-1.5.5-3.3.3-4.9 0-2.7-.5-5.5-.8-7.3.9-.4-.4-1-.4-1.4 0-.4.4-.4 1 0 1.4-.5.3-1.2.3-1.9.3-1.1 0-2.3 0-3 1.1-.6 1-.2 2.1.1 3.1.4 1 .5 1.7.1 2.1-.2.2-.6.3-1.1.4-.6.1-1.2.3-1.6.8-.5.6-.5 1.4-.5 2 0 .4 0 .8-.1 1.1-.1.4-.5.8-.8 1.1-.4.4-.9.9-1.1 1.6-.5 1.8 1.3 3.3 3.1 4 1.5.6 3 1.4 3 2.6 0 .4-.1.8-.3 1.2l-.1-.1c-1.8 4.9-1.1 10.6 2 14.9l.1.1c-8.2 7.2-19 11.7-30.8 11.7-7.5-.1-14.7-1.9-21-5.1zM97.2 50c0 3.5-.4 7-1.2 10.3-.6-.5-1.4-.8-2.2-.8-2 0-3.6 1.6-3.6 3.6s1.6 3.6 3.6 3.6h.2c-2.6 6.8-6.7 12.7-12 17.6-2.8-4-3.5-9.3-1.8-13.9l.1-.2c.2-.5.4-1 .4-1.5 0-2.1-2.5-3.1-3.6-3.5-1.1-.4-2.8-1.5-2.5-2.8.1-.4.5-.8.8-1.2.4-.4.8-.9 1-1.5.2-.5.1-1 .1-1.4 0-.6 0-1 .2-1.3.2-.3.6-.4 1.1-.5.5-.1 1.1-.3 1.6-.7.9-.9.5-2.1.1-3.2-.3-.8-.6-1.6-.2-2.2.3-.5 1-.6 2.1-.6.8 0 1.8 0 2.5-.5l1.3 1.3c.2.2.5.3.7.3.2 0 .5-.1.7-.3.4-.4.5-1 .1-1.4-.4-.5-.9-.9-1.3-1.4 1.6-1.4 4.1-1.1 6.4-.6 1.7.3 3.6.5 5.2.1.2.8.2 1.8.2 2.7z"/><path d="M76.3 32c1.7 0 3.6-.6 5.5-1.8.7-.5 1.5-1 1.8-1.9.5-1.2 0-2.5-.6-3.6-.2-.5-.6-1.2-1.2-1.5-.6-.3-1.4-.2-2.1-.1-.9.2-1.9.4-2.8.9-1 .6-1.7 1.5-1.9 2.5v.7c0 .4 0 .7-.2 1-.1.2-.4.3-.7.4-.1 0-.2.1-.3.1-.7.3-1.3.9-1.1 1.7.1.5.5.8.8.9.8.5 1.7.7 2.8.7zm-2.7-1.9c0-.1.2-.4.5-.5.1 0 .2-.1.3-.1.4-.1.9-.3 1.2-.7.4-.5.4-1.1.4-1.6v-.5c.1-.7.6-1.4 1.4-1.8.8-.4 1.6-.6 2.5-.8.3-.1.6-.1.9-.1.2 0 .4 0 .5.1.3.2.6.6.8 1.1.5.9.9 1.9.5 2.8-.2.6-.8 1-1.4 1.4-1.7 1.1-3.5 1.7-5 1.7-.9 0-1.6-.2-2.3-.6-.3-.2-.3-.3-.3-.4zM56.7 4.5c0-.3-.2-.5-.5-.5s-.5.2-.5.4c-.1 2-1.9 3.8-3.8 3.9h-.6c-.9 0-1.9 0-2.5.8-.3.3-.4.7-.5 1-.4 1.5-.5 3-.4 4.5v.5c-.1.1-.3.3-.5.3-1 .2-1.9-.7-2.9-1.6-1.5-1.4-2.8-1.9-3.9-1.5-.5.2-.9.5-1.3.8-.3.3-.6.5-.9.6-.5.2-1.2.1-1.9-.1-2-.5-3.9-1.3-5.6-2.4-.8-.5-1.2-1-1.2-1.4 0-.3-.2-.5-.5-.5s-.5.2-.5.5c-.1 1.3 1.2 2.1 1.6 2.4 1.8 1.1 3.8 2 5.9 2.5.8.2 1.7.4 2.5 0 .5-.2.8-.5 1.2-.8.3-.3.6-.5.9-.6.8-.3 1.7.1 2.9 1.3.8.8 1.9 1.9 3.3 1.9h.4c.6-.1 1.1-.5 1.3-1 .1-.3.1-.6.1-.9-.1-1.4 0-2.8.4-4.1.1-.2.1-.5.3-.7.3-.4 1-.4 1.8-.4h.6c2.5-.2 4.7-2.4 4.8-4.9z"/><circle cx="16" cy="46.4" r="3.6"/><path d="M90.3 53.9c-.3-.5-.9-.6-1.4-.3-.5.3-.6.9-.3 1.4.3.4.5.8.8 1.2.2.3.5.5.9.5.2 0 .3 0 .5-.1.5-.3.6-.9.4-1.4-.3-.5-.6-.9-.9-1.3zM27.9 39.9c.2 0 .3 0 .4-.1.8-.4 1.7-.8 2.5-1.2.5-.2.7-.8.5-1.3-.2-.5-.8-.7-1.3-.5L27.3 38c-.5.2-.7.8-.4 1.3.3.4.6.6 1 .6zM35.9 36.8h.3c.9-.2 1.8-.5 2.7-.7.5-.1.9-.6.8-1.2-.1-.5-.6-.9-1.2-.8-1 .2-1.9.4-2.9.7-.5.1-.8.7-.7 1.2.2.5.6.8 1 .8zM64.6 35.5c-.9-.3-1.9-.5-2.8-.8-.5-.1-1.1.2-1.2.7-.1.5.2 1.1.7 1.2.9.2 1.8.5 2.7.7h.3c.4 0 .8-.3 1-.7.1-.4-.2-1-.7-1.1zM47.2 33.2c-1 0-2 .1-2.9.2-.6 0-1 .5-.9 1.1 0 .5.5.9 1 .9h.1c.9-.1 1.9-.1 2.8-.2.6 0 1-.5 1-1s-.5-1.1-1.1-1zM72.7 38.7L70 37.5c-.5-.2-1.1 0-1.3.5-.2.5 0 1.1.5 1.3.9.4 1.7.8 2.6 1.2.1.1.3.1.4.1.4 0 .7-.2.9-.6.3-.5.1-1.1-.4-1.3zM77.8 41.6c-.5-.3-1.1-.2-1.4.3-.3.5-.2 1.1.3 1.4.8.5 1.6 1 2.3 1.6.2.1.4.2.6.2.3 0 .6-.1.8-.4.3-.4.2-1.1-.2-1.4-.7-.6-1.5-1.2-2.4-1.7zM56 33.6c-1-.1-1.9-.2-2.9-.3-.6 0-1 .4-1.1.9 0 .6.4 1 .9 1.1.9.1 1.9.2 2.8.3h.1c.5 0 .9-.4 1-.9.1-.5-.3-1-.8-1.1zM21.7 43.7c.2 0 .4-.1.6-.2l1.2-.9c.5-.3.6-.9.3-1.4-.3-.5-.9-.6-1.4-.3l-1.2.9c-.4.3-.5 1-.2 1.4.1.4.4.5.7.5z"/></g></svg>