<svg xmlns="http://www.w3.org/2000/svg" viewBox="0 0 100 100"><path fill="#3354A8" d="M49.8 90.7c-.3 0-.5-.2-.5-.5s.2-.5.5-.5c1 0 2 0 2.9-.1.3 0 .5.2.5.5s-.2.5-.5.5c-.9.1-1.9.1-2.9.1zm-2.9-.1c-.1 0-.1 0 0 0-1-.1-2-.2-3-.4-.3-.1-.5-.3-.4-.6.1-.3.3-.4.6-.4 1 .2 1.9.3 2.9.4.3 0 .5.3.5.5-.2.3-.4.5-.6.5zm8.8-.4c-.2 0-.4-.2-.5-.4-.1-.3.1-.5.4-.6 1-.2 1.9-.4 2.8-.7.3-.1.5.1.6.3.1.3-.1.5-.3.6-.9.4-1.9.6-3 .8.1 0 .1 0 0 0zM41 89.5h-.1c-1-.3-1.9-.6-2.9-1-.3-.1-.4-.4-.3-.6.1-.3.4-.4.6-.3.9.4 1.8.7 2.8.9.3.1.4.4.3.6 0 .3-.2.4-.4.4zm20.5-.9c-.2 0-.4-.1-.5-.3-.1-.3 0-.5.3-.6l2.7-1.2c.2-.1.5 0 .7.2.1.2 0 .5-.2.7-.9.4-1.8.9-2.8 1.2h-.2zm-26-1.2c-.1 0-.2 0-.2-.1-.9-.4-1.8-.9-2.6-1.5-.2-.1-.3-.5-.2-.7.1-.2.5-.3.7-.2.8.5 1.7 1 2.6 1.4.2.1.3.4.2.7-.2.3-.3.4-.5.4zm31.3-1.5c-.2 0-.3-.1-.4-.2-.1-.2-.1-.5.2-.7.8-.5 1.6-1.1 2.4-1.7.2-.2.5-.1.7.1.2.2.1.5-.1.7-.8.6-1.6 1.2-2.5 1.7-.2.1-.2.1-.3.1zm-36.4-1.6c-.1 0-.2 0-.3-.1-.8-.6-1.6-1.3-2.3-1.9-.2-.2-.2-.5 0-.7.2-.2.5-.2.7 0 .7.7 1.5 1.3 2.3 1.9.2.2.3.5.1.7-.2 0-.3.1-.5.1zm41.1-2c-.1 0-.3-.1-.4-.2-.2-.2-.2-.5 0-.7l2.1-2.1c.2-.2.5-.2.7 0 .2.2.2.5 0 .7-.7.7-1.4 1.5-2.1 2.1-.1.2-.2.2-.3.2zm-45.5-2c-.1 0-.3-.1-.4-.2-.7-.7-1.3-1.5-1.9-2.3-.2-.2-.1-.5.1-.7s.5-.1.7.1c.6.8 1.2 1.5 1.9 2.2.2.2.2.5 0 .7-.1.1-.3.2-.4.2zm49.5-2.4c-.1 0-.2 0-.3-.1-.2-.2-.3-.5-.1-.7.6-.8 1.1-1.6 1.7-2.4.1-.2.5-.3.7-.2.2.1.3.5.2.7-.5.9-1.1 1.7-1.7 2.5-.2.2-.3.2-.5.2zm-53.1-2.4c-.2 0-.3-.1-.4-.2-.5-.9-1-1.7-1.5-2.6-.1-.2 0-.5.2-.7.2-.1.5 0 .7.2.4.9.9 1.7 1.4 2.6.1.2.1.5-.2.7h-.2zm56.2-2.6c-.1 0-.2 0-.2-.1-.2-.1-.3-.4-.2-.7l1.2-2.7c.1-.3.4-.4.6-.3.3.1.4.4.3.6-.4.9-.8 1.9-1.2 2.8-.1.3-.3.4-.5.4zm-58.8-2.7c-.2 0-.4-.1-.5-.3-.4-.9-.7-1.9-1-2.9-.1-.3.1-.5.3-.6.3-.1.5.1.6.3.3.9.6 1.9.9 2.8.1.3 0 .5-.3.6.1.1 0 .1 0 .1zm61-2.9h-.1c-.3-.1-.4-.4-.3-.6.3-.9.5-1.9.7-2.9 0-.3.3-.5.6-.4.3 0 .5.3.4.6-.2 1-.4 2-.7 2.9-.2.3-.4.4-.6.4zm-62.7-2.8c-.2 0-.4-.2-.5-.4-.2-1-.3-2-.4-3 0-.3.2-.5.5-.5s.5.2.5.5c.1 1 .2 1.9.4 2.9.1.2-.1.5-.5.5.1 0 .1 0 0 0zm63.8-3s-.1 0 0 0c-.3 0-.5-.3-.5-.5.1-1 .1-2 .1-2.9V58c0-.3.2-.5.5-.5s.5.2.5.5v.1c0 1 0 2-.1 3-.1.2-.3.4-.5.4zm-64.3-2.9c-.3 0-.5-.2-.5-.5h.5l-.5-.1c0-1 0-2 .1-3 0-.3.3-.5.5-.5.3 0 .5.3.5.5-.1.9-.1 1.9-.1 2.9 0 .4-.2.7-.5.7zm64.3-3.2c-.3 0-.5-.2-.5-.5-.1-1-.2-1.9-.4-2.9-.1-.3.1-.5.4-.6.3-.1.5.1.6.4.2 1 .3 2 .4 3 0 .4-.2.6-.5.6zm-63.8-2.7c-.4-.1-.5-.3-.5-.6.2-1 .4-2 .7-2.9.1-.3.4-.4.6-.3.3.1.4.4.3.6-.3.9-.5 1.9-.7 2.9.1.1-.2.3-.4.3zm62.6-3.1c-.2 0-.4-.1-.5-.4-.3-.9-.6-1.9-.9-2.8-.1-.3 0-.5.3-.6.3-.1.5 0 .6.3.4.9.7 1.9 1 2.9.1.3-.1.5-.3.6h-.2zm-61-2.6h-.2c-.3-.1-.4-.4-.3-.6.4-.9.8-1.9 1.2-2.8.1-.2.4-.4.7-.2.2.1.3.4.2.7l-1.2 2.7s-.2.2-.4.2zm58.9-2.9c-.2 0-.4-.1-.4-.3-.4-.9-.9-1.7-1.4-2.6-.1-.2-.1-.5.2-.7.2-.1.5-.1.7.2.5.9 1 1.7 1.5 2.6.1.2 0 .5-.2.7-.3 0-.3.1-.4.1zm-56.2-2.5c-.1 0-.2 0-.3-.1-.2-.1-.3-.5-.2-.7.5-.9 1.1-1.7 1.7-2.5.2-.2.5-.3.7-.1.2.2.3.5.1.7-.6.8-1.1 1.6-1.7 2.4 0 .3-.2.3-.3.3zm53-2.6c-.2 0-.3-.1-.4-.2-.6-.8-1.2-1.5-1.9-2.2-.2-.2-.2-.5 0-.7.2-.2.5-.2.7 0 .7.7 1.3 1.5 1.9 2.3.2.2.1.5-.1.7 0 .1-.1.1-.2.1zm-49.5-2.1c-.1 0-.2 0-.3-.1-.2-.2-.2-.5 0-.7.7-.7 1.4-1.5 2.1-2.1.2-.2.5-.2.7 0 .2.2.2.5 0 .7l-2.1 2.1c-.1 0-.2.1-.4.1zm45.5-2.3c-.1 0-.2 0-.3-.1-.7-.7-1.5-1.3-2.3-1.9-.2-.2-.3-.5-.1-.7.2-.2.5-.3.7-.1.8.6 1.6 1.2 2.3 1.9.2.2.2.5 0 .7 0 .2-.2.2-.3.2zm-41.1-1.7c-.2 0-.3-.1-.4-.2-.2-.2-.1-.5.1-.7.8-.6 1.6-1.2 2.5-1.7.2-.1.5-.1.7.2.1.2.1.5-.2.7-.8.5-1.6 1.1-2.4 1.7-.1-.1-.2 0-.3 0zm36.4-1.8c-.1 0-.2 0-.3-.1-.8-.5-1.7-1-2.6-1.4-.2-.1-.3-.4-.2-.7.1-.2.4-.3.7-.2.9.4 1.8.9 2.6 1.5.2.1.3.5.2.7-.1.1-.3.2-.4.2zm-31.3-1.4c-.2 0-.4-.1-.4-.3-.1-.2 0-.5.2-.7.9-.5 1.8-.9 2.8-1.2.3-.1.5 0 .6.3s0 .5-.3.6l-2.7 1.2c-.1.1-.2.1-.2.1zm25.9-1.3h-.2c-.9-.3-1.8-.7-2.8-.9-.3-.1-.4-.4-.3-.6.1-.3.3-.4.6-.3 1 .3 1.9.6 2.9.9.3.1.4.4.3.6-.1.2-.3.3-.5.3zm-20.4-.8c-.2 0-.4-.1-.5-.4-.1-.3.1-.5.3-.6 1-.3 2-.5 2.9-.7.3 0 .5.1.6.4.1.3-.1.5-.4.6-1 .2-1.9.4-2.8.7h-.1zm14.7-.8s-.1 0 0 0c-1-.2-2-.3-3-.4-.3 0-.5-.3-.5-.5 0-.3.3-.5.5-.5 1 .1 2 .2 3 .4.3 0 .5.3.4.6.1.3-.2.4-.4.4zm-8.9-.3c-.3 0-.5-.2-.5-.5s.2-.5.5-.5c1-.1 2-.1 3-.1.3 0 .5.2.5.5s-.2.5-.5.5c-1-.1-2 0-3 .1.1 0 0 0 0 0z"/><circle fill="#FFF" cx="77.7" cy="74.1" r="20.4"/><path fill="#3354A8" d="M77.7 95.5c-11.8 0-21.4-9.6-21.4-21.4s9.6-21.4 21.4-21.4S99 62.4 99 74.1s-9.5 21.4-21.3 21.4zm0-40.7c-10.7 0-19.4 8.7-19.4 19.4S67 93.5 77.7 93.5 97 84.8 97 74.1s-8.6-19.3-19.3-19.3z"/><circle fill="#FFF" cx="21.9" cy="74.1" r="20.4"/><path fill="#3354A8" d="M21.9 95.5C10.1 95.5.5 85.9.5 74.1s9.6-21.4 21.4-21.4 21.4 9.6 21.4 21.4-9.6 21.4-21.4 21.4zm0-40.7c-10.7 0-19.4 8.7-19.4 19.4s8.7 19.4 19.4 19.4 19.4-8.7 19.4-19.4-8.7-19.4-19.4-19.4z"/><circle fill="#FFF" cx="49.8" cy="25.8" r="20.4"/><path fill="#3354A8" d="M49.8 47.2c-11.8 0-21.4-9.6-21.4-21.4S38 4.5 49.8 4.5c11.8 0 21.4 9.6 21.4 21.4s-9.6 21.3-21.4 21.3zm0-40.7c-10.7 0-19.4 8.7-19.4 19.4s8.7 19.4 19.4 19.4 19.4-8.7 19.4-19.4S60.5 6.5 49.8 6.5z"/><path fill="#3354A8" d="M51.7 16.6v7.1h7.1v3.8h-7.1v7.1h-3.8v-7.1h-7.1v-3.8h7.1v-7.1h3.8m0-2h-3.8c-1.1 0-2 .9-2 2v5.1h-5.1c-1.1 0-2 .9-2 2v3.8c0 1.1.9 2 2 2h5.1v5.1c0 1.1.9 2 2 2h3.8c1.1 0 2-.9 2-2v-5.1h5.1c1.1 0 2-.9 2-2v-3.8c0-1.1-.9-2-2-2h-5.1v-5.1c0-1.1-.9-2-2-2zM21.9 79.5c-2.4 0-4.4-2-4.4-4.4s2-4.4 4.4-4.4c2.4 0 4.4 2 4.4 4.4s-2 4.4-4.4 4.4zm0-7.7c-1.8 0-3.4 1.5-3.4 3.4 0 1.8 1.5 3.4 3.4 3.4s3.4-1.5 3.4-3.4c-.1-1.9-1.6-3.4-3.4-3.4z"/><path fill="#3354A8" d="M23.3 74.1c-.1.2-.4.3-.6.3-.4 0-.8-.4-.8-.8v-.2c-.9 0-1.7.8-1.7 1.7 0 1 .8 1.7 1.7 1.7s1.7-.8 1.7-1.7c0-.4-.1-.7-.3-1z"/><path fill="#3354A8" d="M34.6 77.2c-.3 0-.6-.1-.8-.4-3.3-4.3-6.9-6.7-10.7-7-5.5-.4-10.6 3.4-13.9 6.6-.4.4-1 .4-1.4 0-.4-.4-.4-1 0-1.4 3.6-3.5 9.2-7.6 15.4-7.1 4.5.3 8.6 2.9 12.2 7.8.3.4.2 1.1-.2 1.4-.2.1-.4.1-.6.1z"/><path fill="#3354A8" d="M21.7 82.2h-.5c-6.1-.3-10.5-4.9-12-7.3-.3-.5-.1-1.1.3-1.4.5-.3 1.1-.1 1.4.3 1.5 2.4 5.5 6.2 10.4 6.4 4 .2 7.6-2 11-6.4.3-.4 1-.5 1.4-.2.4.3.5 1 .2 1.4-3.7 4.8-7.8 7.2-12.2 7.2z"/><path fill="#3354A8" d="M10.1 74.9c-.1 0-.2 0-.3-.1-.2-.2-.2-.5 0-.7.3-.4.7-1 .6-1.5-.1-.3-.3-.6-.6-.8-.2-.1-.3-.4-.2-.7.1-.2.4-.3.7-.2.8.5 1 1.1 1.1 1.5.1.9-.3 1.8-.8 2.4-.2.1-.3.1-.5.1zM12.2 72.6c-.1 0-.2 0-.3-.1-.2-.2-.3-.5-.1-.7.4-.5.9-1.4.7-2.2-.1-.5-.4-.9-1-1.2-.2-.1-.3-.4-.2-.7.1-.2.4-.3.7-.2.8.4 1.4 1.1 1.5 1.9.2 1.1-.3 2.3-.9 3.1-.1.1-.3.1-.4.1zM15.1 71c-.1 0-.2 0-.3-.1-.2-.2-.3-.5-.1-.7.4-.5.9-1.4.7-2.2-.1-.5-.4-.9-1-1.2-.2-.1-.3-.4-.2-.7.1-.2.4-.3.7-.2.8.4 1.4 1.1 1.5 1.9.2 1.1-.3 2.3-.9 3.1-.1.1-.2.1-.4.1zM17.5 69.6c-.1 0-.3-.1-.4-.2-.2-.2-.2-.5 0-.7.5-.5 1.2-1.5 1.1-2.3 0-.5-.3-1-.9-1.4-.2-.2-.3-.5-.1-.7.2-.2.5-.3.7-.1.8.5 1.2 1.3 1.3 2.1.1 1.2-.6 2.4-1.4 3.1 0 .1-.1.2-.3.2zM20.9 69c-.1 0-.3-.1-.4-.2-.2-.2-.2-.5 0-.7.5-.5 1.2-1.5 1.1-2.3 0-.5-.3-1-.9-1.4-.2-.2-.3-.5-.1-.7.2-.2.5-.3.7-.1.8.5 1.2 1.3 1.3 2.1.1 1.2-.6 2.4-1.4 3.1-.1.1-.2.2-.3.2zM24.5 68.9c-.2 0-.3-.1-.4-.2-.2-.2-.1-.5.1-.7.6-.4 1.2-1.1 1.3-1.8 0-.4-.1-.8-.5-1.2-.2-.2-.2-.5 0-.7.2-.2.5-.2.7 0 .6.6.8 1.2.8 2-.1 1.1-1 2-1.7 2.6h-.3zM27.6 69.8c-.2 0-.4-.1-.5-.3-.1-.3 0-.5.3-.7.5-.2 1.2-.7 1.3-1.2.1-.3 0-.5-.2-.8-.1-.2-.1-.5.1-.7.2-.2.5-.1.7.1.3.5.4 1.1.3 1.7-.3.9-1.2 1.5-1.9 1.8.1.1 0 .1-.1.1zM29.9 71.5c-.2 0-.4-.1-.5-.4-.1-.3.1-.5.3-.6.6-.2 1.3-.6 1.5-1.1.1-.3.1-.5 0-.8-.1-.3 0-.5.2-.7.3-.1.5 0 .7.2.3.6.3 1.1 0 1.7-.4.9-1.4 1.4-2.1 1.6 0 .1 0 .1-.1.1zM32 73h-.1c-.3 0-.5-.2-.5-.5s.3-.5.5-.5c.6 0 1.5-.2 1.9-.6.2-.2.3-.5.3-.8 0-.3.2-.5.5-.5s.5.2.5.5c0 .6-.2 1.1-.6 1.5-.7.7-1.7.9-2.5.9zM77.5 83.1c-7.5 0-13.8-7.5-14.4-12.6 0-.3.1-.6.3-.9.2-.2.6-.3.9-.2 8.3 2 17.2 1.7 25.9-.9.4-.1.8 0 1 .3.3.3.3.7.2 1-4.1 11-9.8 13.3-13.9 13.3zM65.4 71.7c1.4 4.2 6.5 9.4 12.1 9.4 4.5 0 8.4-3.5 11.3-10.1-7.9 2-15.8 2.3-23.4.7z"/><path fill="#3354A8" d="M76.2 77.6c-3.8 0-7.5-.5-9.8-1.4-.3-.1-.4-.4-.3-.6.1-.3.4-.4.6-.3 5 1.8 15.6 1.9 20.9-.6.2-.1.5 0 .7.2.1.2 0 .5-.2.7-3.1 1.4-7.6 2-11.9 2z"/><path fill="#3354A8" d="M77.9 82.6c-.3 0-.5-.2-.5-.5l-.6-10c0-.3.2-.5.5-.5s.5.2.5.5l.6 10c0 .2-.2.5-.5.5zM80.4 82.1c-.3 0-.5-.3-.5-.5l.8-10.3c0-.3.3-.5.5-.5.3 0 .5.3.5.5l-.8 10.3c0 .3-.2.5-.5.5zM83.1 80.8H83c-.3-.1-.4-.3-.4-.6l2-9.5c.1-.3.3-.4.6-.4.3.1.4.3.4.6l-2 9.5c0 .2-.2.4-.5.4zM74.5 82.1c-.2 0-.5-.2-.5-.4l-1.3-10c0-.3.2-.5.4-.6.3 0 .5.2.6.4l1.3 10c0 .4-.2.6-.5.6zM71.4 80.8c-.2 0-.4-.1-.5-.4l-2.6-8.9c-.1-.3.1-.5.3-.6.3-.1.5.1.6.3l2.6 8.9c.1.3-.1.5-.3.6 0 .1 0 .1-.1.1z"/><path fill="#3354A8" d="M84.2 76.3l-3.4.3.3-4.5 3.9-.7z"/></svg>