<svg xmlns="http://www.w3.org/2000/svg" viewBox="0 0 116.9 100"><path fill="#FFF" d="M112.95 15.998L95.985 55.183l-2.202-.953 16.965-39.186z"/><path fill="#3354A8" d="M96 55.7h-.2l-2.2-.9-.3-.3v-.4l17-39.2c.1-.3.4-.4.7-.3l2.2.9.3.3v.4l-17 39.2c-.2.1-.3.3-.5.3zM94.5 54l1.2.5 16.6-38.2-1.2-.5L94.5 54z"/><path fill="#FFF" d="M105.7 89.8l6.3-54.2H76.5l6.3 54.2z"/><path fill="#3354A8" d="M105.7 90.8H82.8c-.5 0-.9-.4-1-.9l-6.3-54.3c0-.3.1-.6.2-.8.2-.2.5-.3.7-.3H112c.3 0 .6.1.7.3.2.2.3.5.2.8l-6.3 54.3c0 .5-.4.9-.9.9zm-22-2h21.1l6.1-52.3H77.7l6 52.3z"/><path fill="#FFF" d="M5.3 84.9c0 11.1.5 9 40.3 9 38.9 0 40.3 3 40.3-9-13.6-1.4-69.5-2.3-80.6 0z"/><path fill="#3354A8" d="M73.2 95.3c-2.5 0-5.4-.1-8.9-.1-5-.1-11.1-.2-18.7-.2h-1.1c-5.7 0-10.7 0-14.8.1h-8.2c-15.5 0-17.1-1-17.1-10.2 0-.5.3-.9.8-1 6-1.3 23.8-1.5 33.8-1.5 18.8 0 39.5.6 47.1 1.4.5.1.9.5.9 1 0 4.2-.1 6.8-2.2 8.5-2.1 1.7-5.7 2-11.6 2zM44.5 93h1.1c7.6 0 13.7.1 18.7.2 3.4.1 6.4.1 8.9.1 5.2 0 8.8-.2 10.3-1.5 1.2-.9 1.4-2.6 1.5-6-8.2-.8-27.9-1.3-46-1.3-16 0-27.7.5-32.6 1.3 0 6.8.6 7.3 15.1 7.3h8.2c4.1-.1 9-.1 14.8-.1z"/><ellipse fill="#FFF" cx="19.9" cy="79.2" rx="13.5" ry="7.9"/><path fill="#3354A8" d="M19.9 87.6c-7.7 0-14-3.8-14-8.4s6.3-8.4 14-8.4 14 3.8 14 8.4-6.2 8.4-14 8.4zm0-15.8c-7.2 0-13 3.3-13 7.4s5.9 7.4 13 7.4 13-3.3 13-7.4-5.8-7.4-13-7.4z"/><ellipse fill="#FFF" cx="34.6" cy="79.2" rx="13.5" ry="7.9"/><path fill="#3354A8" d="M34.6 87.6c-7.7 0-14-3.8-14-8.4s6.3-8.4 14-8.4 14 3.8 14 8.4-6.3 8.4-14 8.4zm0-15.8c-7.2 0-13 3.3-13 7.4s5.9 7.4 13 7.4 13-3.3 13-7.4-5.8-7.4-13-7.4z"/><ellipse fill="#FFF" cx="56.9" cy="79.2" rx="13.5" ry="7.9"/><path fill="#3354A8" d="M56.9 87.6c-7.7 0-14-3.8-14-8.4s6.3-8.4 14-8.4 14 3.8 14 8.4-6.3 8.4-14 8.4zm0-15.8c-7.2 0-13 3.3-13 7.4s5.9 7.4 13 7.4c7.2 0 13-3.3 13-7.4s-5.8-7.4-13-7.4z"/><ellipse fill="#FFF" cx="74.5" cy="79.2" rx="11.5" ry="7.9"/><path fill="#3354A8" d="M74.5 87.6c-6.6 0-12-3.8-12-8.4s5.4-8.4 12-8.4 12 3.8 12 8.4-5.4 8.4-12 8.4zm0-15.8c-6 0-11 3.3-11 7.4s4.9 7.4 11 7.4 11-3.3 11-7.4-4.9-7.4-11-7.4z"/><path fill="#FFF" d="M43.3 74.4c2.8 3 4.9 6.8 6.5 6.8 2 0 4.6-1.8 5.4-1.9 1.8-.2 3.4-1.5 4.8-.4 1.6 1.3 2.4 4.1 4.4 3.8.3-1 1-2 1.9-2.5 1.1 1.1 2.7 1.7 4.2 1.5-.3-1.1 1.1-2.3 2.1-1.8.4.2.8.6 1.2.8 1.7.8 3.3-1.8 5.2-1.7 1.1 0 1.9.9 2.9 1.1.7.1 1.7.2 2.4.3 2.2.2 4.4-.7 4.9-2.4.6-2 .2-5.1-2.7-4.9"/><path fill="#3354A8" d="M64.2 83.6c-1.6 0-2.6-1.4-3.4-2.5-.4-.6-.8-1.2-1.3-1.5-.5-.4-1.1-.3-2.3.1-.6.2-1.2.4-1.8.5-.2 0-.7.3-1.1.5-1.2.6-2.9 1.4-4.4 1.4-1.5 0-2.8-1.6-4.6-3.9-.8-1.1-1.7-2.2-2.6-3.2l1.5-1.4c1 1.1 1.9 2.3 2.8 3.3 1 1.3 2.5 3.1 3 3.1 1.1 0 2.5-.7 3.6-1.2.7-.4 1.3-.6 1.7-.7.5-.1 1-.2 1.5-.4 1.2-.4 2.8-.9 4.1.2.7.5 1.2 1.2 1.7 1.9.6.9 1 1.4 1.4 1.6.4-1 1.2-1.8 2.1-2.3.4-.2.9-.2 1.2.2.7.7 1.6 1.1 2.5 1.2.1-.5.4-.9.9-1.3.8-.7 1.8-.8 2.7-.4.3.2.6.4.8.5.1.1.3.2.4.3.4.2.9-.1 1.8-.7s1.8-1.2 3-1.1c.8 0 1.4.4 2 .7.4.2.7.4 1.1.4.5.1 1 .1 1.5.2.3 0 .6.1.8.1 1.8.2 3.5-.5 3.9-1.8.3-1 .3-2.3-.3-3.1-.3-.4-.8-.6-1.4-.5l-.2-2c1.7-.1 2.6.6 3.1 1.3 1.1 1.4 1.1 3.4.6 4.9-.7 2.1-3.2 3.4-6 3.1-.2 0-.5-.1-.8-.1-.6-.1-1.2-.1-1.7-.2-.6-.1-1.2-.4-1.7-.7-.4-.2-.8-.4-1.2-.5-.5 0-1.2.4-1.8.8-1 .7-2.3 1.5-3.7.8-.3-.2-.6-.4-.8-.6-.1-.1-.3-.2-.4-.3-.1-.1-.3 0-.5.2s-.3.3-.2.5c.1.3 0 .6-.1.8-.2.2-.4.4-.7.4-1.6.2-3.1-.3-4.3-1.2-.4.4-.8.9-.9 1.5-.1.4-.4.7-.8.7-.4.4-.5.4-.7.4z"/><path fill="#FFF" d="M6.2 73c-3-.1-4.9 2.4-4.3 4.5 1.9 1.8 5-.9 7.4-.2 2.3.7 3.5 4.4 5.9 3.8 1.1-.3 1.8-1.5 2.9-1.5.6 0 1.2.3 1.9.5 2.8.6 5.9-2.9 8-1 1.2 1.1 1 3.4 2.4 4 2.5 1.1 3.9-4.2 6.5-3.8 1 .2 1.8 1.3 2.9 1.2.7-.1 1.3-.7 1.9-1.1 1.8-1.4 7.6-1.6 6.2-4.8"/><path fill="#3354A8" d="M31.1 84.3c-.3 0-.7-.1-1.1-.2-1.2-.5-1.6-1.7-2-2.7-.2-.6-.4-1.2-.8-1.5-.6-.6-1.5-.3-3.2.4-1.3.5-2.8 1.2-4.4.8-.3-.1-.5-.2-.8-.2-.3-.1-.6-.2-.8-.2-.3 0-.6.3-1 .6-.5.3-1 .7-1.6.9-1.9.5-3.3-.9-4.3-2.1-.7-.7-1.4-1.5-2.1-1.7-.8-.3-1.8 0-2.9.3-1.6.4-3.4 1-4.9-.4-.2-.1-.2-.3-.3-.5-.4-1.3-.1-2.6.8-3.8 1-1.4 2.7-2.1 4.5-2l-.1 2c-1.2 0-2.2.4-2.9 1.3-.4.5-.6 1.1-.5 1.7.6.3 1.5.1 2.8-.2 1.3-.3 2.7-.7 4.1-.3 1.2.4 2.2 1.4 3 2.3 1.1 1.2 1.7 1.7 2.3 1.5.3-.1.6-.3 1-.6.5-.4 1.2-.9 2.1-1 .6 0 1.1.1 1.6.3.2.1.4.1.6.2.9.2 2.1-.3 3.2-.7 1.6-.7 3.7-1.5 5.3 0 .7.7 1 1.6 1.3 2.3.3.8.5 1.4.9 1.5.5.2 1.1-.3 2.1-1.5s2.3-2.7 4.2-2.4c.7.1 1.2.4 1.6.7.4.2.7.5 1 .4.3 0 .6-.3.9-.6.1-.1.3-.2.4-.4.7-.5 1.8-.9 2.9-1.3 1.3-.4 2.8-.9 3.1-1.6 0-.1.1-.3-.1-.8l1.8-.8c.4.9.4 1.7.1 2.4-.7 1.5-2.5 2.1-4.3 2.7-.9.3-1.8.6-2.3.9-.1.1-.2.2-.4.3-.5.4-1.1 1-2 1-.9.1-1.6-.4-2.2-.7-.3-.2-.7-.4-.9-.5-.7-.1-1.4.6-2.3 1.7-1 1.3-2 2.5-3.4 2.5z"/><circle fill="#FFF" cx="95.7" cy="33.8" r="1.5"/><path fill="#3354A8" d="M95.7 35.7c-1.1 0-2-.9-2-2s.9-2 2-2 2 .9 2 2-.9 2-2 2zm0-2.9c-.5 0-1 .4-1 1 0 .5.4 1 1 1s1-.4 1-1-.5-1-1-1z"/><path fill="#FFF" d="M86.7 73c0-11.1-24.1-16-40.3-16.3S6.2 61 6.2 73c13.5 1.4 69.4 2.3 80.5 0z"/><path fill="#3354A8" d="M53.2 75.4c-18.9 0-39.5-.6-47.2-1.4-.5-.1-.9-.5-.9-1 0-12.7 23.8-17.3 39.8-17.3h1.5C62.4 56 87.7 61 87.7 73c0 .5-.3.9-.8 1-6 1.2-23.7 1.4-33.7 1.4zm-46-3.3c8.2.8 27.9 1.3 45.9 1.3 15.9 0 27.6-.5 32.5-1.3-.6-5.1-7.4-8.4-13.2-10.3-7.2-2.4-16.9-3.9-25.9-4.1H45c-8.9 0-18.3 1.4-25.1 3.7-5.6 1.9-12 5.2-12.7 10.7z"/><path fill="#FFF" d="M72.5 34.2h42.7v4.4H72.5z"/><path fill="#3354A8" d="M115.1 39.1H72.5c-.3 0-.5-.2-.5-.5v-4.4c0-.3.2-.5.5-.5h42.7c.3 0 .5.2.5.5v4.4c-.1.3-.3.5-.6.5zm-42.1-1h41.7v-3.4H73v3.4z"/><circle fill="#FFF" cx="84" cy="18" r="1.5"/><path fill="#3354A8" d="M84 19.9c-1.1 0-2-.9-2-2s.9-2 2-2 2 .9 2 2-1 2-2 2zm0-2.9c-.5 0-1 .4-1 1 0 .5.4 1 1 1s1-.4 1-1c-.1-.6-.5-1-1-1z"/><circle fill="#FFF" cx="87.3" cy="10.4" r="1.1"/><path fill="#3354A8" d="M87.3 12c-.9 0-1.6-.7-1.6-1.6s.7-1.6 1.6-1.6 1.6.7 1.6 1.6-.7 1.6-1.6 1.6zm0-2.2c-.3 0-.6.3-.6.6s.3.6.6.6.6-.3.6-.6-.3-.6-.6-.6z"/><circle fill="#3354A8" cx="93.8" cy="4.8" r="1.1"/><circle fill="#FFF" cx="95.7" cy="21.2" r="1.1"/><path fill="#3354A8" d="M95.7 22.8c-.9 0-1.6-.7-1.6-1.6s.7-1.6 1.6-1.6 1.6.7 1.6 1.6-.7 1.6-1.6 1.6zm0-2.1c-.3 0-.6.3-.6.6s.3.6.6.6.6-.3.6-.6-.3-.6-.6-.6z"/><circle fill="#FFF" cx="88.4" cy="28.4" r="1.1"/><path fill="#3354A8" d="M88.4 30c-.9 0-1.6-.7-1.6-1.6s.7-1.6 1.6-1.6 1.6.7 1.6 1.6-.7 1.6-1.6 1.6zm0-2.2c-.3 0-.6.3-.6.6s.3.6.6.6.6-.3.6-.6-.3-.6-.6-.6z"/><path fill="#FFF" d="M85.5 58.9c1.3-3.9 5-6.8 9.3-6.8 5.4 0 9.8 4.4 9.8 9.8s-4.4 9.8-9.8 9.8c-1.1 0-2.1-.2-3.1-.5"/><path fill="#3354A8" d="M94.9 72.3c-1.1 0-2.2-.2-3.3-.5-.3-.1-.4-.4-.3-.6.1-.3.4-.4.6-.3.9.3 1.9.5 3 .5 5.1 0 9.3-4.2 9.3-9.3s-4.2-9.3-9.3-9.3c-4 0-7.6 2.6-8.9 6.4-.1.3-.4.4-.6.3-.3-.1-.4-.4-.3-.6 1.4-4.3 5.3-7.1 9.8-7.1 5.7 0 10.3 4.6 10.3 10.3s-4.6 10.2-10.3 10.2zM19.4 67.7h-1.2c-.5 0-1-.3-1.2-.8-.2-.5-.1-1 .3-1.4l7.3-6.9.7.7-7.3 6.9c-.1.1-.1.2-.1.3 0 .1.1.2.3.2h1.2c.3 0 .5-.1.7-.3l8.9-8.7.7.7-8.9 8.7c-.4.4-.9.6-1.4.6zM40.5 67.7h-1.2c-.5 0-1-.3-1.2-.8-.2-.5-.1-1 .3-1.4l9.4-9.1.7.7-9.4 9.1c-.1.1-.1.3-.1.3 0 .1.1.2.3.2h1.2c.3 0 .5-.1.7-.3l10-9.8.7.7-10 9.8c-.4.4-.9.6-1.4.6zM67 69h-1.2c-.5 0-1-.3-1.2-.8-.2-.5-.1-1 .3-1.4l6.5-6.5.7.7-6.5 6.5c-.1.1-.1.3-.1.3 0 .1.1.2.3.2H67c.3 0 .5-.1.7-.3l6.9-6.8.7.7-6.9 6.8c-.4.4-.9.6-1.4.6z"/><path fill="#3354A8" d="M64.1 58.8l-1.8-.8c3.3-7 2.8-12.7-1.1-15.7-3.2-2.4-8.3-2.6-11-.3-1.9 1.7-3.4.8-4.4 0-3.8-3.2-8.5-1.3-11.4 1.9-3.1 3.4-4.6 8.9-.6 12.8l-1.4 1.4c-4.7-4.6-3.3-11.3.5-15.5 3.4-3.8 9.3-6.1 14.1-2.1.8.6 1 .7 1.8 0 3.3-2.9 9.5-2.8 13.5.2 2.4 1.7 7.1 6.9 1.8 18.1z"/><path fill="#3354A8" d="M48.6 42.2l-.9-.4 5.2-12-2.1-.7-3.2 12.6-1-.2L50 28.3c0-.1.1-.2.2-.3.1-.1.3-.1.4 0l3.2 1.1c.1 0 .2.1.3.3.1.1.1.3 0 .4l-5.5 12.4zM35.6 52.6c-.1 0-.3-.1-.4-.2-2.2-2.4-.1-5.9 1.7-8.2 1.3-1.8 3.8-2.3 6-1.3.2.1.3.4.2.6l-2.2 6.6c0 .1-.1.2-.3.3-.1.1-3.2 1.5-4.9 2.1 0 .1 0 .1-.1.1zm5.1-9.2c-1.1 0-2.2.5-2.9 1.4-2.4 3.2-3 5.3-2 6.7 1.4-.6 3.6-1.6 4.3-1.9l2-6c-.5-.1-1-.2-1.4-.2z"/><circle fill="#3354A8" cx="25.9" cy="81.7" r=".9"/><circle fill="#3354A8" cx="36.8" cy="82.6" r=".9"/><circle fill="#3354A8" cx="32.5" cy="86.2" r=".9"/><circle fill="#3354A8" cx="41.3" cy="83.6" r=".9"/><circle fill="#3354A8" cx="47.4" cy="80.8" r=".9"/><circle fill="#3354A8" cx="53.7" cy="84.5" r=".9"/><circle fill="#3354A8" cx="56.9" cy="81.7" r=".9"/><circle fill="#3354A8" cx="60.5" cy="84.5" r=".9"/><circle fill="#3354A8" cx="69" cy="83.3" r=".9"/><circle fill="#3354A8" cx="75.5" cy="84.5" r=".9"/><circle fill="#3354A8" cx="79.6" cy="82.4" r=".9"/><circle fill="#3354A8" cx="18.4" cy="82.6" r=".9"/><circle fill="#3354A8" cx="23.4" cy="84.5" r=".9"/><circle fill="#3354A8" cx="14.3" cy="84.5" r=".9"/><circle fill="#3354A8" cx="9.2" cy="80.8" r=".9"/></svg>