<svg version="1.2" baseProfile="tiny" xmlns="http://www.w3.org/2000/svg" viewBox="0 0 100 100"><g fill="#3354A8"><path d="M99 8c0-.6-.4-1-1-1H1c-.6 0-1 .4-1 1v85c0 .6.4 1 1 1h97c.6 0 1-.4 1-1V8zm-2 84H2V9h95v83z"/><path d="M8 82h4v5c0 .3.2.5.5.5s.5-.2.5-.5v-5h76c.3 0 .5-.2.5-.5s-.2-.5-.5-.5H13V17c0-.3-.2-.5-.5-.5s-.5.2-.5.5v64H8c-.3 0-.5.2-.5.5s.2.5.5.5z"/><path d="M20.1 73.8c.2 0 .5-.1.7-.3l8.6-8.2 16.1-4.4c.2-.1.4-.2.5-.3l11-13.5 15-6.7c.1-.1.2-.1.3-.2L88 22.9V31c0 .6.4 1 1 1s1-.4 1-1V21c0-.3-.2-.6-.4-.8-.2-.3-.5-.6-.9-.5l-10.5.7c-.6 0-1 .5-.9 1.1 0 .6.5 1 1.1.9l8-.5L71 38.7l-15 6.7c-.1.1-.3.2-.4.3l-11 13.4-16 4.4c-.2 0-.3.1-.4.2l-8.8 8.4c-.4.4-.4 1 0 1.4.1.2.4.3.7.3z"/></g></svg>