<svg version="1.2" baseProfile="tiny" xmlns="http://www.w3.org/2000/svg" viewBox="0 0 100 100"><g fill="#3354A8"><path d="M96.4 22.1c-.1-3-.1-6.2-.1-9.3 0-.5-.4-.9-.9-1-18.7-2-29.9-5.5-44-11.2-.2-.1-.5-.1-.8 0-14.1 5.8-25.3 9.3-44 11.2-.5.1-.9.5-.9 1 0 3.1-.1 6.2-.1 9.3C5 50.6 4.4 80.2 50.6 99c.1 0 .2.1.4.1.1 0 .3 0 .4-.1 46.1-18.8 45.5-48.4 45-76.9zM51 72c-12.7 0-23-10.3-23-23s10.3-23 23-23 23 10.3 23 23-10.3 23-23 23zM71.7 9.7l-15 15c-1.6-.4-3.3-.6-5-.6L67.3 8.4c1.4.5 2.9.9 4.4 1.3zm5.7 1.3L61.9 26.5c-1.3-.6-2.7-1.2-4.1-1.6l15-15c1.5.4 3.1.8 4.6 1.1zm6 1.2L66.3 29.3c-1.1-.8-2.2-1.6-3.4-2.2l15.8-15.7c1.5.2 3 .5 4.7.8zm6.1.9L69.9 32.7c-.9-1-1.8-2-2.9-2.8l17.5-17.5c1.7.2 3.3.5 5 .7zM76 47.9c-.1-1.7-.3-3.4-.7-5l19.1-19.1c0 1.9.1 3.7.1 5.6L76 47.9zm18.4-25.8v.3L74.9 41.9c-.4-1.4-1-2.8-1.6-4.1l21-21c0 1.8 0 3.6.1 5.3zM76 49.3l18.5-18.5c0 1.9 0 3.8-.1 5.7L75 56c.6-2.2 1-4.4 1-6.7zm18.3-33.9L72.8 36.9c-.7-1.2-1.4-2.3-2.3-3.4l20.2-20.2c1.1.1 2.3.3 3.5.4.1.6.1 1.2.1 1.7zM50.9 97C6.4 78.7 7 49.9 7.5 22.1c.1-2.8.1-5.6.1-8.4 18.2-2 29.4-5.5 43.3-11.1 1.6.7 3.2 1.3 4.8 1.9L50.2 10c-.2.2-.2.5 0 .7.1.1.2.1.4.1s.3 0 .4-.1l5.9-5.9c1.4.5 2.8 1 4.1 1.5L50.2 17c-.2.2-.2.5 0 .7.1.1.2.1.4.1s.3 0 .4-.1l10.9-11c1.4.5 2.8 1 4.3 1.4l-16 16c-13.4.4-24.1 11.4-24.1 24.9 0 13.8 11.2 25 25 25 2.4 0 4.8-.4 7-1l-7.8 7.8c-.2.2-.2.5 0 .7.1.1.2.1.4.1s.3 0 .4-.1l9.3-9.3c6.4-2.5 11.6-7.7 14.1-14.1L94.4 38c-.1 2-.2 4.1-.4 6.1L50.2 87.9c-.2.2-.2.5 0 .7.1.1.2.1.4.1s.3 0 .4-.1l42.9-42.9c-.3 2.3-.6 4.5-1 6.7L50.2 95c-.2.2-.2.5 0 .7.1.1.2.1.4.1s.3 0 .4-.1l41.5-41.5c-.6 2.8-1.5 5.5-2.5 8.2L58.7 93.5c-2.4 1.2-5 2.4-7.8 3.5zm10.8-5.1l27.1-27.1c-4.6 10.1-12.7 19.3-27.1 27.1z"/><path d="M60.5 48.6c.8-.9 1.3-2 1.3-3.3 0-3.9-2.6-6.3-6.8-6.3v-5h-2.7v5h-2.7v-5H47v5h-6v3h.3c1.5 0 2.7.9 2.7 2.3v9.9c0 1.3.2 2.4-1.6 2.4-.1 0-1.4-.1-1.4-.1v2.6l6-.1-.2 5h2.7v-5h2.7v5H55v-5h1.4c4.3 0 6.8-2.3 6.8-6.2 0-1.9-1.1-3.4-2.7-4.2zM50 43h3.6c1.5 0 2.7 1.1 2.7 2.5S55.1 48 53.6 48H50v-5zm5 12h-5v-5h5c1.5 0 2.7 1.1 2.7 2.5S56.5 55 55 55z"/></g></svg>