<svg xmlns="http://www.w3.org/2000/svg" viewBox="0 0 130 100"><path fill="#FFF" d="M113.2 50.5l.4-13.6 3.3.4-2.5 13.3"/><path fill="#3354A8" d="M114.9 50.7l-1-.2 2.4-12.8-2.3-.2-.4 13h-1l.4-13.6c0-.1.1-.3.2-.4.1-.1.2-.1.4-.1l3.3.4c.1 0 .3.1.3.2s.1.3.1.4l-2.4 13.3zM103.5 41.3c-.1 0-.2 0-.3-.1-.2-.2-.2-.5-.1-.7l3.8-4.7c.2-.2.5-.2.7-.1.2.2.2.5.1.7l-3.8 4.7c-.1.1-.2.2-.4.2zM43 70.6c-.1 0-.3-.1-.4-.2l-7.2-9.1c-.2-.2-.1-.5.1-.7.2-.2.5-.1.7.1l7.2 9.1c.2.2.1.5-.1.7-.1.1-.2.1-.3.1zM32.8 40.3c-.1 0-.3-.1-.4-.2-.2-.2-.2-.5 0-.7l7.7-7.3c.2-.2.5-.2.7 0 .2.2.2.5 0 .7l-7.7 7.3c-.1.2-.2.2-.3.2z"/><path fill="#3354A8" d="M102.9 88.4H33.2c-.3 0-.6-.1-.7-.3s-.3-.5-.3-.8l2.5-26.2-3-21.1v-.3l4-26.5c.1-.5.6-.9 1.1-.8.5.1.9.6.8 1.1l-4 26.4 3 21.1v.2l-2.4 25.2H102l4.3-50.3-3.2-22.7c-.1-.5.3-1.1.9-1.1.5-.1 1.1.3 1.1.9l3.2 22.8v.2l-4.4 51.3c0 .5-.5.9-1 .9z"/><path fill="#FFF" d="M84 76.6c-16.2 3-35.3-4.2-37.2.4-3.3 8.1 15 14.2 26.7 15.6 11.6 1.4 28.2-3 41.3-13.3s3.8-16.6-8.8-11.1c-12.7 5.3-16.1 7.2-22 8.4z"/><path fill="#3354A8" d="M77.9 93.8c-1.6 0-3.1-.1-4.5-.3-8.5-1-23.3-5-27.1-11.5-1.1-1.8-1.2-3.6-.4-5.5.8-2 3.3-2.2 5.4-2.2 2.3 0 5.3.4 8.7.8 4.5.6 9.7 1.2 14.9 1.2 3.3 0 6.2-.2 8.9-.7 4.4-.8 7.4-2.2 14.1-5.1 2.2-.9 4.7-2.1 7.8-3.4 3.2-1.4 6.3-2.1 9-2.1 3.8 0 6.5 1.4 7.3 3.8.6 1.8.6 5.6-6.5 11.2-10.9 8.5-25.3 13.8-37.6 13.8zM51.3 76.4c-2.1 0-3.3.3-3.6 1-.5 1.2-.4 2.5.3 3.7 2.9 5 15.3 9.3 25.6 10.5 1.3.2 2.8.2 4.3.2 11.9 0 25.8-5.1 36.3-13.3 4.4-3.4 6.6-6.8 5.8-8.9-.5-1.5-2.5-2.4-5.4-2.4-2.5 0-5.3.7-8.3 1.9-3.1 1.3-5.6 2.4-7.7 3.4-6.8 3-9.9 4.3-14.5 5.2-2.8.5-5.8.8-9.2.8-5.4 0-10.6-.6-15.2-1.2-3.3-.6-6.2-.9-8.4-.9z"/><path fill="#3354A8" d="M84.4 85c-.2 0-.5-.2-.5-.4 0-.3.2-.5.4-.6 5.5-.8 12.1-4.4 15.5-7.4.2-.2.5-.2.7 0 .2.2.2.5 0 .7-3.5 3.2-10.3 6.9-16.1 7.7.1 0 0 0 0 0zM63.3 85.4s-.1 0 0 0c-4.7-.5-12.1-2.9-16.5-6.6-.2-.2-.2-.5-.1-.7.2-.2.5-.2.7-.1 4.3 3.6 11.4 5.9 15.9 6.4.3 0 .5.3.4.5.1.3-.2.5-.4.5z"/><path fill="#FFF" d="M20.2 24.5h-7.3v3.1c-.6 5.3-10 4.8-10 12.3v12.5c1.7.8 1.5 3.6 0 4.4V89c-1.8 1.1-1.5 3.9 0 4.8h17.3"/><path fill="#3354A8" d="M20.2 94.8H2.9c-.2 0-.4-.1-.5-.2-1-.7-1.7-1.9-1.7-3.3 0-1.2.4-2.2 1.2-2.9V56.9c0-.4.2-.7.5-.9.4-.2.7-.8.7-1.4 0-.3-.1-.9-.6-1.2-.4-.2-.6-.5-.6-.9V39.9c0-4.7 3.4-6.7 6-8.3 2-1.2 3.7-2.2 4-4v-3.1c0-.6.4-1 1-1h7.3c.6 0 1 .4 1 1s-.4 1-1 1h-6.3v2.2c-.3 2.9-2.7 4.2-4.9 5.6-2.6 1.5-5.1 3-5.1 6.6v12c.8.6 1.2 1.5 1.2 2.6 0 1.2-.4 2.2-1.2 2.9V89c0 .3-.2.7-.5.8-.7.4-.8 1.2-.8 1.5 0 .6.2 1.1.6 1.5h17c.6 0 1 .4 1 1s-.5 1-1 1z"/><path fill="#FFF" d="M20.2 24.5h7.3v3.1c.6 5.3 10 4.8 10 12.3v12.5c-1.7.8-1.5 3.6 0 4.4V89c1.8 1.1 1.5 3.9 0 4.8H20.2"/><path fill="#3354A8" d="M37.5 94.8H20.2c-.6 0-1-.4-1-1s.4-1 1-1h17c.3-.3.6-.9.6-1.5 0-.3-.1-1.1-.8-1.5-.3-.2-.5-.5-.5-.8V57.4c-.8-.6-1.2-1.7-1.2-2.9 0-1.1.5-2 1.2-2.6v-12c0-3.6-2.5-5-5.1-6.6-2.3-1.3-4.6-2.7-4.9-5.6v-2.2h-6.3c-.6 0-1-.4-1-1s.4-1 1-1h7.3c.6 0 1 .4 1 1v3.1c.2 1.8 2 2.9 4 4 2.7 1.6 6 3.6 6 8.3v12.5c0 .4-.2.7-.6.9-.6.3-.6.9-.6 1.2 0 .6.3 1.2.7 1.4.3.2.5.5.5.9v31.6c.8.7 1.2 1.7 1.2 2.9 0 1.4-.7 2.6-1.7 3.3-.2.2-.3.2-.5.2z"/><path fill="#FFF" d="M8.7 18.3h23.4v7H8.7z"/><path fill="#3354A8" d="M32.1 25.8H8.7c-.3 0-.5-.2-.5-.5v-7c0-.3.2-.5.5-.5h23.4c.3 0 .5.2.5.5v7c0 .3-.2.5-.5.5zm-22.9-1h22.4v-6H9.2v6z"/><path fill="#3354A8" d="M10.9 25.8c-.3 0-.5-.2-.5-.5v-7c0-.3.2-.5.5-.5s.5.2.5.5v7c0 .3-.2.5-.5.5zM13.6 25.8c-.3 0-.5-.2-.5-.5v-7c0-.3.2-.5.5-.5s.5.2.5.5v7c0 .3-.2.5-.5.5zM16.3 25.8c-.3 0-.5-.2-.5-.5v-7c0-.3.2-.5.5-.5s.5.2.5.5v7c0 .3-.2.5-.5.5zM19 25.8c-.3 0-.5-.2-.5-.5v-7c0-.3.2-.5.5-.5s.5.2.5.5v7c0 .3-.2.5-.5.5zM21.7 25.8c-.3 0-.5-.2-.5-.5v-7c0-.3.2-.5.5-.5s.5.2.5.5v7c0 .3-.2.5-.5.5zM24.4 25.8c-.3 0-.5-.2-.5-.5v-7c0-.3.2-.5.5-.5s.5.2.5.5v7c0 .3-.2.5-.5.5zM27.1 25.8c-.3 0-.5-.2-.5-.5v-7c0-.3.2-.5.5-.5s.5.2.5.5v7c0 .3-.2.5-.5.5zM29.8 25.8c-.3 0-.5-.2-.5-.5v-7c0-.3.2-.5.5-.5s.5.2.5.5v7c0 .3-.2.5-.5.5zM37.5 57.4H2.9c-.3 0-.5-.2-.5-.5s.2-.5.5-.5h34.6c.3 0 .5.2.5.5s-.3.5-.5.5zM34.7 48.8h-7.2c-.3 0-.5-.2-.5-.5s.2-.5.5-.5h7.2c.3 0 .5.2.5.5s-.2.5-.5.5zM18.6 52.8h-7.3c-.3 0-.5-.2-.5-.5s.2-.5.5-.5h7.3c.3 0 .5.2.5.5s-.2.5-.5.5zM10.1 45.8H6.6c-.3 0-.5-.2-.5-.5s.2-.5.5-.5H10c.3 0 .5.2.5.5s-.2.5-.4.5zM27.6 44.2h-3.4c-.3 0-.5-.2-.5-.5s.2-.5.5-.5h3.4c.3 0 .5.2.5.5s-.2.5-.5.5zM37.5 89.5H2.9c-.3 0-.5-.2-.5-.5s.2-.5.5-.5h34.6c.3 0 .5.2.5.5s-.3.5-.5.5zM16.8 82.6c-.1 0-.2 0-.3-.1-.2-.1-.3-.4-.2-.6l3.9-7.7-3.6-1c-.2 0-.3-.2-.3-.3-.1-.2 0-.3.1-.5l7.7-9.5c.2-.2.4-.2.6-.1.2.1.3.4.2.6l-2.9 7 4 1.1c.2 0 .3.2.3.3s0 .3-.1.5l-9.1 10.2c0 .1-.2.1-.3.1zm.8-10.2l3.5 1c.1 0 .3.1.3.3s.1.3 0 .4L19 78.9l6-6.7-3.8-1c-.1 0-.3-.1-.3-.3-.1-.1-.1-.3 0-.4l1.8-4.2-5.1 6.1zM37.5 41.3c-.3 0-.5-.2-.5-.5 0 0-.4-1-4.9-1.4-3-.2-5.3.2-7.6.5-1.7.3-3.4.6-5.5.6-1.5 0-3.1-.3-4.9-.5-3.6-.5-7.7-1.1-11 .4-.3.1-.5 0-.7-.2-.1-.3 0-.5.2-.7 3.6-1.6 7.8-1 11.6-.4 1.7.3 3.3.5 4.8.5 1.9 0 3.6-.3 5.3-.6 2.3-.4 4.7-.8 7.8-.6 5.5.4 5.9 1.9 5.9 2.4 0 .3-.3.5-.5.5z"/><path fill="#FFF" d="M113.9 50c6.8-.5 9.7 5.6 8.4 14.7-1.1 7.8 7.3 7.7 5.2 17.4s-10.8 12.8-19.9 11.5S91.2 86.8 91.8 77s8.8-7.3 9.9-15.2c1.4-9.2 5.3-14.3 12.2-11.8z"/><path fill="#3354A8" d="M111.4 94.8c-1.3 0-2.6-.1-4-.3-10.9-1.6-17.3-8.4-16.6-17.7.4-5.8 3.2-7.7 5.7-9.4 2-1.4 3.8-2.6 4.2-5.8 1.6-10.9 6.2-13.2 9.8-13.2 1.1 0 2.3.2 3.5.6 2.9-.2 5.2.8 6.9 2.7 2.3 2.7 3.2 7.4 2.3 13.1-.5 3.2.9 4.9 2.4 6.8 1.9 2.4 4 5 2.8 10.7-1.8 7.9-7.9 12.5-17 12.5zm-.8-44.4c-5.1 0-7.1 6.2-7.9 11.5-.6 4.1-3 5.7-5.1 7.2-2.3 1.6-4.5 3.1-4.8 7.9-.6 8.3 5 14.1 14.9 15.6 1.3.2 2.5.3 3.7.3 8 0 13.5-4 15-11 1.1-4.7-.6-6.8-2.4-9-1.6-2-3.4-4.2-2.8-8.3.8-5.2.1-9.3-1.9-11.5-1.3-1.5-3.1-2.2-5.4-2-.1 0-.3 0-.4-.1-1-.4-2-.6-2.9-.6z"/><circle fill="#3354A8" cx="119" cy="74.9" r=".6"/><circle fill="#3354A8" cx="113.1" cy="87.2" r=".6"/><circle fill="#3354A8" cx="115.9" cy="89.5" r=".6"/><circle fill="#3354A8" cx="110.4" cy="92.8" r=".6"/><circle fill="#3354A8" cx="66.2" cy="85.2" r=".6"/><circle fill="#3354A8" cx="69" cy="85.5" r=".6"/><circle fill="#3354A8" cx="72.7" cy="85.2" r=".6"/><circle fill="#3354A8" cx="124.1" cy="81.2" r=".6"/><circle fill="#3354A8" cx="118.8" cy="62.3" r=".6"/><circle fill="#3354A8" cx="117.4" cy="57.7" r=".6"/><circle fill="#3354A8" cx="117.2" cy="82.1" r="1.3"/><circle fill="#3354A8" cx="124.7" cy="74.3" r="1.3"/><circle fill="#3354A8" cx="120.5" cy="87" r="1.3"/><circle fill="#3354A8" cx="113" cy="67.6" r="1.3"/><circle fill="#3354A8" cx="106.7" cy="88.2" r="1.3"/><path fill="#FFF" d="M105.6 4.1l-7.7 2-8.1-2-6.4 2-5.8-2-6.1 2-7.6-2-8.2 2-9.1-2-6.5 2-5.3-2 1.5 9.2 31.6 2 36.7-2z"/><path fill="#3354A8" d="M67.9 15.8l-31.6-2c-.2 0-.4-.2-.5-.4l-1.5-9.2c0-.2 0-.4.2-.5s.3-.1.5-.1l5.2 1.9 6.4-2h.3l9 2 8.1-2h.2l7.4 2 5.9-2h.3l5.7 1.9 6.2-2h.3l7.9 2 7.6-2c.2 0 .3 0 .5.1.1.1.2.3.2.4l-1 9.2c0 .2-.2.4-.5.4l-36.8 2.3zm-31.2-3l31.2 2 36.3-2 .9-8.1-7 1.8h-.2l-7.9-2-6.2 2h-.3l-5.7-1.9-5.9 1.9h-.3l-7.4-2-8.1 2h-.2l-8.9-2-6.4 2h-.3l-4.5-1.7.9 8z"/><path fill="#3354A8" d="M39.2 11.4c-.2 0-.4-.1-.5-.4L37 5.3c0-.3.1-.5.4-.6.2-.1.5 0 .6.3l1.7 5.7c.1.3-.1.5-.3.6-.1.1-.1.1-.2.1zM45.7 10.1c-.2 0-.4-.2-.5-.4l-1-4.6c-.1-.3.1-.5.4-.6.3-.1.5.1.6.4l1 4.6c.1.3-.1.5-.4.6h-.1zM52.5 9.7h-.1c-.3-.1-.4-.3-.4-.6l.8-3.3c.1-.3.3-.4.6-.4.3.1.4.3.4.6L53 9.3c0 .3-.2.4-.5.4zM82.2 10.2c-.3 0-.5-.3-.5-.5l.4-3.9c0-.3.3-.5.5-.4.3 0 .5.3.4.5l-.4 3.9c.1.2-.1.4-.4.4zM95.4 10.2c-.4-.1-.5-.3-.5-.6l.8-3.9c.1-.3.3-.4.6-.4.3.1.4.3.4.6l-.8 3.9c0 .2-.2.4-.5.4zM67.5 10.2s-.1 0 0 0c-.4-.1-.5-.3-.5-.6l.8-4.3c0-.3.3-.5.6-.4.3 0 .5.3.4.6L68 9.8c-.1.2-.3.4-.5.4zM61 10.1c-.2 0-.4-.2-.5-.4l-.9-4.4c-.1-.3.1-.5.4-.6.3-.1.5.1.6.4l.9 4.4c.1.3-.1.5-.4.6H61zM75.5 11c-.2 0-.4-.2-.5-.4l-1-5.4c0-.3.1-.5.4-.6.3-.1.6.1.6.4l.9 5.4c.1.3-.1.6-.4.6zM88.4 9c-.3 0-.5-.2-.5-.5v-4c0-.3.2-.5.5-.5s.5.2.5.5v4c0 .3-.2.5-.5.5zM102.1 11.2c-.2 0-.4-.2-.5-.4l-.9-5.4c0-.3.1-.5.4-.6.3 0 .5.1.6.4l.9 5.4c.1.3-.1.6-.5.6.1 0 .1 0 0 0zM41.7 13.8c-.1 0-.1 0 0 0-.3 0-.5-.3-.5-.6l.5-4.6c0-.3.3-.5.5-.4.3 0 .5.3.4.5l-.5 4.6c0 .3-.2.5-.4.5zM48.9 14.6c-.3 0-.5-.2-.5-.5V8.6c0-.3.2-.5.5-.5s.5.2.5.5v5.5c0 .3-.2.5-.5.5zM56.8 14.5c-.3 0-.5-.2-.5-.5V9.5c0-.3.2-.5.5-.5s.5.2.5.5V14c0 .3-.2.5-.5.5zM71.7 15.5c-.3 0-.5-.2-.5-.5V9.5c0-.3.2-.5.5-.5s.5.2.5.5V15c0 .3-.3.5-.5.5zM91.7 14.5c-.2 0-.5-.2-.5-.4l-.8-4.5c0-.3.1-.5.4-.6.3 0 .5.1.6.4l.8 4.5c.1.3-.1.5-.5.6.1 0 .1 0 0 0zM99 14c-.3 0-.5-.2-.5-.5V8c0-.3.2-.5.5-.5s.5.2.5.5v5.5c0 .3-.2.5-.5.5zM85.2 14.8s-.1 0 0 0c-.4-.1-.5-.3-.5-.6l.8-3.8c.1-.3.3-.4.6-.4.3.1.4.3.4.6l-.8 3.8c-.1.3-.3.4-.5.4zM64 15.5c-.3 0-.5-.3-.5-.6l.5-4.3c0-.3.3-.5.6-.4.3 0 .5.3.4.6l-.5 4.3c0 .2-.2.4-.5.4zM78.3 15.1c-.3 0-.5-.3-.5-.5l.6-5.6c0-.3.3-.5.5-.4.3 0 .5.3.4.5l-.5 5.5c0 .3-.2.5-.5.5zM73.5 22.3c-.1 0-.3-.1-.4-.2l-5.6-6.5c-.2-.2-.2-.5.1-.7.2-.2.5-.2.7.1l5.6 6.5c.2.2.2.5-.1.7-.1.1-.2.1-.3.1z"/><g fill="#3354A8"><path d="M68.1 55.4c-4.9 0-8.7-1.7-9.7-4.3-.6-1.4-.2-2.8.9-3.9.8-.8 1.7-1.2 2.6-1.2 1.4 0 2.8.9 4.6 2 2.8 1.7 6.6 4.1 12.5 4.1.2 0 .5.2.5.4s-.1.5-.3.6c-3.9 1.5-7.6 2.3-11.1 2.3zM61.9 47c-.7 0-1.3.3-1.9.9-.9.9-1.1 1.8-.7 2.8.7 1.8 3.8 3.7 8.8 3.7 2.6 0 5.4-.5 8.4-1.4-4.8-.5-8-2.6-10.5-4.1-1.6-1.1-2.9-1.9-4.1-1.9z"/><path d="M79.1 53.1c-.2 0-.4-.1-.5-.3-.1-.3 0-.5.3-.6 2.7-1.1 4.7-3 4.9-4.8.1-1.1-.5-2.1-1.8-3-2.3-1.5-4.9.4-7.6 2.5-2 1.5-4 3-6.1 3.3-.3 0-.5-.2-.6-.4 0-.3.2-.5.4-.6 1.8-.2 3.8-1.7 5.6-3.1 2.9-2.2 5.9-4.4 8.8-2.5 2 1.3 2.3 2.9 2.2 3.9-.2 2.2-2.4 4.5-5.5 5.7 0-.1-.1-.1-.1-.1z"/></g><path fill="#3354A8" d="M61.3 66.7c-11.5 0-19.8-4.1-21.3-10.4-1-4.4 1.3-9.1 6.5-13.5 5-4.2 12.1-7.5 20.1-9.3 4.3-1 8.5-1.5 12.5-1.5 11.5 0 19.8 4.1 21.3 10.4 1 4.4-1.3 9.1-6.5 13.5-5 4.2-12.1 7.5-20.1 9.3-4.2 1-8.4 1.5-12.5 1.5zM79.1 34c-3.9 0-8 .5-12.1 1.4-7.6 1.8-14.5 4.9-19.2 8.9-4.6 3.8-6.6 7.9-5.8 11.5 1.2 5.4 8.8 8.8 19.3 8.8 3.9 0 8-.5 12.1-1.4 7.6-1.8 14.5-4.9 19.2-8.9 4.6-3.8 6.6-7.9 5.8-11.5-1.2-5.3-8.8-8.8-19.3-8.8z"/><path fill="#3354A8" d="M61.2 63.3c-9.7 0-16.3-3-17.5-7.9-1.6-6.9 9-15.3 23.6-18.7 4.1-.9 8.1-1.4 11.9-1.4 9.7 0 16.3 3 17.5 7.9 1.6 6.9-9 15.3-23.6 18.7-4.1 1-8.1 1.4-11.9 1.4zm18-26.9c-3.7 0-7.7.5-11.7 1.4-14.1 3.2-24.3 11-22.8 17.4 1 4.3 7.5 7.1 16.5 7.1 3.7 0 7.7-.5 11.7-1.4C87 57.7 97.2 49.8 95.7 43.4c-1-4.3-7.5-7-16.5-7z"/></svg>