<svg width="365" height="529" viewBox="0 0 365 529" xmlns="http://www.w3.org/2000/svg"><title>Artboard 7</title><g fill="none" fill-rule="evenodd"><path d="M186.5 17.5h-34.015M221.037 109.5h-34.015M186.037 201.5h-34.015M186.037 407.5h-34.015M221.037 301.5h-34.015M221.037 504.5h-34.015" stroke="#D3D3D3" stroke-linecap="square"/><path d="M184.537 14.5v500.256" stroke="#B2B5B9" stroke-linecap="square" stroke-dasharray="1,3"/><path d="M184.537 518c7.732 0 14-6.268 14-14s-6.268-14-14-14-14 6.268-14 14 6.268 14 14 14zm0-91.5c10.907 0 19.75-8.842 19.75-19.75S195.444 387 184.537 387c-10.908 0-19.75 8.842-19.75 19.75s8.842 19.75 19.75 19.75zm0-102.5c12.702 0 23-10.297 23-23s-10.298-23-23-23c-12.703 0-23 10.297-23 23s10.297 23 23 23zm0-294c7.18 0 13-5.82 13-13s-5.82-13-13-13-13 5.82-13 13 5.82 13 13 13zm0 185c7.456 0 13.5-6.044 13.5-13.5s-6.044-13.5-13.5-13.5-13.5 6.044-13.5 13.5 6.044 13.5 13.5 13.5zm0-90c8.836 0 16-7.163 16-16s-7.164-16-16-16c-8.837 0-16 7.163-16 16s7.163 16 16 16z" stroke="#91BEE7" stroke-linecap="round" fill="#EFF8FF"/><path d="M190.645 15.703h-4.674l-1.433-4.205-1.435 4.205h-4.674l3.823 2.588-1.488 4.206 3.775-2.606 3.774 2.606-1.49-4.205 3.825-2.587z" fill="#91BDE7"/><path d="M53.223 16.595v-7.11h2.324c.365 0 .69.037.977.11.286.074.53.188.73.342.2.155.353.35.46.59.104.237.157.52.157.853 0 .332-.093.626-.282.882-.19.255-.446.453-.77.593.197.055.374.137.528.244a1.61 1.61 0 0 1 .633.873c.054.182.082.373.082.57 0 .333-.056.627-.17.883-.11.255-.27.47-.475.644a2.05 2.05 0 0 1-.742.393c-.29.088-.612.132-.967.132h-2.485zm.937-3.325v2.56h1.548c.225 0 .424-.03.598-.092.175-.06.322-.145.442-.254.12-.11.213-.242.276-.4a1.41 1.41 0 0 0 .095-.53c0-.195-.027-.373-.08-.532a.99.99 0 0 0-.245-.405 1.127 1.127 0 0 0-.428-.257 1.872 1.872 0 0 0-.615-.09H54.16zm0-.752h1.416c.202 0 .386-.026.552-.078.166-.052.31-.127.427-.225a.998.998 0 0 0 .276-.36 1.14 1.14 0 0 0 .1-.48c0-.39-.115-.674-.343-.852-.228-.177-.574-.266-1.04-.266H54.16v2.26zm6.894 4.077h-.937v-7.11h.937v7.11zm7.085-6.338h-2.286v6.338h-.933v-6.338h-2.28v-.77h5.5v.77zm2.59 3.555v2.783h-.937v-7.11h2.622c.404 0 .76.055 1.07.162.31.107.57.258.78.452.21.192.368.422.477.687.11.265.164.556.164.872 0 .34-.055.646-.164.914-.11.27-.268.494-.478.676-.21.183-.47.322-.78.418a3.61 3.61 0 0 1-1.07.144h-1.683zm0-.767h1.685c.274 0 .51-.034.706-.102.198-.068.36-.164.484-.286a1.11 1.11 0 0 0 .276-.434 1.67 1.67 0 0 0 .088-.555c0-.182-.03-.358-.088-.53a1.21 1.21 0 0 0-.276-.45 1.35 1.35 0 0 0-.483-.313 1.912 1.912 0 0 0-.705-.118H70.73v2.788zm9.224 1.695h-2.98l-.668 1.855h-.966l2.715-7.11h.82l2.72 7.11h-.962l-.68-1.855zm-2.695-.772h2.416l-1.21-3.325-1.207 3.325zm7.6-.913l1.856-3.57h1.064l-2.45 4.46v2.65h-.938v-2.65l-2.45-4.46h1.073l1.846 3.57zm11.435.4h-2.983v3.14h-.938v-7.11h4.404v.772h-3.466v2.432h2.983v.766zm7.675-.185a4.69 4.69 0 0 1-.202 1.433c-.136.422-.327.78-.574 1.077a2.455 2.455 0 0 1-.9.678 2.866 2.866 0 0 1-1.175.235c-.42 0-.807-.078-1.16-.235a2.544 2.544 0 0 1-.907-.678 3.165 3.165 0 0 1-.59-1.077c-.14-.42-.21-.9-.21-1.433v-.45c0-.53.07-1.007.21-1.432.14-.425.335-.786.585-1.082.25-.296.552-.523.904-.68a2.792 2.792 0 0 1 1.157-.238c.432 0 .825.08 1.178.237.353.158.654.385.903.68.25.297.442.658.578 1.083.135.425.202.902.202 1.433v.45zm-.932-.46a4.4 4.4 0 0 0-.13-1.122 2.36 2.36 0 0 0-.378-.82c-.166-.222-.37-.39-.608-.503-.24-.114-.51-.17-.813-.17-.29 0-.555.056-.792.17-.238.114-.44.28-.608.503a2.43 2.43 0 0 0-.388.82c-.09.326-.137.7-.137 1.123v.46c0 .426.046.802.14 1.128.092.325.223.6.392.823.17.224.373.392.61.506.238.114.502.17.792.17.305 0 .576-.056.814-.17.238-.114.44-.282.603-.505.164-.222.29-.497.374-.822.085-.326.128-.702.128-1.128v-.46zm7.943-3.324V14.3c0 .4-.07.75-.21 1.05-.14.3-.327.55-.563.747-.236.2-.51.348-.822.447-.313.1-.642.15-.987.15-.36 0-.698-.05-1.01-.15a2.282 2.282 0 0 1-.813-.447c-.23-.198-.41-.447-.542-.747-.132-.3-.198-.65-.198-1.05V9.486h.928V14.3c0 .277.04.517.12.72.08.204.19.373.334.508.143.135.315.236.515.3.2.066.422.098.666.098.248 0 .472-.032.674-.097.202-.066.374-.167.518-.302.143-.135.254-.304.332-.507.078-.203.117-.443.117-.72V9.486h.94zm7.545 7.11h-.943l-3.58-5.48v5.48h-.94v-7.11h.94l3.59 5.503V9.485h.933v7.11zm2.265 0v-7.11h2.007c.468 0 .895.078 1.28.234a2.8 2.8 0 0 1 .988.67c.275.29.488.64.64 1.054.15.413.226.877.226 1.39v.42c0 .516-.074.98-.226 1.393-.15.413-.366.764-.644 1.052a2.8 2.8 0 0 1-1.013.663c-.398.155-.842.232-1.334.232h-1.923zm.937-6.34v5.573h.986c.378 0 .71-.062.997-.184.286-.123.525-.296.717-.52.192-.225.336-.495.432-.81.096-.317.144-.67.144-1.06v-.435c0-.406-.05-.768-.147-1.086a2.22 2.22 0 0 0-.43-.805c-.188-.22-.42-.388-.693-.502a2.42 2.42 0 0 0-.937-.17h-1.07zm10.24 3.053h-3.082v2.52h3.58v.765h-4.518v-7.11h4.468v.772h-3.53v2.285h3.08v.767zm2.264 3.285v-7.11h2.008c.468 0 .895.08 1.28.235a2.8 2.8 0 0 1 .988.67c.275.29.488.64.64 1.054.15.413.226.877.226 1.39v.42c0 .516-.075.98-.227 1.393-.15.413-.366.764-.644 1.052a2.8 2.8 0 0 1-1.012.663c-.397.155-.842.232-1.333.232h-1.924zm.938-6.338v5.572h.987c.377 0 .71-.062.996-.184.287-.123.527-.296.72-.52.19-.225.335-.495.43-.81.097-.317.145-.67.145-1.06v-.435c0-.406-.05-.768-.147-1.086a2.22 2.22 0 0 0-.43-.805c-.188-.22-.42-.388-.693-.502a2.42 2.42 0 0 0-.937-.17h-1.07zM41.18 186.5h-.91v-6.02l-1.82.668v-.82l2.588-.972h.14v7.144zm7.704-3.032c0 .582-.052 1.073-.156 1.472-.105.4-.254.72-.447.967a1.65 1.65 0 0 1-.702.53 2.54 2.54 0 0 1-.93.16c-.342 0-.652-.053-.928-.16a1.663 1.663 0 0 1-.708-.53c-.196-.246-.347-.568-.454-.967-.108-.4-.16-.89-.16-1.472v-1.084c0-.583.05-1.07.157-1.465.106-.395.257-.712.452-.953.195-.24.43-.414.705-.518.275-.105.584-.157.926-.157.345 0 .656.052.932.156.277.103.513.276.708.517.196.24.345.558.45.952.104.393.156.88.156 1.464v1.084zm-.904-1.236c0-.4-.028-.74-.085-1.02a1.954 1.954 0 0 0-.256-.68 1.018 1.018 0 0 0-.424-.38 1.356 1.356 0 0 0-.578-.117c-.215 0-.406.04-.574.117a1.002 1.002 0 0 0-.42.38 2.02 2.02 0 0 0-.256.68c-.06.28-.088.62-.088 1.02v1.377c0 .397.03.737.088 1.022.058.285.145.52.26.7.117.183.258.317.426.4.167.086.36.128.573.128.222 0 .416-.042.582-.127.165-.084.304-.218.416-.4.112-.182.196-.416.25-.7.057-.286.084-.626.084-1.024v-1.378zm3.574 3.92c0 .148-.02.3-.056.46-.037.16-.093.318-.166.474a2.74 2.74 0 0 1-.266.45c-.104.142-.225.27-.36.38l-.514-.352a2.81 2.81 0 0 0 .354-.66c.083-.227.124-.472.124-.736v-.737h.884v.723zm6.108-2.684c0 .582-.052 1.073-.156 1.472-.104.4-.253.72-.447.967a1.65 1.65 0 0 1-.704.53 2.54 2.54 0 0 1-.93.16c-.342 0-.65-.053-.928-.16a1.663 1.663 0 0 1-.708-.53c-.195-.246-.347-.568-.454-.967-.108-.4-.16-.89-.16-1.472v-1.084c0-.583.052-1.07.157-1.465.106-.395.257-.712.452-.953.195-.24.43-.414.706-.518.276-.105.584-.157.926-.157.345 0 .656.052.932.156.277.103.513.276.708.517.196.24.346.558.45.952.104.393.156.88.156 1.464v1.084zm-.903-1.236c0-.4-.03-.74-.087-1.02a1.954 1.954 0 0 0-.256-.68 1.018 1.018 0 0 0-.423-.38 1.356 1.356 0 0 0-.578-.117c-.215 0-.406.04-.574.117a1.002 1.002 0 0 0-.42.38 2.02 2.02 0 0 0-.256.68c-.06.28-.088.62-.088 1.02v1.377c0 .397.03.737.088 1.022.058.285.146.52.26.7.117.183.258.317.426.4.168.086.36.128.574.128.22 0 .415-.042.58-.127.167-.084.306-.218.418-.4.112-.182.196-.416.252-.7.055-.286.083-.626.083-1.024v-1.378zm7.117 1.236c0 .582-.052 1.073-.156 1.472-.103.4-.252.72-.446.967a1.65 1.65 0 0 1-.703.53 2.54 2.54 0 0 1-.93.16c-.34 0-.65-.053-.927-.16a1.663 1.663 0 0 1-.708-.53c-.195-.246-.347-.568-.454-.967-.106-.4-.16-.89-.16-1.472v-1.084c0-.583.053-1.07.16-1.465.104-.395.255-.712.45-.953.196-.24.43-.414.706-.518.275-.105.583-.157.925-.157.346 0 .657.052.934.156.276.103.512.276.708.517.195.24.345.558.45.952.103.393.155.88.155 1.464v1.084zm-.903-1.236c0-.4-.03-.74-.086-1.02a1.954 1.954 0 0 0-.256-.68 1.018 1.018 0 0 0-.422-.38 1.356 1.356 0 0 0-.58-.117c-.214 0-.405.04-.573.117a1.002 1.002 0 0 0-.42.38 2.02 2.02 0 0 0-.256.68c-.058.28-.087.62-.087 1.02v1.377c0 .397.03.737.088 1.022.06.285.147.52.262.7.116.183.257.317.425.4.168.086.36.128.574.128.222 0 .416-.042.582-.127.166-.084.305-.218.417-.4.112-.182.196-.416.25-.7.056-.286.084-.626.084-1.024v-1.378zm7.118 1.236c0 .582-.052 1.073-.156 1.472-.104.4-.253.72-.447.967a1.65 1.65 0 0 1-.704.53 2.54 2.54 0 0 1-.93.16c-.342 0-.65-.053-.928-.16a1.663 1.663 0 0 1-.708-.53c-.195-.246-.346-.568-.454-.967-.107-.4-.16-.89-.16-1.472v-1.084c0-.583.052-1.07.158-1.465.106-.395.256-.712.45-.953.197-.24.432-.414.707-.518.276-.105.585-.157.926-.157.345 0 .656.052.933.156.276.103.512.276.707.517.195.24.345.558.45.952.103.393.155.88.155 1.464v1.084zm-.903-1.236c0-.4-.03-.74-.086-1.02a1.954 1.954 0 0 0-.257-.68 1.018 1.018 0 0 0-.422-.38 1.356 1.356 0 0 0-.58-.117c-.214 0-.405.04-.572.117a1.002 1.002 0 0 0-.42.38 2.02 2.02 0 0 0-.257.68c-.058.28-.088.62-.088 1.02v1.377c0 .397.03.737.088 1.022.06.285.146.52.262.7.115.183.257.317.424.4.168.086.36.128.574.128.22 0 .415-.042.58-.127.167-.084.306-.218.42-.4.11-.182.195-.416.25-.7.055-.286.083-.626.083-1.024v-1.378zm7.18-2.84l2.325 5.8 2.324-5.8h1.215v7.108h-.938v-2.77l.088-2.987-2.334 5.757h-.717l-2.33-5.742.094 2.973v2.77h-.937v-7.11h1.21zm12.14 3.822h-3.082v2.52h3.58v.766H84.49v-7.11h4.468v.772h-3.53v2.285h3.08v.767zm4.87.41h-1.67v2.876h-.94v-7.11h2.352c.8 0 1.417.183 1.848.548.432.364.647.895.647 1.59 0 .444-.12.83-.358 1.16-.24.327-.574.573-1 .736l1.67 3.017v.06h-1.006l-1.543-2.876zm-1.67-.767h1.442c.253 0 .476-.035.666-.105.19-.07.35-.164.476-.283.127-.12.222-.26.286-.42.063-.162.095-.335.095-.52 0-.206-.03-.392-.09-.56a1.1 1.1 0 0 0-.28-.432 1.277 1.277 0 0 0-.484-.278 2.217 2.217 0 0 0-.698-.098h-1.41v2.695zm11.05 1.387c-.04.335-.12.647-.246.935a2.26 2.26 0 0 1-.52.746c-.222.21-.492.375-.81.493-.32.118-.693.178-1.12.178-.42 0-.8-.078-1.142-.235a2.48 2.48 0 0 1-.876-.666 3.07 3.07 0 0 1-.562-1.038 4.342 4.342 0 0 1-.197-1.353v-.713c0-.498.066-.95.2-1.355a3.03 3.03 0 0 1 .57-1.04c.25-.29.55-.512.902-.67.352-.158.75-.237 1.188-.237.4 0 .755.06 1.065.176.31.116.572.28.788.49.218.21.39.46.516.75.127.293.21.614.244.966h-.942a3.192 3.192 0 0 0-.166-.67 1.505 1.505 0 0 0-.31-.507 1.303 1.303 0 0 0-.49-.323 1.966 1.966 0 0 0-.704-.113c-.316 0-.593.06-.832.184-.24.122-.44.293-.6.512-.162.22-.283.485-.365.796-.08.31-.12.654-.12 1.028v.723c0 .348.036.675.11.98.072.307.184.575.333.804.15.23.34.41.572.543.23.132.504.198.82.198.3 0 .552-.035.757-.106.205-.072.375-.175.51-.31.135-.136.24-.302.315-.498.075-.197.132-.42.17-.672h.943zm7.344 2.256h-.943v-3.286h-3.583v3.286h-.937v-7.11h.937v3.057h3.584v-3.056h.944v7.11zm6.278-1.855h-2.978l-.67 1.855h-.966l2.715-7.11h.82l2.72 7.11h-.962l-.678-1.855zm-2.695-.772h2.417l-1.21-3.325-1.207 3.325zm11.357 2.627h-.943l-3.578-5.48v5.48h-.942v-7.11h.942l3.59 5.504v-5.503h.932v7.11zm7.035-6.338h-2.286v6.338h-.932v-6.338h-2.28v-.77h5.497v.77zm5.365 4.54c0-.165-.025-.31-.076-.438a.876.876 0 0 0-.27-.35 2.14 2.14 0 0 0-.52-.297 7.6 7.6 0 0 0-.83-.286 7.05 7.05 0 0 1-.954-.343 3.136 3.136 0 0 1-.728-.445c-.2-.167-.354-.358-.46-.573a1.627 1.627 0 0 1-.162-.74c0-.275.058-.532.173-.768.115-.236.278-.44.49-.615.212-.174.465-.31.762-.408.296-.098.626-.147.99-.147.4 0 .758.06 1.07.18.313.12.576.28.79.48a2.04 2.04 0 0 1 .652 1.494h-.944c0-.198-.03-.382-.095-.55a1.16 1.16 0 0 0-.29-.44 1.34 1.34 0 0 0-.49-.29 2.103 2.103 0 0 0-.692-.102c-.25 0-.47.03-.654.088-.187.06-.34.14-.46.242a.96.96 0 0 0-.27.364c-.058.14-.087.293-.087.46 0 .15.032.285.095.41.064.123.162.237.296.34.133.105.305.2.515.29.21.087.46.17.753.253.404.115.752.24 1.045.38.293.138.535.295.725.47.19.176.332.373.425.59.093.22.14.467.14.743 0 .29-.06.552-.176.786a1.72 1.72 0 0 1-.5.6 2.367 2.367 0 0 1-.782.383c-.305.09-.644.135-1.018.135a3.56 3.56 0 0 1-.655-.06 3.24 3.24 0 0 1-.627-.184 2.78 2.78 0 0 1-.557-.303 2.15 2.15 0 0 1-.446-.42 1.88 1.88 0 0 1-.406-1.19h.944c0 .244.048.453.144.627.096.174.224.318.385.432.162.113.347.197.557.25.21.054.43.08.662.08.495 0 .874-.1 1.137-.302a.983.983 0 0 0 .395-.825zm-97.38 13.943H37.09l-.67 1.855h-.966l2.715-7.11h.82l2.72 7.11h-.962l-.68-1.855zm-2.694-.772h2.418l-1.21-3.325-1.207 3.325zm11.07.37c-.04.336-.122.648-.247.936a2.26 2.26 0 0 1-.52.746c-.22.21-.492.375-.81.493-.32.118-.692.178-1.12.178-.42 0-.8-.078-1.14-.235a2.48 2.48 0 0 1-.878-.666 3.07 3.07 0 0 1-.56-1.038 4.342 4.342 0 0 1-.2-1.353v-.713c0-.498.068-.95.2-1.355a3.03 3.03 0 0 1 .572-1.04c.248-.29.548-.512.9-.67.354-.158.75-.237 1.19-.237.4 0 .755.06 1.065.176.31.116.572.28.788.49.217.21.388.46.515.75.127.293.21.614.244.966h-.943a3.192 3.192 0 0 0-.166-.67 1.505 1.505 0 0 0-.31-.507 1.303 1.303 0 0 0-.49-.323 1.966 1.966 0 0 0-.703-.113c-.316 0-.593.06-.832.184-.24.122-.44.293-.6.512-.162.22-.283.485-.365.796-.08.31-.122.654-.122 1.028v.723c0 .348.037.675.11.98.073.307.185.575.335.804.15.23.34.41.57.543.232.132.505.198.82.198.3 0 .553-.035.758-.106.206-.072.376-.175.51-.31.136-.136.24-.302.316-.498.075-.197.132-.42.17-.672h.943zm7.108 0c-.04.336-.12.648-.246.936a2.26 2.26 0 0 1-.52.746c-.222.21-.492.375-.81.493-.32.118-.693.178-1.12.178-.42 0-.8-.078-1.142-.235a2.48 2.48 0 0 1-.876-.666 3.07 3.07 0 0 1-.562-1.038 4.342 4.342 0 0 1-.197-1.353v-.713c0-.498.066-.95.2-1.355a3.03 3.03 0 0 1 .57-1.04c.25-.29.55-.512.902-.67.353-.158.75-.237 1.19-.237.4 0 .754.06 1.063.176.31.116.573.28.79.49.215.21.387.46.514.75.127.293.208.614.244.966h-.942a3.192 3.192 0 0 0-.166-.67 1.505 1.505 0 0 0-.31-.507 1.303 1.303 0 0 0-.49-.323 1.966 1.966 0 0 0-.704-.113c-.316 0-.593.06-.833.184-.24.122-.44.293-.6.512-.16.22-.283.485-.364.796-.082.31-.123.654-.123 1.028v.723c0 .348.037.675.11.98.073.307.185.575.334.804.15.23.342.41.573.543.23.132.504.198.82.198.3 0 .552-.035.757-.106.205-.072.375-.175.51-.31.135-.136.24-.302.315-.498.075-.197.132-.42.17-.672h.943zm5.898-1.03h-3.08v2.52h3.578v.767h-4.516v-7.11h4.467v.772h-3.53v2.285h3.08v.767zm3.203.504v2.783h-.94v-7.11h2.623c.404 0 .76.054 1.07.162.31.107.568.258.778.45.21.195.37.425.48.69.11.265.163.556.163.87 0 .343-.054.648-.163.917-.11.268-.27.493-.48.675-.21.183-.468.322-.777.418a3.61 3.61 0 0 1-1.07.144H64.65zm0-.767h1.683c.274 0 .51-.034.706-.102.196-.07.357-.164.482-.286a1.11 1.11 0 0 0 .276-.435 1.67 1.67 0 0 0 .088-.554c0-.182-.03-.36-.088-.53a1.21 1.21 0 0 0-.276-.45 1.35 1.35 0 0 0-.483-.314 1.912 1.912 0 0 0-.707-.118H64.65v2.788zm10.882-2.788h-2.285v6.338h-.933v-6.338h-2.28v-.77h5.498v.77zm2.66 6.338h-.937v-7.11h.937v7.11zm7.778 0h-.942l-3.58-5.48v5.48h-.942v-7.11h.943l3.588 5.504v-5.503h.932v7.11zm7.514-.933a2.428 2.428 0 0 1-.283.325c-.12.12-.278.23-.475.335-.197.104-.44.192-.725.263-.287.072-.63.108-1.03.108-.433 0-.83-.077-1.194-.23a2.635 2.635 0 0 1-.938-.66 3.05 3.05 0 0 1-.613-1.06 4.292 4.292 0 0 1-.22-1.424v-.557c0-.53.063-1.004.19-1.42.124-.418.308-.77.55-1.06.243-.29.542-.512.896-.665.356-.153.763-.23 1.222-.23.407 0 .763.055 1.07.165a2.18 2.18 0 0 1 1.294 1.145c.126.267.213.56.258.875h-.937a2.407 2.407 0 0 0-.17-.545c-.075-.17-.18-.32-.314-.448a1.447 1.447 0 0 0-.493-.305 1.966 1.966 0 0 0-.703-.113c-.332 0-.618.06-.86.18-.24.122-.44.294-.595.52a2.39 2.39 0 0 0-.35.814 4.64 4.64 0 0 0-.114 1.08v.566c0 .41.05.776.147 1.098.097.323.235.596.412.82.178.225.39.396.64.513.25.117.525.176.827.176.254 0 .47-.016.647-.05.18-.034.33-.077.45-.127.123-.05.22-.106.296-.166.075-.06.137-.117.186-.17v-1.595h-1.646v-.762h2.578v2.607zm5.238.933v-7.11h2.325c.364 0 .69.037.976.11.287.074.53.188.73.342.2.155.353.35.46.59.105.236.158.52.158.853 0 .332-.094.626-.282.882-.19.255-.446.453-.772.593.2.055.375.136.53.244a1.61 1.61 0 0 1 .632.874c.055.182.083.373.083.57 0 .333-.055.627-.167.883-.113.256-.27.47-.476.645a2.05 2.05 0 0 1-.743.393c-.29.088-.612.132-.966.132h-2.486zm.938-3.325v2.558h1.548c.224 0 .424-.03.598-.09s.32-.145.442-.254c.12-.11.212-.243.276-.4a1.41 1.41 0 0 0 .095-.53c0-.196-.027-.374-.08-.533a.99.99 0 0 0-.246-.406 1.127 1.127 0 0 0-.427-.255 1.872 1.872 0 0 0-.615-.09H99.66zm0-.752h1.416c.202 0 .386-.026.552-.078.166-.052.308-.127.427-.225a.998.998 0 0 0 .276-.36 1.14 1.14 0 0 0 .098-.48c0-.39-.114-.674-.34-.852-.23-.177-.576-.266-1.04-.266H99.66v2.26zm6.894 4.077h-.938v-7.11h.938v7.11zm7.084-6.338h-2.285v6.338h-.933v-6.338h-2.28v-.77h5.498v.77zm6.748 4.082c-.04.335-.122.647-.247.935a2.26 2.26 0 0 1-.52.746c-.222.21-.493.375-.812.493-.32.118-.69.178-1.118.178-.42 0-.8-.078-1.142-.235a2.48 2.48 0 0 1-.877-.666 3.07 3.07 0 0 1-.56-1.038 4.342 4.342 0 0 1-.198-1.353v-.713c0-.498.067-.95.2-1.355a3.03 3.03 0 0 1 .57-1.04c.25-.29.55-.512.902-.67.353-.158.75-.237 1.19-.237.4 0 .754.06 1.064.176.31.116.572.28.788.49.217.21.388.46.515.75.128.293.21.614.246.966h-.943a3.192 3.192 0 0 0-.166-.67 1.505 1.505 0 0 0-.31-.507 1.303 1.303 0 0 0-.49-.323 1.966 1.966 0 0 0-.704-.113c-.315 0-.593.06-.832.184-.24.122-.44.293-.6.512-.16.22-.282.485-.364.796-.08.31-.122.654-.122 1.028v.723c0 .348.037.675.11.98.073.307.185.575.335.804.148.23.34.41.57.543.23.132.504.198.82.198.3 0 .552-.035.757-.106.205-.072.375-.175.51-.31.135-.136.24-.302.315-.498.075-.197.132-.42.17-.672h.944zm7.348-1.07a4.69 4.69 0 0 1-.203 1.434c-.134.42-.325.78-.573 1.077a2.455 2.455 0 0 1-.898.678 2.866 2.866 0 0 1-1.178.235c-.42 0-.806-.078-1.157-.235a2.544 2.544 0 0 1-.908-.678 3.165 3.165 0 0 1-.59-1.077c-.14-.422-.21-.9-.21-1.433v-.45c0-.53.07-1.008.21-1.433.14-.424.334-.785.585-1.08.25-.297.55-.524.903-.682a2.792 2.792 0 0 1 1.157-.237c.433 0 .826.08 1.18.237.353.158.654.385.903.68.25.297.44.658.576 1.082.136.425.204.903.204 1.434v.45zm-.933-.458a4.4 4.4 0 0 0-.128-1.123 2.36 2.36 0 0 0-.38-.82c-.165-.222-.367-.39-.607-.503-.24-.114-.51-.17-.813-.17-.29 0-.553.056-.79.17-.238.113-.44.28-.61.502a2.43 2.43 0 0 0-.387.82c-.09.326-.137.7-.137 1.124v.46c0 .425.047.8.14 1.127.092.325.223.6.393.822.17.223.373.392.61.506.24.115.502.172.792.172.306 0 .578-.057.815-.17.238-.115.44-.284.604-.507.165-.222.29-.497.374-.822.085-.326.127-.702.127-1.128v-.46zm3.946 3.784h-.938v-7.11h.938v7.11zm7.777 0h-.942l-3.578-5.48v5.48h-.942v-7.11h.942l3.59 5.504v-5.503h.93v7.11zM237.788 95.192h-2.98l-.668 1.856h-.967l2.715-7.11h.82l2.72 7.11h-.962l-.678-1.856zm-2.696-.77h2.417l-1.212-3.327-1.206 3.326zm10.176-3.712h-2.286v6.338h-.932V90.71h-2.28v-.772h5.498v.772zm2.597 5.57h3.37v.768h-4.313v-7.11h.943v6.343zm9.057-1.088h-2.98l-.668 1.856h-.967l2.715-7.11h.82l2.72 7.11h-.962l-.678-1.856zm-2.696-.77h2.417l-1.21-3.327-1.207 3.326zm11.357 2.626h-.942l-3.578-5.48v5.48h-.943v-7.11h.942l3.59 5.503V89.94h.93v7.11zm7.036-6.338h-2.286v6.338h-.933V90.71h-2.28v-.772h5.5v.772zm5.193 4.482h-2.978l-.67 1.856h-.966l2.714-7.11h.82l2.72 7.11h-.962l-.68-1.856zm-2.695-.77h2.417l-1.21-3.327-1.207 3.326zm14.437-.7a4.69 4.69 0 0 1-.202 1.434c-.135.42-.327.78-.574 1.076a2.455 2.455 0 0 1-.9.68 2.866 2.866 0 0 1-1.176.233c-.42 0-.806-.078-1.157-.234a2.544 2.544 0 0 1-.91-.678 3.165 3.165 0 0 1-.59-1.076c-.14-.422-.21-.9-.21-1.434v-.45c0-.53.07-1.007.21-1.432.14-.425.336-.785.587-1.08.25-.298.55-.525.903-.683a2.792 2.792 0 0 1 1.157-.236c.433 0 .826.08 1.18.237.353.158.654.385.903.682.25.295.44.655.576 1.08.135.425.202.903.202 1.433v.45zm-.932-.46a4.4 4.4 0 0 0-.13-1.122 2.36 2.36 0 0 0-.378-.82c-.166-.22-.37-.39-.608-.503-.24-.114-.51-.17-.813-.17-.29 0-.553.056-.79.17-.24.114-.44.282-.61.503a2.43 2.43 0 0 0-.387.82c-.09.326-.137.7-.137 1.123v.46c0 .426.047.802.14 1.127.092.326.223.6.393.823.17.223.372.392.61.505.238.114.5.17.79.17.307 0 .58-.056.816-.17.237-.113.438-.282.602-.505.165-.223.29-.497.374-.823.085-.325.127-.7.127-1.128v-.46zm6.86.646H292.5v3.14h-.938v-7.11h4.404v.772H292.5v2.43h2.983v.768zm6.127 0h-2.983v3.14h-.938v-7.11h4.403v.772h-3.466v2.43h2.983v.768zm3.212 3.14h-.937v-7.11h.937v7.11zm7.544-2.256c-.04.335-.122.647-.247.935a2.26 2.26 0 0 1-.52.747c-.222.21-.493.374-.812.493-.32.12-.69.178-1.118.178-.42 0-.8-.078-1.142-.234a2.48 2.48 0 0 1-.877-.666 3.07 3.07 0 0 1-.56-1.037 4.342 4.342 0 0 1-.198-1.353v-.713c0-.497.067-.948.2-1.354a3.03 3.03 0 0 1 .57-1.04c.25-.288.55-.51.902-.67.354-.156.75-.235 1.19-.235.4 0 .755.06 1.064.176.31.118.572.28.788.49.217.21.39.462.515.753.128.29.21.612.246.963h-.943a3.192 3.192 0 0 0-.166-.67 1.505 1.505 0 0 0-.31-.506 1.303 1.303 0 0 0-.49-.323 1.966 1.966 0 0 0-.704-.112c-.315 0-.593.06-.832.183-.238.122-.44.293-.6.513-.16.22-.282.485-.364.796-.08.31-.122.653-.122 1.028v.722c0 .35.037.676.11.982.073.306.185.573.335.803.148.228.34.41.57.54.23.133.505.2.82.2.3 0 .552-.037.757-.11.205-.07.375-.174.51-.31.135-.134.24-.3.315-.497.075-.197.132-.42.17-.67h.944zm5.897-1.03h-3.08v2.52h3.58v.766h-4.518v-7.11h4.468v.772h-3.53v2.285h3.08v.766zm-80.383 14h-3.08v2.52h3.578v.766h-4.516v-7.11h4.468v.772h-3.53v2.285h3.08v.766zm6.055 1.49c0-.167-.026-.314-.076-.44a.876.876 0 0 0-.27-.35 2.14 2.14 0 0 0-.52-.298 7.6 7.6 0 0 0-.83-.285 7.05 7.05 0 0 1-.954-.346 3.136 3.136 0 0 1-.728-.444c-.2-.168-.354-.36-.46-.574a1.627 1.627 0 0 1-.162-.737c0-.278.057-.534.173-.77.114-.236.278-.44.49-.615.21-.174.465-.31.76-.408.298-.098.628-.146.993-.146.4 0 .756.06 1.07.18.31.122.574.28.787.48a2.04 2.04 0 0 1 .652 1.494h-.942c0-.2-.032-.383-.095-.552a1.16 1.16 0 0 0-.29-.44 1.34 1.34 0 0 0-.49-.287 2.103 2.103 0 0 0-.692-.103c-.25 0-.47.03-.655.088-.185.06-.338.14-.46.242a.96.96 0 0 0-.267.363c-.058.14-.087.293-.087.46 0 .15.032.286.095.41.063.123.162.237.295.34.134.106.306.202.516.29.21.087.46.172.753.253.404.114.752.24 1.045.38.293.137.535.294.725.47.19.176.332.373.425.59.093.22.14.466.14.743 0 .29-.06.553-.177.787a1.72 1.72 0 0 1-.5.6 2.367 2.367 0 0 1-.78.384c-.305.09-.644.135-1.02.135a3.56 3.56 0 0 1-.653-.06 3.24 3.24 0 0 1-.627-.184 2.78 2.78 0 0 1-.557-.302 2.15 2.15 0 0 1-.447-.42 1.88 1.88 0 0 1-.405-1.19h.943c0 .243.048.452.144.627.096.174.225.318.386.432.16.114.347.197.557.25.21.055.43.082.66.082.496 0 .875-.102 1.14-.304a.983.983 0 0 0 .395-.825zm7.655-4.542h-2.285v6.338h-.933v-6.338h-2.28v-.772h5.498v.772zm5.195 4.482h-2.98l-.668 1.856h-.966l2.716-7.11h.82l2.72 7.11h-.962l-.68-1.856zm-2.695-.77h2.417l-1.21-3.327-1.207 3.326zm5.893 2.626v-7.11h2.324c.364 0 .69.037.976.11.287.073.53.187.73.342.2.155.354.35.46.588.105.238.158.523.158.855 0 .332-.093.626-.282.88-.19.257-.446.454-.772.594.2.056.376.137.53.245a1.61 1.61 0 0 1 .632.874c.056.182.083.372.083.57 0 .333-.055.627-.167.882-.112.256-.27.47-.476.645a2.05 2.05 0 0 1-.742.393c-.29.088-.612.132-.967.132h-2.485zm.937-3.326v2.56h1.548c.225 0 .424-.03.598-.09.174-.062.322-.146.442-.255.12-.11.212-.243.276-.4a1.41 1.41 0 0 0 .095-.53c0-.196-.027-.373-.08-.533a.99.99 0 0 0-.246-.405 1.127 1.127 0 0 0-.427-.257 1.872 1.872 0 0 0-.615-.09h-1.592zm0-.752h1.416c.202 0 .386-.026.552-.078.166-.052.308-.127.427-.224a.998.998 0 0 0 .276-.36 1.14 1.14 0 0 0 .1-.48c0-.39-.115-.675-.343-.852-.228-.178-.575-.266-1.04-.266h-1.387v2.26zm6.83 3.31h3.37v.768h-4.312v-7.11h.943v6.343zm6.045.768h-.938v-7.11h.938v7.11zm6.103-1.797c0-.165-.025-.312-.076-.44a.876.876 0 0 0-.268-.348 2.14 2.14 0 0 0-.52-.298 7.6 7.6 0 0 0-.83-.285 7.05 7.05 0 0 1-.955-.346 3.136 3.136 0 0 1-.73-.444c-.2-.168-.353-.36-.46-.574a1.627 1.627 0 0 1-.16-.737c0-.278.057-.534.172-.77.116-.236.28-.44.49-.615.212-.174.466-.31.763-.408.296-.098.626-.146.99-.146.4 0 .758.06 1.07.18.313.122.575.28.79.48a2.04 2.04 0 0 1 .652 1.494h-.944c0-.2-.032-.383-.095-.552a1.16 1.16 0 0 0-.29-.44 1.34 1.34 0 0 0-.49-.287 2.103 2.103 0 0 0-.692-.103c-.25 0-.47.03-.654.088-.186.06-.34.14-.46.242a.96.96 0 0 0-.268.363c-.06.14-.088.293-.088.46 0 .15.032.286.095.41.065.123.163.237.297.34.133.106.305.202.515.29.21.087.46.172.754.253.404.114.752.24 1.045.38.294.137.536.294.726.47.19.176.332.373.425.59.094.22.14.466.14.743 0 .29-.058.553-.176.787a1.72 1.72 0 0 1-.5.6 2.367 2.367 0 0 1-.78.384c-.306.09-.645.135-1.02.135a3.56 3.56 0 0 1-.654-.06 3.24 3.24 0 0 1-.627-.184 2.78 2.78 0 0 1-.557-.302 2.15 2.15 0 0 1-.447-.42 1.88 1.88 0 0 1-.406-1.19h.943c0 .243.048.452.144.627.097.174.225.318.386.432.16.114.347.197.557.25.21.055.43.082.662.082.494 0 .874-.102 1.137-.304a.983.983 0 0 0 .396-.825zm8.207 1.798h-.942v-3.287h-3.584v3.288h-.94v-7.11h.94v3.057h3.583v-3.057h.942v7.11zm6.284-3.287h-3.082v2.52h3.58v.768h-4.518v-7.11h4.468v.772h-3.53v2.285h3.08v.766zm2.264 3.288v-7.11h2.007c.47 0 .896.078 1.28.235a2.8 2.8 0 0 1 .99.67c.274.288.487.64.638 1.053.152.414.227.878.227 1.392v.42c0 .514-.075.978-.227 1.39-.15.415-.366.766-.644 1.054a2.8 2.8 0 0 1-1.013.664c-.396.154-.84.232-1.332.232h-1.924zm.937-6.338v5.57h.988c.377 0 .71-.06.996-.182.286-.122.526-.296.718-.52.192-.225.336-.495.432-.81.096-.316.144-.67.144-1.06v-.435c0-.407-.05-.77-.147-1.086a2.22 2.22 0 0 0-.428-.806c-.19-.22-.42-.385-.694-.5a2.42 2.42 0 0 0-.937-.17h-1.07zM237.65 277.203c0-.166-.024-.312-.075-.44a.876.876 0 0 0-.268-.348 2.14 2.14 0 0 0-.52-.298 7.6 7.6 0 0 0-.83-.286 7.05 7.05 0 0 1-.955-.343 3.136 3.136 0 0 1-.728-.445c-.2-.167-.354-.358-.46-.573a1.627 1.627 0 0 1-.162-.74c0-.275.058-.532.173-.768.116-.236.28-.44.49-.615.213-.174.466-.31.763-.408.296-.098.626-.147.99-.147.4 0 .758.06 1.07.18.313.12.576.28.79.48a2.04 2.04 0 0 1 .652 1.494h-.944c0-.198-.03-.382-.095-.55a1.16 1.16 0 0 0-.29-.44 1.34 1.34 0 0 0-.488-.29 2.103 2.103 0 0 0-.693-.102c-.252 0-.47.03-.655.088-.186.06-.34.14-.46.242a.96.96 0 0 0-.268.364c-.06.14-.088.293-.088.46 0 .15.03.285.094.41.064.123.162.237.296.34.133.105.305.2.515.29.21.087.46.17.754.253.403.115.75.24 1.044.38.293.138.535.295.725.47.19.176.33.373.424.59.093.22.14.467.14.743 0 .29-.06.552-.176.786a1.72 1.72 0 0 1-.5.6 2.367 2.367 0 0 1-.782.383c-.305.09-.644.135-1.018.135a3.56 3.56 0 0 1-.655-.06 3.24 3.24 0 0 1-.627-.184 2.78 2.78 0 0 1-.557-.303 2.15 2.15 0 0 1-.447-.42 1.88 1.88 0 0 1-.406-1.19h.943c0 .244.048.453.144.627.096.174.224.318.385.432.16.113.346.197.556.25.21.054.43.08.662.08.495 0 .874-.1 1.137-.302a.983.983 0 0 0 .396-.825zm6.67-.058h-2.978l-.67 1.855h-.966l2.715-7.11h.82l2.72 7.11H245l-.68-1.855zm-2.695-.772h2.417l-1.21-3.325-1.207 3.325zM252.982 279h-.943l-3.58-5.48V279h-.942v-7.11h.942l3.59 5.504v-5.503h.932V279zm9.26-3.14h-2.982V279h-.938v-7.11h4.405v.772h-3.467v2.432h2.983v.766zm4.815.264h-1.67V279h-.942v-7.11h2.353c.8 0 1.417.183 1.85.548.43.364.646.895.646 1.59 0 .444-.12.83-.36 1.16-.24.327-.57.573-.998.736l1.67 3.017v.06H268.6l-1.543-2.876zm-1.67-.767h1.44c.255 0 .477-.035.667-.105.19-.07.35-.164.476-.283.127-.12.222-.26.286-.42.063-.162.095-.335.095-.52 0-.206-.03-.392-.09-.56a1.1 1.1 0 0 0-.28-.432 1.277 1.277 0 0 0-.483-.278 2.217 2.217 0 0 0-.7-.098h-1.41v2.695zm9.746 1.788h-2.98l-.668 1.855h-.966l2.713-7.11h.82l2.72 7.11h-.96l-.68-1.855zm-2.696-.772h2.417l-1.21-3.325-1.207 3.325zM283.794 279h-.942l-3.58-5.48V279h-.942v-7.11h.943l3.59 5.504v-5.503h.93V279zm7.495-2.256c-.04.335-.122.647-.248.935a2.26 2.26 0 0 1-.52.746c-.22.21-.49.375-.81.493-.32.118-.692.178-1.118.178-.42 0-.8-.078-1.143-.235a2.48 2.48 0 0 1-.876-.666 3.07 3.07 0 0 1-.56-1.038 4.342 4.342 0 0 1-.2-1.353v-.713c0-.498.068-.95.2-1.355a3.03 3.03 0 0 1 .573-1.04c.247-.29.547-.512.9-.67.354-.158.75-.237 1.19-.237.4 0 .755.06 1.064.176.31.116.573.28.79.49.216.21.388.46.515.75.127.293.208.614.244.966h-.944a3.192 3.192 0 0 0-.166-.67 1.505 1.505 0 0 0-.31-.507 1.303 1.303 0 0 0-.49-.323 1.966 1.966 0 0 0-.703-.113c-.316 0-.594.06-.833.184-.24.122-.44.293-.6.512-.162.22-.283.485-.364.796-.082.31-.122.654-.122 1.028v.723c0 .348.036.675.11.98.073.307.184.575.334.804.15.23.34.41.57.543.232.132.506.198.822.198.3 0 .55-.035.756-.106.205-.072.376-.175.51-.31.136-.136.24-.302.316-.498.074-.197.13-.42.17-.672h.943zm2.884 2.256h-.937v-7.11h.937V279zm6.103-1.797c0-.166-.025-.312-.076-.44a.876.876 0 0 0-.267-.348 2.14 2.14 0 0 0-.52-.298 7.6 7.6 0 0 0-.83-.286 7.05 7.05 0 0 1-.955-.343 3.136 3.136 0 0 1-.728-.445c-.2-.167-.354-.358-.46-.573a1.627 1.627 0 0 1-.162-.74c0-.275.058-.532.173-.768.117-.236.28-.44.492-.615.212-.174.465-.31.762-.408.296-.098.626-.147.99-.147.4 0 .758.06 1.07.18.313.12.576.28.79.48a2.04 2.04 0 0 1 .652 1.494h-.945c0-.198-.03-.382-.095-.55a1.16 1.16 0 0 0-.29-.44 1.34 1.34 0 0 0-.49-.29 2.103 2.103 0 0 0-.692-.102c-.25 0-.47.03-.654.088-.185.06-.338.14-.458.242a.96.96 0 0 0-.27.364c-.058.14-.087.293-.087.46 0 .15.032.285.095.41.064.123.162.237.296.34.133.105.305.2.515.29.21.087.462.17.755.253.404.115.752.24 1.045.38.293.138.535.295.725.47.19.176.332.373.425.59.093.22.14.467.14.743 0 .29-.06.552-.176.786a1.72 1.72 0 0 1-.5.6 2.367 2.367 0 0 1-.782.383c-.305.09-.644.135-1.018.135a3.56 3.56 0 0 1-.655-.06 3.24 3.24 0 0 1-.628-.184 2.78 2.78 0 0 1-.557-.303 2.15 2.15 0 0 1-.446-.42 1.88 1.88 0 0 1-.407-1.19h.943c0 .244.048.453.144.627.096.174.224.318.385.432.162.113.347.197.557.25.21.054.43.08.662.08.495 0 .874-.1 1.137-.302a.983.983 0 0 0 .397-.825zm7.973-.46c-.04.336-.12.648-.247.936a2.26 2.26 0 0 1-.52.746c-.22.21-.49.375-.81.493-.32.118-.692.178-1.118.178-.42 0-.8-.078-1.143-.235a2.48 2.48 0 0 1-.876-.666 3.07 3.07 0 0 1-.562-1.038 4.342 4.342 0 0 1-.198-1.353v-.713c0-.498.067-.95.2-1.355a3.03 3.03 0 0 1 .572-1.04c.247-.29.548-.512.9-.67.354-.158.75-.237 1.19-.237.4 0 .755.06 1.064.176.31.116.572.28.79.49.215.21.387.46.514.75.127.293.208.614.244.966h-.942a3.192 3.192 0 0 0-.166-.67 1.505 1.505 0 0 0-.31-.507 1.303 1.303 0 0 0-.49-.323 1.966 1.966 0 0 0-.704-.113c-.316 0-.594.06-.833.184-.24.122-.44.293-.6.512-.162.22-.283.485-.364.796-.08.31-.12.654-.12 1.028v.723c0 .348.035.675.11.98.072.307.183.575.333.804.15.23.34.41.57.543.232.132.506.198.822.198.3 0 .55-.035.757-.106.205-.072.375-.175.51-.31.135-.136.24-.302.315-.498.075-.197.132-.42.17-.672h.943zm7.348-1.068a4.69 4.69 0 0 1-.203 1.433c-.135.42-.326.78-.573 1.077a2.455 2.455 0 0 1-.9.678 2.866 2.866 0 0 1-1.176.235c-.42 0-.805-.078-1.157-.235a2.544 2.544 0 0 1-.91-.678 3.165 3.165 0 0 1-.59-1.077c-.14-.422-.21-.9-.21-1.433v-.45c0-.53.07-1.008.21-1.433.14-.424.335-.785.586-1.08.25-.297.552-.524.903-.682a2.792 2.792 0 0 1 1.157-.237c.433 0 .826.08 1.18.237.352.158.653.385.902.68.248.297.44.658.575 1.082.135.425.203.903.203 1.434v.45zm-.933-.46a4.4 4.4 0 0 0-.13-1.122 2.36 2.36 0 0 0-.377-.82c-.166-.222-.37-.39-.608-.503-.24-.114-.51-.17-.813-.17-.29 0-.554.056-.79.17-.24.113-.442.28-.61.502a2.43 2.43 0 0 0-.387.82c-.092.326-.137.7-.137 1.124v.46c0 .425.046.8.14 1.127.092.325.223.6.392.822.17.223.373.392.61.506.238.115.502.172.79.172.307 0 .58-.057.817-.17.238-.115.44-.284.603-.507.164-.222.29-.497.373-.822.085-.326.127-.702.127-1.128v-.46zm9.94 1.93h-2.978l-.67 1.855h-.966l2.716-7.11h.82l2.72 7.11h-.962l-.678-1.855zm-2.695-.772h2.417l-1.21-3.325-1.207 3.325zM333.267 279h-.942l-3.58-5.48V279h-.942v-7.11h.943l3.59 5.504v-5.503h.93V279zm2.265 0v-7.11h2.007c.468 0 .894.08 1.278.235a2.8 2.8 0 0 1 .99.67c.274.29.487.64.64 1.054.15.412.226.876.226 1.39v.42c0 .514-.076.978-.227 1.392-.152.413-.366.764-.645 1.052a2.8 2.8 0 0 1-1.013.664c-.398.155-.842.232-1.334.232h-1.924zm.938-6.338v5.57h.986c.378 0 .71-.06.996-.182.287-.122.526-.295.718-.52.192-.224.336-.495.432-.81.096-.316.144-.67.144-1.06v-.434c0-.407-.05-.77-.146-1.087a2.22 2.22 0 0 0-.43-.807c-.19-.22-.42-.386-.693-.5a2.42 2.42 0 0 0-.938-.17h-1.07zm-98.682 18.483h-2.98L234.14 293h-.967l2.715-7.11h.82l2.72 7.11h-.962l-.678-1.855zm-2.696-.772h2.417l-1.212-3.325-1.206 3.325zm7.104-4.482l2.324 5.8 2.325-5.8h1.216V293h-.937v-2.77l.088-2.987-2.333 5.757h-.718l-2.33-5.742.093 2.973V293h-.938v-7.11h1.21zm11.91 5.313c0-.166-.026-.312-.077-.44a.876.876 0 0 0-.27-.348 2.14 2.14 0 0 0-.52-.298 7.6 7.6 0 0 0-.83-.286 7.05 7.05 0 0 1-.954-.343 3.136 3.136 0 0 1-.728-.445c-.2-.167-.354-.358-.46-.573a1.627 1.627 0 0 1-.162-.74c0-.275.058-.532.173-.768.115-.236.278-.44.49-.615.21-.174.465-.31.762-.408.296-.098.626-.147.99-.147.4 0 .758.06 1.07.18.313.12.576.28.79.48a2.04 2.04 0 0 1 .652 1.494h-.944c0-.198-.032-.382-.095-.55a1.16 1.16 0 0 0-.29-.44 1.34 1.34 0 0 0-.49-.29 2.103 2.103 0 0 0-.692-.102c-.25 0-.47.03-.654.088-.187.06-.34.14-.46.242a.96.96 0 0 0-.27.364c-.058.14-.087.293-.087.46 0 .15.032.285.095.41.064.123.162.237.296.34.133.105.305.2.515.29.21.087.46.17.753.253.404.115.752.24 1.045.38.293.138.535.295.725.47.19.176.332.373.425.59.093.22.14.467.14.743 0 .29-.06.552-.177.786a1.72 1.72 0 0 1-.5.6 2.367 2.367 0 0 1-.78.383c-.305.09-.644.135-1.018.135a3.56 3.56 0 0 1-.655-.06 3.24 3.24 0 0 1-.627-.184 2.78 2.78 0 0 1-.557-.303 2.15 2.15 0 0 1-.446-.42 1.88 1.88 0 0 1-.406-1.19h.944c0 .244.048.453.144.627.096.174.224.318.385.432.162.113.347.197.557.25.21.054.43.08.662.08.494 0 .874-.1 1.137-.302a.983.983 0 0 0 .395-.825zm7.655-4.54h-2.285V293h-.932v-6.338h-2.28v-.77h5.498v.77zm5.674 3.05h-3.08v2.52h3.578V293h-4.517v-7.11h4.468v.772h-3.53v2.285h3.08v.767zm4.872.41h-1.67V293h-.942v-7.11h2.353c.8 0 1.417.183 1.85.548.43.364.646.895.646 1.59 0 .444-.12.83-.36 1.16-.24.327-.57.573-.998.736l1.67 3.017v.06h-1.006l-1.544-2.876zm-1.67-.766h1.44c.255 0 .477-.035.667-.105.19-.07.35-.164.476-.283.126-.12.22-.26.285-.42.063-.162.095-.335.095-.52 0-.206-.03-.392-.09-.56a1.1 1.1 0 0 0-.28-.432 1.277 1.277 0 0 0-.484-.278 2.217 2.217 0 0 0-.7-.098h-1.41v2.695zm5.82 3.643v-7.11h2.007c.47 0 .895.08 1.28.235a2.8 2.8 0 0 1 .988.67c.276.29.49.64.64 1.054.152.412.228.876.228 1.39v.42c0 .514-.076.978-.227 1.392-.15.413-.366.764-.644 1.052a2.8 2.8 0 0 1-1.013.664c-.397.155-.842.232-1.333.232h-1.924zm.938-6.338v5.57h.986c.377 0 .71-.06.996-.182.286-.122.526-.295.718-.52.192-.224.336-.495.432-.81.096-.316.144-.67.144-1.06v-.434c0-.407-.05-.77-.147-1.087a2.22 2.22 0 0 0-.43-.807c-.188-.22-.42-.386-.693-.5a2.42 2.42 0 0 0-.937-.17h-1.07zm10.043 4.483h-2.98L283.79 293h-.967l2.714-7.11h.82l2.72 7.11h-.96l-.68-1.855zm-2.695-.772h2.417l-1.212-3.325-1.206 3.325zm7.103-4.482l2.325 5.8 2.324-5.8h1.216V293h-.938v-2.77l.088-2.987-2.334 5.757h-.718l-2.33-5.742.094 2.973V293h-.937v-7.11h1.21zm16.664 3.785a4.69 4.69 0 0 1-.203 1.433c-.135.42-.327.78-.574 1.077a2.455 2.455 0 0 1-.898.678 2.866 2.866 0 0 1-1.177.235c-.42 0-.806-.078-1.157-.235a2.544 2.544 0 0 1-.908-.678 3.165 3.165 0 0 1-.59-1.077c-.14-.422-.21-.9-.21-1.433v-.45c0-.53.07-1.008.21-1.433.14-.424.335-.785.585-1.08.25-.297.552-.524.904-.682a2.792 2.792 0 0 1 1.158-.237c.433 0 .826.08 1.18.237.352.158.654.385.903.68.25.297.442.658.577 1.082.135.425.202.903.202 1.434v.45zm-.933-.46a4.4 4.4 0 0 0-.13-1.122 2.36 2.36 0 0 0-.378-.82c-.167-.222-.37-.39-.61-.503-.238-.114-.51-.17-.812-.17-.29 0-.553.056-.79.17-.24.113-.44.28-.61.502a2.43 2.43 0 0 0-.387.82c-.09.326-.136.7-.136 1.124v.46c0 .425.047.8.14 1.127.092.325.223.6.392.822.17.223.373.392.61.506.238.115.502.172.792.172.306 0 .578-.057.815-.17.238-.115.44-.284.603-.507.165-.222.29-.497.374-.822.084-.326.127-.702.127-1.128v-.46zm6.86.645h-2.984V293h-.937v-7.11h4.404v.772h-3.467v2.432h2.984v.766zm6.127 0h-2.984V293h-.937v-7.11h4.404v.772h-3.467v2.432h2.984v.766zm3.212 3.14h-.937v-7.11h.936V293zm7.544-2.256c-.04.335-.122.647-.247.935a2.26 2.26 0 0 1-.52.746c-.22.21-.492.375-.81.493-.32.118-.692.178-1.12.178-.42 0-.8-.078-1.14-.235a2.48 2.48 0 0 1-.878-.666 3.07 3.07 0 0 1-.56-1.038 4.342 4.342 0 0 1-.2-1.353v-.713c0-.498.068-.95.2-1.355a3.03 3.03 0 0 1 .572-1.04c.248-.29.548-.512.9-.67.354-.158.75-.237 1.19-.237.4 0 .755.06 1.065.176.31.116.572.28.788.49.217.21.388.46.515.75.127.293.21.614.245.966h-.943a3.192 3.192 0 0 0-.166-.67 1.505 1.505 0 0 0-.31-.507 1.303 1.303 0 0 0-.49-.323 1.966 1.966 0 0 0-.703-.113c-.316 0-.593.06-.832.184-.24.122-.44.293-.6.512-.162.22-.283.485-.365.796-.08.31-.122.654-.122 1.028v.723c0 .348.037.675.11.98.073.307.185.575.335.804.15.23.34.41.57.543.232.132.505.198.82.198.3 0 .553-.035.758-.106.206-.072.376-.175.51-.31.136-.136.24-.302.316-.498.075-.197.132-.42.17-.672h.944zm5.897-1.03h-3.08v2.52h3.578V293H333.2v-7.11h4.467v.772h-3.53v2.285h3.08v.767zm6.054 1.49c0-.167-.024-.313-.074-.44a.876.876 0 0 0-.27-.35 2.14 2.14 0 0 0-.52-.297 7.6 7.6 0 0 0-.83-.286 7.05 7.05 0 0 1-.953-.343 3.136 3.136 0 0 1-.728-.445c-.2-.167-.354-.358-.46-.573a1.627 1.627 0 0 1-.163-.74c0-.275.058-.532.174-.768.115-.236.28-.44.49-.615.212-.174.466-.31.762-.408.296-.098.627-.147.99-.147.402 0 .758.06 1.07.18.313.12.576.28.79.48a2.04 2.04 0 0 1 .652 1.494h-.943c0-.198-.032-.382-.095-.55a1.16 1.16 0 0 0-.29-.44 1.34 1.34 0 0 0-.49-.29 2.103 2.103 0 0 0-.693-.102c-.25 0-.47.03-.655.088-.185.06-.338.14-.46.242a.96.96 0 0 0-.267.364c-.06.14-.088.293-.088.46 0 .15.03.285.095.41.063.123.162.237.295.34.134.105.306.2.515.29.21.087.462.17.755.253.404.115.752.24 1.045.38.293.138.534.295.725.47.19.176.332.373.425.59.092.22.14.467.14.743 0 .29-.06.552-.177.786a1.72 1.72 0 0 1-.5.6 2.367 2.367 0 0 1-.782.383c-.304.09-.643.135-1.018.135a3.56 3.56 0 0 1-.654-.06 3.24 3.24 0 0 1-.627-.184 2.78 2.78 0 0 1-.557-.303 2.15 2.15 0 0 1-.447-.42 1.88 1.88 0 0 1-.405-1.19h.942c0 .244.048.453.144.627.096.174.225.318.386.432.16.113.347.197.557.25.21.054.43.08.66.08.496 0 .875-.1 1.14-.302a.983.983 0 0 0 .394-.825zm-103.94 12.47a4.69 4.69 0 0 1-.202 1.434c-.135.42-.326.78-.574 1.077a2.455 2.455 0 0 1-.898.678 2.866 2.866 0 0 1-1.177.235c-.42 0-.807-.078-1.158-.235a2.544 2.544 0 0 1-.908-.678 3.165 3.165 0 0 1-.59-1.077c-.14-.422-.21-.9-.21-1.433v-.45c0-.53.07-1.008.21-1.433.14-.424.334-.785.585-1.08.25-.297.55-.524.902-.682a2.792 2.792 0 0 1 1.157-.237c.432 0 .825.08 1.18.237.352.158.653.385.902.68.25.297.44.658.576 1.082.135.425.203.903.203 1.434v.45zm-.932-.458a4.4 4.4 0 0 0-.13-1.123 2.36 2.36 0 0 0-.378-.82c-.166-.222-.368-.39-.608-.503-.24-.114-.51-.17-.813-.17-.29 0-.554.056-.792.17-.237.113-.44.28-.608.502a2.43 2.43 0 0 0-.388.82c-.09.326-.137.7-.137 1.124v.46c0 .425.047.8.14 1.127.092.325.223.6.393.822.17.223.372.392.61.506.238.115.5.172.79.172.307 0 .58-.057.817-.17.237-.115.438-.284.603-.507.164-.222.288-.497.373-.822.086-.326.128-.702.128-1.128v-.46zm3.876 1V307h-.937v-7.11h2.622c.403 0 .76.054 1.068.162.31.107.57.258.78.45.21.195.37.425.478.69.11.265.163.556.163.87 0 .343-.055.648-.164.917-.11.268-.27.493-.48.675-.21.183-.468.322-.778.418a3.61 3.61 0 0 1-1.07.144h-1.684zm0-.766h1.685c.272 0 .508-.034.705-.102.196-.07.358-.164.483-.286a1.11 1.11 0 0 0 .276-.435 1.67 1.67 0 0 0 .088-.554c0-.182-.03-.36-.088-.53a1.21 1.21 0 0 0-.276-.45 1.35 1.35 0 0 0-.483-.314 1.912 1.912 0 0 0-.706-.118h-1.686v2.788zm9.99.264h-3.08v2.52h3.578V307h-4.517v-7.11h4.468v.772h-3.53v2.285h3.08v.767zm7.73 3.286h-.943l-3.58-5.48V307h-.94v-7.11h.94l3.59 5.504v-5.503h.933V307zm6.283-3.286h-3.082v2.52h3.58V307h-4.517v-7.11h4.468v.772h-3.53v2.285h3.08v.767zm2.265 3.286v-7.11h2.006c.47 0 .896.08 1.28.235a2.8 2.8 0 0 1 .988.67c.276.29.49.64.64 1.054.15.412.227.876.227 1.39v.42c0 .514-.076.978-.227 1.392-.15.413-.366.764-.644 1.052a2.8 2.8 0 0 1-1.014.664c-.397.155-.84.232-1.333.232h-1.923zm.937-6.338v5.57h.985c.378 0 .71-.06.997-.182.286-.122.525-.295.717-.52.19-.224.335-.495.43-.81.097-.316.145-.67.145-1.06v-.434c0-.407-.048-.77-.146-1.087a2.22 2.22 0 0 0-.43-.807c-.19-.22-.42-.386-.694-.5a2.42 2.42 0 0 0-.938-.17h-1.07zM237.168 485.886v.766h-.083c-.433 0-.8.065-1.104.196-.302.13-.55.303-.746.52a2.228 2.228 0 0 0-.444.744c-.1.28-.165.57-.19.87.195-.225.423-.39.685-.49.262-.104.545-.155.847-.155.355 0 .66.067.916.203.255.135.466.312.632.532.166.22.29.47.37.75.08.28.12.566.12.86 0 .337-.05.654-.143.948a2.19 2.19 0 0 1-.42.767 1.98 1.98 0 0 1-.688.513c-.275.125-.592.188-.954.188-.384 0-.72-.08-1.005-.24a2.213 2.213 0 0 1-.715-.627c-.19-.258-.333-.55-.427-.876a3.508 3.508 0 0 1-.142-.98v-.426c0-.332.02-.663.06-.993.042-.33.113-.647.214-.948.1-.3.235-.58.403-.84.167-.258.377-.483.63-.673.252-.19.55-.34.898-.447.348-.108.75-.16 1.205-.16h.083zm-1.187 3.203a1.4 1.4 0 0 0-.458.075 1.548 1.548 0 0 0-.725.517c-.093.12-.164.247-.212.383v.332c0 .32.038.6.114.843.076.242.178.446.307.61.128.164.276.29.442.374.165.084.337.127.516.127.21 0 .394-.04.557-.12.163-.08.3-.19.413-.336.112-.145.197-.317.256-.515.06-.2.088-.418.088-.655 0-.212-.027-.416-.08-.613a1.64 1.64 0 0 0-.242-.523 1.15 1.15 0 0 0-.977-.5zm8.316.878c0 .582-.052 1.073-.156 1.472-.105.4-.253.72-.447.967a1.65 1.65 0 0 1-.703.53 2.54 2.54 0 0 1-.93.16c-.342 0-.65-.053-.928-.16a1.663 1.663 0 0 1-.708-.53c-.196-.246-.347-.568-.454-.967-.108-.4-.16-.89-.16-1.472v-1.084c0-.583.05-1.07.157-1.465.106-.395.257-.712.452-.953.194-.24.43-.414.704-.518.276-.105.584-.157.926-.157.345 0 .656.052.932.156.277.103.513.276.708.517.196.24.345.558.45.952.104.393.156.88.156 1.464v1.084zm-.903-1.236c0-.4-.03-.74-.086-1.02a1.954 1.954 0 0 0-.256-.68 1.018 1.018 0 0 0-.422-.38 1.356 1.356 0 0 0-.578-.117c-.215 0-.406.04-.574.117a1.002 1.002 0 0 0-.42.38 2.02 2.02 0 0 0-.256.68c-.06.28-.088.62-.088 1.02v1.377c0 .397.03.737.088 1.022.058.285.145.52.26.7.117.183.258.317.426.4.167.086.36.128.574.128.22 0 .415-.042.58-.127.167-.084.306-.218.418-.4.112-.182.196-.416.252-.7.055-.286.083-.626.083-1.024v-1.378zm3.573 3.92c0 .148-.02.3-.056.46-.037.16-.093.318-.166.474a2.74 2.74 0 0 1-.266.45c-.104.142-.225.27-.36.38l-.514-.352a2.81 2.81 0 0 0 .354-.66c.083-.227.124-.472.124-.736v-.737h.884v.723zm6.108-2.684c0 .582-.052 1.073-.156 1.472-.104.4-.253.72-.447.967a1.65 1.65 0 0 1-.702.53 2.54 2.54 0 0 1-.93.16c-.342 0-.65-.053-.928-.16a1.663 1.663 0 0 1-.708-.53c-.195-.246-.347-.568-.454-.967-.108-.4-.16-.89-.16-1.472v-1.084c0-.583.052-1.07.157-1.465.106-.395.257-.712.452-.953.195-.24.43-.414.706-.518.275-.105.583-.157.925-.157.345 0 .656.052.933.156.277.103.513.276.71.517.194.24.344.558.448.952.104.393.156.88.156 1.464v1.084zm-.903-1.236c0-.4-.028-.74-.085-1.02a1.954 1.954 0 0 0-.256-.68 1.018 1.018 0 0 0-.423-.38 1.356 1.356 0 0 0-.58-.117c-.214 0-.405.04-.573.117a1.002 1.002 0 0 0-.42.38 2.02 2.02 0 0 0-.256.68c-.06.28-.088.62-.088 1.02v1.377c0 .397.03.737.088 1.022.06.285.146.52.26.7.117.183.258.317.426.4.168.086.36.128.574.128.22 0 .415-.042.58-.127.167-.084.306-.218.418-.4.113-.182.196-.416.252-.7.055-.286.083-.626.083-1.024v-1.378zm7.12 1.236c0 .582-.053 1.073-.157 1.472-.104.4-.253.72-.447.967a1.65 1.65 0 0 1-.703.53 2.54 2.54 0 0 1-.93.16c-.342 0-.65-.053-.928-.16a1.663 1.663 0 0 1-.708-.53c-.195-.246-.347-.568-.454-.967-.107-.4-.16-.89-.16-1.472v-1.084c0-.583.052-1.07.158-1.465.106-.395.257-.712.452-.953.196-.24.43-.414.706-.518.275-.105.583-.157.925-.157.345 0 .656.052.933.156.276.103.512.276.708.517.195.24.345.558.45.952.103.393.155.88.155 1.464v1.084zm-.904-1.236c0-.4-.03-.74-.086-1.02a1.954 1.954 0 0 0-.256-.68 1.018 1.018 0 0 0-.422-.38 1.356 1.356 0 0 0-.58-.117c-.214 0-.405.04-.573.117a1.002 1.002 0 0 0-.42.38 2.02 2.02 0 0 0-.257.68c-.058.28-.088.62-.088 1.02v1.377c0 .397.03.737.088 1.022.06.285.146.52.26.7.117.183.26.317.426.4.167.086.358.128.573.128.22 0 .415-.042.58-.127.167-.084.306-.218.418-.4.114-.182.198-.416.253-.7.055-.286.083-.626.083-1.024v-1.378zm7.118 1.236c0 .582-.052 1.073-.156 1.472-.104.4-.253.72-.447.967a1.65 1.65 0 0 1-.702.53 2.54 2.54 0 0 1-.93.16c-.342 0-.65-.053-.928-.16a1.663 1.663 0 0 1-.708-.53c-.195-.246-.346-.568-.454-.967-.107-.4-.16-.89-.16-1.472v-1.084c0-.583.052-1.07.158-1.465.106-.395.256-.712.452-.953.195-.24.43-.414.705-.518.275-.105.584-.157.925-.157.345 0 .656.052.933.156.278.103.514.276.71.517.194.24.344.558.448.952.104.393.156.88.156 1.464v1.084zm-.903-1.236c0-.4-.027-.74-.084-1.02a1.954 1.954 0 0 0-.257-.68 1.018 1.018 0 0 0-.423-.38 1.356 1.356 0 0 0-.58-.117c-.213 0-.405.04-.572.117a1.002 1.002 0 0 0-.42.38 2.02 2.02 0 0 0-.257.68c-.058.28-.088.62-.088 1.02v1.377c0 .397.03.737.088 1.022.06.285.146.52.262.7.115.183.257.317.424.4.168.086.36.128.574.128.22 0 .415-.042.58-.127.167-.084.306-.218.42-.4.11-.182.195-.416.25-.7.055-.286.083-.626.083-1.024v-1.378zm7.183-2.84l2.324 5.8 2.324-5.8h1.217V493h-.938v-2.77l.087-2.987-2.334 5.757h-.718l-2.33-5.742.094 2.973V493h-.938v-7.11h1.21zm12.138 3.822h-3.08v2.52h3.58V493H279.9v-7.11h4.468v.772h-3.53v2.285h3.08v.767zm4.873.41h-1.67V493h-.942v-7.11h2.354c.8 0 1.417.183 1.848.548.432.364.647.895.647 1.59 0 .444-.12.83-.36 1.16-.24.327-.572.573-.998.736l1.67 3.017v.06h-1.006l-1.543-2.876zm-1.67-.767h1.44c.255 0 .477-.035.667-.105.19-.07.35-.164.476-.283.127-.12.222-.26.286-.42.063-.162.095-.335.095-.52 0-.206-.03-.392-.09-.56a1.1 1.1 0 0 0-.28-.432 1.277 1.277 0 0 0-.484-.278 2.217 2.217 0 0 0-.7-.098h-1.41v2.695zm11.05 1.387c-.04.335-.122.647-.247.935a2.26 2.26 0 0 1-.52.746c-.222.21-.492.375-.81.493-.32.118-.692.178-1.12.178-.42 0-.8-.078-1.14-.235a2.48 2.48 0 0 1-.878-.666 3.07 3.07 0 0 1-.56-1.038 4.342 4.342 0 0 1-.2-1.353v-.713c0-.498.068-.95.2-1.355a3.03 3.03 0 0 1 .572-1.04c.248-.29.548-.512.9-.67.354-.158.75-.237 1.19-.237.4 0 .755.06 1.065.176.31.116.572.28.788.49.217.21.388.46.515.75.127.293.21.614.244.966h-.942a3.192 3.192 0 0 0-.166-.67 1.505 1.505 0 0 0-.31-.507 1.303 1.303 0 0 0-.49-.323 1.966 1.966 0 0 0-.704-.113c-.316 0-.593.06-.832.184-.24.122-.44.293-.6.512-.162.22-.283.485-.365.796-.08.31-.122.654-.122 1.028v.723c0 .348.038.675.11.98.074.307.186.575.336.804.15.23.34.41.57.543.232.132.505.198.82.198.3 0 .553-.035.758-.106.205-.072.375-.175.51-.31.135-.136.24-.302.315-.498.074-.197.13-.42.17-.672h.942zm7.343 2.256h-.943v-3.286h-3.584V493h-.938v-7.11h.937v3.057h3.583v-3.056h.943V493zm6.278-1.855h-2.978l-.67 1.855h-.966l2.715-7.11h.82l2.72 7.11h-.962l-.68-1.855zm-2.695-.772h2.416l-1.21-3.325-1.207 3.325zM320.455 493h-.943l-3.58-5.48V493h-.94v-7.11h.94l3.59 5.504v-5.503h.933V493zm7.035-6.338h-2.284V493h-.932v-6.338h-2.28v-.77h5.497v.77zm5.367 4.54c0-.165-.025-.31-.076-.438a.876.876 0 0 0-.267-.35 2.14 2.14 0 0 0-.52-.297 7.6 7.6 0 0 0-.83-.286 7.05 7.05 0 0 1-.955-.343 3.136 3.136 0 0 1-.727-.445c-.2-.167-.353-.358-.46-.573a1.627 1.627 0 0 1-.162-.74c0-.275.058-.532.173-.768.117-.236.28-.44.492-.615.212-.174.466-.31.762-.408.296-.098.626-.147.99-.147.4 0 .758.06 1.07.18.313.12.576.28.79.48a2.04 2.04 0 0 1 .652 1.494h-.945c0-.198-.03-.382-.095-.55a1.16 1.16 0 0 0-.29-.44 1.34 1.34 0 0 0-.49-.29 2.103 2.103 0 0 0-.692-.102c-.25 0-.47.03-.654.088-.185.06-.338.14-.458.242a.96.96 0 0 0-.27.364c-.057.14-.087.293-.087.46 0 .15.032.285.095.41.064.123.162.237.296.34.133.105.305.2.515.29.21.087.462.17.755.253.404.115.752.24 1.045.38.293.138.535.295.725.47.19.176.332.373.425.59.093.22.14.467.14.743 0 .29-.06.552-.176.786a1.72 1.72 0 0 1-.5.6 2.367 2.367 0 0 1-.782.383c-.304.09-.644.135-1.018.135a3.56 3.56 0 0 1-.654-.06 3.24 3.24 0 0 1-.628-.184 2.78 2.78 0 0 1-.557-.303 2.15 2.15 0 0 1-.446-.42 1.88 1.88 0 0 1-.407-1.19h.943c0 .244.048.453.144.627.096.174.224.318.386.432.16.113.346.197.556.25.21.054.43.08.662.08.495 0 .874-.1 1.138-.302a.983.983 0 0 0 .395-.825zm-95.07 13.943h-2.978l-.67 1.855h-.967l2.715-7.11h.82l2.72 7.11h-.962l-.678-1.855zm-2.695-.772h2.417l-1.212-3.325-1.206 3.325zm11.07.37c-.04.336-.122.648-.247.936a2.26 2.26 0 0 1-.52.746c-.222.21-.492.375-.81.493-.32.118-.693.178-1.12.178-.42 0-.8-.078-1.142-.235a2.48 2.48 0 0 1-.876-.666 3.07 3.07 0 0 1-.562-1.038 4.342 4.342 0 0 1-.198-1.353v-.713c0-.498.067-.95.2-1.355a3.03 3.03 0 0 1 .572-1.04c.246-.29.547-.512.9-.67.353-.158.75-.237 1.19-.237.4 0 .754.06 1.063.176.31.116.572.28.79.49.215.21.387.46.514.75.127.293.208.614.244.966h-.94a3.192 3.192 0 0 0-.167-.67 1.505 1.505 0 0 0-.31-.507 1.303 1.303 0 0 0-.49-.323 1.966 1.966 0 0 0-.704-.113c-.317 0-.594.06-.834.184-.24.122-.44.293-.6.512-.16.22-.283.485-.364.796-.08.31-.122.654-.122 1.028v.723c0 .348.036.675.11.98.073.307.184.575.334.804.15.23.34.41.57.543.233.132.506.198.822.198.3 0 .552-.035.757-.106.205-.072.375-.175.51-.31.135-.136.24-.302.315-.498.075-.197.132-.42.17-.672h.943zm7.108 0c-.04.336-.12.648-.247.936a2.26 2.26 0 0 1-.52.746c-.22.21-.49.375-.81.493-.32.118-.692.178-1.118.178-.42 0-.8-.078-1.143-.235a2.48 2.48 0 0 1-.876-.666 3.07 3.07 0 0 1-.562-1.038 4.342 4.342 0 0 1-.198-1.353v-.713c0-.498.067-.95.2-1.355a3.03 3.03 0 0 1 .572-1.04c.247-.29.547-.512.9-.67.354-.158.75-.237 1.19-.237.4 0 .755.06 1.064.176.31.116.572.28.79.49.215.21.387.46.514.75.127.293.208.614.244.966h-.942a3.192 3.192 0 0 0-.166-.67 1.505 1.505 0 0 0-.31-.507 1.303 1.303 0 0 0-.49-.323 1.966 1.966 0 0 0-.704-.113c-.316 0-.594.06-.833.184-.24.122-.44.293-.6.512-.162.22-.283.485-.364.796-.08.31-.12.654-.12 1.028v.723c0 .348.035.675.11.98.072.307.183.575.333.804.15.23.34.41.57.543.232.132.506.198.822.198.3 0 .55-.035.756-.106.207-.072.377-.175.512-.31.135-.136.24-.302.315-.498.074-.197.13-.42.17-.672h.943zm5.898-1.03h-3.08v2.52h3.578V507h-4.517v-7.11h4.467v.772h-3.53v2.285h3.08v.767zm3.202.504V507h-.937v-7.11h2.622c.404 0 .76.054 1.07.162.308.107.568.258.778.45.21.195.37.425.48.69.108.265.162.556.162.87 0 .343-.054.648-.163.917-.11.268-.27.493-.48.675-.21.183-.47.322-.778.418a3.61 3.61 0 0 1-1.07.144h-1.684zm0-.767h1.685c.273 0 .508-.034.705-.102.197-.07.358-.164.484-.286a1.11 1.11 0 0 0 .276-.435 1.67 1.67 0 0 0 .088-.554c0-.182-.03-.36-.088-.53a1.21 1.21 0 0 0-.276-.45 1.35 1.35 0 0 0-.484-.314 1.912 1.912 0 0 0-.705-.118h-1.685v2.788zm10.883-2.788h-2.285V507h-.932v-6.338h-2.28v-.77h5.497v.77zm2.66 6.338h-.936v-7.11h.937V507zm7.78 0h-.944l-3.58-5.48V507h-.942v-7.11h.942l3.59 5.504v-5.503h.932V507zm7.513-.933a2.428 2.428 0 0 1-.283.325c-.12.12-.28.23-.476.335-.197.104-.44.192-.726.263-.285.072-.628.108-1.03.108-.432 0-.83-.077-1.193-.23a2.635 2.635 0 0 1-.937-.66 3.05 3.05 0 0 1-.613-1.06 4.292 4.292 0 0 1-.22-1.424v-.557c0-.53.063-1.004.188-1.42.126-.418.31-.77.552-1.06.243-.29.54-.512.896-.665.355-.153.762-.23 1.22-.23.408 0 .764.055 1.07.165a2.18 2.18 0 0 1 1.294 1.145c.127.267.213.56.26.875h-.94a2.407 2.407 0 0 0-.167-.545c-.077-.17-.182-.32-.315-.448a1.447 1.447 0 0 0-.493-.305 1.966 1.966 0 0 0-.703-.113c-.333 0-.62.06-.86.18-.242.122-.44.294-.596.52a2.39 2.39 0 0 0-.35.814 4.64 4.64 0 0 0-.114 1.08v.566c0 .41.05.776.146 1.098.098.323.235.596.413.82.176.225.39.396.638.513.25.117.525.176.828.176.254 0 .47-.016.647-.05.177-.034.327-.077.45-.127.12-.05.22-.106.295-.166.075-.06.136-.117.185-.17v-1.595h-1.645v-.762h2.578v2.607zm5.238.933v-7.11h2.324c.365 0 .69.037.977.11.286.074.53.188.73.342.2.155.353.35.46.59.104.236.157.52.157.853 0 .332-.094.626-.283.882-.19.255-.447.453-.772.593.198.055.375.136.53.244a1.61 1.61 0 0 1 .632.874c.055.182.083.373.083.57 0 .333-.056.627-.17.883-.11.256-.27.47-.475.645a2.05 2.05 0 0 1-.742.393c-.29.088-.612.132-.967.132h-2.486zm.937-3.325v2.558h1.55c.224 0 .423-.03.597-.09.175-.06.322-.145.442-.254.12-.11.212-.243.275-.4a1.41 1.41 0 0 0 .095-.53c0-.196-.026-.374-.078-.533a.99.99 0 0 0-.246-.406 1.127 1.127 0 0 0-.428-.255 1.872 1.872 0 0 0-.615-.09h-1.592zm0-.752h1.417c.202 0 .386-.026.552-.078.165-.052.308-.127.426-.225a.998.998 0 0 0 .276-.36 1.14 1.14 0 0 0 .098-.48c0-.39-.114-.674-.342-.852-.228-.177-.574-.266-1.04-.266h-1.387v2.26zm6.895 4.077h-.937v-7.11h.937V507zm7.085-6.338h-2.285V507h-.933v-6.338h-2.28v-.77h5.498v.77zm6.747 4.082c-.04.335-.12.647-.246.935a2.26 2.26 0 0 1-.52.746c-.22.21-.49.375-.81.493-.32.118-.692.178-1.118.178-.42 0-.8-.078-1.143-.235a2.48 2.48 0 0 1-.877-.666 3.07 3.07 0 0 1-.562-1.038 4.342 4.342 0 0 1-.196-1.353v-.713c0-.498.066-.95.2-1.355a3.03 3.03 0 0 1 .57-1.04c.248-.29.55-.512.902-.67.353-.158.75-.237 1.19-.237.4 0 .754.06 1.063.176.31.116.57.28.788.49.216.21.388.46.515.75.127.293.208.614.244.966h-.942a3.192 3.192 0 0 0-.166-.67 1.505 1.505 0 0 0-.31-.507 1.303 1.303 0 0 0-.492-.323 1.966 1.966 0 0 0-.703-.113c-.316 0-.593.06-.833.184-.24.122-.44.293-.6.512-.16.22-.283.485-.364.796-.08.31-.122.654-.122 1.028v.723c0 .348.037.675.11.98.073.307.185.575.334.804.15.23.34.41.572.543.23.132.504.198.82.198.3 0 .552-.035.757-.106.204-.072.374-.175.51-.31.134-.136.24-.302.314-.498.075-.197.132-.42.17-.672h.943zm7.348-1.07a4.69 4.69 0 0 1-.202 1.434c-.135.42-.327.78-.574 1.077a2.455 2.455 0 0 1-.9.678 2.866 2.866 0 0 1-1.176.235c-.42 0-.806-.078-1.158-.235a2.544 2.544 0 0 1-.908-.678 3.165 3.165 0 0 1-.59-1.077c-.14-.422-.21-.9-.21-1.433v-.45c0-.53.07-1.008.21-1.433.14-.424.335-.785.585-1.08.25-.297.552-.524.904-.682a2.792 2.792 0 0 1 1.157-.237c.433 0 .826.08 1.18.237.352.158.653.385.902.68.25.297.442.658.577 1.082.135.425.202.903.202 1.434v.45zm-.932-.458a4.4 4.4 0 0 0-.13-1.123 2.36 2.36 0 0 0-.378-.82c-.166-.222-.37-.39-.608-.503-.24-.114-.51-.17-.813-.17-.29 0-.553.056-.79.17-.24.113-.44.28-.61.502a2.43 2.43 0 0 0-.387.82c-.09.326-.137.7-.137 1.124v.46c0 .425.046.8.14 1.127.092.325.223.6.392.822.17.223.373.392.61.506.238.115.502.172.792.172.306 0 .577-.057.815-.17.237-.115.438-.284.602-.507.165-.222.29-.497.374-.822.084-.326.127-.702.127-1.128v-.46zm3.944 3.784h-.937v-7.11h.937V507zm7.778 0h-.942l-3.58-5.48V507h-.942v-7.11h.944l3.588 5.504v-5.503h.933V507zM14.526 394.172h-1.67v2.876h-.942v-7.11h2.354c.8 0 1.416.183 1.848.547.43.365.647.895.647 1.592 0 .443-.12.828-.36 1.157-.238.33-.57.575-.998.737l1.67 3.02v.058H16.07l-1.544-2.876zm-1.67-.767h1.44c.255 0 .477-.035.667-.105.19-.07.35-.164.476-.283.126-.12.222-.26.285-.42.064-.16.095-.335.095-.52 0-.205-.03-.392-.09-.56a1.1 1.1 0 0 0-.28-.43 1.277 1.277 0 0 0-.484-.28 2.217 2.217 0 0 0-.698-.097h-1.412v2.695zm9.84.356h-3.082v2.52h3.58v.768h-4.518v-7.11h4.468v.772h-3.53v2.285h3.08v.766zm7.493 1.032c-.04.335-.122.647-.247.935a2.26 2.26 0 0 1-.52.747c-.222.21-.492.374-.81.493-.32.12-.693.178-1.12.178-.42 0-.8-.078-1.142-.234a2.48 2.48 0 0 1-.875-.666 3.07 3.07 0 0 1-.562-1.037 4.342 4.342 0 0 1-.197-1.353v-.713c0-.497.066-.948.2-1.354a3.03 3.03 0 0 1 .57-1.04c.25-.288.55-.51.902-.67.353-.156.75-.235 1.19-.235.4 0 .754.06 1.063.176.31.118.574.28.79.49.216.21.388.462.515.753.127.29.208.612.244.963h-.943a3.192 3.192 0 0 0-.166-.67 1.505 1.505 0 0 0-.31-.506 1.303 1.303 0 0 0-.49-.323 1.966 1.966 0 0 0-.703-.112c-.316 0-.593.06-.833.183-.24.122-.44.293-.6.513-.16.22-.283.485-.364.796-.08.31-.122.653-.122 1.028v.722c0 .35.037.676.11.982.073.306.185.573.334.803.15.228.34.41.572.54.23.133.504.2.82.2.3 0 .552-.037.757-.11.206-.07.376-.174.51-.31.136-.134.24-.3.316-.497.075-.197.132-.42.17-.67h.943zm7.347-1.07a4.69 4.69 0 0 1-.202 1.434c-.135.42-.327.78-.574 1.076a2.455 2.455 0 0 1-.897.68 2.866 2.866 0 0 1-1.177.233c-.42 0-.806-.078-1.157-.234a2.544 2.544 0 0 1-.91-.678 3.165 3.165 0 0 1-.59-1.076c-.14-.422-.21-.9-.21-1.434v-.45c0-.53.07-1.007.21-1.432.14-.425.335-.785.585-1.08.25-.298.552-.525.904-.683a2.792 2.792 0 0 1 1.156-.236c.433 0 .826.08 1.18.237.352.158.653.385.903.682.248.295.44.655.575 1.08.135.425.202.903.202 1.433v.45zm-.932-.46a4.4 4.4 0 0 0-.13-1.122 2.36 2.36 0 0 0-.378-.82c-.166-.22-.37-.39-.608-.503-.24-.114-.51-.17-.814-.17-.29 0-.553.056-.79.17-.24.114-.44.282-.61.503a2.43 2.43 0 0 0-.387.82c-.092.326-.138.7-.138 1.123v.46c0 .426.047.802.14 1.127.092.326.223.6.392.823.17.223.373.392.61.505.238.114.502.17.792.17.306 0 .578-.056.815-.17.24-.113.44-.282.604-.505.165-.223.29-.497.374-.823.084-.325.127-.7.127-1.128v-.46zm5.546.91h-1.67v2.876h-.94v-7.11h2.352c.8 0 1.417.183 1.848.547.432.365.647.895.647 1.592 0 .443-.12.828-.36 1.157-.238.33-.57.575-.997.737l1.67 3.02v.058h-1.006l-1.543-2.876zm-1.67-.767h1.442c.253 0 .476-.035.666-.105.19-.07.35-.164.476-.283.127-.12.222-.26.286-.42.063-.16.095-.335.095-.52 0-.205-.03-.392-.09-.56a1.1 1.1 0 0 0-.28-.43 1.277 1.277 0 0 0-.485-.28 2.217 2.217 0 0 0-.698-.097h-1.41v2.695zm5.82 3.643v-7.11h2.008c.468 0 .895.078 1.28.235a2.8 2.8 0 0 1 .988.67c.275.288.488.64.64 1.053.15.414.226.878.226 1.392v.42c0 .514-.075.978-.227 1.39-.15.415-.366.766-.644 1.054a2.8 2.8 0 0 1-1.012.664c-.397.154-.842.232-1.333.232H46.3zm.938-6.338v5.57h.987c.377 0 .71-.06.996-.182.287-.122.526-.296.718-.52.193-.225.337-.495.433-.81.097-.316.145-.67.145-1.06v-.435c0-.407-.05-.77-.147-1.086a2.22 2.22 0 0 0-.43-.806c-.188-.22-.42-.385-.693-.5a2.42 2.42 0 0 0-.937-.17h-1.07zm7.96 3.686h-2.384v-.737h2.383v.736zm1.62 2.652v-7.11h2.323c.366 0 .692.037.978.11.286.073.53.187.73.342.2.155.353.35.46.588.105.238.158.523.158.855 0 .332-.095.626-.284.88-.188.257-.446.454-.77.594.198.056.374.137.53.245a1.61 1.61 0 0 1 .63.874c.056.182.084.372.084.57 0 .333-.056.627-.168.882-.113.256-.27.47-.476.645a2.05 2.05 0 0 1-.743.393c-.29.088-.613.132-.967.132h-2.486zm.937-3.326v2.56h1.548c.224 0 .424-.03.598-.09.175-.062.322-.146.443-.255.12-.11.212-.243.275-.4a1.41 1.41 0 0 0 .096-.53c0-.196-.026-.373-.078-.533a.99.99 0 0 0-.247-.405 1.127 1.127 0 0 0-.428-.257 1.872 1.872 0 0 0-.615-.09h-1.592zm0-.752h1.416c.203 0 .386-.026.552-.078.166-.052.31-.127.428-.224a.998.998 0 0 0 .276-.36 1.14 1.14 0 0 0 .097-.48c0-.39-.114-.675-.342-.852-.226-.178-.573-.266-1.04-.266h-1.385v2.26zm8.495 1.202h-1.67v2.876h-.942v-7.11h2.353c.802 0 1.418.183 1.85.547.43.365.647.895.647 1.592 0 .443-.12.828-.36 1.157-.24.33-.57.575-.998.737l1.67 3.02v.058h-1.007l-1.543-2.876zm-1.67-.767h1.44c.255 0 .477-.035.667-.105.19-.07.35-.164.476-.283.127-.12.222-.26.286-.42a1.644 1.644 0 0 0 .005-1.08 1.1 1.1 0 0 0-.282-.43 1.277 1.277 0 0 0-.483-.28 2.217 2.217 0 0 0-.7-.097h-1.41v2.695zm9.84.356h-3.082v2.52h3.58v.768H70.4v-7.11h4.468v.772h-3.53v2.285h3.08v.766zm6.19 1.432h-2.98l-.668 1.856h-.967l2.715-7.11h.82l2.72 7.11h-.962l-.68-1.856zm-2.696-.77h2.417l-1.21-3.327-1.206 3.326zm7.7-.68l-.87.903v2.403h-.937v-7.11h.938v3.516l.77-.86 2.39-2.656h1.132l-2.798 3.14 3.016 3.97h-1.123l-2.52-3.306zm6.068 3.306h-.937v-7.11h.937v7.11zm7.778 0h-.942l-3.58-5.48v5.48h-.942v-7.11h.943l3.588 5.503v-5.502h.932v7.11zm7.514-.933a2.428 2.428 0 0 1-.283.325c-.12.12-.278.23-.475.334-.197.104-.44.192-.725.264-.287.07-.63.107-1.03.107-.433 0-.83-.076-1.194-.23a2.635 2.635 0 0 1-.938-.66 3.05 3.05 0 0 1-.613-1.06 4.292 4.292 0 0 1-.22-1.424v-.555c0-.53.063-1.005.19-1.42.124-.418.308-.77.55-1.06.243-.29.542-.512.896-.665.356-.153.763-.23 1.222-.23.407 0 .764.055 1.07.164a2.18 2.18 0 0 1 1.294 1.145c.126.267.213.558.258.874h-.937a2.407 2.407 0 0 0-.17-.544c-.075-.172-.18-.322-.314-.45a1.447 1.447 0 0 0-.493-.306 1.966 1.966 0 0 0-.703-.112c-.332 0-.618.06-.86.18-.24.12-.44.294-.595.518a2.39 2.39 0 0 0-.35.816 4.64 4.64 0 0 0-.114 1.08v.565c0 .41.05.778.147 1.1.097.322.235.596.412.82.178.225.39.396.64.513.25.117.525.176.827.176.254 0 .47-.018.647-.053.18-.034.33-.076.45-.127.123-.05.22-.105.296-.166.075-.06.137-.116.186-.168v-1.597h-1.646v-.762h2.578v2.607zm8.593-.898c0-.147-.025-.282-.073-.406a1.007 1.007 0 0 0-.237-.345 1.772 1.772 0 0 0-.425-.298 4.403 4.403 0 0 0-.642-.264 5.13 5.13 0 0 1-.833-.33 2.525 2.525 0 0 1-.627-.44 1.743 1.743 0 0 1-.396-.587 2 2 0 0 1-.136-.767c0-.27.04-.518.122-.74a1.715 1.715 0 0 1 .898-.982c.215-.103.458-.17.728-.203v-1.07h.727v1.075c.547.075.973.304 1.277.69.304.383.457.908.457 1.576h-.9a2.18 2.18 0 0 0-.077-.6 1.4 1.4 0 0 0-.232-.474 1.075 1.075 0 0 0-.38-.313 1.158 1.158 0 0 0-.52-.113c-.206 0-.383.027-.533.083a.995.995 0 0 0-.37.232.95.95 0 0 0-.22.36 1.4 1.4 0 0 0-.074.462c0 .157.024.297.07.423.045.125.12.24.23.344.106.105.25.204.43.296.178.093.402.184.672.27.313.102.59.215.835.34.244.126.45.272.618.438.168.166.295.358.383.576.088.218.132.47.132.757 0 .283-.044.537-.132.762a1.656 1.656 0 0 1-.378.58 1.856 1.856 0 0 1-.596.39 2.72 2.72 0 0 1-.78.19v.933h-.72v-.932a2.632 2.632 0 0 1-.726-.17 1.884 1.884 0 0 1-.62-.396 1.855 1.855 0 0 1-.433-.657 2.54 2.54 0 0 1-.16-.954h.903c0 .277.04.506.122.688.08.184.188.33.32.436.13.107.278.182.44.225.16.043.322.064.485.064.218 0 .412-.027.58-.08.17-.054.313-.13.43-.23.118-.1.207-.22.27-.36.06-.143.092-.302.092-.477zm3.94-2.164h.644c.236 0 .44-.03.616-.092a1.24 1.24 0 0 0 .44-.256c.117-.11.205-.237.264-.385.058-.15.087-.31.087-.487 0-.407-.102-.717-.307-.93-.205-.214-.518-.32-.938-.32-.192 0-.367.028-.525.085a1.087 1.087 0 0 0-.667.63c-.06.15-.092.32-.092.505h-.903a1.85 1.85 0 0 1 .6-1.39 2.12 2.12 0 0 1 .692-.42c.27-.1.568-.152.896-.152.323 0 .616.044.88.13.263.086.488.213.676.38.187.168.332.378.437.628.104.25.156.542.156.874 0 .134-.02.274-.065.42-.044.147-.11.29-.2.43a1.866 1.866 0 0 1-.852.698c.234.075.43.173.588.296a1.55 1.55 0 0 1 .58.88c.04.167.058.33.058.49 0 .33-.057.627-.17.885-.115.26-.273.477-.474.653-.202.176-.44.31-.713.403-.273.093-.57.14-.893.14-.31 0-.6-.044-.874-.13a2.136 2.136 0 0 1-.718-.38 1.804 1.804 0 0 1-.485-.62 1.912 1.912 0 0 1-.18-.843h.91c0 .185.03.354.092.505.062.15.152.282.27.39.116.11.258.193.424.252.166.06.353.088.56.088.21 0 .397-.027.563-.08.165-.054.306-.137.424-.247.117-.11.206-.248.268-.414a1.66 1.66 0 0 0 .093-.58c0-.223-.036-.415-.108-.577a1.048 1.048 0 0 0-.305-.404 1.32 1.32 0 0 0-.476-.237 2.312 2.312 0 0 0-.625-.08h-.643v-.737zm9.36.962c0 .583-.053 1.074-.157 1.473-.104.398-.253.72-.447.966a1.65 1.65 0 0 1-.703.53 2.54 2.54 0 0 1-.93.16c-.342 0-.65-.052-.928-.16a1.663 1.663 0 0 1-.708-.53c-.195-.245-.346-.568-.454-.966-.107-.4-.16-.89-.16-1.473v-1.084c0-.58.052-1.07.158-1.463.106-.394.256-.712.45-.953.197-.24.432-.413.707-.517.275-.104.584-.156.925-.156.345 0 .656.053.933.157.277.104.513.277.708.517.196.24.346.56.45.953.104.393.156.882.156 1.464v1.085zm-.904-1.235c0-.4-.028-.74-.085-1.02a1.954 1.954 0 0 0-.257-.682 1.018 1.018 0 0 0-.42-.378 1.356 1.356 0 0 0-.58-.117c-.215 0-.406.04-.573.117a1.002 1.002 0 0 0-.42.378 2.02 2.02 0 0 0-.257.682c-.058.28-.088.62-.088 1.02v1.377c0 .397.03.738.088 1.023.06.285.146.518.262.7.115.183.257.316.424.4.168.086.36.128.574.128.22 0 .415-.042.58-.127.167-.084.306-.217.42-.4.11-.182.195-.415.25-.7.055-.285.083-.626.083-1.023v-1.377zm4.106-2.842l2.323 5.8 2.324-5.8h1.216v7.11h-.937v-2.77l.088-2.987-2.334 5.758h-.718l-2.33-5.743.094 2.974v2.768h-.938v-7.11h1.21zM59.39 409.25c0-.165-.025-.312-.075-.44a.876.876 0 0 0-.27-.348 2.14 2.14 0 0 0-.52-.298 7.6 7.6 0 0 0-.83-.285 7.05 7.05 0 0 1-.953-.346 3.136 3.136 0 0 1-.728-.444c-.2-.168-.354-.36-.46-.574a1.627 1.627 0 0 1-.163-.737c0-.278.06-.534.175-.77.115-.236.28-.44.49-.615.212-.174.466-.31.762-.408.296-.098.627-.146.99-.146.402 0 .758.06 1.07.18.313.122.576.28.79.48a2.04 2.04 0 0 1 .652 1.494h-.943c0-.2-.032-.383-.095-.552a1.16 1.16 0 0 0-.29-.44 1.34 1.34 0 0 0-.488-.287 2.103 2.103 0 0 0-.694-.103c-.25 0-.468.03-.654.088-.185.06-.338.14-.46.242a.96.96 0 0 0-.267.363c-.06.14-.088.293-.088.46 0 .15.03.286.094.41.063.123.162.237.295.34.133.106.304.202.514.29.21.087.462.172.755.253.402.114.75.24 1.044.38.293.137.534.294.725.47.19.176.33.373.424.59.092.22.14.466.14.743 0 .29-.06.553-.177.787a1.72 1.72 0 0 1-.5.6 2.367 2.367 0 0 1-.782.384c-.304.09-.643.135-1.018.135a3.56 3.56 0 0 1-.654-.06 3.24 3.24 0 0 1-.627-.184 2.78 2.78 0 0 1-.557-.302 2.15 2.15 0 0 1-.448-.42 1.88 1.88 0 0 1-.405-1.19h.942c0 .243.047.452.143.627.096.174.225.318.386.432.16.114.346.197.556.25.21.055.43.082.66.082.496 0 .875-.102 1.14-.304a.983.983 0 0 0 .394-.825zm6.763-1.49h-3.08v2.52h3.578v.768h-4.516v-7.11h4.468v.772h-3.53v2.285h3.08v.766zm4.872.412h-1.67v2.876h-.942v-7.11h2.353c.8 0 1.417.183 1.848.547.432.365.647.895.647 1.592 0 .443-.118.828-.358 1.157-.24.33-.572.575-.998.737l1.67 3.02v.058h-1.006l-1.543-2.876zm-1.67-.767h1.44c.254 0 .477-.035.667-.105.19-.07.35-.164.476-.283.127-.12.222-.26.286-.42.063-.16.095-.335.095-.52 0-.205-.03-.392-.09-.56a1.1 1.1 0 0 0-.282-.43 1.277 1.277 0 0 0-.484-.28 2.217 2.217 0 0 0-.698-.097h-1.41v2.695zm6.826 3.643h-.937v-7.11h.938v7.11zm6.333-3.287h-3.08v2.52h3.578v.768h-4.515v-7.11h4.467v.772h-3.53v2.285h3.08v.766zm6.054 1.49c0-.165-.025-.312-.075-.44a.876.876 0 0 0-.27-.348 2.14 2.14 0 0 0-.52-.298 7.6 7.6 0 0 0-.83-.285 7.05 7.05 0 0 1-.954-.346 3.136 3.136 0 0 1-.727-.444c-.2-.168-.353-.36-.46-.574a1.627 1.627 0 0 1-.162-.737c0-.278.058-.534.174-.77.115-.236.28-.44.49-.615.212-.174.466-.31.762-.408.296-.098.627-.146.99-.146.402 0 .758.06 1.07.18.313.122.576.28.79.48a2.04 2.04 0 0 1 .652 1.494h-.944c0-.2-.032-.383-.096-.552a1.16 1.16 0 0 0-.29-.44 1.34 1.34 0 0 0-.488-.287 2.103 2.103 0 0 0-.695-.103c-.25 0-.47.03-.654.088-.185.06-.338.14-.458.242a.96.96 0 0 0-.27.363c-.057.14-.087.293-.087.46 0 .15.032.286.096.41.064.123.163.237.296.34.134.106.305.202.515.29.21.087.463.172.756.253.403.114.752.24 1.045.38.293.137.535.294.726.47.19.176.332.373.424.59.093.22.14.466.14.743 0 .29-.06.553-.176.787a1.72 1.72 0 0 1-.5.6 2.367 2.367 0 0 1-.782.384c-.304.09-.644.135-1.018.135a3.56 3.56 0 0 1-.654-.06 3.24 3.24 0 0 1-.628-.184 2.78 2.78 0 0 1-.556-.302 2.15 2.15 0 0 1-.447-.42 1.88 1.88 0 0 1-.406-1.19h.942c0 .243.048.452.144.627.096.174.225.318.386.432.16.114.346.197.556.25.21.055.43.082.662.082.495 0 .874-.102 1.138-.304a.983.983 0 0 0 .395-.825zm9.745-.058h-2.978l-.67 1.856H93.7l2.715-7.11h.82l2.72 7.11h-.962l-.678-1.856zm-2.695-.77h2.417l-1.21-3.327-1.207 3.326zm11.576-.25h-1.67v2.876h-.943v-7.11h2.354c.8 0 1.417.183 1.848.547.43.365.647.895.647 1.592 0 .443-.12.828-.36 1.157-.24.33-.572.575-.998.737l1.67 3.02v.058h-1.006l-1.543-2.876zm-1.67-.767h1.44c.254 0 .476-.035.667-.105.19-.07.35-.164.476-.283.127-.12.222-.26.286-.42.063-.16.095-.335.095-.52 0-.205-.03-.392-.09-.56a1.1 1.1 0 0 0-.28-.43 1.277 1.277 0 0 0-.485-.28 2.217 2.217 0 0 0-.698-.097h-1.41v2.695zm11.288.317a4.69 4.69 0 0 1-.2 1.434c-.136.42-.328.78-.575 1.076a2.455 2.455 0 0 1-.898.68 2.866 2.866 0 0 1-1.177.233c-.42 0-.806-.078-1.157-.234a2.544 2.544 0 0 1-.91-.678 3.165 3.165 0 0 1-.59-1.076c-.14-.422-.21-.9-.21-1.434v-.45c0-.53.07-1.007.21-1.432.14-.425.336-.785.586-1.08.25-.298.55-.525.903-.683a2.792 2.792 0 0 1 1.157-.236c.433 0 .826.08 1.18.237.352.158.654.385.903.682.25.295.44.655.576 1.08.134.425.2.903.2 1.433v.45zm-.93-.46a4.4 4.4 0 0 0-.13-1.122 2.36 2.36 0 0 0-.38-.82c-.165-.22-.368-.39-.607-.503-.24-.114-.51-.17-.813-.17-.29 0-.553.056-.79.17-.24.114-.44.282-.61.503a2.43 2.43 0 0 0-.387.82c-.09.326-.137.7-.137 1.123v.46c0 .426.047.802.14 1.127.092.326.223.6.392.823.17.223.373.392.61.505.238.114.502.17.792.17.306 0 .578-.056.815-.17.238-.113.44-.282.603-.505.165-.223.29-.497.374-.823.084-.325.127-.7.127-1.128v-.46zm7.942-3.324v4.815c0 .4-.07.75-.21 1.05-.14.3-.327.548-.563.747-.237.198-.512.347-.824.446-.313.1-.64.15-.987.15-.362 0-.7-.05-1.01-.15a2.282 2.282 0 0 1-.814-.446c-.23-.2-.41-.448-.542-.748-.132-.3-.198-.65-.198-1.05v-4.814h.928v4.815c0 .276.04.516.12.72.08.203.19.373.334.508.143.136.315.236.515.3.2.066.422.1.666.1.247 0 .47-.034.673-.1.202-.064.375-.164.518-.3.144-.134.255-.304.333-.507.078-.204.117-.444.117-.72v-4.815h.942zm7.544 7.11h-.943l-3.58-5.48v5.48h-.94v-7.11h.94l3.59 5.503v-5.502h.933v7.11zm2.265 0v-7.11h2.008c.468 0 .895.078 1.28.235a2.8 2.8 0 0 1 .988.67c.275.288.488.64.64 1.053.15.414.226.878.226 1.392v.42c0 .514-.075.978-.227 1.39-.15.415-.366.766-.644 1.054a2.8 2.8 0 0 1-1.012.664c-.397.154-.842.232-1.333.232h-1.924zm.938-6.338v5.57h.987c.377 0 .71-.06.996-.182.287-.122.527-.296.72-.52.19-.225.335-.495.43-.81.097-.316.145-.67.145-1.06v-.435c0-.407-.05-.77-.147-1.086a2.22 2.22 0 0 0-.43-.806c-.188-.22-.42-.385-.693-.5a2.42 2.42 0 0 0-.937-.17h-1.07z" fill="#7F7F7F"/><path d="M93.435 24.295l2.324 5.8 2.323-5.8H99.3v7.11h-.938v-2.77l.087-2.987-2.335 5.757h-.717l-2.33-5.742.093 2.973v2.77h-.936v-7.11h1.21zm11.24 7.11a.978.978 0 0 1-.08-.247c-.018-.1-.034-.202-.048-.31-.084.088-.18.172-.285.252a2.046 2.046 0 0 1-.755.35c-.146.035-.3.052-.463.052-.27 0-.516-.04-.735-.122a1.71 1.71 0 0 1-.563-.332 1.463 1.463 0 0 1-.486-1.108c0-.283.057-.533.167-.75.11-.216.27-.398.476-.544.207-.146.457-.257.75-.332.293-.075.62-.112.98-.112h.9v-.415c0-.316-.095-.568-.283-.755-.19-.187-.467-.28-.835-.28-.17 0-.324.022-.464.068-.14.045-.26.106-.358.183a.854.854 0 0 0-.232.266.65.65 0 0 0-.083.316h-.908c0-.188.048-.376.148-.56.1-.187.24-.353.422-.502.182-.148.403-.268.662-.36.258-.094.547-.14.866-.14.287 0 .55.037.794.11.242.073.45.184.622.332.173.148.308.333.406.554.097.22.146.48.146.776v2.456c0 .18.016.367.047.564.03.197.077.367.14.51v.08h-.95zm-1.5-.69c.163 0 .316-.02.46-.067.143-.046.273-.105.39-.178.117-.074.22-.157.305-.252a1.23 1.23 0 0 0 .203-.293V28.84h-.752c-.517 0-.915.082-1.195.243a.79.79 0 0 0-.42.73c0 .127.02.246.063.356.042.11.107.205.193.285a.96.96 0 0 0 .318.19c.126.048.27.07.437.07zm5.932-.633l1.23-3.96h.968l-2.124 6.098a4.14 4.14 0 0 1-.19.425 1.82 1.82 0 0 1-.305.427 1.648 1.648 0 0 1-.452.332 1.35 1.35 0 0 1-.747.125 4.544 4.544 0 0 1-.38-.07v-.732a.33.33 0 0 0 .053.007 14.984 14.984 0 0 0 .19.013c.153 0 .288-.015.405-.044a.887.887 0 0 0 .312-.144.9.9 0 0 0 .237-.267 2.12 2.12 0 0 0 .183-.41l.2-.537-1.884-5.224h.986l1.317 3.96zm11.244 1.323h-4.657v-.65l2.33-2.588c.214-.237.392-.447.534-.63.142-.182.254-.35.337-.5.083-.15.14-.293.173-.425.033-.132.05-.266.05-.403 0-.176-.03-.342-.084-.496a1.123 1.123 0 0 0-.625-.674c-.153-.066-.33-.1-.527-.1-.24 0-.45.036-.627.107-.177.072-.324.17-.442.298-.116.127-.204.28-.262.457-.06.177-.088.373-.088.588h-.904c0-.3.05-.583.15-.85.1-.266.246-.5.44-.698.197-.198.44-.355.73-.47.29-.116.624-.174 1.005-.174.336 0 .636.045.902.136.265.092.49.22.673.39.184.166.325.367.423.602a2 2 0 0 1 .04 1.406 3.575 3.575 0 0 1-.29.632c-.12.21-.26.42-.424.625-.163.206-.334.41-.513.607l-1.908 2.07h3.57v.738zm6.016-3.032c0 .582-.052 1.073-.156 1.472-.104.398-.253.72-.447.967a1.65 1.65 0 0 1-.703.53 2.54 2.54 0 0 1-.93.16c-.342 0-.65-.053-.928-.16a1.663 1.663 0 0 1-.708-.53c-.195-.246-.346-.57-.454-.967-.107-.4-.16-.89-.16-1.472V27.29c0-.584.052-1.072.158-1.466.106-.394.256-.712.45-.952.197-.24.432-.414.707-.518.275-.104.584-.156.925-.156.345 0 .656.052.933.156.277.104.513.277.708.518.196.24.346.558.45.952.104.394.156.882.156 1.465v1.083zm-.903-1.236c0-.4-.028-.74-.085-1.02a1.954 1.954 0 0 0-.257-.68 1.018 1.018 0 0 0-.42-.38 1.356 1.356 0 0 0-.58-.117c-.215 0-.406.04-.573.117a1.002 1.002 0 0 0-.42.38 2.02 2.02 0 0 0-.257.68c-.058.28-.088.62-.088 1.02v1.377c0 .397.03.738.088 1.023.06.285.146.52.262.7.115.183.257.317.424.4.168.086.36.128.574.128.22 0 .415-.042.58-.127.167-.084.306-.218.42-.4.11-.182.195-.416.25-.7.055-.286.083-.627.083-1.024v-1.377zm5.63 4.268h-.91v-6.02l-1.82.668v-.82l2.588-.972h.142v7.145zm6.215 0h-.91v-6.02l-1.82.668v-.82l2.588-.972h.142v7.145zM62.78 215.608c0-.166-.026-.313-.077-.44a.876.876 0 0 0-.268-.35 2.14 2.14 0 0 0-.52-.297 7.6 7.6 0 0 0-.83-.284 7.05 7.05 0 0 1-.955-.344 3.136 3.136 0 0 1-.727-.445c-.2-.167-.354-.36-.462-.573a1.627 1.627 0 0 1-.16-.738c0-.276.058-.533.173-.77.116-.235.28-.44.49-.614.213-.174.467-.31.763-.408.296-.097.627-.146.99-.146.4 0 .758.06 1.07.18.313.12.576.28.79.48a2.04 2.04 0 0 1 .652 1.494h-.943c0-.2-.03-.383-.095-.553a1.16 1.16 0 0 0-.29-.44 1.34 1.34 0 0 0-.49-.288 2.103 2.103 0 0 0-.693-.103c-.25 0-.47.03-.654.087-.186.06-.34.14-.46.242a.96.96 0 0 0-.268.363c-.058.14-.088.293-.088.46 0 .148.032.285.096.41.063.122.162.236.295.34.133.105.305.2.515.29.21.087.462.17.755.253.403.113.75.24 1.044.378.293.138.535.295.726.47.19.177.332.374.424.592.093.218.14.465.14.742 0 .29-.06.552-.176.786a1.72 1.72 0 0 1-.5.6 2.367 2.367 0 0 1-.782.384c-.304.09-.644.134-1.018.134a3.56 3.56 0 0 1-.654-.06 3.24 3.24 0 0 1-.628-.184 2.78 2.78 0 0 1-.556-.302 2.15 2.15 0 0 1-.447-.42 1.88 1.88 0 0 1-.405-1.192h.943c0 .244.048.454.144.628.096.174.225.318.386.432.16.114.346.198.556.25.21.055.43.082.662.082.495 0 .874-.1 1.138-.303a.983.983 0 0 0 .395-.825zm4.793 1.894c-.367 0-.7-.063-.998-.19a2.23 2.23 0 0 1-1.253-1.338 2.973 2.973 0 0 1-.17-1.025v-.206c0-.43.064-.814.192-1.153.13-.337.3-.622.516-.853.214-.23.46-.408.737-.53a2.12 2.12 0 0 1 .864-.183c.38 0 .704.066.978.198.273.132.5.313.676.544.177.23.308.505.393.82.085.316.127.66.127 1.03v.406h-3.58c.007.244.047.472.12.684.074.21.178.395.313.55.135.158.298.28.488.372.19.092.406.137.647.137.32 0 .59-.065.81-.195.222-.13.416-.303.582-.518l.552.43c-.085.13-.188.256-.308.378s-.26.23-.422.327c-.16.097-.346.173-.555.23a2.688 2.688 0 0 1-.707.085zm-.112-4.736c-.18 0-.35.033-.502.1-.153.067-.29.164-.41.29-.12.128-.22.286-.3.474a2.4 2.4 0 0 0-.164.65h2.647v-.07a2.5 2.5 0 0 0-.085-.52 1.42 1.42 0 0 0-.22-.465 1.132 1.132 0 0 0-.383-.332 1.208 1.208 0 0 0-.58-.127zm8.282 2.056c0 .387-.046.744-.137 1.072-.09.327-.224.61-.398.85-.174.238-.388.425-.642.558a1.84 1.84 0 0 1-.87.2c-.33 0-.622-.052-.87-.156a1.777 1.777 0 0 1-.643-.454v2.544h-.903v-7.314h.824l.044.586c.18-.222.396-.39.65-.508a2.09 2.09 0 0 1 .883-.176c.333 0 .627.065.883.195.255.13.47.313.647.55a2.5 2.5 0 0 1 .398.848c.09.33.134.698.134 1.1v.104zm-.904-.103c0-.264-.027-.513-.083-.745a1.877 1.877 0 0 0-.258-.613 1.312 1.312 0 0 0-.445-.418 1.266 1.266 0 0 0-.64-.153c-.152 0-.29.018-.417.054a1.26 1.26 0 0 0-.608.384c-.078.09-.146.186-.205.29v2.524c.06.105.127.2.205.29a1.21 1.21 0 0 0 .61.38c.128.035.27.053.425.053.245 0 .455-.052.633-.156.177-.105.325-.245.442-.42.117-.177.203-.383.258-.62.056-.235.083-.485.083-.748v-.103zm3.877-3.878v1.28h.986v.698h-.985v3.276a.92.92 0 0 0 .05.33.473.473 0 0 0 .128.193.413.413 0 0 0 .186.09c.07.014.14.02.216.02.075 0 .154-.006.237-.02l.193-.038v.733c-.072.02-.165.04-.28.063a2.153 2.153 0 0 1-.414.034c-.166 0-.323-.023-.47-.07a.95.95 0 0 1-.39-.237c-.11-.11-.198-.257-.263-.437a1.98 1.98 0 0 1-.098-.667v-3.27h-.962v-.698h.962v-1.28h.903zm4.833 6.66c-.368 0-.7-.063-.998-.19a2.23 2.23 0 0 1-1.253-1.338 2.973 2.973 0 0 1-.17-1.025v-.206c0-.43.064-.814.192-1.153.128-.337.3-.622.514-.853.215-.23.46-.408.738-.53a2.12 2.12 0 0 1 .864-.183c.378 0 .703.066.977.198.273.132.498.313.676.544.176.23.307.505.392.82.084.316.127.66.127 1.03v.406h-3.58c.006.244.046.472.12.684.073.21.177.395.312.55.135.158.298.28.488.372.19.092.406.137.647.137.32 0 .59-.065.81-.195.222-.13.416-.303.582-.518l.55.43c-.084.13-.187.256-.307.378s-.26.23-.423.327c-.16.097-.345.173-.554.23a2.688 2.688 0 0 1-.708.085zm-.112-4.736c-.182 0-.35.033-.503.1-.153.067-.29.164-.41.29-.12.128-.22.286-.3.474a2.4 2.4 0 0 0-.164.65h2.645v-.07a2.5 2.5 0 0 0-.085-.52 1.42 1.42 0 0 0-.22-.465 1.132 1.132 0 0 0-.383-.332 1.208 1.208 0 0 0-.58-.127zm4.667-.644l.025.586c.182-.215.403-.383.66-.503.26-.12.562-.18.907-.18.342 0 .644.066.906.202.263.135.464.35.604.647a2 2 0 0 1 .686-.616c.282-.156.614-.234.998-.234.284 0 .534.037.752.11.22.073.403.188.555.344.15.156.266.355.344.596.077.24.116.527.116.86v3.47h-.903v-3.476c0-.22-.027-.405-.08-.552a.86.86 0 0 0-.228-.35.81.81 0 0 0-.356-.184 1.956 1.956 0 0 0-.465-.05c-.186 0-.35.028-.493.086-.144.06-.266.138-.37.237-.102.1-.183.217-.243.352-.06.135-.1.28-.116.432v3.505h-.908v-3.472c0-.205-.027-.38-.08-.525a.905.905 0 0 0-.228-.354.893.893 0 0 0-.354-.2 1.592 1.592 0 0 0-.466-.063c-.322 0-.58.07-.776.21-.196.14-.342.323-.44.547v3.858h-.903v-5.283h.853zm12.988 2.7c0 .387-.045.744-.136 1.072-.09.327-.224.61-.4.85-.176.238-.39.425-.645.558a1.84 1.84 0 0 1-.87.2c-.348 0-.65-.06-.903-.183a1.778 1.778 0 0 1-.645-.526l-.044.61h-.83v-7.5h.904v2.8c.175-.22.387-.387.634-.504.248-.117.54-.176.874-.176.333 0 .626.065.882.195.255.13.47.313.644.55.175.235.307.518.398.848.09.33.137.698.137 1.1v.104zm-.902-.103c0-.264-.025-.513-.074-.745a1.888 1.888 0 0 0-.236-.613 1.22 1.22 0 0 0-.428-.418 1.26 1.26 0 0 0-.644-.153c-.166 0-.316.022-.45.064a1.293 1.293 0 0 0-.634.44c-.078.1-.145.21-.2.327v2.286c.058.117.127.226.207.327a1.293 1.293 0 0 0 .637.44c.133.042.283.063.45.063.243 0 .45-.05.624-.152.173-.1.315-.237.425-.41.11-.172.193-.375.245-.608.052-.232.078-.48.078-.744v-.103zm4.833 2.782c-.367 0-.7-.063-.997-.19a2.23 2.23 0 0 1-1.253-1.338 2.973 2.973 0 0 1-.17-1.025v-.206c0-.43.064-.814.192-1.153.13-.337.3-.622.515-.853.215-.23.46-.408.738-.53a2.12 2.12 0 0 1 .864-.183c.376 0 .702.066.975.198.274.132.5.313.677.544.177.23.308.505.393.82.084.316.127.66.127 1.03v.406h-3.58c.007.244.047.472.12.684.073.21.178.395.313.55.135.158.298.28.488.372.19.092.406.137.647.137.32 0 .59-.065.81-.195.222-.13.416-.303.582-.518l.55.43c-.083.13-.186.256-.306.378s-.262.23-.423.327c-.16.097-.346.173-.554.23a2.688 2.688 0 0 1-.71.085zm-.11-4.736c-.183 0-.35.033-.504.1-.153.067-.29.164-.41.29-.12.128-.22.286-.3.474a2.4 2.4 0 0 0-.164.65h2.646v-.07a2.5 2.5 0 0 0-.085-.52 1.42 1.42 0 0 0-.22-.465 1.132 1.132 0 0 0-.383-.332 1.208 1.208 0 0 0-.58-.127zm6.37.166a2.39 2.39 0 0 0-.444-.034c-.313 0-.567.068-.764.205-.197.137-.344.32-.442.552v3.75h-.903v-5.283h.878l.015.61a1.59 1.59 0 0 1 .513-.518c.205-.127.454-.19.747-.19a1.335 1.335 0 0 1 .4.068v.84zm9.07 4.473h-4.657v-.65l2.33-2.588c.214-.237.392-.447.534-.63.142-.182.254-.35.337-.5.083-.15.14-.293.173-.425.033-.132.05-.266.05-.403 0-.176-.03-.342-.084-.496a1.123 1.123 0 0 0-.625-.674c-.153-.066-.33-.1-.527-.1-.24 0-.45.036-.627.107-.177.072-.324.17-.442.298-.116.127-.204.28-.262.457-.06.177-.088.373-.088.588h-.904c0-.3.05-.583.15-.85.1-.266.246-.5.44-.698.197-.198.44-.355.73-.47.29-.116.624-.174 1.005-.174.336 0 .636.045.902.136.265.092.49.22.673.39.184.166.325.367.423.602a2 2 0 0 1 .04 1.406 3.575 3.575 0 0 1-.29.632c-.12.21-.26.42-.424.625-.163.206-.334.41-.513.607l-1.908 2.07h3.57v.738zm6.016-3.032c0 .582-.052 1.073-.156 1.472-.104.398-.253.72-.447.967a1.65 1.65 0 0 1-.703.53 2.54 2.54 0 0 1-.93.16c-.342 0-.65-.053-.928-.16a1.663 1.663 0 0 1-.708-.53c-.195-.246-.346-.57-.454-.967-.107-.4-.16-.89-.16-1.472v-1.084c0-.584.052-1.072.158-1.466.106-.394.256-.712.45-.952.197-.24.432-.414.707-.518.275-.104.584-.156.925-.156.345 0 .656.052.933.156.277.104.513.277.708.518.196.24.346.558.45.952.104.394.156.882.156 1.465v1.083zm-.903-1.236c0-.4-.028-.74-.085-1.02a1.954 1.954 0 0 0-.257-.68 1.018 1.018 0 0 0-.42-.38 1.356 1.356 0 0 0-.58-.117c-.215 0-.406.04-.573.117a1.002 1.002 0 0 0-.42.38 2.02 2.02 0 0 0-.257.68c-.058.28-.088.62-.088 1.02v1.377c0 .397.03.738.088 1.023.06.285.146.518.262.7.115.183.257.317.424.4.168.086.36.128.574.128.22 0 .415-.042.58-.127.167-.084.306-.218.42-.4.11-.183.195-.416.25-.7.055-.286.083-.627.083-1.024v-1.377zm5.63 4.268h-.91v-6.02l-1.82.668v-.82l2.588-.972h.142v7.145zm4.56-3.994h.644c.234 0 .44-.03.615-.092a1.24 1.24 0 0 0 .44-.256c.117-.11.205-.238.263-.386.06-.148.088-.31.088-.486 0-.407-.102-.717-.307-.93-.206-.213-.518-.32-.938-.32-.192 0-.367.028-.525.085a1.087 1.087 0 0 0-.667.63c-.06.152-.092.32-.092.506h-.903c0-.273.053-.528.157-.766a1.85 1.85 0 0 1 .444-.623 2.12 2.12 0 0 1 .692-.418c.27-.103.567-.154.896-.154.322 0 .615.043.88.13.263.085.488.212.675.38.187.168.333.377.437.627.104.25.156.542.156.874 0 .133-.022.273-.065.42-.043.146-.11.29-.2.43-.09.14-.205.27-.346.392-.142.122-.31.224-.506.305.235.075.43.174.59.296a1.548 1.548 0 0 1 .58.88c.036.167.056.33.056.49 0 .33-.057.627-.17.886-.115.257-.273.475-.475.65-.202.176-.44.31-.714.403-.273.093-.57.14-.893.14-.31 0-.6-.044-.874-.13a2.136 2.136 0 0 1-.72-.38 1.804 1.804 0 0 1-.485-.62 1.912 1.912 0 0 1-.178-.843h.908c0 .185.03.354.093.505.062.152.15.282.27.39.116.11.257.194.423.252.167.06.355.088.563.088.208 0 .395-.027.56-.08.167-.054.31-.136.426-.247.116-.11.206-.25.268-.415a1.66 1.66 0 0 0 .093-.58c0-.222-.035-.415-.107-.577a1.048 1.048 0 0 0-.305-.403 1.32 1.32 0 0 0-.476-.237 2.312 2.312 0 0 0-.625-.078h-.645v-.737zM237.788 124.192h-2.98l-.668 1.856h-.967l2.715-7.11h.82l2.72 7.11h-.962l-.678-1.856zm-2.696-.77h2.417l-1.212-3.327-1.206 3.326zm10.215.043c0 .387-.046.744-.137 1.07-.09.33-.224.612-.398.85-.174.24-.388.427-.642.56a1.84 1.84 0 0 1-.87.2c-.33 0-.622-.052-.87-.156a1.777 1.777 0 0 1-.643-.455v2.544h-.903v-7.316h.825l.043.586c.18-.22.395-.39.65-.507a2.09 2.09 0 0 1 .883-.176c.332 0 .626.065.88.195.257.13.473.313.648.55a2.5 2.5 0 0 1 .398.85c.09.33.135.696.135 1.1v.103zm-.904-.103c0-.264-.027-.512-.083-.745a1.877 1.877 0 0 0-.258-.612 1.312 1.312 0 0 0-.445-.418 1.266 1.266 0 0 0-.64-.154c-.152 0-.292.018-.417.054a1.26 1.26 0 0 0-.608.383c-.078.09-.146.187-.205.29v2.525c.06.104.127.2.205.29a1.21 1.21 0 0 0 .61.38c.127.035.27.053.425.053.244 0 .455-.052.633-.156.177-.104.324-.244.442-.42.117-.176.203-.382.258-.618.056-.236.083-.486.083-.75v-.102zm5.205-1.787a2.39 2.39 0 0 0-.445-.034c-.312 0-.567.07-.764.206-.198.137-.345.32-.443.552v3.75h-.903v-5.284h.88l.014.61a1.59 1.59 0 0 1 .512-.517c.205-.127.454-.19.747-.19a1.335 1.335 0 0 1 .4.068v.84zm2.41 4.473h-.902v-5.284h.903v5.284zm-.975-6.685a.54.54 0 0 1 .134-.37c.09-.102.222-.152.398-.152.176 0 .31.05.4.152.092.1.137.225.137.37 0 .148-.045.27-.137.367-.09.097-.224.146-.4.146-.176 0-.308-.05-.398-.147a.52.52 0 0 1-.134-.367zm4.003 6.685h-.903v-7.5h.903v7.5zm9.686 0h-4.658v-.65l2.33-2.588c.214-.237.392-.447.534-.63.142-.182.254-.35.337-.5.083-.15.14-.293.173-.425.033-.132.05-.266.05-.403 0-.175-.03-.34-.084-.495a1.123 1.123 0 0 0-.625-.674c-.153-.067-.33-.1-.527-.1-.24 0-.45.036-.628.107-.177.072-.324.17-.442.298-.117.127-.205.28-.263.457-.06.177-.09.373-.09.588h-.903c0-.3.05-.583.15-.85.1-.267.246-.5.44-.698.197-.198.44-.356.73-.47.29-.117.624-.174 1.005-.174.335 0 .635.046.9.137.266.09.49.22.674.388.184.168.325.37.423.604a2 2 0 0 1 .038 1.405 3.575 3.575 0 0 1-.288.632c-.12.21-.262.418-.425.625-.163.207-.334.41-.513.608l-1.91 2.07h3.57v.738zm6.015-3.033c0 .583-.052 1.074-.156 1.473-.103.398-.252.72-.446.966a1.65 1.65 0 0 1-.703.53 2.54 2.54 0 0 1-.93.16c-.34 0-.65-.052-.927-.16a1.663 1.663 0 0 1-.708-.53c-.195-.245-.346-.568-.454-.966-.106-.4-.16-.89-.16-1.473v-1.084c0-.58.053-1.07.16-1.463.105-.394.255-.712.45-.953.196-.24.43-.413.706-.517.275-.104.584-.156.925-.156.346 0 .657.053.934.157.277.104.513.277.708.517.195.24.345.56.45.953.103.393.155.882.155 1.464v1.085zm-.903-1.235c0-.4-.028-.74-.085-1.02a1.954 1.954 0 0 0-.258-.682 1.018 1.018 0 0 0-.422-.378 1.356 1.356 0 0 0-.58-.117c-.213 0-.405.04-.572.117a1.002 1.002 0 0 0-.42.378 2.02 2.02 0 0 0-.257.682c-.057.28-.087.62-.087 1.02v1.377c0 .397.03.738.088 1.023.06.285.147.518.263.7.115.183.257.316.424.4.168.086.36.128.574.128.222 0 .416-.042.582-.127.166-.084.305-.217.418-.4.112-.182.196-.415.25-.7.056-.285.084-.626.084-1.023v-1.377zm5.63 4.268h-.91v-6.02l-1.82.668v-.82l2.588-.972h.14v7.144zm7.904 0h-4.658v-.65l2.33-2.588c.214-.237.392-.447.534-.63.14-.182.254-.35.337-.5.084-.15.14-.293.174-.425.032-.132.05-.266.05-.403 0-.175-.03-.34-.084-.495a1.123 1.123 0 0 0-.625-.674c-.153-.067-.33-.1-.528-.1-.24 0-.45.036-.627.107-.177.072-.325.17-.442.298-.117.127-.205.28-.264.457-.058.177-.087.373-.087.588h-.904c0-.3.05-.583.15-.85.098-.267.246-.5.44-.698.196-.198.44-.356.73-.47.288-.117.624-.174 1.004-.174.336 0 .636.046.9.137.267.09.49.22.675.388.184.168.325.37.422.604a2 2 0 0 1 .04 1.405 3.575 3.575 0 0 1-.29.632c-.12.21-.26.418-.423.625-.162.207-.333.41-.512.608l-1.91 2.07h3.57v.738zM235.073 314.89l2.324 5.8 2.324-5.8h1.217V322H240v-2.77l.087-2.987-2.334 5.757h-.717l-2.33-5.742.093 2.973V322h-.938v-7.11h1.21zm11.24 7.11a.978.978 0 0 1-.08-.247c-.018-.1-.034-.202-.047-.31-.085.088-.18.172-.286.252a2.046 2.046 0 0 1-.755.35c-.146.036-.3.053-.463.053-.27 0-.516-.04-.735-.122a1.712 1.712 0 0 1-.562-.332 1.463 1.463 0 0 1-.486-1.11c0-.282.055-.532.165-.748.11-.217.27-.398.476-.545.208-.145.458-.256.75-.33.294-.076.62-.113.982-.113h.9v-.415c0-.316-.096-.567-.284-.755-.19-.187-.467-.28-.835-.28-.17 0-.324.022-.464.068-.14.046-.26.107-.36.183a.854.854 0 0 0-.232.266.65.65 0 0 0-.083.318h-.908c0-.19.05-.376.15-.562.098-.185.24-.352.42-.5.183-.148.404-.27.663-.362.26-.092.547-.14.866-.14.287 0 .55.038.794.11.242.074.45.185.622.333.173.15.308.334.406.555.097.222.146.48.146.777v2.456c0 .18.016.367.047.564.032.197.078.367.14.51V322h-.948zm-1.5-.688c.163 0 .316-.023.46-.07.143-.044.273-.104.39-.177.117-.073.22-.157.305-.252a1.23 1.23 0 0 0 .203-.292v-1.083h-.75c-.52 0-.917.08-1.197.24a.79.79 0 0 0-.42.73c0 .128.02.247.063.358.043.11.107.206.193.285a.96.96 0 0 0 .316.19c.126.048.27.072.437.072zm6.83-3.785a2.39 2.39 0 0 0-.443-.034c-.313 0-.568.07-.765.205-.197.137-.344.32-.44.552V322h-.905v-5.283h.88l.014.61a1.59 1.59 0 0 1 .512-.517c.206-.127.455-.19.748-.19a1.335 1.335 0 0 1 .4.067v.84zm3.457 3.833a1.36 1.36 0 0 0 .848-.293c.112-.09.203-.2.273-.324.07-.126.112-.262.125-.408h.855a1.578 1.578 0 0 1-.193.67c-.115.215-.268.402-.456.563a2.247 2.247 0 0 1-1.45.53 2.37 2.37 0 0 1-1.037-.213 2.105 2.105 0 0 1-.735-.573 2.43 2.43 0 0 1-.437-.84 3.488 3.488 0 0 1-.143-1.01v-.206c0-.355.048-.692.144-1.01.097-.32.243-.6.438-.84.195-.242.44-.433.732-.574a2.355 2.355 0 0 1 1.035-.213c.31 0 .59.048.843.146.252.097.47.232.654.402.184.17.328.374.432.608.104.235.163.487.176.757h-.855a1.375 1.375 0 0 0-.114-.456 1.197 1.197 0 0 0-.64-.623 1.274 1.274 0 0 0-.495-.093c-.28 0-.51.057-.695.167-.184.11-.332.257-.445.437a1.83 1.83 0 0 0-.236.61 3.44 3.44 0 0 0-.07.682v.205c0 .235.023.466.07.692.044.226.122.43.233.608.11.18.26.324.444.434.186.11.42.166.703.166zm4.62-4.004c.188-.23.414-.41.678-.542a1.97 1.97 0 0 1 .883-.195c.26 0 .49.034.7.104.208.07.385.182.532.337.146.156.26.354.34.597.08.242.12.536.12.88V322h-.904v-3.472c0-.205-.023-.38-.07-.525a.866.866 0 0 0-.2-.354.8.8 0 0 0-.333-.2 1.495 1.495 0 0 0-.457-.064c-.293 0-.55.078-.77.234-.223.156-.395.36-.52.615V322h-.902v-7.5h.903v2.856zM272.563 322h-4.658v-.65l2.33-2.587c.214-.238.392-.448.534-.63.142-.182.254-.35.337-.5.083-.152.14-.294.173-.425.033-.132.05-.267.05-.403 0-.176-.03-.34-.084-.496a1.123 1.123 0 0 0-.625-.674c-.153-.067-.33-.1-.527-.1-.24 0-.45.035-.628.107-.177.07-.324.17-.442.297-.117.127-.205.28-.263.457-.058.177-.087.374-.087.588h-.903c0-.3.05-.582.148-.85.1-.266.247-.5.442-.697.196-.2.438-.356.728-.472.29-.115.625-.173 1.006-.173.335 0 .635.046.9.137.266.09.49.22.674.388.184.168.325.37.423.603a2 2 0 0 1 .04 1.407 3.575 3.575 0 0 1-.288.632c-.12.21-.262.418-.425.624-.163.207-.334.41-.513.608l-1.91 2.07h3.57V322zm6.015-3.032c0 .582-.053 1.073-.157 1.472-.104.4-.253.72-.447.967a1.65 1.65 0 0 1-.703.53 2.54 2.54 0 0 1-.93.16c-.342 0-.65-.053-.928-.16a1.663 1.663 0 0 1-.708-.53c-.195-.246-.346-.568-.454-.967-.107-.4-.16-.89-.16-1.472v-1.084c0-.583.052-1.07.158-1.465.107-.395.257-.712.453-.953.195-.24.43-.414.705-.518.275-.105.584-.157.925-.157.345 0 .656.052.933.156.277.103.513.276.708.517.195.24.345.558.45.952.103.393.155.88.155 1.464v1.084zm-.904-1.236c0-.4-.028-.74-.085-1.02a1.954 1.954 0 0 0-.256-.68 1.018 1.018 0 0 0-.422-.38 1.356 1.356 0 0 0-.58-.117c-.213 0-.405.04-.572.117a1.002 1.002 0 0 0-.42.38 2.02 2.02 0 0 0-.257.68c-.058.28-.088.62-.088 1.02v1.377c0 .397.03.737.088 1.022.06.285.146.52.262.7.115.183.257.317.424.4.167.086.358.128.573.128.22 0 .415-.042.58-.127.167-.084.306-.218.42-.4.11-.182.195-.416.25-.7.055-.286.083-.626.083-1.024v-1.378zm5.63 4.268h-.91v-6.02l-1.82.668v-.82l2.588-.972h.14V322zm7.06-2.388h.986v.738h-.987V322h-.908v-1.65h-3.237v-.533l3.183-4.926h.962v4.722zm-3.12 0h2.21v-3.486l-.106.195-2.105 3.292zM237.783 518.86H234.8V522h-.938v-7.11h4.404v.772H234.8v2.432h2.983v.766zm4.154 3.238c-.367 0-.7-.064-.998-.19a2.23 2.23 0 0 1-1.253-1.34 2.973 2.973 0 0 1-.17-1.024v-.205c0-.43.063-.815.19-1.153.13-.34.302-.624.517-.855.214-.23.46-.408.737-.53a2.12 2.12 0 0 1 .865-.183c.378 0 .703.065.977.197.273.132.5.313.676.544.177.232.308.506.393.822.086.315.128.66.128 1.03v.405h-3.58c.007.244.047.472.12.684.074.212.178.396.313.553.136.156.3.28.49.37.19.092.405.137.646.137.32 0 .59-.065.81-.195.222-.13.416-.303.582-.518l.552.43c-.085.13-.188.256-.308.38-.12.12-.26.23-.422.326-.16.096-.346.172-.555.23a2.688 2.688 0 0 1-.708.085zm-.112-4.737c-.182 0-.35.035-.503.1-.153.068-.29.165-.41.292-.12.127-.22.285-.3.474a2.4 2.4 0 0 0-.164.65h2.647v-.07a2.5 2.5 0 0 0-.086-.522 1.42 1.42 0 0 0-.22-.464 1.132 1.132 0 0 0-.384-.332 1.208 1.208 0 0 0-.58-.127zm8.29 2.057c0 .387-.045.745-.136 1.072-.092.326-.226.61-.402.848-.175.24-.39.426-.644.56a1.84 1.84 0 0 1-.87.2c-.347 0-.65-.06-.902-.183a1.778 1.778 0 0 1-.645-.525l-.044.61h-.83v-7.5h.903v2.798c.176-.218.388-.386.635-.503.248-.117.54-.176.875-.176.332 0 .626.064.88.194.257.13.472.314.646.55.175.236.308.52.4.85.09.33.136.697.136 1.1v.103zm-.903-.103c0-.263-.024-.51-.073-.744a1.888 1.888 0 0 0-.238-.613 1.22 1.22 0 0 0-.427-.417 1.26 1.26 0 0 0-.645-.154c-.166 0-.315.02-.45.063a1.293 1.293 0 0 0-.634.44c-.078.1-.144.21-.2.326v2.285c.06.118.128.227.208.328a1.293 1.293 0 0 0 .637.44c.133.042.283.063.45.063.244 0 .453-.05.625-.15.173-.1.314-.238.425-.41.11-.173.192-.376.244-.608.052-.233.078-.48.078-.745v-.103zm5.903 2.164a1.683 1.683 0 0 1-.63.456 2.32 2.32 0 0 1-.918.164c-.26 0-.496-.037-.708-.11a1.378 1.378 0 0 1-.548-.347 1.578 1.578 0 0 1-.354-.61 2.866 2.866 0 0 1-.124-.9v-3.413h.903v3.423c0 .237.028.433.083.588.055.155.13.277.22.366.09.09.195.152.312.186.118.034.238.05.362.05.367 0 .663-.07.886-.21a1.25 1.25 0 0 0 .49-.56v-3.843h.904V522h-.86l-.02-.522zm6.113.522a.978.978 0 0 1-.078-.247c-.02-.1-.036-.202-.05-.31-.084.088-.18.172-.285.252a2.046 2.046 0 0 1-.754.35c-.146.036-.3.053-.463.053-.27 0-.515-.04-.735-.122a1.712 1.712 0 0 1-.562-.332 1.463 1.463 0 0 1-.485-1.11c0-.282.055-.532.166-.748.11-.217.27-.398.477-.545.206-.145.456-.256.75-.33.292-.076.62-.113.98-.113h.9v-.415c0-.316-.095-.567-.284-.755-.19-.187-.467-.28-.835-.28-.17 0-.324.022-.464.068-.14.046-.26.107-.36.183a.854.854 0 0 0-.23.266.65.65 0 0 0-.084.318h-.908c0-.19.05-.376.15-.562.098-.185.24-.352.42-.5.184-.148.404-.27.663-.362.26-.092.548-.14.867-.14.286 0 .55.038.793.11.243.074.45.185.623.333.172.15.307.334.405.555.098.222.146.48.146.777v2.456c0 .18.015.367.046.564.03.197.077.367.14.51V522h-.948zm-1.5-.688c.163 0 .316-.023.46-.07.143-.044.273-.104.39-.177.117-.073.22-.157.305-.252a1.23 1.23 0 0 0 .203-.292v-1.083h-.752c-.517 0-.916.08-1.196.24a.79.79 0 0 0-.42.73c0 .128.02.247.063.358.044.11.108.206.194.285a.96.96 0 0 0 .318.19c.125.048.27.072.437.072zm6.83-3.785a2.39 2.39 0 0 0-.443-.034c-.313 0-.567.07-.764.205-.196.137-.344.32-.44.552V522h-.905v-5.283h.88l.014.61a1.59 1.59 0 0 1 .512-.517c.205-.127.454-.19.747-.19a1.335 1.335 0 0 1 .4.067v.84zm3.248 3.15l1.23-3.96h.967l-2.124 6.098a4.14 4.14 0 0 1-.192.425 1.82 1.82 0 0 1-.305.427 1.648 1.648 0 0 1-.45.333 1.35 1.35 0 0 1-.748.124 4.543 4.543 0 0 1-.38-.068v-.733a.33.33 0 0 0 .052.008 14.86 14.86 0 0 0 .19.013c.154 0 .29-.015.406-.044a.887.887 0 0 0 .313-.145.9.9 0 0 0 .236-.266 2.12 2.12 0 0 0 .184-.41l.2-.54-1.885-5.223h.987l1.32 3.96zM281.05 522h-4.66v-.65l2.33-2.587c.215-.238.394-.448.535-.63.142-.182.254-.35.337-.5.083-.152.14-.294.173-.425.033-.132.05-.267.05-.403 0-.176-.028-.34-.084-.496a1.123 1.123 0 0 0-.625-.674c-.152-.067-.328-.1-.526-.1-.242 0-.45.035-.63.107-.176.07-.323.17-.44.297-.118.127-.206.28-.264.457-.06.177-.088.374-.088.588h-.903c0-.3.05-.582.15-.85.098-.266.245-.5.44-.697.196-.2.438-.356.728-.472.29-.115.625-.173 1.006-.173.334 0 .634.046.9.137.265.09.49.22.674.388.184.168.324.37.422.603a2 2 0 0 1 .04 1.407 3.575 3.575 0 0 1-.29.632c-.12.21-.26.418-.424.624-.163.207-.334.41-.513.608l-1.91 2.07h3.57V522zm6.015-3.032c0 .582-.052 1.073-.157 1.472-.104.4-.253.72-.446.967a1.65 1.65 0 0 1-.704.53 2.54 2.54 0 0 1-.93.16c-.34 0-.65-.053-.927-.16a1.663 1.663 0 0 1-.707-.53c-.196-.246-.347-.568-.455-.967-.107-.4-.16-.89-.16-1.472v-1.084c0-.583.052-1.07.158-1.465.106-.395.256-.712.452-.953.195-.24.43-.414.705-.518.275-.105.584-.157.926-.157.344 0 .654.052.93.156.278.103.514.276.71.517.194.24.344.558.448.952.105.393.157.88.157 1.464v1.084zm-.904-1.236c0-.4-.027-.74-.084-1.02a1.954 1.954 0 0 0-.256-.68 1.018 1.018 0 0 0-.423-.38 1.356 1.356 0 0 0-.578-.117c-.216 0-.408.04-.575.117a1.002 1.002 0 0 0-.42.38 2.02 2.02 0 0 0-.256.68c-.06.28-.09.62-.09 1.02v1.377c0 .397.03.737.09 1.022.057.285.144.52.26.7.115.183.257.317.425.4.167.086.358.128.573.128.222 0 .415-.042.58-.127.167-.084.307-.218.42-.4.11-.182.195-.416.25-.7.056-.286.083-.626.083-1.024v-1.378zm5.63 4.268h-.908v-6.02l-1.82.668v-.82l2.587-.972h.14V522zm3.662-3.564l.36-3.545h3.644v.836h-2.876l-.215 1.938a2.5 2.5 0 0 1 .49-.21c.2-.065.433-.098.697-.098.325 0 .62.057.88.17.263.11.485.27.668.477.182.207.322.457.42.75.097.293.146.62.146.98 0 .343-.046.658-.14.946a2.07 2.07 0 0 1-.417.746 1.91 1.91 0 0 1-.7.493c-.283.118-.614.178-.995.178-.286 0-.557-.04-.813-.12a1.91 1.91 0 0 1-1.17-.98 2.34 2.34 0 0 1-.234-.868h.855c.055.407.2.714.434.92.235.207.544.31.928.31.215 0 .405-.037.57-.112.167-.075.308-.182.424-.322.114-.14.202-.31.262-.51s.09-.424.09-.672c0-.22-.03-.428-.092-.62a1.447 1.447 0 0 0-.274-.5 1.276 1.276 0 0 0-.446-.335 1.443 1.443 0 0 0-.608-.123c-.153 0-.285.01-.396.032-.11.02-.21.05-.298.09-.087.038-.168.086-.24.143-.075.057-.152.12-.233.188l-.723-.184zM93.435 417.843l2.324 5.8 2.323-5.8H99.3v7.11h-.938v-2.77l.087-2.987-2.335 5.756h-.717l-2.33-5.742.093 2.974v2.768h-.936v-7.11h1.21zm11.24 7.11a.978.978 0 0 1-.08-.247c-.018-.1-.034-.203-.048-.31-.084.088-.18.17-.285.25a2.046 2.046 0 0 1-.755.353c-.146.033-.3.05-.463.05-.27 0-.516-.04-.735-.122a1.71 1.71 0 0 1-.563-.332 1.463 1.463 0 0 1-.486-1.108c0-.284.057-.533.167-.75.11-.216.27-.398.476-.544.207-.147.457-.258.75-.332.293-.075.62-.113.98-.113h.9v-.416c0-.316-.095-.567-.283-.754-.19-.187-.467-.28-.835-.28-.17 0-.324.022-.464.067-.14.046-.26.107-.358.184a.854.854 0 0 0-.232.267.65.65 0 0 0-.083.317h-.908c0-.19.048-.376.148-.56.1-.187.24-.354.422-.502.182-.148.403-.27.662-.36.258-.094.547-.14.866-.14.287 0 .55.036.794.11.242.073.45.183.622.33.173.15.308.334.406.556.097.22.146.48.146.776v2.456c0 .18.016.367.047.564.03.197.077.367.14.51v.078h-.95zm-1.5-.69c.163 0 .316-.022.46-.067.143-.046.273-.105.39-.18.117-.072.22-.156.305-.25a1.23 1.23 0 0 0 .203-.293v-1.084h-.752c-.517 0-.915.08-1.195.24a.79.79 0 0 0-.42.73c0 .128.02.246.063.357.042.11.107.206.193.286a.96.96 0 0 0 .318.19c.126.047.27.07.437.07zm5.932-.634l1.23-3.96h.968l-2.124 6.098a4.14 4.14 0 0 1-.19.425 1.82 1.82 0 0 1-.305.427 1.648 1.648 0 0 1-.452.332 1.35 1.35 0 0 1-.747.124 4.543 4.543 0 0 1-.38-.068v-.732a.33.33 0 0 0 .053.007 14.983 14.983 0 0 0 .19.012c.153 0 .288-.014.405-.044a.887.887 0 0 0 .312-.143.9.9 0 0 0 .237-.266 2.12 2.12 0 0 0 .183-.41l.2-.536-1.884-5.225h.986l1.317 3.96zm11.244 1.322h-4.657v-.65l2.33-2.587c.214-.238.392-.448.534-.63.142-.182.254-.35.337-.5.083-.152.14-.293.173-.425.033-.132.05-.266.05-.403 0-.176-.03-.34-.084-.496a1.123 1.123 0 0 0-.625-.674c-.153-.065-.33-.098-.527-.098-.24 0-.45.035-.627.107s-.324.17-.442.298c-.116.127-.204.28-.262.456-.06.177-.088.373-.088.588h-.904c0-.3.05-.583.15-.85.1-.267.246-.5.44-.698.197-.2.44-.356.73-.47.29-.117.624-.175 1.005-.175.336 0 .636.046.902.137.265.09.49.22.673.388.184.168.325.37.423.603a2 2 0 0 1 .04 1.407 3.575 3.575 0 0 1-.29.632c-.12.21-.26.418-.424.625-.163.207-.334.41-.513.608l-1.908 2.07h3.57v.737zm6.016-3.032c0 .583-.052 1.074-.156 1.472-.104.4-.253.72-.447.967a1.65 1.65 0 0 1-.703.53 2.54 2.54 0 0 1-.93.16c-.342 0-.65-.054-.928-.16a1.663 1.663 0 0 1-.708-.53c-.195-.247-.346-.57-.454-.968-.107-.398-.16-.89-.16-1.472v-1.084c0-.583.052-1.07.158-1.465.106-.393.256-.71.45-.95.197-.242.432-.414.707-.518.275-.105.584-.157.925-.157.345 0 .656.052.933.157.277.104.513.276.708.517.196.24.346.557.45.95.104.395.156.883.156 1.466v1.084zm-.903-1.235c0-.4-.028-.74-.085-1.02a1.954 1.954 0 0 0-.257-.682 1.018 1.018 0 0 0-.42-.378 1.356 1.356 0 0 0-.58-.117c-.215 0-.406.04-.573.117a1.002 1.002 0 0 0-.42.378 2.02 2.02 0 0 0-.257.68c-.058.28-.088.62-.088 1.022v1.377c0 .397.03.738.088 1.023.06.285.146.518.262.7.115.183.257.316.424.4.168.085.36.128.574.128.22 0 .415-.043.58-.127.167-.085.306-.218.42-.4.11-.183.195-.416.25-.7.055-.286.083-.627.083-1.024v-1.377zm5.63 4.267h-.91v-6.02l-1.82.67v-.82l2.588-.973h.142v7.142zm7.06-2.387h.986v.737h-.988v1.65h-.908v-1.65h-3.237v-.532l3.183-4.927h.962v4.722zm-3.12 0h2.21v-3.487l-.106.196-2.105 3.29z" opacity=".426" fill="#7F7F7F"/></g></svg>