<svg width="170" height="25" viewBox="0 0 170 25" xmlns="http://www.w3.org/2000/svg" xmlns:xlink="http://www.w3.org/1999/xlink"><title>The_New_York_Times Copy</title><defs><path id="a" d="M.017.012h169.598v23.894H.017V.012z"/><path id="c" d="M.017.012h169.598v23.894H.017"/></defs><g fill="none" fill-rule="evenodd"><g transform="translate(0 .334)"><mask id="b" fill="#fff"><use xlink:href="#a"/></mask><path d="M10.485.027a3.34 3.34 0 0 1 1.78.77c.597.58.733 1.463.524 2.264-.186.715-.395 1.087-1.12 1.58-.735.497-1.622.455-1.622.455v3.093l1.5 1.218-1.5 1.215v4.215s1.503-.865 2.435-2.8c0 0 .038-.105.126-.305.082.52.035 1.568-.55 2.916-.44 1.014-1.242 1.99-2.246 2.547-1.78.99-3.116 1.085-4.548.788a6.45 6.45 0 0 1-4.237-2.94C.3 13.884-.03 12.533 0 11.08.06 8.226 2.175 5.766 4.616 4.85c.297-.112.416-.185.837-.224-.194.133-.42.304-.695.486-.785.518-1.46 1.55-1.746 2.345l4.737-2.12v6.646l-3.82 1.92c.434.606 1.757 1.523 2.888 1.653 1.925.213 3.055-.63 3.055-.63V10.62L8.38 9.407l1.493-1.214V5.095C9.06 5 8.07 4.73 7.493 4.587c-.85-.21-3.683-1.008-4.128-1.074-.445-.066-.994-.045-1.326.252-.334.3-.54.83-.398 1.305.08.27.265.427.405.58 0 0-.164-.013-.46-.19-.535-.323-.942-.953-.99-1.73a2.866 2.866 0 0 1 1.19-2.55C2.516.71 3.338.41 4.295.544c1.396.2 3.272.99 4.943 1.393.647.158 1.148.21 1.603-.056.213-.154.585-.55.28-1.074-.355-.616-1.037-.602-1.615-.71.497-.106.606-.106.98-.07zM4.85 13.242V6.824l-1.922.86s-.49 1.103-.405 2.702c.068 1.25.764 2.745 1.3 3.37l1.028-.514z" fill="#1A1918" mask="url(#b)"/></g><path d="M28.862 6.846s-1.452.882-2.428 1.466c-.976.58-2.286 1.222-2.286 1.222v6.124l-.873.704.116.136.853-.69 2.67 2.423 4.64-3.688-.11-.133-2.564 2.018-2.11-1.98v-.74l4.235-3.125-2.143-3.737zm.06 5.057l-2.15 1.582V8.22l2.15 3.683zM16.7 20.533c.608.15 1.683.235 2.98-.417 1.433-.72 2.155-2.25 2.145-3.817l.06-2.224V9.222l.92-.703-.108-.138-.903.683L19.71 6.74 17.04 9.045V1.218l-3.34 2.59c.15.095.622.182.636.85V15.62l-1.414 1.053.097.147.683-.51 1.902 1.773 2.993-2.39-.11-.136-.702.56-.745-.742.007-6.107.873-.746 1.3 1.62s-.003 3.955 0 5.268c-.01 1.4-.013 3.146-.746 3.99-.733.846-1.027.913-1.773 1.133M37.475 19.98c-1.196-.136-1.7-.864-1.685-1.438.01-.368.34-1.088 1.07-1.186.725-.102 1.468.24 2.096.98l2.762-3.063-.133-.12-.742.834a4.826 4.826 0 0 0-2.89-1.56v-9.33L45.13 18.21s.068.15.363.15c.254 0 .193-.207.193-.207V4.956c.582-.025 1.472-.346 1.904-.79 1.382-1.425.817-2.98.666-3.13-.085.68-.605 1.362-1.474 1.365-1.14.005-1.834-.84-1.834-.84l-2.76 3.158.13.12.792-.907c.966.893 1.67.977 2.4 1.026v7.657l-5.322-9.7c-.482-.802-1.216-1.506-2.366-1.516-1.322-.007-2.268 1.162-2.38 2.17-.13 1.137.012 1.4.012 1.4s.195-1.267.976-1.257c.702.01 1.067.658 1.35 1.144v2.81c-.725.05-2.61.134-2.724 2.1-.01.732.444 1.498.84 1.757.51.337.908.33.908.33s-.61-.325-.428-.97c.164-.576 1.36-.67 1.404-.43v3.966c-.576-.007-2.42.056-3.252 1.64-.5.96-.47 2.03.064 2.787.437.616 1.336 1.403 2.883 1.138M52.63 6.846s-1.453.882-2.43 1.466c-.976.58-2.285 1.222-2.285 1.222v6.124l-.873.704.116.136.85-.69 2.67 2.423 4.642-3.688-.11-.133-2.564 2.018-2.108-1.98v-.74l4.234-3.125-2.143-3.737zm.06 5.057l-2.152 1.582V8.22l2.153 3.683zM59.115 18.276L56.84 16.38l-1 .727-.1-.143 1.016-.746v-5.302c.048-2.184-1.994-1.642-1.883-3.958.05-1.018 1.03-1.79 1.527-2.044.53-.27 1.105-.27 1.105-.27s-.93.585-.705 1.425c.348 1.294 2.555 1.41 2.596 3.135v6.016l1.63 1.31.428-.336V9.68l-.88-.874 2.263-2.01 2.066 1.838-.788.858v5.77l1.935 1.604.344-.22V9.697l-.88-.826 2.266-2.078L69.9 8.55l.845-.752.115.133-1.905 1.68v5.663L64.08 18.29l-2.492-1.98-2.473 1.966M158.822 6.846s-1.453.882-2.428 1.466a38.296 38.296 0 0 1-2.286 1.222v6.124l-.874.704.117.136.853-.69 2.67 2.423 4.64-3.688-.11-.133-2.565 2.018-2.108-1.98v-.74l4.235-3.125-2.143-3.737zm.06 5.057l-2.152 1.582V8.22l2.154 3.683zM137.037 9.408l.113.133.874-.755 1.298 1.473v5.06l-.63.578 2.02 2.293 2.075-2.052-.852-.886v-6.12l.516-.414 1.435 1.68v5.047l-.54.54 1.904 2.148 2.035-2.044-.748-.79-.02-6.144.55-.448 1.496 1.652v5.018l-.492.494 2.102 2.3 2.822-2.615-.12-.13-.685.634-1.052-1.168v-5.73l1.015-.773-.106-.14-1.016.773-1.918-2.16-2.745 2.177-1.923-2.1-2.652 2.083-1.94-2.072-2.815 2.458" fill="#1A1918"/><path d="M131.292 9.25l.114.133.738-.64 1.155 1.37V15.9l-.815.714.113.133.856-.732 1.862 2.156 2.692-2.41-.114-.133-.792.7-1.113-1.288V9.382l.937-.815-.113-.133-.892.77-1.96-2.293-2.67 2.338" fill="#1A1918"/><g transform="translate(0 .334)"><mask id="d" fill="#fff"><use xlink:href="#c"/></mask><path d="M132.068 4.126l2.026-1.862 1.648 1.834-2.035 1.854-1.64-1.826M129.343.027a3.34 3.34 0 0 1 1.78.77c.597.58.733 1.463.524 2.264-.186.715-.394 1.087-1.12 1.58-.734.497-1.62.455-1.62.455v3.093l1.5 1.218-1.5 1.215v4.215s1.502-.865 2.434-2.8c0 0 .04-.105.126-.305.083.52.036 1.568-.548 2.916-.44 1.014-1.242 1.99-2.247 2.547-1.78.99-3.114 1.085-4.545.788a6.45 6.45 0 0 1-4.238-2.94c-.73-1.157-1.058-2.508-1.027-3.96.058-2.853 2.173-5.313 4.614-6.23.297-.112.415-.185.837-.224-.193.133-.418.304-.693.486-.786.518-1.46 1.55-1.748 2.345l4.737-2.12v6.646l-3.82 1.92c.435.606 1.757 1.523 2.89 1.653 1.924.213 3.053-.63 3.053-.63V10.62l-1.49-1.214 1.49-1.214V5.095c-.813-.095-1.8-.364-2.38-.508-.85-.21-3.682-1.008-4.127-1.074-.445-.066-.994-.045-1.326.252-.333.3-.538.83-.397 1.305.08.27.264.427.405.58 0 0-.165-.013-.46-.19-.536-.323-.943-.953-.99-1.73a2.867 2.867 0 0 1 1.19-2.55c.728-.47 1.55-.77 2.507-.635 1.395.2 3.272.99 4.943 1.393.647.158 1.148.21 1.603-.056.212-.154.585-.55.28-1.074-.355-.616-1.037-.602-1.615-.71.497-.106.606-.106.98-.07zm-5.633 13.215V6.824l-1.924.86s-.49 1.103-.405 2.702c.068 1.25.764 2.745 1.3 3.37l1.03-.514zM163.985 18.688c-.307.09-1.644-.235-1.964-1.624-.312-1.355.625-2.27 2.04-3.713l-1.67-1.532V8.892s1.228-.616 2.19-1.218c.963-.605 1.947-1.26 1.947-1.26s.718.91 1.53.837c1.27-.11 1.212-1.116 1.175-1.354.216.39.797 1.544-1.435 4.126l1.818 1.474v3.8s-2.112 1.103-4.11 2.566c0 0-1.115-1.4-2.083-.73-.654.45-.355 1.213.563 1.556zm-1.57-2.93s.958-1.592 2.607-1.25c1.582.33 2.13 2.006 2.13 2.006v-3.86l-1.103-.962c-1.212 1.222-3.37 2.988-3.636 4.066zm2.446-8.063v3.04l1.01.883s2.192-1.76 2.987-3.39c0 0-.985 1.34-2.31.93-1.11-.34-1.686-1.463-1.686-1.463z" fill="#1A1918" mask="url(#d)"/></g><path d="M95.747 9.372l.82-.755.116.133-.797.742v6.044s-1.515.805-2.572 1.403a71.304 71.304 0 0 0-2.185 1.3l-2.78-2.347-.735.64-.118-.133.772-.675v-6.5h.01s1.31-.595 2.416-1.22c.99-.56 2.095-1.208 2.095-1.208l2.957 2.575zm-4.84 5.327l2.347 2.13v-6.523l-2.348-2.18V14.7zM101.21 8.76l1.766-1.81s.243.214.47.326c.13.063.663.34 1.153.07.265-.147.303-.185.594-.462.06 1.407-.613 2.397-1.453 2.807-.343.17-1.347.49-2.397-.793V15.4l1.117.99.932-.774.108.137-2.92 2.446-2.223-2.03-.8.755-.13-.14 1.217-1.102.01-5.614-.934-1.243-.803.71-.116-.13 2.83-2.55 1.58 1.903M108.653 11.47l3.264-4.764s.43.51 1.18.71c1.02.266 1.908-.72 1.908-.72-.17 1.273-.813 2.718-2.142 2.94-1.17.195-2.26-.718-2.26-.718l-.212.33 4.532 6.865.906-.798.117.133-3.11 2.726-4.182-6.705" fill="#1A1918"/><path d="M105.957 5.11c0-1.03-.42-1.662-.97-1.617l3.56-2.51v14.203l.94.994.714-.62.112.134-2.868 2.512-1.944-1.83-.778.686-.123-.134 1.357-1.185V5.11M76.197 4.875c0-.958-.39-1.494-1.017-1.508-.905-.02-1.12 1.26-1.12 1.26s-.164-.987.66-1.883c.462-.5 1.325-1.204 2.675-.878 1.395.34 1.79 1.424 1.79 2.383v13.21s.528.064.89.144c.418.087.815.2.815.2V1.874h.174V4.02l2.86-2.31 2.093 1.87.977-.848.11.133-1.02.882v12.283c-.05.8-.18 1.616-.933 2.086-1.682 1-3.71-.155-5.52-.418-1.34-.2-3.447-.455-3.976.78-.173.406-.16 1.033.448 1.442 1.222.82 6.66-1.375 8.527-.504 1.7.794 1.693 2.05 1.43 2.916-.442 1.62-2.48 1.904-2.48 1.904s.996-.582.712-1.544c-.144-.486-.473-.623-1.54-.504-2.332.266-5.12 1.4-6.99.613-.967-.403-1.65-1.614-1.583-2.803.047-1.712 2.017-2.388 2.017-2.388v-6.33c-.057-.253-1.108-.186-1.338.28-.35.703.433 1.025.433 1.025s-.65.097-1.194-.533c-.266-.308-.82-1.386-.1-2.383.592-.823 1.302-.966 2.197-1.064V4.875zm4.867 12.978s.83.22 1.434-.277c.672-.557.602-1.336.602-1.336v-4.922s-.39-.504-1.01-.504c-.618 0-1.026.522-1.026.522v6.517zM83.1 4.935l-1.374-1.21-.662.524v4.56s.408.517 1.027.517c.62 0 1.01-.497 1.01-.497V4.935zm0 4.168s-.394.448-1.012.448c-.62 0-1.024-.45-1.024-.45v1.946s.405-.452 1.024-.452c.618 0 1.012.427 1.012.427V9.104z" fill="#1A1918"/></g></svg>