<svg xmlns="http://www.w3.org/2000/svg" viewBox="26 48 171 25"><title>tc-techcrunch copy</title><path d="M90 57.687v10.6h-3.9v-10.6h-3.9v-3.4h11.7v3.4H90zM98.2 60.187c-.8 0-1.3.6-1.4 1.6h3c-.2-1-.5-1.6-1.6-1.6m4.8 3.9h-6.2c.1 1.2.8 1.7 1.8 1.7.9 0 1.7-.2 2.7-.7l1.4 2.3c-1.3.8-2.6 1.2-4.3 1.2-3.2 0-4.9-2.2-4.9-5.5 0-3.6 2-5.5 4.8-5.5 2.9 0 4.7 1.9 4.7 5.8v.7M109.7 68.487c-3.1 0-4.9-2-4.9-5.5 0-3.2 1.6-5.4 5-5.4 2 0 3.1.9 4 2.4l-2.5 1.9c-.5-.9-.8-1.4-1.6-1.4-.9 0-1.4.9-1.4 2.6 0 1.7.5 2.5 1.5 2.5.7 0 1.2-.4 1.8-1.4l2.3 1.8c-1.2 1.8-2.4 2.5-4.2 2.5M121.9 68.287v-6c0-1.4-.5-1.7-1.2-1.7-.8 0-1.2.4-1.2 1.7v6h-3.6v-13.1l3.6-1.4v4.8c.7-.5 1.4-.9 2.6-.9 2.3 0 3.4 1.5 3.4 4.3v6.3h-3.6zM134.2 68.487c-4.2 0-6.4-3.1-6.4-7.2 0-4.5 2.6-7.2 6.4-7.2 3.4 0 4.8 1.5 5.8 4.1l-3.5 1.4c-.5-1.3-1-2.1-2.3-2.1-1.6 0-2.3 1.6-2.3 3.8 0 2.1.7 3.8 2.4 3.8 1.2 0 1.7-.7 2.5-2l3.3 1.7c-1 1.9-2.6 3.7-5.9 3.7M148.9 61.787c-.5-.5-1-.9-1.7-.9-.9 0-1.4.4-1.4 1.7v5.7h-3.6v-10.5h3.6v.8c.6-.6 1.3-1 2.2-1 .8 0 1.3.2 1.7.4l-.8 3.8zM157.4 68.287v-.7c-.6.5-1.4.9-2.6.9-2.3 0-3.4-1.5-3.4-4.3v-6.4h3.6v6c0 1.4.5 1.7 1.2 1.7s1.2-.4 1.2-1.7v-6h3.6v10.5h-3.6zM169.7 68.287v-6c0-1.4-.5-1.7-1.2-1.7-.8 0-1.2.4-1.2 1.7v6h-3.6v-10.5h3.6v.7c.7-.5 1.4-.9 2.6-.9 2.3 0 3.4 1.5 3.4 4.3v6.4h-3.6zM180.3 68.487c-3.1 0-4.9-2-4.9-5.5 0-3.2 1.6-5.4 5-5.4 2 0 3.1.9 4 2.4l-2.5 1.9c-.5-.9-.8-1.4-1.6-1.4-.9 0-1.4.9-1.4 2.6 0 1.7.5 2.5 1.5 2.5.7 0 1.2-.4 1.8-1.4l2.3 1.8c-1.2 1.8-2.3 2.5-4.2 2.5M192.6 68.287v-6c0-1.4-.5-1.7-1.2-1.7-.8 0-1.2.4-1.2 1.7v6h-3.6v-13.1l3.6-1.4v4.8c.7-.5 1.4-.9 2.6-.9 2.3 0 3.4 1.5 3.4 4.3v6.3h-3.6zM26 48.287v8h8v16h8v-16h8v-8H26zM58 64.287v-8h-8v16h24v-8H58zM58 56.287h16v-8H58v8z"/></svg>