<svg width="180" height="19" viewBox="0 0 180 19" xmlns="http://www.w3.org/2000/svg"><title>Wall_Street_Journal Copy</title><g fill="none" fill-rule="evenodd"><path d="M30.05.76c.187.063.312.126.25.376-.063.438-.75.25-1.127.375-.94.315-.625 1.566-.75 2.442V16.345c0 .5-.063 1.064.312 1.25.25.377 1 .126 1.502.19.752-.126 1.064-.94 1.565-1.315.188-.69.5-1.252.626-1.94.375-1.252.187-2.88.625-4.13.25-.064.314.124.377.312v6.947c.124.187-.063.5-.063.688l-.564.125h-6.947c-.25-.063-.626 0-.75-.25.062-.69 1.188-.376 1.188-1.19V8.21c-.063-1.128 0-2.567 0-3.632 0-1.064.314-2.503-.438-3.067-.313-.31-1.314.19-1.19-.5.063-.124.126-.187.314-.25h5.07M55.21 1.7c.25.188.563 0 .688-.063.25-.25 0-.876.5-.814l.313.063v6.57c-.124.064 0 .44-.187.44h-.375c-.125-2.38-.313-4.82-2.066-5.946a2.106 2.106 0 0 0-1.064-.313c-.75.063-1.188.626-1.502 1.19-.438.687-.312 2.002.063 2.627.938 1.315 2.44 2.066 3.567 3.13 1.126 1.19 2.44 2.44 2.503 4.444.188 2.19-.563 4.006-2.003 5.194-.813.564-2.065.626-3.004.25l-1.314-.876c-.314-.124-.376.188-.502.314 0 .375-.062.626-.312.75l-.44-.124-.06-3.63v-4.07c.123-.062.437-.062.56 0 .127 2.567.19 5.26 2.067 6.573.563.374 1.252.687 2.066.437 1.188-.5 1.626-1.815 1.626-3.254-.125-1.253-.626-2.19-1.502-2.88-1.19-1.44-2.942-2.19-4.068-3.755-.313-.375-.313-.876-.564-1.314-.626-2.066.188-4.13 1.377-5.382.562-.376 1.438-.627 2.19-.44.563.19 1.064.502 1.44.878M5.703.823c.125.063.313.063.376.313-.19.438-.752.438-.94.814-.188.376-.188 1.063-.062 1.502l.75 4.443c.314 1.44.626 2.942 1.002 4.38h.188c.5-2.126.876-4.254 1.25-6.383-.374-1.626-.062-3.817-1.564-4.568-.124-.313.063-.5.377-.5.877.062 3.693 0 4.382.062a.7.7 0 0 1 0 .5c-.5.188-1.065.125-1.378.564-.688 1.126.25 2.316.188 3.63l.752 3.943c.187.876.187 1.94.687 2.63h.064l.94-4.07c.5-1.69.75-3.505 1.126-5.257.124-.563-.063-.938-.438-1.19-.25-.25-.69-.186-1.064-.25a.69.69 0 0 1 0-.5c.938 0 3.817-.063 4.192 0 .19.063.126.376.063.5-.563.125-1.127.25-1.44.626-.375 1-.563 2.066-.813 3.067l-1.064 4.88c-.626 2.693-1.314 5.446-1.94 8.2-.125.188-.438.188-.563.062-.376-.5-.376-1.314-.564-2.003l-.94-5.383-.5-2.253h-.126l-.75 3.692c-.375 1.816-.752 3.63-1.127 5.508-.063.375-.313.626-.813.5-.438-.125-.25-.688-.376-1.063l-.313-2.002-.94-4.945-.624-3.566c-.187-1.44-.562-2.88-.876-4.256-.063-.375-.438-.625-.688-.876-.438-.124-.814.063-1.252-.187C.76 1.262.697.887.947.823h4.756M19.973 1.262c.25 1.69.75 3.19 1 4.944l1.315 6.447c.314 1.44.44 2.878.814 4.192.188.564.564.94 1.19 1.002 0 .188.187.312.062.438l-.187.188h-3.694c-.125-.188-.75 0-1-.188-.188-.94 1.19-.188 1.314-.876.313-.315.187-.94.124-1.315-.31-.626-.06-1.69-.686-2.128H17.72l-.25.125c-.064 1.126-.877 2.378-.188 3.504.25.188.75.125.94.314l-.064.375-3.568.063c-.375.125-.312-.438-.187-.564.75.063 1.19-.312 1.564-.69.438-1 .438-2.25.752-3.378l.686-4.38.627-3.63c.313-1.503.5-3.068.813-4.633.063-.312 1.252-.5 1.127.19M39.75.823c.064.126.188.376.064.5-.564.25-1.503 0-1.628.69-.126 1.94-.126 3.38-.126 5.32l-.062 7.635h-.063c.376.94-.5 2.816.877 2.88.313.062.94.062 1.25-.127 1.253-1 1.63-2.69 1.88-4.38.187-.876.062-1.94.31-2.816a.69.69 0 0 1 .502 0v7.635l-.062.313c-1 0-2.065 0-2.817.063l-3.567-.063h-1.94c-.313 0-.188-.438-.125-.626.626-.063 1.377 0 1.69-.5.25-.94.062-2.192.187-3.192-.125-.877.063-1.816-.062-2.817l.062-.814v-8.01c-.062-.314-.25-.69-.438-.877-.375-.438-1.877.188-1.314-.814h5.383M66.224.886l.125.313v7.196c-.063.188-.19.25-.313.314l-.314-.126c.063-2.253-.25-4.255-.876-6.07-.125-.376-.438-.69-.813-.877-.314 0-.626 0-.752.25v13.33h-.06c.06.94-.127 2.13.56 2.567.44.313 1.19-.188 1.253.5 0 .502-.688.126-1 .313h-1.378v-.06c-.438.186-.877-.127-1.252.06-.375-.06-1.19-.06-1.752-.06-.188-.064-.125-.44-.063-.565.69-.125 1.44-.188 1.69-.938V2.012c-.125-.312-.313-.375-.563-.438-.94.25-1.19 1.252-1.44 2.19-.313 1.378-.563 2.755-.438 4.445-.126.186 0 .5-.314.5l-.375-.126V1.01c.814-.25 6.134-.187 8.074-.124M73.672.886c1.064.313 1.94 1.002 2.44 1.94.44 1.377.69 3.63-.187 4.82-.438.626-.94 1.188-1.627 1.627-.125.438.313.438.564.813.876.626 1 2.066 1 3.192 0-.125-.124-.25-.187-.125-.063.187.063.313.25.313.062 1.064-.125 2.253.125 3.19a.567.567 0 0 0 .375.378c.314-.063.377-.377.5-.564-.06-.563.064-1.19.127-1.753.188.126.375-.25.5 0 .126 1.44.063 2.942-.876 3.63-.375.25-.75.376-1.314.313a2.375 2.375 0 0 1-1.377-1.064l-.188-1.19v-4.505c-.188-.875-.375-1.814-1.252-2.065-.375-.124-1-.25-1.314 0l-.124.25v6.95c.125.374.25.686.563.812.313.063.75 0 .688.5l-.125.19-3.255.06c-.125 0-.313-.124-.376 0-.312-.25-1.377.314-1.126-.438 0-.44.564-.125.814-.313.312-.063.5-.375.688-.564 0-.312.188-.687.063-1l.063-3.63c0-1.503-.062-2.942 0-4.257 0-.94 0-2.253-.062-3.254.063-.626 0-1.565.063-2.19-.125-.564-.25-1.127-.75-1.315-.313-.126-.877.063-1.002-.25-.062-.25 0-.438.252-.5h6.07M86.878.886c.438.187.188 1.064.25 1.502.188 1.002-.125 2.128.062 3.004-.187.376.063.626 0 1-.124.44 0 1.065-.124 1.44-.877.063-.438-1.063-.564-1.626-.188-1.94-.876-3.693-2.503-4.506-.565-.19-1.503-.19-1.88.25-.374 1.126-.187 3.004-.187 4.068-.125.375.063.5 0 .94V8.71c.063.187-.062.687.376.625 1.5-.688 1.69-2.44 1.69-4.193 0-.25.124-.375.5-.313l.062.375c-.125.813.125 1.814-.062 2.69 0 .877 0 2.066.062 3.004a28.574 28.574 0 0 0 0 3.255c0 .25-.125.375-.375.375-.44-.375-.125-1.44-.314-2.003-.25-1.064-.5-2.315-1.69-2.566l-.187.126c-.125 1.377-.063 2.378-.063 3.63 0 1.127.063 2.566 0 3.693.376.75 1.314.437 2.19.437 1.565-.69 2.13-2.567 2.442-4.318l.75.186v4.632l-.187.188-7.26.06c-.5-.123-1.377.064-1.878-.123-.187-1 1.002-.314 1.377-.69.25-.124.376-.374.5-.625V2.388c-.124-.313-.312-.626-.562-.75-.44-.188-1.377.187-1.315-.565l.126-.187h8.762M95.952.886c.314.187 1.19-.125 1.378.25 0 2.316.062 4.318 0 6.572-.063.187-.376.187-.5.063-.25-2.44-.19-5.32-2.44-6.196-.502-.187-1.066.063-1.566.063-.314.313-.564.563-.564 1.064v6.072c.063.187.126.313.313.313 1.69-.438 1.565-2.504 1.816-4.193.06-.125.374-.125.5 0v2.565c.124.126 0 .126 0 .376.124.563 0 1 .06 1.69v1.69c-.186.94.064 2.127-.186 3.003-.126.126-.375.063-.438-.124-.126-1.44-.126-3.318-1.253-4.194-.124-.125-.5-.125-.687 0l-.126.438v4.07h.063c.063 1-.375 2.628.375 3.253.5.25 1.19.312 1.815.187 1.378-.438 1.753-1.878 2.254-3.13-.126-.5.187-1 .187-1.564l.125-2.003c.125-.125.25-.188.437-.062l.126.125c-.188.94.375 2.44-.5 2.816-.064.25-.376.25-.376.563.25-.25.563-.5.813-.877h.125l-.062 3.63c-.126.438.188 1.127-.313 1.25-1.064.127-2.065.064-3.13.064-2.003-.124-3.88-.063-5.82-.063-.188-.06-.188-.438-.063-.562.564-.188 1.314-.063 1.69-.626.563-.44.25-1.69.313-2.505.063-1.376-.125-3.19 0-4.444l-.063-3.566V2.45c-.188-.5-.563-.94-1.188-.94-.378 0-.816.064-.69-.437.063-.25 6.57-.187 7.572-.187M127.81 2.7c.813 1.128 1.063 2.754 1.44 4.32.437 3.253.124 7.01-1.128 9.387a5.49 5.49 0 0 1-2.002 2.13c-.752.186-1.878.25-2.38-.252-2.377-2.19-2.94-5.632-2.878-9.638.125-2.692.94-5.257 2.504-7.073.626-.688 1.814-.876 2.816-.563.626.44 1.252 1.002 1.627 1.69M106.906 1.073l.125.19.064 4.818c-.188.814 0 1.815-.126 2.63-.188.187-.375 0-.5-.063l-.19-3.067c-.248-1.44-.5-2.754-1.313-3.755-.188-.188-.626-.188-.75 0l-.25.25v15.208c.124.876 1.376.376 1.876.752.064.313-.06.5-.31.562-1.63.19-3.256-.124-4.883 0-.375.063-.375-.375-.25-.562.563-.125 1.252-.063 1.44-.626l.06-7.01V2.137c-.124-.188-.248-.376-.5-.438-1.125.125-1.188 1.25-1.502 2.065l-.5 3.38c-.125.563.125 1.314-.187 1.627l-.377-.062-.06-3.505c0-1.253-.063-2.817.06-4.07.44-.312 7.01-.124 8.076-.062M120.424 1.01c.314-.06.375.252.25.44-.625.124-1.25.124-1.627.562-.438 1 .063 2.317-.125 3.38.063.188-.063.563 0 .877.063.812 0 1.75 0 2.502V15.78c-.375 1.254-.94 2.505-2.19 2.817-1.252.314-2.066-.25-2.63-.876-.687-1-1.44-2.314-.875-3.816.25-.564.69-.876 1.314-.94.314.127.69.25.815.565-.063.562.313 1.187-.063 1.563-.062.5-.75.5-.75 1.064.062.75.375 1.377 1 1.627.564.126.876-.125 1.19-.438.438-1.25.187-3.254.187-4.632l.062-3.63V2.64c-.125-.375-.25-.688-.564-1-.375-.314-1.25.124-1.44-.376l.19-.376c1.94 0 3.316.187 5.256.125M134.13 1.073c.25-.124.752-.187.94.126.062.374-.188.437-.44.5-.374 0-.625.188-.875.375-.25.438-.25 1.064-.25 1.69V10.9l-.062.062c.124 1.878 0 3.13.124 5.07.188.75.626 1.44 1.315 1.815.562.125 1.314.063 1.69-.375.625-.438.75-1.127.875-1.816v-6.26l-.062-.374.062-5.508c.063-.563-.062-1.188-.375-1.626-.313-.25-.876-.25-1.25-.314l.06-.438 3.318-.063c.187 0 .313.19.313.314 0 .313-.5.124-.626.25-.313.063-.625.313-.625.626l-.19 1v12.518c-.124 1.065-.75 1.94-1.5 2.568-.5.438-1.503.25-2.066.375-1.252-.25-2.316-1.127-2.69-2.316-.753-1.564-.252-4.13-.44-5.82V2.513c-.124-.375-.313-.625-.625-.813-.312-.126-.875 0-.875-.376-.063-.375.375-.188.563-.313l3.692.063M144.206 1.136c1.88-.25 3.756.126 4.507 1.628.626 1 1 2.566.563 3.943-.563 1-1 2.252-2.128 2.753 0 .564.626.69.877 1.127.25.5.5.94.5 1.627l.125 3.192c0 .563-.063 1.502.5 1.752.752-.25.564-1.377.69-2.19.062-.063.312-.063.375 0 .188 1.377-.125 2.69-.94 3.505-.437.187-1 .438-1.5.25-.564 0-.564-.626-.94-.94l-.188-1.814v-3.63c-.06-.814-.124-1.753-.75-2.19-.438-.377-1.252-.502-1.878-.252l-.126.188c-.25 2.44.063 4.444 0 7.01.063.376.125.814.563 1 .376.063.564 0 1.002.126.06.126 0 .314.06.5l-3.315.064-1.816-.126c-.126-.124-.126-.438 0-.5.562 0 1-.188 1.314-.5l.187-.626V2.638c-.124-.375-.186-.75-.562-.938-.313-.126-.876.062-.876-.376.188-.438.563-.062 1-.25.94.062 1.69.062 2.754.062M153.407 1.073c.125.126.376.19.438.377 1.252 3.504 2.19 7.134 3.63 10.514.375-.063-.126-.438.125-.626-.062-1.314.063-2.566-.062-3.943.125-.75 0-1.314.062-2.128-.188-.125.126-.313-.062-.375.125-.752-.063-1.816-.063-2.692-.313-.438-.876-.563-1.502-.563 0-.063-.125-.438.125-.5h3.63c.25.062.125.313.125.5-.375.188-.94.125-1.19.5l-.25.627-.062 3.38v10.702c-.06.5.064 1.314-.06 1.815-.126.126-.44.188-.564.063-.438-.564-.377-1.502-.815-2.066-.686-1.69-1.062-3.63-1.75-5.257l-1.252-3.567c-.188-.626-.5-1.126-.69-1.69l-.124.063c-.187.75-.187 1.377-.063 2.127l-.062 3.38v5.57c.126.313.25.627.564.814.313.188 1.064-.187 1.064.376l-.063.25-3.505.063c-.25-.063-.562-.063-.562-.376.25-.5 1.314 0 1.564-.626.25-.5.25-1.188.25-1.877l-.062-7.197V2.7c-.126-.875-1.002-.938-1.69-1.126-.188-.124 0-.312 0-.438.94-.125 1.878-.063 2.88-.063M165.612 4.266c.25 1.752.813 3.317 1 5.13l1.127 5.197c.374 1.25.313 2.88 1.5 3.504.314.062.69.062.502.563l-.063.126c-1.44.062-3.38.125-4.882-.063-.313-.876.75-.5 1.126-.75.313-.252.376-.752.313-1.316-.187-.876-.313-1.814-.688-2.502-1.002-.063-2.192-.063-3.068.06-.25.315-.312.816-.375 1.316-.126.752-.626 1.88.124 2.505.315.313 1.566-.25 1.128.688-1 .188-2.19.125-3.19.125-.315-.125-1.003.126-.816-.5 0-.376.626-.126.815-.25.563-.314.813-.877.938-1.44l.75-4.256.94-5.383.563-3.13c.188-.94.314-2.002.752-2.754l.813.063.69 3.066M175.125 1.136c.25.063.5.126.5.438-.125.438-.938.188-1.25.438-.44.188-.44.752-.564 1.127v13.955c-.188.44.125.752.376 1.002.5.313 1.628.25 2.253.062 1-.626 1.188-1.878 1.626-3.005l.438-3.254c.063-.124.313-.124.5 0v5.82h-.062c0 .315.063.816-.063 1.128-.313.126-.814 0-1.064.063l-.188-.062-3.38.063c-1.313-.062-2.753.125-3.817-.187-.124-.063-.124-.313-.062-.438.376-.25 1.19.063 1.377-.5l.063-.627V2.388c-.313-.626-1.002-.688-1.628-.688 0-.25-.125-.5.126-.564h4.82" fill="#1A1918"/><path d="M126.682 2.764l.126 1.188v3.943l.063.063-.062 8.137c-.126.625-.438 1.063-.75 1.564-.44.375-1.19.312-1.628.06-.94-.625-1.127-1.813-1.064-2.877-.063-.876.25-1.628 0-2.44.062-.94 0-2.004.125-3.006-.124-.062 0-.438-.124-.5.25-.313-.063-.5 0-.814.062-1.564 0-2.753 0-4.57.25-.812.626-1.75 1.502-1.94.938-.062 1.44.502 1.814 1.19M73.17 1.7c1.754 1.064 1.065 3.754 1.003 5.757-.126.564-.438 1.002-.876 1.377-.5.314-1.565.25-2.066.063l-.062-6.384c.063-.438.25-.876.815-.876.375-.126.75.063 1.188.063M146.96 2.7c.188.44.188 1.065.25 1.503l-.062 3.317c-.187.626-.375 1.19-.94 1.44-.5.188-1.625.188-2.25 0-.064-2.38-.064-4.193-.064-6.572a1.03 1.03 0 0 1 .69-.75c1.187-.25 1.813.374 2.377 1.063M164.047 6.393c.375 2.38 1.126 4.506 1.44 6.947l-.126.126-2.503.063-.312-.19c.063-.687.187-1.44.375-2.19l.5-3.317c.126-.5.19-1.064.376-1.502l.25.063M19.597 9.71l.627 3.38c-.438.5-1.315 0-2.003.188l-.5-.063.063-.813.563-3.568.438-2.315.125.06.687 3.13" fill="#FFF"/></g></svg>