<svg width="101" height="22" viewBox="0 0 101 22" xmlns="http://www.w3.org/2000/svg"><title>Wired Copy</title><g fill="none" fill-rule="evenodd"><path d="M80.736.98H100.9v20.447H80.735V.98zM40.595.98h20.163v20.447H40.595V.98zM.27.98H20.43v20.447H.27V.98zM35.632 6.536V4.203H25.89v2.333h3.39v9.21h-3.39v2.334h9.742v-2.333h-3.7v-9.21h3.7" fill="#1B1A18"/><path d="M51.756 10.374c-1.727 0-3.823.062-3.823.062V6.628h3.884s2.097-.307 2.097 1.658c0 1.72-.432 2.088-2.158 2.088zm2.836 1.35s2.096-.183 2.096-3.93c0-3.745-3.452-3.56-3.452-3.56H45.22v13.754h2.713v-5.342s2.775-.06 4.378-.06c1.604 0 1.604 2.332 1.604 2.332v3.01h2.774v-3.194c0-2.887-2.096-3.01-2.096-3.01z" fill="#FFF"/><path d="M64.458 4.234v2.272h1.91v9.272h-1.91v2.27h11.777v-4.48h-2.343v2.21h-4.995v-3.746h3.7V9.76h-3.7V6.506h4.81v2.21h2.528V4.234H64.458" fill="#1B1A18"/><path d="M94.61 13.076s-.062 2.702-2.158 2.702h-4.378v-9.21h4.193s2.343-.185 2.343 2.947v3.56zm2.774-.06v-3.87c0-5.526-6.165-4.85-6.165-4.85h-5.983v13.938s2.282-.062 7.338-.062 4.81-5.157 4.81-5.157zM1.996 4.295H4.77l1.912 10.5 2.466-10.5 3.022.062 2.466 10.622 1.85-10.685h2.65L16.302 18.05H12.85l-2.22-10.01-2.405 10.07h-3.39L1.995 4.296" fill="#FFF"/></g></svg>