<svg version="1.2" baseProfile="tiny" xmlns="http://www.w3.org/2000/svg" viewBox="0 0 100 120"><g fill="#3354A8"><path d="M94.7 60.7C92 57 88.6 52.3 88 47.2 84.5 14.2 73.2 0 50.3 0H50C27 0 15.7 14.2 12.2 47.2c-.5 5.1-4 9.8-6.8 13.6C3 64 1.2 66.6 1.6 68.7c.2.9.8 1.6 1.8 2.1 6.6 3.5 12.5-2.1 14.8-5.5.3-.5.2-1.1-.3-1.4-.5-.3-1.1-.2-1.4.3-.2.3-5.5 8.3-12.1 4.8-.6-.3-.7-.6-.7-.8-.3-1.2 1.5-3.6 3.4-6.2 2.9-3.9 6.5-9 7.2-14.7C17.6 15.7 28.3 2 50 2h.3c1.9 0 3.7.3 5.4.5 0 .1.1.3.1.4.2.1.3.2.4.2s.3 0 .4-.1l.2-.1 1.5.3-.7.7c-.2.2-.2.5 0 .7.1.1.2.2.4.2s.3 0 .4-.2l1.1-1.1c.6.1 1.1.3 1.7.4l-1.8 1.8c-.2.2-.2.5 0 .7.1.1.2.2.4.2s.3-.1.4-.2l2.2-2.2c.5.2 1 .4 1.5.5l-2.4 2.4c-.2.2-.2.5 0 .7.1.1.2.2.4.2.1 0 .3-.1.4-.2L65 5.1c.5.2 1 .5 1.5.7l-3 3c-.2.2-.2.5 0 .7.1.1.2.2.4.2s.3-.1.4-.2l3.2-3.2c.5.3.9.5 1.4.8l-3.4 3.4c-.2.2-.2.5 0 .7.1.1.2.2.4.2.1 0 .3-.1.4-.2l3.6-3.6c.5.3 1 .7 1.4 1.1l-3.6 3.6c-.2.2-.2.5 0 .7.1.1.2.2.4.2.1 0 .3-.1.4-.2l3.7-3.7c.5.4.9.8 1.3 1.3l-4.3 4.3c-.2.2-.2.5 0 .7.1.1.2.2.4.2.1 0 .3-.1.4-.2l4.3-4.3c.4.5.9 1 1.3 1.5l-4.7 4.7c-.2.2-.2.5 0 .7.1.1.2.2.4.2.1 0 .3-.1.4-.2l4.6-4.6c.4.6.9 1.2 1.3 1.8l-5 5c-.2.2-.2.5 0 .7.1.1.2.2.4.2.1 0 .3-.1.4-.2l4.8-4.8c.4.6.7 1.3 1.1 1.9L74 23.5c-.2.2-.2.5 0 .7.1.1.2.2.4.2.1 0 .3-.1.4-.2l5.1-5.1c.3.7.7 1.4 1 2.1l-5.6 5.6c-.2.2-.2.5 0 .7.1.1.2.2.4.2.1 0 .3-.1.4-.2l5.3-5.3c.3.8.6 1.6 1 2.5L75.5 31c-.2.2-.2.5 0 .7.1.1.2.2.4.2.1 0 .3-.1.4-.2l5.5-5.5c.3.9.6 1.8.9 2.8l-6.1 6.1c-.2.2-.2.5 0 .7.1.1.2.2.4.2.1 0 .3-.1.4-.2l5.7-5.7c.2.9.5 1.8.7 2.8l-6.2 6.2c-.2.2-.2.5 0 .7.1.1.2.2.4.2.1 0 .3-.1.4-.2l5.7-5.7c.2 1 .4 2 .6 3.1l-6.2 6.2c-.2.2-.2.5 0 .7.1.1.2.2.4.2.1 0 .3-.1.4-.2l5.7-5.7c.2 1 .4 2.1.5 3.2l-5.9 5.9c-.2.2-.2.5 0 .7.1.1.2.2.4.2.1 0 .3-.1.4-.2l5.4-5.4c.1 1.1.3 2.2.4 3.3l-4.7 4.7c-.2.2-.2.5 0 .7.1.1.2.2.4.2.1 0 .3-.1.4-.2l4.2-4.2v.1c.1 1.1.3 2.1.7 3.2L82.3 55c-.2.2-.2.5 0 .7.1.1.2.2.4.2.1 0 .3-.1.4-.2l4-4c.3.9.7 1.8 1.1 2.6l-3.9 3.9c-.2.2-.2.5 0 .7.1.1.2.2.4.2s.3-.1.4-.2l3.7-3.7c.4.8.9 1.5 1.4 2.2l-2.8 2.8c-.2.2-.2.5 0 .7.1.1.2.2.4.2.1 0 .3 0 .4-.1l2.6-2.6c.6.8 1.1 1.6 1.7 2.4L91 62.3c-.2.2-.2.5 0 .7.1.1.2.2.4.2.1 0 .3-.1.4-.2l1.4-1.4.2.2c.5.7 1 1.3 1.4 1.9l-.1.1c-.2.2-.2.5 0 .7.1.1.2.2.4.2.1 0 .2 0 .3-.1.9 1.4 1.6 2.6 1.4 3.4 0 .2-.2.5-.7.9-5.8 3.6-12-4.8-12.1-4.9-.3-.5-1-.6-1.4-.2-.5.3-.6 1-.2 1.4 1.9 2.7 6.2 6.6 10.7 6.6 1.4 0 2.7-.4 4.1-1.2.9-.6 1.5-1.3 1.7-2.2.1-2.1-1.8-4.6-4.2-7.7zM85.6 73.3c.1-.5-.2-1.1-.7-1.3-.5-.1-1.1.2-1.3.7-2 7.4.5 15.7 2.5 22.4 1.9 6.1 3.5 11.4.9 13.4-2.4 1.8-6.7 2.7-10.6 3.1l1.1-1.1c.2-.2.2-.5 0-.7-.2-.2-.5-.2-.7 0l-1.9 1.9h-2.7l2.7-2.7c.2-.2.2-.5 0-.7-.2-.2-.5-.2-.7 0l-3.4 3.4c-.5 0-.9-.1-1.3-.2h-.2v-1.1l3.7-3.7c.2-.2.2-.5 0-.7-.2-.2-.5-.2-.7 0l-3.2 3.2c-.1-.6-.2-1.3-.4-2 0 0 .1 0 .1-.1l2.6-2.6c.2-.2.2-.5 0-.7-.2-.2-.5-.2-.7 0l-2.3 2.3c-.1-.6-.3-1.2-.4-1.8h.1l2-2c.2-.2.2-.5 0-.7-.2-.2-.5-.2-.7 0l-1.6 1.6c-.1-.5-.2-1.1-.3-1.7l1.6-1.6c.2-.2.2-.5 0-.7-.2-.2-.5-.2-.7 0l-1.1 1.1c-.1-.6-.2-1.3-.2-1.9l1.1-1.1c.2-.2.2-.5 0-.7-.2-.2-.5-.2-.7 0l-.5.1v-1.8l1-1c.2-.2.2-.5 0-.7-.2-.2-.5-.2-.7 0l-.3.2c.1-1.7.4-3.4.9-5.1.1-.3-.1-.6-.3-.6-.3-.1-.6.1-.6.3-.7 2.3-1 4.5-1 6.7v.1c-.1 4.3.8 8.3 1.5 11.5.6 2.7 1.1 5.2.6 6.2-1.9 2.2-6.5 5.5-18 5.5-10 0-15.6-2.3-18.7-4.4 0-.1-.1-.2-.1-.3-1.8-1.4-.9-5.4-.1-9.2.6-3 1.2-5.8.7-7.6-.1-.3-.4-.4-.6-.4-.3.1-.4.4-.4.6.5 1.6-.1 4.4-.7 7.1-.7 3.2-1.3 6.5-.5 8.6-3.8.8-13.7.3-17.7-2.7-2.6-2-1-7.2.9-13.2 2.1-6.6 4.6-14.8 2.6-22.3-.2-.5-.7-.9-1.3-.7-.5.1-.9.7-.7 1.3 1.9 6.9-.5 14.4-2.6 21.1-2.1 6.8-3.9 12.6-.1 15.5 4.6 3.4 14.5 4 18.9 3.3 3.2 2.4 9.3 5.2 20.6 5.2 12.5 0 17.6-3.8 19.7-6.3 4.5.6 14.1-.1 18.5-3.5 3.8-2.8 2-8.8-.1-15.7-2.3-6.6-4.7-14.2-2.8-21.1z"/><circle cx="38.3" cy="38.2" r="1.5"/><circle cx="61.6" cy="38.2" r="1.5"/><path d="M49.4 55.5c-5.5 0-10.3 3.8-11.5 9.1-.1.6.2 1.1.8 1.2.6.1 1.1-.2 1.2-.8 1-4.4 5-7.5 9.5-7.5 4.6 0 8.5 3.1 9.5 7.5.1.5.5.8 1 .8h.2c.6-.1.9-.7.8-1.2-1.2-5.3-6-9.1-11.5-9.1zM39.1 30.9c-1.7-.4-3.2.1-4.4 1.2-1.8 1.9-2.4 5.4-1.9 7.5.1.2.3.4.5.4h.1c.3-.1.4-.3.4-.6-.4-1.9.1-5 1.7-6.5.9-.9 2.1-1.2 3.4-1 .3.1.6-.1.6-.4.1-.3-.1-.6-.4-.6zM66.3 40h.1c.2 0 .4-.2.5-.4.5-2.1-.1-5.6-1.9-7.5-1.2-1.2-2.7-1.6-4.4-1.2-.3.1-.5.3-.4.6.1.3.3.5.6.4 1.4-.3 2.5 0 3.4 1 1.5 1.6 2.1 4.7 1.7 6.5-.1.2.1.5.4.6z"/></g></svg>