<svg width="227" height="99" viewBox="0 0 227 99" xmlns="http://www.w3.org/2000/svg"><title>copay-black-and-white</title><g fill="#2C3E50" fill-rule="evenodd"><path d="M222.636 11.335c-1.606.183-3.304.547-5.122 1.124-.576.18-1.09.546-1.576 1.032-.485.516-.88.91-1.182 1.245-.303.334-.606.91-.94 1.76-.333.85-.575 1.49-.727 1.975-.152.455-.395 1.336-.728 2.612-.364 1.275-.606 2.247-.82 2.915-1.423 4.827-3.696 9.717-6.787 14.727-3.092 5.01-5.79 7.623-8.092 7.866-1.213.12-1.94-.88-2.182-3.067-.454-4.1.394-9.263 2.455-15.518 2.092-6.256 4.304-10.66 6.698-13.24.334-.426.515-.76.485-1.033-.03-.243-.182-.365-.424-.335-3.395.365-6.03 1.063-7.91 2.126-1.88 1.033-3.546 3.098-5.092 6.195-1.182 2.4-2.182 5.377-3.06 8.99-4.304 10.356-8.214 15.73-11.73 16.095-1.15.122-1.818-.637-2-2.308-.333-3.188.636-8.472 2.97-15.82 2.334-7.35 4.455-11.997 6.395-13.94l-.97.09-4.82.426c-1.272.152-2.605.82-3.97 2.065-1.363 1.245-2.302 2.642-2.848 4.19-.79-1.973-2.153-3.34-4.032-4.07-1.91-.727-3.88-1-5.91-.758-4.364.486-8.182 2.52-11.516 6.165-3.304 3.614-5.698 7.865-7.153 12.663-.03.092-.06.183-.092.274-.212.486-.485 1.032-.727 1.61-1.636 3.583-2.91 6.134-3.848 7.652-1.728 2.764-3.82 5.375-6.304 7.774-2.485 2.4-5.06 3.766-7.698 4.04l-.758.09c3.88-3.28 7.062-7.622 9.577-13.088 2.515-5.467 3.515-10.6 3-15.488-.637-5.89-3.09-8.594-7.395-8.14-4.546.487-9.395 5.042-14.487 13.606 2.516-6.74 4.637-10.872 6.365-12.33l-2.88.304c-3.788.395-6.364 1.458-7.728 3.16-.667.91-1.636 3.43-2.818 7.59-.425 1.49-1 3.675-1.758 6.53-2.274 5.223-4.972 7.987-8.093 8.32-1.788.183-3.243-.333-4.364-1.578.97-3.553 1.303-6.833.97-9.93-.88-8.08-5.122-11.692-12.76-10.873-4.546.487-8.516 2.46-11.88 5.954-2.03 2.095-3.698 4.373-4.97 6.832 0-.03.03-.06.03-.09-3.092 5.8-8.426 15.882-15.124 21.652-6.698 5.77-13.305 9.02-19.79 9.718C18.123 70.22 12.304 65.086 11.09 53.7c-.788-7.35.334-14.82 3.395-22.352 3.06-7.562 7.455-13.91 13.183-19.04 5.728-5.133 11.88-8.08 18.427-8.808 4.94-.546 7.607 1.063 8 4.768.274 2.43-.575 4.616-2.514 6.59-1.94 1.944-4.152 3.067-6.638 3.34-.91.092-1.727.06-2.454-.12-.666 1.184-.94 2.246-.818 3.188.09.972.637 1.7 1.607 2.217.968.516 2.15.698 3.575.546 3-.335 5.82-1.55 8.425-3.645 2.607-2.095 4.273-4.494 5-7.258.364-1.457.486-2.763.364-3.917-.333-3.128-2.182-5.558-5.546-7.228-3.364-1.67-8-2.186-13.88-1.55-5.91.64-11.7 2.886-17.427 6.743S13.457 15.648 9.97 21.053C6.456 26.46 3.85 32.168 2.09 38.21.334 44.255-.24 49.934.334 55.25c1.516 14.03 9.79 20.225 24.882 18.585 6.486-.698 12.7-2.642 18.64-5.86 5.94-3.19 10.758-7.168 14.395-11.845.576-.76 1.09-1.488 1.606-2.186.03.547.06 1.063.122 1.61.424 4.008 1.758 6.863 4 8.594 2.243 1.73 4.94 2.43 8.153 2.065 5.002-.546 8.94-2.307 11.85-5.253s5.244-6.863 7.062-11.63c1.667 1.062 3.577 1.457 5.728 1.214 1.85-.212 3.728-1.153 5.668-2.884-.94 3.856-2 8.32-3.213 13.453-3.515 14.91-5.97 23.686-7.395 26.298l4.607-.486c1.273-.152 2.334-.425 3.122-.82.787-.425 1.484-1.215 2.03-2.4.545-1.184 1.272-3.735 2.15-7.652l3.577-17.37c1.122 3.067 4.728 4.25 10.91 3.583 6.153-.668 11.275-3.19 15.336-7.592 2.516-2.702 4.82-6.012 6.97-9.87-.06 1.55 0 3.1.152 4.647.637 5.892 3.092 8.595 7.395 8.14 6.213-.67 12.305-7.866 18.215-21.593-.94 3.98-1.182 7.957-.758 11.935.576 5.313 2.576 7.773 6.062 7.41 4.454-.487 9.303-5.71 14.546-15.64-.273 2.368-.333 4.342-.182 5.89.243 2.673.97 4.617 2.152 5.892 1.182 1.276 2.606 1.792 4.304 1.61 1.697-.183 3.152-.547 4.364-1.063 1.212-.518 2.818-1.854 4.82-3.98 2-2.125 4.302-5.253 6.94-9.353l-3.91 15.184c-2.516 9.658-6.395 14.79-11.578 15.337-1.333.152-2.485-.09-3.425-.76-.938-.637-1.484-1.578-1.605-2.793-.242-2.308.182-3.705 1.303-4.22-.394-.61-1-1.125-1.818-1.55-.818-.425-1.788-.577-2.91-.455-1.12.12-2.06.788-2.788 2.003-.758 1.215-1.03 2.52-.88 3.948.304 2.703 1.638 4.526 4.062 5.528 2.425 1.002 5.213 1.336 8.426.97 3.212-.333 6.304-1.487 9.274-3.37 2.97-1.913 5.364-4.28 7.213-7.136 1.85-2.855 3.303-6.62 4.425-11.266.424-1.55.94-3.705 1.576-6.53.636-2.824 1.06-4.585 1.212-5.314.182-.73.667-2.794 1.485-6.225.788-3.432 1.818-7.228 3.06-11.45 1.547-5.01 3.244-8.26 5.093-9.687l-4.122.425zM87.618 33.9c-1.607.18-2.82.82-3.637 1.943-.817 1.123-1.15 2.55-.94 4.28.304 2.826 1.638 5.043 4.032 6.652-1.212 3.705-2.85 7.137-4.88 10.295-2.03 3.158-4.424 4.89-7.182 5.193-3.364.182-5.243-1.67-5.667-5.497-.425-3.826.272-8.26 2.09-13.24 3.304-9.05 7.184-13.787 11.608-14.273 2.82-.304 4.547 1.214 5.154 4.585l-.576.06zm24.488 24.75c-1.85.212-2.94-1.216-3.273-4.222-.334-3.007.727-7.046 3.182-12.087 2.455-5.04 4.88-8.745 7.274-11.083 1.453-1.458 2.878-2.247 4.21-2.4.395-.03.668-.03.88 0 1 .153 1.576 1.033 1.758 2.643.394 3.705-1 9.08-4.213 16.095-3.212 7.015-6.485 10.69-9.82 11.054zm51.037-21.35c-1.485 3.007-3.243 5.68-5.273 7.987-2.03 2.308-3.88 3.583-5.547 3.766-1.545.15-2.424-.73-2.636-2.733-.485-4.616.94-10.052 4.273-16.34 3.334-6.285 7.122-9.656 11.365-10.11 2.364-.244 4 .606 4.85 2.58-1.395 3.19-3.73 8.14-7.032 14.85zM91.285 71.464C69.433 75.2 48.46 80.484 33.67 86.557c-6.182 2.52-7.727 7.592-5.788 12.36 25.125-11.48 37.58-14.73 55.947-19.284 3.242-.82 5.848-3.25 6.91-6.438.18-.607.363-1.184.545-1.73z" id="Shape"/><path d="M173.053 68.974c.637-2.733-.09-2.854-2.88-3.25-15.243-2.216-32.003-2.064-52.188 2.278-3.394.73-6.182 3.098-6.728 6.56 0 0 25.337-8.35 61.796-5.588z"/></g></svg>