<svg width="96" height="109" viewBox="0 0 96 109" xmlns="http://www.w3.org/2000/svg"><title>Imported Layers</title><defs><linearGradient x1="50%" y1="2.974%" x2="50%" y2="100%" id="a"><stop stop-color="#517AE3" offset="0%"/><stop stop-color="#1C2D89" offset="100%"/></linearGradient></defs><path d="M46.56 12.95h1.18v1.966h-1.18V12.95zm0 9.067c.254-.072.522-.112.8-.112.13 0 .255.01.38.027V20.03h-1.18v1.987zm0-5.528h1.18v1.966h-1.18V16.49zm0-7.082h1.18v1.967h-1.18V9.408zM12.465 27.88l-1.955.214.127 1.174 1.956-.214-.128-1.173zM38.66 25.03l.13 1.173 1.954-.212-.128-1.173-1.955.213zm-22.676 2.47l-1.956.213.128 1.174 1.955-.213-.126-1.172zm7.037-.767l-1.953.214.127 1.174 1.955-.213-.13-1.174zm-3.517.385l-1.956.213.128 1.173 1.955-.212-.127-1.173zm7.038-.767l-1.954.213.127 1.174 1.955-.213-.127-1.172zm15.64-1.704l.128 1.174 1.955-.213-.128-1.174-1.955.214zm-8.6.937l-1.957.214.128 1.174 1.956-.213-.127-1.174zm3.517-.382l-1.955.213.128 1.174 1.955-.213-.128-1.172zm41.27 2.2l-.124 1.175 1.955.206.124-1.174-1.956-.207zm-3.645.804l1.956.206.123-1.174-1.954-.206-.124 1.174zM50.082 25.6l1.955.207.123-1.174-1.94-.205c.008.088.013.178.013.268 0 .31-.054.607-.15.885l-.002.02zm10.683-.06l-.124 1.175 1.957.206.124-1.173-1.955-.206zm-5.084-.536l-1.955-.207-.124 1.174 1.957.208.124-1.174zm26.207 2.767l-.124 1.175 1.955.207.124-1.175-1.955-.206zm-24.642-2.6l-.124 1.173 1.957.207.124-1.174-1.955-.207zm15.913 2.866l.123-1.173-1.954-.207-.124 1.173 1.956.206zm-21.4 5.526l1.01 1.69 1.012-.607-1.008-1.688-1.014.605zm-3.232-6.316l-.4.238 1.01 1.688 1.013-.605-1.007-1.685c-.188.145-.395.267-.617.364zm18.77 30.026l-1.013.605 1.008 1.69 1.015-.607-1.01-1.688zM70.12 62l-1.008-1.69-1.014.607 1.01 1.688L70.12 62zm-.206 1.956l1.008 1.69 1.014-.607-1.01-1.69-1.012.606zm3.81 4.076l-.98-1.642-1.015.605.972 1.628c.292-.26.638-.464 1.022-.59zm-23.78-37.51l1.007 1.69 1.015-.606-1.01-1.69-1.012.607zm5.445 9.12l1.008 1.688 1.013-.606-1.007-1.688-1.014.605zm3.837 4.122l-1.01-1.69-1.012.606 1.01 1.69 1.012-.606zm1.815 3.04l-1.008-1.69-1.013.606 1.01 1.688 1.012-.605zm1.816 3.038l-1.01-1.688-1.012.605 1.008 1.687 1.014-.605zm13.086 15.996l-.74 1.822 1.093.445.74-1.822-1.093-.445zm11.765-25.79l-1.094-.446-.742 1.822 1.093.445.742-1.823zm-9.098 19.23l-.74 1.823 1.092.446.74-1.822-1.092-.445zm3.26-8.015l1.094.444.74-1.82-1.092-.446-.74 1.823zm-3.5 11.74l-1.094-.444-.74 1.82 1.092.445.74-1.82zm8.003-19.676l-1.093-.445-.742 1.822 1.094.445.74-1.823zM88.3 38.59l.743-1.822-1.094-.445-.742 1.822 1.093.445zm-3.26 8.016l-1.092-.445-.74 1.823 1.092.445.74-1.822zm1.69 32.458l-19.216 1.412.903-1.126-.922-.738-1.23 1.535.482.385-16.703 1.228-.896.066-.37.027 6.732-11.326v.737h1.967v-1.18h-1.703l8.88-14.936.822 1.378 1.013-.605-1.01-1.688-.438.263 8.827-14.85c-.527-.142-.99-.427-1.35-.81l-8.1 13.625-.755-1.267-1.013.606 1.008 1.687.233-.14-9.956 16.748v-.01H51.97v1.18h1.272L47.33 81.21l-5.937-9.946h1.925v-1.18H41.35v1.11L30.413 52.86l.888-1.445-1.005-.618-.565.92-7.56-12.666c-.396.342-.89.577-1.436.663l25.146 42.14-.31-.022-.896-.064L8.67 79.152c.012.13.022.258.022.39 0 .407-.06.8-.158 1.178l18.933 1.375.802.968.908-.753-.08-.097 15.454 1.122.893.065 1.098.08v16.74c.21-.027.42-.045.637-.045.32 0 .633.03.936.09V83.478l1.16-.086.894-.066 14.394-1.057-.512.64.92.738 1.198-1.495 20.045-1.473-34.626 19.996-1.165.704c.6.516 1.07 1.17 1.352 1.912l35.46-20.477c-.44-.716-.7-1.55-.7-2.442 0-.455.07-.892.193-1.31zM13.568 58.096l1.11-.405-.674-1.847-.166.06 6.315-16.156c-.555-.023-1.07-.196-1.5-.483L13.12 53.418l-.327-.902-1.11.404.674 1.85.275-.102-7.697 19.694V34.39h.01v-.392c-.372.09-.76.14-1.16.14-.418 0-.822-.056-1.21-.152v40.94c.388-.095.792-.15 1.21-.15.885 0 1.713.23 2.43.63l7.07-18.088.283.778zM43.05 8.094L28.127 26.176l-.02.002v.02l-6.75 8.18c.504.2.935.534 1.248.958l6.687-8.1.898-.098-.096-.874L45.238 7.916c-1.102-.464-1.993-1.31-2.5-2.366L7.278 26.027c.565.558.988 1.25 1.218 2.022L43.05 8.093zm21.443 17.84l-.208-.022-.124 1.174 1.398.148 6.7 8.173c.3-.433.724-.78 1.22-.995l-5.692-6.943 1.85.195.125-1.174-1.955-.206-.112 1.07L52.49 8.81 86.09 28.215l-.686-.072-.123 1.173 1.258.133c0-.027-.003-.053-.003-.08 0-1.132.41-2.173 1.093-2.992l-36.02-20.8c-.443.9-1.163 1.65-2.06 2.132l14.943 18.224zm26.95 49.67c.096 0 .188.01.28.015V34.123c-.092.006-.184.014-.28.014-.856 0-1.662-.215-2.364-.593l-.538 1.32.823.335v38.99l-7.46-19.873.468-1.152-1.063-.432-5.053-13.463c-.43.285-.946.456-1.5.477l6.264 16.69L79.947 56l-.74 1.822 1.092.444.733-1.8 7.53 20.058c.81-.575 1.806-.92 2.884-.92zm-49.526 24.622l.003-.007L8.484 80.91c-.238.77-.67 1.458-1.24 2.01l35.328 20.4c.282-.753.753-1.418 1.358-1.94l-2.013-1.154zM71.772 36.96c0-.133.013-.263.03-.392H54.93l-.343-.572-.956.572H40.42l.146-.236-1.006-.618-.524.854H23.114c.018.13.032.26.032.393 0 .423-.1.822-.273 1.18h31.62l.09.15.25-.15h17.21c-.172-.358-.27-.757-.27-1.18zm5.704-.453l9.91-4.46c-.3-.43-.527-.91-.67-1.424l-9.94 4.473c.36.388.61.874.7 1.41zM7.58 32.39l9.823 4.523c.01-.557.186-1.076.486-1.508l-9.51-4.378c-.19.498-.46.96-.8 1.363zm19.832 23.1l1.006.618 1.03-1.676-1.006-.618-1.03 1.676zm12.972-21.116l1.005.617 1.03-1.675-1.006-.617-1.03 1.676zm-9.266 15.083l1.006.617 1.03-1.676-1.006-.617-1.03 1.677zm11.12-18.1l1.005.618 1.03-1.676-1.006-.62-1.03 1.677zM36.86 42.365l-1.006-.617-1.03 1.675 1.006.618 1.03-1.675zm7.23-14.025l1.006.618 1.03-1.675-1.006-.62-1.03 1.677zm-5.377 11.01l-1.006-.62-1.03 1.677 1.007.617 1.03-1.675zm-3.706 6.032L34 44.764l-1.03 1.676 1.007.618 1.03-1.676zm-11.3 16.14l1.005.62 1.03-1.677-1.006-.618-1.03 1.676zM20 67.557l1.005.618 1.03-1.676-1.006-.618L20 67.556zm1.853-3.017l1.005.618 1.03-1.677-1.006-.616-1.03 1.675zm3.706-6.034l1.004.618 1.03-1.676-1.005-.617-1.03 1.676zm-9.133 3.99l-1.108.405.67 1.85 1.11-.405-.673-1.848zm1.885 5.175l-.673-1.847-1.11.405.673 1.848 1.11-.405zM8.05 42.94l.673 1.85 1.108-.406-.672-1.848-1.11.404zm4.204 8.098l-.673-1.848-1.107.404.673 1.848 1.108-.404zm-6.627-14.75l.673 1.847 1.108-.404-.673-1.847-1.108.404zM14.78 61.42l1.11-.404-.675-1.848-1.108.404.673 1.848zm-7.27-19.96l1.11-.404-.674-1.848-1.108.404.673 1.848zm3.533 6.25l-.673-1.85-1.11.405.674 1.848 1.11-.404zM8.536 77.405l1.694-1-.6-1.017-1.694 1 .6 1.016zm3.048-1.8l1.694-1-.6-1.016-1.694 1 .6 1.016zm4.742-2.8l-.6-1.016-1.693 1 .6 1.016 1.693-1zm25.144 24.35l-.91.753 1.255 1.514.91-.753-1.255-1.514zm-2.258-2.727l-.91.752 1.255 1.515.91-.753-1.255-1.515zm-14.55-17.574l-1.254-1.514-.91.753 1.255 1.514.91-.754zm12.292 14.846l-.91.753L37.3 93.97l.91-.753-1.256-1.515zM32.44 86.25l-.91.752 1.254 1.515.91-.753-1.255-1.515zm-2.26-2.728l-.908.753 1.254 1.515.91-.753-1.255-1.515zm4.516 5.454l-.91.753 1.256 1.513.91-.753-1.256-1.514zm-8.685-8.64l.91-.753-1.255-1.515-.908.753 1.254 1.516zm-3.606-6.206l-1.254-1.515-.91.753 1.255 1.514.91-.752zm40.664 10.007l-1.23 1.534.92.74 1.23-1.535-.92-.738zm-6.643 8.287l-1.23 1.535.922.738 1.23-1.535-.922-.74zm4.43-5.525l-1.23 1.534.92.74 1.23-1.537-.92-.738zM58.64 89.66l-1.23 1.535.92.738 1.23-1.535-.92-.738zm11.99-13.074l-.92-.738-1.23 1.534.92.74 1.23-1.536zm-17.712 22.1l-.92-.74-1.23 1.536.92.738 1.23-1.535zm1.294-3.5l-1.23 1.533.92.74 1.23-1.535-.92-.738zm18.632-21.363l-.92-.738-1.23 1.534.92.74 1.23-1.535zm6.213-1.345l-1.683-.94c-.128.38-.338.722-.61 1.01l1.717.96.577-1.03zm6.98 5.25l1 .56c.18-.355.398-.686.657-.985L86.61 76.7l-.574 1.03zm-6.182-3.453l1.717.96.575-1.03-1.717-.96-.575 1.03zm4.807 2.686l.576-1.03-1.717-.96-.575 1.03 1.717.96zm-59.043-6.88h1.965v1.18H25.62v-1.18zm7.078 0h1.967v1.18h-1.967v-1.18zm3.614 0h1.967v1.18H36.31v-1.18zm-7.153 0h1.965v1.18H29.16v-1.18zm29.89 0h1.967v1.18H59.05v-1.18zm-10.62 0h1.967v1.18H48.43v-1.18zm-3.54 0h1.967v1.18H44.89v-1.18zm17.7 0h1.966v1.18H62.59v-1.18zm7.08 0h1.966v1.18H69.67v-1.18zm-47.545 0h2.173v1.18h-2.173v-1.18zm44.005 0h1.966v1.18H66.13v-1.18zm-47.238 2.55c1.125 0 2.04-.88 2.04-1.96s-.915-1.958-2.04-1.958-2.04.88-2.04 1.96.915 1.958 2.04 1.958zm3.42-35.672c0-1.08-.914-1.958-2.04-1.958-1.124 0-2.04.88-2.04 1.96s.916 1.958 2.04 1.958c1.126 0 2.04-.88 2.04-1.96zm50.292 0c0 1.08.915 1.96 2.04 1.96s2.04-.88 2.04-1.96-.915-1.958-2.04-1.958-2.04.88-2.04 1.96zm2.04 35.673c1.125 0 2.04-.88 2.04-1.96s-.915-1.958-2.04-1.958-2.04.88-2.04 1.96.915 1.958 2.04 1.958zM45.32 24.696c0 1.08.915 1.96 2.04 1.96s2.04-.88 2.04-1.96-.915-1.958-2.04-1.958-2.04.878-2.04 1.958zM3.785 76.198c-1.92 0-3.484 1.5-3.484 3.344 0 1.845 1.564 3.345 3.485 3.345 1.92 0 3.484-1.5 3.484-3.345 0-1.844-1.564-3.344-3.485-3.344zm0-43.483c1.92 0 3.484-1.5 3.484-3.344 0-1.844-1.564-3.344-3.485-3.344-1.92 0-3.484 1.5-3.484 3.345 0 1.845 1.564 3.345 3.485 3.345zm87.66 0c1.92 0 3.483-1.5 3.483-3.344 0-1.844-1.563-3.344-3.484-3.344-1.92 0-3.484 1.5-3.484 3.345 0 1.845 1.563 3.345 3.484 3.345zm0 44.313c-1.922 0-3.485 1.5-3.485 3.345 0 1.844 1.563 3.344 3.484 3.344 1.92 0 3.484-1.5 3.484-3.344 0-1.845-1.563-3.345-3.484-3.345zm-44.265 24.57c-1.92 0-3.484 1.5-3.484 3.344 0 1.844 1.563 3.345 3.484 3.345 1.92 0 3.484-1.5 3.484-3.345 0-1.845-1.563-3.345-3.484-3.345zm0-94.714c1.92 0 3.484-1.5 3.484-3.345 0-1.845-1.563-3.346-3.484-3.346-1.92 0-3.484 1.5-3.484 3.345 0 1.843 1.563 3.344 3.484 3.344z" transform="translate(.409 -.13)" fill="url(#a)" fill-rule="evenodd"/></svg>