<svg xmlns="http://www.w3.org/2000/svg" viewBox="0 0 127.2 100"><path fill="#3354A8" d="M5.3 47.3c-.3 0-.5-.1-.7-.3-.4-.4-.4-1 0-1.4l5.2-5.2c.4-.4 1-.4 1.4 0 .4.4.4 1 0 1.4L6 47c-.2.2-.4.3-.7.3zM125.6 45.3H67.5c-.3 0-.6-.2-.8-.4L37.3 15.5 36 16.9c-.4.4-1 .4-1.4 0-.4-.4-.4-1 0-1.4l2-2c.2-.2.5-.3.7-.3h57.8c.3 0 .5.1.7.3l30.5 30.2c.3.3.4.7.2 1.1-.1.3-.5.5-.9.5zm-57.7-2h55.3L94.7 15.1h-55l28.2 28.2z"/><circle fill="#FFF" cx="15.5" cy="20.8" r="14.5"/><path fill="#3354A8" d="M15.5 36.3C6.9 36.3 0 29.3 0 20.8S6.9 5.4 15.5 5.4C24 5.4 31 12.3 31 20.9c-.1 8.4-7 15.4-15.5 15.4zm0-28.9C8 7.4 2 13.4 2 20.8s6 13.5 13.5 13.5S29 28.3 29 20.8 22.9 7.4 15.5 7.4z"/><path fill="#3354A8" d="M15.5 16.7c3.1 0 6.1 1.4 8.2 3.7l1.2-1.2c-2.3-2.6-5.7-4.2-9.4-4.2s-7.1 1.6-9.4 4.2l1.2 1.2c2-2.4 5-3.7 8.2-3.7zM17.3 22.2c.1 0 .2.1.3.1-.1 0-.2-.1-.3-.1z"/><path fill="#3354A8" d="M15.5 20.2c2.2 0 4.3 1 5.7 2.7l1.4-1.4c-1.7-2-4.2-3.3-7-3.3s-5.3 1.3-7 3.3l1.4 1.4c1.2-1.7 3.2-2.7 5.5-2.7z"/><path fill="#3354A8" d="M15.5 23.8c1.3 0 2.4.6 3.1 1.7l1.4-1.4-.9-.9c-.4-.4-.9-.7-1.5-.9-.1 0-.2-.1-.3-.1-.6-.2-1.2-.3-1.8-.3-1.6 0-3 .7-4.1 1.7-.1.2-.3.3-.4.5l1.4 1.4c.6-1 1.8-1.7 3.1-1.7zM15.5 25.5c-.8 0-1.6.5-1.9 1.2l1.9 1.9 1.9-1.9c-.4-.7-1.1-1.2-1.9-1.2zM80.4 22.8h-35c-.3 0-.5-.2-.5-.5s.2-.5.5-.5h35c.3 0 .5.2.5.5s-.2.5-.5.5zM89.8 36.9H59.6c-.3 0-.5-.2-.5-.5s.2-.5.5-.5h30.3c.3 0 .5.2.5.5s-.3.5-.6.5zM109.4 28.8H86.3c-.3 0-.5-.2-.5-.5s.2-.5.5-.5h23.1c.3 0 .5.2.5.5s-.2.5-.5.5zM58.8 22.7c-.1 0-.3 0-.4-.1l-4.7-4.7c-.2-.2-.2-.5 0-.7s.5-.2.7 0l4.7 4.7c.2.2.2.5 0 .7 0 .1-.2.1-.3.1zM78.1 19.4c-.1 0-.3 0-.4-.1L73 14.5c-.2-.2-.2-.5 0-.7s.5-.2.7 0l4.7 4.7c.2.2.2.5 0 .7-.1.1-.2.2-.3.2z"/><path fill="#3354A8" d="M72.3 27.7c-.1 0-.3 0-.4-.1L67 22.7c-.2-.2-.2-.5 0-.7s.5-.2.7 0l4.9 4.9c.2.2.2.5 0 .7 0 0-.2.1-.3.1zM69 36.9c-.1 0-.3 0-.4-.1l-4.4-4.4c-.2-.2-.2-.5 0-.7s.5-.2.7 0l4.4 4.4c.2.2.2.5 0 .7-.1.1-.2.1-.3.1zM84.8 36.9c-.1 0-.3 0-.4-.1L80 32.4c-.2-.2-.2-.5 0-.7s.5-.2.7 0l4.4 4.4c.2.2.2.5 0 .7-.1.1-.2.1-.3.1zM80.3 41.3c-.1 0-.3 0-.4-.1l-4.4-4.4c-.2-.2-.2-.5 0-.7s.5-.2.7 0l4.4 4.4c.2.2.2.5 0 .7-.1 0-.2.1-.3.1zM100.1 44.1c-.1 0-.3 0-.4-.1l-4.4-4.4c-.2-.2-.2-.5 0-.7s.5-.2.7 0l4.4 4.4c.2.2.2.5 0 .7-.1.1-.2.1-.3.1zM111.6 44.1c-.1 0-.3 0-.4-.1l-4.4-4.4c-.2-.2-.2-.5 0-.7s.5-.2.7 0l4.4 4.4c.2.2.2.5 0 .7 0 .1-.2.1-.3.1zM94.3 28.8c-.1 0-.3 0-.4-.1l-4.2-4.2c-.2-.2-.2-.5 0-.7s.5-.2.7 0l4.2 4.2c.2.2.2.5 0 .7 0 .1-.1.1-.3.1zM106.4 33.6c-.1 0-.3 0-.4-.1l-4.8-4.8c-.2-.2-.2-.5 0-.7s.5-.2.7 0l4.8 4.8c.2.2.2.5 0 .7-.1.1-.2.1-.3.1z"/><path fill="#FFF" d="M84.8 3.6h9.6V20h-9.6z"/><path fill="#3354A8" d="M94.3 21h-9.6c-.6 0-1-.4-1-1V3.6c0-.6.4-1 1-1h9.6c.6 0 1 .4 1 1V20c0 .5-.4 1-1 1zm-8.5-2h7.6V4.6h-7.6V19z"/><path fill="#3354A8" d="M94.3 8.2h-9.6c-.3 0-.5-.2-.5-.5s.2-.5.5-.5h9.6c.3 0 .5.2.5.5s-.2.5-.5.5zM94.3 12.2h-9.6c-.3 0-.5-.2-.5-.5s.2-.5.5-.5h9.6c.3 0 .5.2.5.5s-.2.5-.5.5zM94.3 16.2h-9.6c-.3 0-.5-.2-.5-.5s.2-.5.5-.5h9.6c.3 0 .5.2.5.5s-.2.5-.5.5z"/><path fill="#3354A8" d="M87.3 20.4c-.3 0-.5-.2-.5-.5v-4.1c0-.3.2-.5.5-.5s.5.2.5.5v4.1c0 .2-.2.5-.5.5zM91.3 20.4c-.3 0-.5-.2-.5-.5v-4.1c0-.3.2-.5.5-.5s.5.2.5.5v4.1c0 .2-.2.5-.5.5zM87.3 12.2c-.3 0-.5-.2-.5-.5v-4c0-.3.2-.5.5-.5s.5.2.5.5v4c0 .3-.2.5-.5.5zM91.3 12.2c-.3 0-.5-.2-.5-.5v-4c0-.3.2-.5.5-.5s.5.2.5.5v4c0 .3-.2.5-.5.5zM89.6 16.2c-.3 0-.5-.2-.5-.5v-4c0-.3.2-.5.5-.5s.5.2.5.5v4c0 .3-.3.5-.5.5zM89.6 8.1c-.3 0-.5-.2-.5-.5v-4c0-.3.2-.5.5-.5s.5.2.5.5v4c0 .2-.3.5-.5.5zM46.5 90.5H24.9c-.6 0-1-.4-1-1V51c0-.6.4-1 1-1h21.6c.6 0 1 .4 1 1v38.5c0 .5-.4 1-1 1zm-20.6-2h19.6V52H25.9v36.5zM35.5 39.8c-.3 0-.5-.2-.5-.5V27c0-.3.2-.5.5-.5s.5.2.5.5v12.4c0 .2-.2.4-.5.4z"/><path fill="#3354A8" d="M42.7 32.6h-11c-.3 0-.5-.2-.5-.5s.2-.5.5-.5h11.1c.3 0 .5.2.5.5s-.3.5-.6.5zM67.5 93.3c-.6 0-1-.4-1-1v-48c0-.6.4-1 1-1s1 .4 1 1v48c0 .6-.5 1-1 1zM120.6 88.8c-.6 0-1-.4-1-1V44.3c0-.6.4-1 1-1s1 .4 1 1v43.4c0 .6-.5 1.1-1 1.1zM7.3 88.8c-.6 0-1-.4-1-1V44.3c0-.6.4-1 1-1s1 .4 1 1v43.4c0 .6-.5 1.1-1 1.1zM114.1 73.3H74.7c-.3 0-.5-.2-.5-.5V51c0-.3.2-.5.5-.5h39.4c.3 0 .5.2.5.5v21.8c0 .2-.2.5-.5.5zm-38.9-1h38.4V51.5H75.2v20.8z"/><path fill="#3354A8" d="M115.8 76.6h-43c-.3 0-.5-.2-.5-.5v-3.4c0-.3.2-.5.5-.5h43c.3 0 .5.2.5.5v3.4c0 .3-.2.5-.5.5zm-42.4-1h42v-2.4h-42v2.4zM42.6 85H28.8c-.3 0-.5-.2-.5-.5V54.7c0-.3.2-.5.5-.5h13.7c.3 0 .5.2.5.5v29.7c.1.3-.1.6-.4.6zm-13.3-1H42V55.2H29.3V84z"/><path fill="#3354A8" d="M93.4 51h2v21.8h-2zM84.8 73.3c-.3 0-.5-.2-.5-.5V51c0-.3.2-.5.5-.5s.5.2.5.5v21.8c0 .2-.2.5-.5.5zM104 73.3c-.3 0-.5-.2-.5-.5V51c0-.3.2-.5.5-.5s.5.2.5.5v21.8c0 .2-.2.5-.5.5z"/><path fill="#3354A8" d="M114.1 62.4H74.7c-.3 0-.5-.2-.5-.5s.2-.5.5-.5h39.4c.3 0 .5.2.5.5s-.2.5-.5.5zM38.8 70.2c-.3 0-.5-.2-.5-.5V66c0-.3.2-.5.5-.5s.5.2.5.5v3.6c0 .4-.2.6-.5.6z"/><circle fill="#3354A8" cx="35.7" cy="59.4" r="1"/><path fill="#FFF" d="M94.6 90.9h-.5c.8-1.1.8-2.4.1-3.1-.8-.7-2.3-.4-3.4.7 0 0 0 .1-.1.1-.1.1-.2.1-.3.2-.4-.5-.8-.8-1.3-.7-.4.1-.6.3-.8.7-.2-.9-.7-1.5-1.4-1.5-.5 0-1 .5-1.2 1.1-.8-.6-2.1-.4-3 .5 0-.5-.2-.9-.5-1.2-.6-.6-1.6-.5-2.5 0-.1-.4-.2-.7-.5-1-.8-.7-2.3-.4-3.3.7-.9-.3-2 0-2.9 1 0 0 0 .1-.1.1-.1.1-.2.1-.3.2-.4-.5-.8-.8-1.3-.7-.4.1-.6.3-.8.7-.2-.9-.7-1.5-1.4-1.5-.8 0-1.4 1-1.3 2.1 0 .2 0 .5.1.7h-.6c-1.6.1-2.9 1-2.9 2.1s1.4 2 3 1.9c.2 0 .4 0 .7-.1.4.8 1.4 1.4 2.7 1.4.3 0 .6-.1.9-.1.6.4 1.4.7 2.3.7 1.1 0 2-.5 2.5-1.1h.4c.2 0 .4 0 .7-.1.4.8 1.4 1.4 2.7 1.4 1.1 0 2-.5 2.4-1.2l.1.1c.8.7 2.3.4 3.3-.7.5.7 1.4 1.1 2.5 1.1.3 0 .6-.1.9-.1.6.4 1.4.7 2.3.7 1.1 0 2-.5 2.5-1.1h.4c1.6-.1 2.9-1 2.9-2.1s-1.3-2-3-1.9zM123.6 89.9c-.5-.4-1.2-.5-2-.4.1-.7 0-1.3-.5-1.7-.6-.6-1.7-.6-2.6-.1-.4-.4-.9-.7-1.3-.6-.5.1-.8.4-1 1-.2 0-.3-.1-.5 0-.1 0-.2.1-.3.1-.1-.3-.2-.6-.5-.8-.1-.1-.2-.1-.2-.2.4-.8.3-1.7-.3-2.2-.9-.8-2.6-.5-3.7.6l-.1.1c-.1.1-.2.1-.3.2-.4-.5-.9-.8-1.4-.7-.5.1-.9.5-1.1 1.1-.3.2-.7.4-1 .7-.9-.3-2.2 0-3.2.9l-.1.1c-.3.2-.5.4-.8.7h-.3c-1.7 0-3 .9-3 2 0 .9.8 1.6 2 1.9-.2.2-.2.5-.2.8 0 1.1 1.5 2 3.3 2 1.2 0 2.2-.4 2.8-1h.5c.3 0 .5 0 .7-.1.4.8 1.5 1.5 2.9 1.5.9 0 1.7-.3 2.3-.7.4.1.9.2 1.4.2.3 0 .7 0 1-.1.6.4 1.5.7 2.5.7 1.6 0 2.9-.7 3.2-1.6.6-.1 1.2-.5 1.7-.9.8-1.2 1-2.8.1-3.5z"/><g fill="#3354A8"><path d="M95 90.4c.5-1.1.3-2.2-.4-2.9-1-.9-2.8-.6-4 .7-.4-.4-1-.6-1.5-.5-.2 0-.4.1-.5.2-.4-.6-.9-1-1.6-1-.6 0-1.1.4-1.4.9-.7-.3-1.7-.1-2.5.3-.1-.3-.3-.5-.5-.7h-.1c.1-.1.1-.2.2-.4.1-.4-.1-.9-.4-1.3-.4-.4-.9-.6-1.5-.6-.7 0-1.3.3-1.8.7l-.2.2c-.9-.2-2.1.1-3.1.9h-.5c-.5-.7-1.4-1-2.2-.8-.8.2-1.4.8-1.6 1.6h-.2c-.2 0-.4.1-.5.2-.4-.6-.9-1-1.6-1-1.1 0-1.8 1.2-1.8 2.6v.1c-1.9.1-3.4 1.2-3.4 2.6 0 1.4 1.5 2.4 3.4 2.4H67.9c.5.8 1.6 1.3 2.8 1.3h.1c.3 0 .5 0 .8-.1.6.4 1.4.6 2.3.6h.1c1.1 0 2.1-.4 2.7-1.1H77.3c.5.8 1.6 1.3 2.8 1.3h.1c1 0 1.9-.4 2.5-1 .9.5 2.3.3 3.3-.6.6.5 1.5.9 2.4.9h.1c.3 0 .5 0 .8-.1.6.4 1.4.6 2.2.6h.2c1.1 0 2.1-.4 2.7-1.1h.2c1.9-.1 3.4-1.2 3.4-2.6.1-1.2-1.3-2.2-3-2.3zm-14.2-4.3c.3 0 .6.1.8.3.1.2.2.4.1.4l-.1.1c-.5-.1-1-.1-1.5.1-.1-.2-.2-.3-.3-.4v-.2c.3-.2.6-.3 1-.3zm-7.5.9c.3-.1.6 0 .8.2-.5.2-.9.5-1.3.9-.1-.1-.2-.2-.3-.2.1-.5.4-.8.8-.9zm21.4 7.4h-.3c-.2 0-.3.1-.4.2-.4.5-1.2.9-2.1.9h-.1c-.7 0-1.4-.2-1.8-.6-.1-.1-.3-.1-.4-.1-.3.1-.5.1-.8.1h-.1c-.8 0-1.6-.3-2-.9-.1-.1-.2-.2-.4-.2s-.3.1-.4.2c-.5.6-1.2.9-1.8.9-.2 0-.5 0-.8-.2l-.1-.1c-.1-.1-.3-.2-.4-.1-.1 0-.3.1-.4.2-.4.6-1.1.9-2 1h-.1c-.8 0-1.5-.3-1.9-.7 0-.2 0-.3-.1-.5-.2-.3-.3-.7 0-1 .3-.4.2-.7.1-.8-.1-.2-.4-.3-.6-.2-.2.1-.4.3-.4.5-.3.4-.3.9-.2 1.4h-.5c-.2 0-.3.1-.4.2-.4.5-1.2.9-2.1.9h-.1c-.7 0-1.4-.2-1.8-.6-.1-.1-.3-.1-.4-.1-.3.1-.5.1-.8.1H71c-1 0-1.8-.4-2.1-1.1-.1-.2-.3-.3-.5-.3s-.4.1-.6.1h-.1c-1.3 0-2.3-.6-2.4-1.4 0-.8 1.1-1.6 2.4-1.6h.5c.2 0 .3 0 .4-.2.1-.1.1-.3.1-.5-.1-.2-.1-.4-.1-.6 0-.9.4-1.5.8-1.6.4 0 .7.5.9 1.1v.1c-.1.3-.1.6.1.8.2.4.5.6.8.6h.1c.2 0 .5-.2.5-.4 0-.3-.2-.5-.4-.6l-.1-.1v-.1c.1-.1.1-.3.1-.4.1-.1.2-.2.4-.3.2 0 .5.2.7.5.1.1.2.2.4.2.1 0 .3 0 .4-.1l.2-.2.2-.2c.7-.7 1.6-1.1 2.3-.9.2.1.4 0 .5-.1.9-.9 2.1-1.2 2.7-.7.2.2.3.4.3.7 0 .2.1.3.3.4.2.1.3.1.5 0 .4-.2.7-.3 1.1-.3.2 0 .5 0 .8.3.3.3.4.6.4.9 0 .2.1.4.3.4.2.1.4 0 .5-.1.8-.7 1.8-.9 2.4-.5-.2.3 0 .3.2.3s.3-.2.3-.3c.1-.5.4-.8.7-.8.4 0 .7.5.9 1.1 0 .2.2.4.4.4s.4-.1.5-.3c.1-.1.2-.4.5-.4.2 0 .5.2.7.5.1.1.2.2.4.2.1 0 .3 0 .4-.1l.2-.2.2-.2c.5-.6 1.2-.9 1.9-.9.2 0 .5 0 .8.3.5.5.5 1.4-.1 2.3-.2.1-.5.1-.8 0-.3-.1-.5-.5-.5-.8 0-.3-.2-.5-.5-.5s-.5.2-.5.5c0 .7.4 1.4 1.1 1.7.2.1.5.2.8.2.3 0 .5-.1.8-.2h.5c1.3 0 2.4.6 2.4 1.4.1.7-1 1.5-2.4 1.5z"/><path d="M71.3 92.3c-.4 0-.7 0-1-.1-.2-.1-.4-.3-.4-.5 0 0 0-.1.2-.2.3.1.5-.1.6-.3.1-.3-.1-.5-.3-.6-.3-.1-.7 0-1 .2-.3.2-.5.6-.5 1 0 .6.4 1.1 1 1.4.5.2.9.2 1.4.2.3 0 .5-.2.5-.5s-.3-.6-.5-.6zM78.2 88.6c-.3-.1-.6-.2-.9-.1-.6.1-1.1.3-1.5.5-.3.2-.6.3-.8.6-.2.3-.3.7-.2 1.1.1.4.3.8.6 1 .1.1.2.1.3.1.2 0 .3-.1.4-.2.2-.2.1-.5-.1-.7-.1-.1-.2-.2-.2-.3 0-.1 0-.3.1-.4.1-.1.3-.2.5-.3.5-.2.8-.4 1.2-.4.2 0 .3 0 .4.1 0 .3.2.5.5.5s.5-.2.5-.5c-.2-.4-.4-.8-.8-1zM81.5 91.8c-.3 0-.5.1-.6.4 0 .2-.3.4-.5.4s-.4-.3-.4-.5c0-.3-.2-.5-.5-.5s-.5.2-.5.5c-.1.8.5 1.5 1.3 1.6h.2c.7 0 1.3-.5 1.5-1.2 0-.4-.2-.7-.5-.7zM85.7 90.1c-.4-.1-.7 0-.9.1-.2.1-.5.2-.7.4-.3.3-.5.7-.3 1.1.1.2.3.3.5.3h.2c.3-.1.4-.4.3-.7.1-.1.2-.1.4-.2 0 0 .1 0 .2-.1 0 .2.1.3.2.4.2.2.5.1.7-.1.1-.2.2-.4.1-.7-.2-.2-.4-.4-.7-.5zM92.2 91.8c-.2-.1-.5 0-.7.3l-.5 1.1-.1.1h-.1c-.4 0-.7-.2-1-.5-.3-.3-.4-.7-.4-1.1 0-.3-.2-.5-.5-.5s-.5.2-.5.5c0 .6.2 1.3.6 1.8.5.5 1.1.8 1.7.8h.1c.3 0 .5-.1.7-.2.2-.2.3-.4.4-.5l.5-1.1c.2-.3 0-.6-.2-.7z"/></g><g fill="#3354A8"><path d="M124 89.5c-.4-.4-1.1-.6-1.7-.6 0-.6-.3-1.1-.7-1.5-.7-.6-1.8-.7-2.9-.3-.5-.4-1-.6-1.5-.5-.5.1-1 .4-1.3.9h-.3c-.1-.2-.2-.4-.4-.5.3-1 .1-1.9-.6-2.4-1-.9-3.1-.6-4.4.6-.5-.4-1-.6-1.6-.5-.7.1-1.2.6-1.4 1.3-.2.1-.5.3-.7.5h-.3c-.4-.7-.9-1.2-1.5-1.4-.9-.3-1.9 0-2.3.7-.4.6-.3 1.3-.3 1.9 0 .1 0 .3.2.5-1.9 0-3.5 1.1-3.5 2.5 0 .9.7 1.8 1.8 2.2 0 .1-.1.3-.1.5 0 1.4 1.6 2.5 3.8 2.5 1.2 0 2.3-.4 3-1h.7c.6.9 1.8 1.4 3.2 1.4.9 0 1.7-.2 2.3-.6.7.2 1.4.2 2.2.1.7.4 1.6.7 2.6.7 1.7 0 3.1-.7 3.6-1.7.6-.2 1.2-.5 1.6-1 .8-.7 1.2-1.7 1.2-2.6 0-.8-.3-1.3-.7-1.7zm-20.8-3.4c.2-.3.7-.5 1.1-.3.3.1.5.3.7.6-.7.2-1.4.5-2 1.1.1-.6 0-1.1.2-1.4zm19.6 6.8s-.1.1-.2.1-.3 0-.4.1c-.4 0-1.2-.1-1.4-.6-.1-.2 0-.4.1-.6.1-.2.3-.3.5-.3.3 0 .5-.3.4-.6 0-.3-.3-.5-.6-.4-.5.1-.9.4-1.2.8-.3.5-.3 1-.1 1.5.2.5.6.8 1.2 1-.1.1-.1.1-.1.2-.2.6-1.2 1.3-2.7 1.3-.9 0-1.7-.2-2.2-.6-.1-.1-.2-.1-.3-.1h-.1c-.8.2-1.4.1-2.1-.1-.2-.1-.3 0-.5.1-.5.4-1.2.6-2 .6-1.1 0-2.1-.5-2.5-1.2-.1-.2-.3-.3-.5-.3-.3 0-.7.1-1.1 0-.1 0-.3 0-.4.2-.5.5-1.4.8-2.4.8-1.5 0-2.8-.7-2.8-1.5 0-.2.1-.3.2-.5.1-.1.1-.3 0-.5s-.2-.3-.3-.3c-1-.2-1.6-.8-1.6-1.4 0-.7.8-1.3 1.9-1.5-.1.5 0 1.1.3 1.5.1.1.3.2.4.2.1 0 .2 0 .3-.1.2-.2.3-.5.1-.7-.2-.3-.2-.7 0-1 .1 0 .2-.1.3-.2l.6-.6.2-.2c.8-.7 1.9-1.1 2.7-.8.2.1.4 0 .5-.1l.9-.6.3-.3c.1-.4.4-.7.7-.8h.1c.3 0 .6.2.9.5.1.1.2.2.3.2.1 0 .3 0 .4-.1.1-.1.2-.1.3-.2l.2-.2c.9-.9 2.4-1.2 3.1-.6.4.4.5 1 .2 1.7-.1.2 0 .5.2.7 0 0 .1 0 .1.1.2.1.3.3.3.5 0 .1.1.3.3.3.1.1.3.1.4 0 .1 0 .1-.1.3-.1h.2c.2.1.5-.1.6-.3.1-.2.3-.6.7-.6.3 0 .5.2.8.4.1.2.4.2.6.1.8-.4 1.7-.3 2.1 0 .4.4.4.9.3 1.2 0 .2 0 .3.1.5s.3.2.5.1c.2 0 .4-.1.5-.1.3 0 .7.1 1 .3.3.3.4.6.4.9-.1 1-.4 1.7-1 2.2z"/><path d="M105.2 89.4c-.8.2-1.3 1-1.3 1.8s.7 1.5 1.4 1.7h.1c.2 0 .4-.2.5-.4.1-.3-.1-.5-.4-.6-.3-.1-.6-.4-.6-.8 0-.3.2-.7.6-.8.1 0 .3 0 .4.1-.1.2-.1.5.2.7.2.1.5.1.7-.2.3-.4.1-1.1-.3-1.4-.4-.1-.8-.2-1.3-.1zM111.3 88.4s.1.1 0 .5c0 .3.2.5.4.6.3 0 .5-.2.6-.4.1-.8-.1-1.3-.5-1.5-.3-.2-.6-.2-.8-.1-.9.1-2.1.6-2.4 1.7-.1.3.1.5.3.6h.1c.2 0 .4-.1.5-.4.2-.6.9-.9 1.6-1h.2zM115.2 91.9c-.2-.1-.5 0-.7.2-.3.6-1 .9-1.7.9-.7-.1-1.2-.6-1.4-1.3-.1-.3-.3-.4-.6-.4-.3.1-.4.3-.4.6.2 1.1 1.1 1.9 2.2 2.1h.3c1 0 1.9-.5 2.3-1.4.3-.3.2-.6 0-.7zM118.6 89.7c-.7-.2-1.6 0-2.1.6-.2.2-.2.5 0 .7.2.2.5.2.7 0 .2-.3.6-.4 1-.3-.1.1-.2.3-.4.4-.2.2-.3.5-.1.7.1.1.3.2.4.2.1 0 .2 0 .3-.1.3-.2.6-.5.8-.9.1-.1.1-.4.1-.6-.1-.2-.2-.5-.7-.7z"/></g><path fill="#3354A8" d="M67.5 44.8H7.3c-.3 0-.5-.2-.5-.5s.2-.5.5-.5h60.2c.3 0 .5.2.5.5s-.3.5-.5.5z"/><path fill="#FFF" d="M4.7 87h58v4.4h-58z"/><path fill="#3354A8" d="M62.7 92h-58c-.3 0-.5-.2-.5-.5V87c0-.3.2-.5.5-.5h58c.3 0 .5.2.5.5v4.4c0 .3-.2.6-.5.6zM5.2 91h57v-3.4h-57V91z"/><path fill="#FFF" d="M1.8 91.5h63.9v4.4H1.8z"/><path fill="#3354A8" d="M65.7 96.4H1.8c-.3 0-.5-.2-.5-.5v-4.4c0-.3.2-.5.5-.5h63.9c.3 0 .5.2.5.5v4.4c0 .3-.2.5-.5.5zm-63.4-1h62.9V92H2.3v3.4zM56.8 59.5c-1.2 0-2.9-.4-4.3-1.4-.1-.1-.2-.3-.2-.5s.2-.3.3-.4c.2-.1.9-1.1.9-4.6 0-1.8 1.5-3.3 3.3-3.3s3.3 1.5 3.3 3.3c0 3.5.6 4.5.9 4.6.2.1.3.2.3.4s0 .4-.2.5c-1.7 1.3-3.7 1.4-4.3 1.4zm-3.2-1.9c1.1.6 2.3.9 3.2.9.4 0 1.8-.1 3.2-.9-.6-.8-.9-2.5-.9-5 0-1.3-1-2.3-2.3-2.3s-2.3 1-2.3 2.3c0 2.5-.3 4.2-.9 5z"/><path fill="#3354A8" d="M56.8 53.1c-.9 0-1.8-.1-2.7-.4-.3-.1-.4-.4-.3-.6.1-.3.4-.4.6-.3 1.5.5 3.2.5 4.7 0 .3-.1.5.1.6.3s-.1.5-.3.6c-.9.3-1.7.4-2.6.4zM15.8 59.5c-1.2 0-2.9-.4-4.3-1.4-.1-.1-.2-.3-.2-.5s.2-.3.3-.4c.2-.1.9-1.1.9-4.6 0-1.8 1.5-3.3 3.3-3.3s3.3 1.5 3.3 3.3c0 3.5.6 4.5.9 4.6.2.1.3.2.3.4s0 .4-.2.5c-1.7 1.3-3.7 1.4-4.3 1.4zm-3.2-1.9c1.1.6 2.3.9 3.2.9.4 0 1.8-.1 3.2-.9-.6-.8-.9-2.5-.9-5 0-1.3-1-2.3-2.3-2.3s-2.3 1-2.3 2.3c0 2.5-.3 4.2-.9 5z"/><path fill="#3354A8" d="M15.8 53.1c-.9 0-1.8-.1-2.7-.4-.3-.1-.4-.4-.3-.6.1-.3.4-.4.6-.3 1.5.5 3.2.5 4.7 0 .3-.1.5.1.6.3s-.1.5-.3.6c-.9.3-1.7.4-2.6.4zM76.6 58.3c-.1 0-.2 0-.3-.1-.2-.1-.3-.4-.2-.7l3.1-5.2c.1-.2.4-.3.7-.2.2.1.3.4.2.7L77 58.1c-.1.1-.3.2-.4.2zM78.1 60.2c-.1 0-.2 0-.2-.1-.2-.1-.3-.4-.2-.7l2.2-3.8c.1-.2.4-.3.7-.2.2.1.3.4.2.7l-2.2 3.8c-.2.2-.3.3-.5.3zM87.2 68.9c-.1 0-.2 0-.3-.1-.2-.1-.3-.4-.2-.7l3.1-5.2c.1-.2.4-.3.7-.2s.3.4.2.7l-3.1 5.2c0 .2-.2.3-.4.3zM88.8 70.7c-.1 0-.2 0-.2-.1-.2-.1-.3-.4-.2-.7l2.2-3.8c.1-.2.4-.3.7-.2.2.1.3.4.2.7l-2.2 3.8c-.2.3-.4.3-.5.3zM107.6 58c-.1 0-.2 0-.3-.1-.2-.1-.3-.4-.2-.7l3.1-5.2c.1-.2.4-.3.7-.2.2.1.3.4.2.7l-3.1 5.2c-.1.3-.3.3-.4.3zM109.1 59.9c-.1 0-.2 0-.2-.1-.2-.1-.3-.4-.2-.7l2.2-3.8c.1-.2.4-.3.7-.2.2.1.3.4.2.7l-2.2 3.8c-.2.2-.3.3-.5.3zM35.5 39.9c-3 0-5.8-1.8-7.1-4.5-.1-.2 0-.5.2-.7.3-.1.5 0 .7.2 1.1 2.4 3.5 3.9 6.2 3.9 3.8 0 6.8-3.1 6.8-6.8s-3.1-6.8-6.8-6.8h-.7c-.3 0-.5-.2-.5-.4 0-.3.2-.5.4-.5h.8c4.3 0 7.8 3.5 7.8 7.8s-3.4 7.8-7.8 7.8z"/></svg>