<svg width="1274" height="706" viewBox="0 0 1274 706" xmlns="http://www.w3.org/2000/svg"><title>Fill 1</title><path d="M721.68 323.71v24.31l6.556 6.562v12.067l5.206 5.213v7.33L751.23 397v5.766h4.71l5.754-5.766h18.732v11.94l-11.62 11.63v10.78l-32.42 32.454v26.616l5.035 5.04v24.75l-5.362 5.364h-8.638l-10.723 10.736 6.28 6.286v16.76h-10.18v6.043l4.162 4.168-28.518 28.54h-9.418l-4.71 4.715h-13.6v-7.332l4.173-4.18-6.288-6.298v-13.065l-6.26-6.265v-22.038l-16.222-16.24v-17.28l4.71-4.715v-36.134l-17.003-17.02 8.63-8.643v-11.914H611.53v-10.28h-11.182l-10.27 10.28h-27.862l-12.163-12.18v-9.683l-21.19-21.21 8.897-8.906v-20.423l-4.19-4.19v-10.998l17.252-17.268h7.863v-20.964l13.08-13.092h16.223l8.37-8.38h36.1l4.973 4.976-5.493 5.498v7.71h12.554l9.073 9.08h6.1l4.697 4.7v-13.78h6.294l8.97 8.977h21.9l3.886-3.89h7.97l8.3 16.037zm217.91 101.573h6.802l15.437 15.448v9.166l11.116 11.128v6.153l-5.17 5.172-12.26-12.276v-9.13l-16.073-16.085.147-9.577zm42.732 12.742v9.43l4.535 4.537v8.727l6.45 6.457h9.595l11.817-11.83V443.61l2.814-2.813-5.913-5.917v-8.03h5.914l3.32-3.326-9.41-9.414-21.098 23.39-8.024.525zm-4.88 34.324l-4.834 4.836 4.655 4.66h20.407l4.312 4.313h26.732l4.863-4.864h-25.79l-5.88-5.883H982.32l-4.88-3.064zm85.805-23.534v6.318h7.675v3.84l-5.552 5.555h10.087l11.347 11.36-5.42 5.427h12.907v4.842h10.12v-6.902h8.37l9.574 9.584h11.702l-13.526-13.535v-4.813h-6.705l-14.567-14.575h-8.105l-5.277-5.28-6.933 6.937v-8.76h-15.696zM561.443 186.624l-4.228 4.28h-3.17v6.684l3.964 4.012h-3.964v5.48h7.397l7.065-7.152v-13.304h-7.065zm11.224-14.44l-3.895 3.946 4.294 4.344v9.493h4.886l3.5 3.542-3.765 3.81h-3.434v8.825h5.945l-9.578 9.693h2.708l3.733-3.776h17.4v-4.447l3.238-3.274v-3.544h-4.556v-6.148l-11.887-12.036-1.455-1.47 3.7-3.744v-5.214h-5.152v-2.27l4.954-5.016v-2.74h-4.556l-3.368 3.41h-2.446l-.265 6.616zM321.14 410.62v22.517l-17.79 17.807v20.423l26.686 26.714v17.277l10.986 11v71.748l-5.495 5.5v31.158L330 640.298v7.56h4.222v-8.045h2.616v14.85l-7.064 7.072v32.206l11.38 11.395h19.753L349.46 693.88v-8.838l13.31-13.323v-5.01h-7.622v-6.806l6.692-6.694v-13.397h11.098v-13.95h14.13l8.11-8.118-13.343-13.357h18.31l7.326-7.332v-10.472l12.298-12.31V563.54l15.827-15.84h10.595l10.402-10.41v-28.216l17.035-17.053v-18.034h-13.31l-9.416-9.425h-15.698v-11.523H423.17l-7.85-7.856v-15.71l-5.754-5.763h-21.078l-18.236-18.252h-15.626l-5.53-5.538h-5.458v9.13h-4.708v-12.05l-4.446 4.456h-6.018l-7.327 9.168zm-74.296-82.75v31.424l10.986 10.996h13.083l10.464-10.473h6.278v18.855h11.51v23.567l6.543 6.545h15.43v6.02h-20.927l-6.015-6.02h-6.54v-8.12l-4.973-4.972h-9.156L259.27 381.42h-21.847l-17.568-17.586v-9.778l-15.544-15.56v-6.96l-15.884-15.898h-3.324l8.986 9v7.422l12.51 12.524h-5.8l-9.92-9.93h-5.776V323.71l-7.693-7.7v-13.423h-6.434l-11.7-11.71v-8.57l-6.447-6.45v-46.965h4.017l3.662 3.662v-6.81l-11.773-11.78h-9.156v-6.023l-17.79-17.803h-5.23v-18.332h-7.85l-9.678-9.687H76.27l-5.1-5.105h-5.365v4.32h4.71v3.138H60.05l-7.063 7.072-2.354-2.353v-5.764l5.756-5.76v-4.19l-4.974 4.975-6.537 6.546v6.286l-15.697 15.71h-7.33l-9.677 9.688H5.114l13.47-13.484h7.458L36.18 173.05H22.9l-4.61 4.616v-12.67H8.25v-8.376H.928v-3.144l7.324-7.332h9.418v-8.902H.928v-7.856l4.708-4.715h3.662l7.064 7.07v-7.07L2.63 110.925v-5.105h6.668l11.25-11.262h21.715l5.885 5.893h41.725l14.454 14.467h7.002v-7.528l6.54-6.546h16.48l4.054 4.06h5.363l-5.557-5.568h6.08l8.992 9.003h32.866v10.05h12.034v-4.717l9.94 9.952v-14.142h9.943l5.494 5.498h22.235l10.858-10.865-4.315-4.32 8.37-8.38 8.11 8.118-4.446 4.455 8.63 8.636 5.234-5.235 3.14 3.144-3.926 3.927 6.802 6.806v8.12l-25.77 25.793v15.057h6.674v6.806h10.462l15.174 15.188h13.08v9.425l8.895 8.905 6.018-6.023-6.278-6.283v-6.023l9.547-9.557-9.547-9.557 7.327-7.334-5.497-5.498v-10.998h19.885l7.062 7.07h6.54v9.166l7.85 7.854 12.032-12.044v7.857l8.11 8.115v9.688h15.435v8.38l4.45 4.45v8.64h-9.157l-5.232 5.24h-23.544l-15.436 15.45v4.97l14.78-14.79h10.072v10.604l4.448 4.45v6.546h-13.864v5.763h-8.896l-5.036 5.042v7.527l-11.607 11.622-3.14 3.14v8.805h-3.24v-7.856l-3.92 3.93v4.452l3.53 3.53v6.417l-16.808 16.825v8.316l3.595 8.38v10.472h-6.278l-7.064-7.07v-6.518l-6.685-6.692h-16.6l5.174 5.182h-10.406l-5.8-5.808h-8.848l-8.894 11.478zm205.624-196.913v8.902l-5.753 5.762v18.326h-9.943l-7.586-7.59h-6.016l-12.13-12.143 7.978-7.986-6.624-6.632h-6.49v-14.352l10.986-10.998-13.605-13.617v3.142h-5.232V74.395l-14.648-14.663h-19.882l-6.02 6.023-20.49-20.51 5.495-5.5h20.49l4.926-4.93-4.4-4.413h-8.376l11.512-11.52h10.465l5.234-5.24h25.636l7.588 7.595V10.505h12.818l3.138-3.145h17.266l6.637-6.64h33.65v6.64h18.837l9.156 9.165h-25.9l-1.962 1.964H509.5v9.82l10.726-10.74h14.912l5.888-5.887h9.285l7 7.002-4.383 4.386h-9.42l-17.263 17.282v9.953h5.754v6.808H520.49V70.73l-8.372 8.377-4.972-4.975h-4.45v8.204h14.13v9.08L496.55 111.71h-14.78l-12.23 12.242h-10.27l-6.802 7.005zm58.08-3.665v7.33l7.358 7.367h13.046l13.1-13.11-6.82-6.826h-9.93l-4.98 4.978-3.666-3.67h-8.108v3.93zM753.32 522.168v14.14l-6.012 6.023v13.88l10.354 10.365 10.858-10.866v-20.45l10.975-10.985v-15.2l-6.543-6.552-19.63 19.645zm513.286-407.795h-10.112v7.33l-5.932-5.934v-10.127h-15.002l-8.02-8.03h-20.232v10.474h-9.073l-8.367-8.376h-18.136l-4.538 4.538-8.72-8.73h-29.3V81.904h-7.323l-5.234 5.235-8.37-8.378h-16.744v10.47h-20.23l-10.12 10.126-10.812-10.823 5.232-5.238-11.51-11.518h-11.86v9.14h-6.96l-6.295-6.305h-19.492l-16.787 16.8-6.317-2.835 23.063-23.087v-8.38h-27.21V45.768H961.91l-15.143 15.16-6.653-6.656h-14.702l-10.415 10.42h-13.355l-9.872 9.878v15.94l-5 5.008V84.674l-6.652-6.657h-6.15l-5.58 5.585 4.928 4.935v9.6l-6.713-6.72V79.892l-7.937 7.946v27.406l-7.148 7.16h-5.233l9.416-9.43v-29.37h-11.986l-7.8 7.81v18.324l-12.305-12.31h-19.35l7.49 7.49h-35.42l-13.17 13.186-7.92-7.923v8.86H744.3l-18.804 18.818-5.835-5.84v-9.966h-6.28l5.41-5.412 7.155 7.16h6.624l8.81-8.82-11.254-11.26H713.56l-5.063-5.06h-8.02l-4.533-4.54h-19.536l-7.673 7.682h-8.372l-20.23 20.25v9.967h-7.677v9.444h-7.53l-9.91 9.915 5.236 5.24-7.327 7.328v9.08h13.95l6.266-6.27 8.722 8.73 5.892 5.9 6.96-6.964v-5.514l6.346-6.357 3.56-3.56-4.813-4.817v-12.012l10.574-10.587 3.24-3.237h13.954l-17.447 17.457v11.518h4.71v6.46l6.454-6.46h17.792l-6.627 6.633H681.29v10.3h-11.163v13.796h-5.924v5.235l-5.13-5.136-4.43 4.434h-7.536l-9.07-9.077h-4.705v-9.25l-5.408 5.412v17.108l-2.79 2.792h-15.04v9.563l-13.468 13.48h-5.502l-4.71 4.716h-6.278v4.467h4.954l6.524 6.53v11.754l-3.628 3.634h-6.87l-4.118-4.126h-12.034l-6.572 6.58h6.572v7.822l-6.687 6.692v6.4l7.004 7.013h5.962v4.508l5.232-5.235h9.94l5.496-5.5v-8.773l10.792-10.802v-8.705h8.826l3.337 3.34 5.494-5.5h7.913l6.703 6.71v5.662h4.807l10.726 10.736v11.78l5.884-5.892v-5.625h5.887v-3.146l-7.637-4.712-15.8-15.817v-7.227l5.44 5.447 5.1 5.108h10.807v7.25l4.97 4.976v10.212h5.494v6.286l5.49 5.498v-14.403l7.46-7.464h13.732v-9.69l10.008-10.014v-5.827h5.693v6.81l5.102 5.105 4.966-4.975h8.24l7.328 7.33 7.366 5.41-6.147 6.154h-12.556l-2.792-2.79h-12.56l-10.46 10.475H691.06v5.58l13.08 13.096 5.06-5.063h17.376v10.062l-13.195 13.208 8.3 16.037h3.216v13.76l11.513 11.524v12.22h6.623l10.813 10.822v20.274h10.978l14.67-14.686h9.93l18.837-18.853v-15.01h-9.415l-5.932-5.937-6.975 6.98H775.47v-13.266h-7.67v-13.442h5.755l13.778 13.79h15l10.81 10.823h19.538l15.267 15.286 6.008-6.015v28.785l7.327 7.33v18.856l10.18 10.193 16.463-16.478v-15.227l11.995-12.004V362.75l13.602-13.616 17.525 17.54v16.54l5.37-5.386 8.17 8.175v24.85l10.75 10.76v8.505l17.318 17.337v-6.392l-6.875-6.878v-13.12l-13.11-13.12v-17.052l17.036 17.053 10.758-10.772v-18.74l-12.905-12.918 9.772-9.783 7.916 7.923v-10.69l9.282-9.29h12.126l24.687-24.708v-20.41l-10.128-10.138 5.932-5.938-4.71-4.715h-7.676l-7.674-7.68h12.558l8.373-8.376v14.66l5.583-5.58h5.576v8.378h4.188v13.965l4.36 4.362 8.896-8.902v-14.315h-10.446v-11.152l15.33-15.337h10.765l25.858-25.882v-27.58l-4.655-4.66-4.763 4.768h-12.797l26.75-26.776h20.71l7.89-7.9v5.035h12.97l6.143-6.156 14.378-14.39h9.418v10.972l-26.163 26.186v27.3h6.345l15.416-15.43v-8.94l3.623-3.63v-11.86l12.286-12.3h18.42l14.37-14.384h13.808l-11.017-11.032h19.01v-9.953l11.683 11.698h9.424l11.86-11.872-6.63-6.633zM794.31 264.4h-4.886v21.545h-11.47l-6.076-6.082V268.8l-8.48-8.487v-17.456l20.003-12.572v16.313l10.91 10.924v6.877zm298.586-6.284v14.766l-13.256 13.267h-10.466l-8.37 8.378v8.06l10.653-10.663 5.043 5.047h7.327v-4.54h9.07l5.58-8.03V274.28h4.186v-7.676l-9.767-8.486zm4.186-23.466v11.96l-4.972 4.976v6.53l4.875-4.882 7.023 7.026 10.593-10.6-5.184-5.187h-6.06l-6.274-9.823zm-92.348 312.855v16.37h-5.58l14.745 14.76v15.09l-8.23 8.24v7.997h18.598l18.572-18.592h16.312l4.664-4.672h9.984l11.71 11.717 4.862-4.866v9.6l7.277 7.287v10.19h20.1l4.22 4.22 10.644-10.66V602.82l15.162-15.172v-23.772l-9.686-9.698v-6.673l-17.555-17.57v-11.957l-6.972-6.975v-8.48l-7.277-7.284v19.944l-8.265 8.274-9.96-9.972v-10.963h-21.235l-11.557 11.568-5.885-5.89-22.577 22.602h-8.113l-13.96 16.703zM1112.1 637.26l6.35 11.98h6.976l10.452-10.467v-9.07l-5.48 5.488h-11.947l-.195-5.487h-6.155v7.557zm83.734 23.3l8.51-9.035v-6.81h4.707l9.254-9.26-8.73-8.737v8.57h-6.8v4.525h-4.71l-11.34 11.353 9.11 9.393zm16.098-38.366l5.66 3.832v6.384h5.844l2.66-2.66v-7.556h4.145v-8.9h-2.615l-2.35 2.357-4.515-4.517v-4.65l-8.73-8.737-2.714 2.717 6.013 6.02v11.787l-3.398 3.924zM1024.874 334.33l-6.543 6.552v9.27h7.944v-5.693l5.234-5.24-6.634-4.89zm16.396 144.928l-8.635 8.645v4.24h4.318l7.738-7.748v-5.137h-3.42zm83.02-8.764v4.54h9.766l6.715-6.72v-7.592l-6.67-6.68-4.057 4.063 5.897 5.907-5.447 5.452-6.202 1.03z" fill="#112C65" fill-rule="evenodd"/></svg>