<svg width="62" height="60" viewBox="0 0 62 60" xmlns="http://www.w3.org/2000/svg"><title>Fill 4 Copy 2</title><defs><linearGradient x1="52.467%" y1="0%" x2="52.467%" y2="115.189%" id="a"><stop stop-color="#9C9C9C" offset="0%"/><stop stop-color="#B5B5B5" offset="100%"/></linearGradient></defs><path d="M720 117.26c-16.88 0-30.568 13.685-30.568 30.568 0 13.506 8.76 24.964 20.904 29.006 1.528.283 2.09-.663 2.09-1.47 0-.73-.03-3.137-.042-5.692-8.505 1.85-10.3-3.606-10.3-3.606-1.39-3.534-3.393-4.473-3.393-4.473-2.773-1.897.21-1.858.21-1.858 3.07.215 4.686 3.15 4.686 3.15 2.726 4.673 7.15 3.322 8.895 2.54.276-1.975 1.068-3.323 1.942-4.087-6.79-.773-13.927-3.394-13.927-15.107 0-3.336 1.194-6.063 3.15-8.204-.318-.77-1.364-3.88.296-8.09 0 0 2.568-.82 8.41 3.134 2.437-.677 5.052-1.017 7.65-1.028 2.598.01 5.215.35 7.658 1.028 5.834-3.955 8.398-3.133 8.398-3.133 1.664 4.21.617 7.32.3 8.09 1.96 2.14 3.145 4.867 3.145 8.204 0 11.742-7.15 14.327-13.956 15.084 1.096.95 2.073 2.81 2.073 5.66 0 4.09-.035 7.383-.035 8.39 0 .813.55 1.766 2.1 1.466 12.138-4.047 20.886-15.5 20.886-29.002 0-16.883-13.686-30.568-30.568-30.568" transform="translate(-689 -117)" fill="url(#a)" fill-rule="evenodd"/></svg>