<svg width="774" height="366" viewBox="0 0 774 366" xmlns="http://www.w3.org/2000/svg"><title>Group</title><g fill="none" fill-rule="evenodd"><path d="M67.962 240.646l66.502-144.232" stroke="#E0F0FF" stroke-width="2" stroke-linecap="square" stroke-dasharray="1,4"/><path d="M132.736 93.823l256.508 63.048M67.962 244.1l319.555-87.23" stroke="#5AA3E8" stroke-width="2" stroke-linecap="square" stroke-dasharray="1,4"/><path d="M133.6 94.687L387.517 38.55" stroke="#E0F0FF" stroke-width="2" stroke-linecap="square" stroke-dasharray="1,4"/><path d="M383.2 156.87l324.736 86.367M384.494 156.87V38.55M384.926 156.87L640.57 92.96M384.494 157.734v188.28" stroke="#5AA3E8" stroke-width="2" stroke-linecap="square" stroke-dasharray="1,4"/><path d="M386.653 38.55l252.19 55.273M639.707 93.823L708.8 243.237M707.936 243.237L383.2 348.604M68.825 240.646l315.237 107.958" stroke="#E0F0FF" stroke-width="2" stroke-linecap="square" stroke-dasharray="1,4"/><ellipse stroke="#5AA3E8" stroke-width="2" stroke-linecap="round" stroke-dasharray="3,8" fill="#E1F1FF" cx="386.434" cy="152.996" rx="109.619" ry="49.236"/><ellipse stroke="#5AA3E8" stroke-width="2" stroke-linecap="round" stroke-dasharray="3,8" fill="#E1F1FF" cx="387.517" cy="349.469" rx="45.544" ry="14.563"/><path d="M398.043 334.923h73.31V257.27h-167.02v77.653h76.116l8.796 13.44 8.797-13.44z" stroke="#C5C5C5" stroke-width="2" fill="#FFF"/><path opacity=".484" fill="#BEBEBE" d="M367.26 297.863h90.805v2.363H367.26zM367.26 304.772h90.805v2.363H367.26zM367.26 311.535h90.805v2.363H367.26z"/><path d="M334.724 295.087c4.126 0 7.47-4.14 7.47-9.25 0-7.082-3.344-9.247-7.47-9.247-4.127 0-7.473 2.165-7.473 9.248 0 5.108 3.347 9.25 7.474 9.25M351.357 308.934l-3.77-8.98c-.172-.41-.475-.752-.85-.96l-5.852-3.22c-.13-.07-.285-.057-.402.036-1.654 1.323-3.6 2.022-5.625 2.022-2.026 0-3.972-.7-5.626-2.022-.117-.093-.273-.107-.402-.036l-5.85 3.22c-.377.208-.68.55-.853.96l-3.77 8.98c-.26.62-.206 1.327.143 1.895.35.568.94.906 1.58.906h29.555c.64 0 1.232-.338 1.58-.907.35-.57.403-1.277.142-1.896" stroke="#BEBEBE" stroke-width="2" fill="#FFF"/><text font-family="Brandon Text" font-size="15.546" fill="#BEBEBE"><tspan x="365.062" y="288.306">12,141 BITS</tspan></text><ellipse stroke="#5AA3E8" stroke-width="2" stroke-linecap="round" stroke-dasharray="3,8" fill="#E1F1FF" cx="706.295" cy="244.534" rx="36.435" ry="11.65"/><path d="M714.716 232.897h58.647v-62.122H639.748v62.122h60.892l7.038 10.752 7.038-10.753z" stroke="#C5C5C5" stroke-width="2" fill="#FFF"/><path opacity=".484" fill="#BEBEBE" d="M690.09 203.25h72.643v1.89H690.09zM690.09 208.776h72.643v1.89H690.09zM690.09 214.186h72.643v1.89H690.09z"/><path d="M664.06 201.028c3.3 0 5.977-3.313 5.977-7.4 0-5.666-2.676-7.398-5.976-7.398s-5.977 1.732-5.977 7.4c0 4.085 2.676 7.398 5.978 7.398M677.367 212.106l-3.015-7.185c-.138-.327-.38-.6-.682-.765l-4.68-2.577c-.104-.057-.23-.046-.322.03-1.323 1.057-2.88 1.616-4.5 1.616s-3.178-.56-4.5-1.617c-.094-.075-.22-.086-.323-.03l-4.68 2.578c-.3.165-.544.438-.682.766l-3.015 7.186c-.21.495-.166 1.062.114 1.516.28.455.752.725 1.263.725h23.645c.512 0 .985-.27 1.264-.725.278-.454.322-1.02.113-1.516" stroke="#BEBEBE" stroke-width="2" fill="#FFF"/><text font-family="Brandon Text" font-size="12.437" fill="#BEBEBE"><tspan x="688.331" y="195.003">BOB</tspan></text><ellipse stroke="#5AA3E8" stroke-width="2" stroke-linecap="round" stroke-dasharray="3,8" fill="#E1F1FF" cx="67.184" cy="244.534" rx="36.435" ry="11.65"/><path d="M75.605 232.897h58.647v-62.122H.637v62.122H61.53l7.038 10.752 7.037-10.753z" stroke="#C5C5C5" stroke-width="2" fill="#FFF"/><path opacity=".484" fill="#BEBEBE" d="M50.98 203.25h72.643v1.89H50.98zM50.98 208.776h72.643v1.89H50.98zM50.98 214.186h72.643v1.89H50.98z"/><path d="M24.95 201.028c3.3 0 5.977-3.313 5.977-7.4 0-5.666-2.676-7.398-5.977-7.398-3.302 0-5.978 1.732-5.978 7.4 0 4.085 2.676 7.398 5.978 7.398M38.257 212.106l-3.016-7.185c-.137-.327-.38-.6-.68-.765l-4.68-2.577c-.104-.057-.23-.046-.322.03-1.324 1.057-2.88 1.616-4.5 1.616-1.622 0-3.178-.56-4.502-1.617-.093-.075-.218-.086-.32-.03l-4.682 2.578c-.3.165-.543.438-.682.766l-3.015 7.186c-.208.495-.165 1.062.114 1.516.28.455.753.725 1.265.725H36.88c.512 0 .984-.27 1.264-.725.278-.454.32-1.02.113-1.516" stroke="#BEBEBE" stroke-width="2" fill="#FFF"/><text font-family="Brandon Text" font-size="12.437" fill="#BEBEBE"><tspan x="49.22" y="195.003">ALICE</tspan></text><ellipse stroke="#5AA3E8" stroke-width="2" stroke-linecap="round" stroke-dasharray="3,8" fill="#E1F1FF" cx="639.022" cy="95.794" rx="26.626" ry="8.505"/><path d="M645.176 87.298h42.857v-45.35h-97.64V87.3h44.497l5.143 7.85 5.143-7.85z" stroke="#C5C5C5" stroke-width="1.5" fill="#FFF"/><path opacity=".484" fill="#BEBEBE" d="M627.18 65.655h53.086v1.38H627.18zM627.18 69.69h53.086v1.38H627.18zM627.18 73.64h53.086v1.38H627.18z"/><path d="M608.16 64.034c2.41 0 4.366-2.418 4.366-5.4 0-4.138-1.955-5.402-4.367-5.402-2.414 0-4.37 1.264-4.37 5.4 0 2.984 1.956 5.402 4.37 5.402M617.883 72.12l-2.204-5.244c-.102-.24-.28-.44-.5-.56l-3.42-1.88c-.075-.042-.166-.034-.234.02-.967.773-2.104 1.18-3.29 1.18-1.183 0-2.32-.407-3.288-1.18-.068-.054-.16-.062-.235-.02l-3.42 1.88c-.22.12-.398.32-.5.56l-2.202 5.245c-.15.363-.12.776.084 1.108.204.332.55.53.923.53h17.28c.374 0 .72-.198.923-.53.204-.332.235-.745.083-1.107" stroke="#BEBEBE" stroke-width="2" fill="#FFF"/><text font-family="Brandon Text" font-size="9.079" fill="#BEBEBE"><tspan x="625.895" y="60.146">12,141 BITS</tspan></text><ellipse stroke="#5AA3E8" stroke-width="2" stroke-linecap="round" stroke-dasharray="3,8" fill="#E1F1FF" cx="133.779" cy="95.794" rx="26.626" ry="8.505"/><path d="M139.933 87.298h42.857v-45.35H85.15V87.3h44.497l5.143 7.85 5.143-7.85z" stroke="#C5C5C5" stroke-width="1.5" fill="#FFF"/><path opacity=".484" fill="#BEBEBE" d="M121.937 65.655h53.086v1.38h-53.086zM121.937 69.69h53.086v1.38h-53.086zM121.937 73.64h53.086v1.38h-53.086z"/><path d="M102.916 64.034c2.412 0 4.368-2.418 4.368-5.4 0-4.138-1.956-5.402-4.368-5.402-2.413 0-4.37 1.264-4.37 5.4 0 2.984 1.957 5.402 4.37 5.402M112.64 72.12l-2.204-5.244c-.1-.24-.278-.44-.498-.56l-3.42-1.88c-.076-.042-.167-.034-.235.02-.967.773-2.104 1.18-3.29 1.18-1.183 0-2.32-.407-3.288-1.18-.068-.054-.16-.062-.235-.02l-3.42 1.88c-.22.12-.398.32-.5.56L93.35 72.12c-.152.363-.12.776.083 1.108.205.332.55.53.925.53h17.278c.375 0 .72-.198.924-.53.204-.332.235-.745.083-1.107" stroke="#BEBEBE" stroke-width="2" fill="#FFF"/><text font-family="Brandon Text" font-size="9.079" fill="#BEBEBE"><tspan x="120.652" y="60.146">12,141 BITS</tspan></text><ellipse stroke="#5AA3E8" stroke-width="2" stroke-linecap="round" stroke-dasharray="3,8" fill="#E1F1FF" cx="386.456" cy="42.453" rx="20.787" ry="6.641"/><path d="M391.26 35.82h33.46V.41h-76.23v35.41h34.74l4.015 6.13 4.015-6.13z" stroke="#C5C5C5" fill="#FFF"/><path opacity=".484" fill="#BEBEBE" d="M377.21 18.92h41.445V20H377.21zM377.21 22.07h41.445v1.08H377.21zM377.21 25.155h41.445v1.078H377.21z"/><path d="M362.36 17.655c1.884 0 3.41-1.888 3.41-4.218 0-3.23-1.526-4.217-3.41-4.217-1.883 0-3.41.988-3.41 4.217 0 2.33 1.527 4.218 3.41 4.218M369.953 23.97l-1.72-4.096c-.08-.187-.218-.343-.39-.437l-2.67-1.468c-.06-.034-.13-.027-.183.015-.755.603-1.643.922-2.568.922s-1.813-.32-2.568-.922c-.053-.042-.124-.05-.183-.016L357 19.436c-.17.094-.31.25-.388.437l-1.72 4.095c-.12.282-.095.605.064.864.16.26.43.413.72.413h13.49c.293 0 .563-.154.722-.413.16-.26.183-.582.065-.865" stroke="#BEBEBE" stroke-width="2" fill="#FFF"/><text font-family="Brandon Text" font-size="7.088" fill="#BEBEBE"><tspan x="376.207" y="14.811">SATOSHI</tspan></text></g></svg>