<svg xmlns="http://www.w3.org/2000/svg" viewBox="0 0 100 100"><title>Fill 24</title><path fill="#FFF" d="M0 0h5v30H0zM-.1 0h30v5h-30zM70 0h30v5H70z"/><path fill="#FFF" d="M95 0h5v30h-5zM95 70h5v30h-5z"/><path fill="#FFF" d="M70 95h30v5H70zM-.1 95h30v5h-30zM0 70h5v30H0zM14 14v36h36V14H14zm30 30H20V20h23.9l.1 24zM49.9 50v36h36V50h-36zM80 80H56V56h23.9l.1 24zM57.2 14h7.2v7.2h-7.2zM64.4 14h7.2v7.2h-7.2zM64.4 21.2h7.2v7.2h-7.2zM57.2 28.4h7.2v7.2h-7.2zM57.2 35.6h7.2v7.2h-7.2zM71.6 35.6h7.2v7.2h-7.2zM71.6 28.4h7.2v7.2h-7.2zM78.8 14H86v7.2h-7.2zM78.8 35.6H86v7.2h-7.2zM35.6 64.4h7.2v7.2h-7.2zM28.4 64.4h7.2v7.2h-7.2zM28.4 57.2h7.2v7.2h-7.2zM14 57.2h7.2v7.2H14zM14 64.4h7.2v7.2H14zM21.2 71.6h7.2v7.2h-7.2z"/><path fill="#FFF" d="M35.6 71.6h7.2v7.2h-7.2zM28.4 78.8h7.2V86h-7.2zM14 78.8h7.2V86H14zM26 26h12v12H26zM62 62h12v12H62z"/></svg>