<svg xmlns="http://www.w3.org/2000/svg" viewBox="0 0 100 100"><circle fill="#E5EDFC" cx="50" cy="50" r="50"/><path fill="#4683E8" d="M47.2 34.8c-6.9 4.4-10.4 9.8-10.4 16 0 1.9.3 2.9 1 2.9l.7-.2c.5-.2 1-.3 1.3-.3 2 0 3.6.7 5 2.2s2 3.2 2 5.3c0 2-.7 3.8-2.2 5.2-1.4 1.4-3.2 2.1-5.2 2.1-2.8 0-5.2-1.2-7-3.5-1.8-2.3-2.8-5.3-2.8-8.8 0-4 .8-7.6 2.3-10.9 1.6-3.3 4-6.3 7.2-9s5.3-4 6.1-4c.6 0 1.1.3 1.5.9.4.6.6 1.1.6 1.5l-.1.6zm22.9 0c-6.9 4.4-10.4 9.8-10.4 16 0 1.9.3 2.9 1 2.9l.7-.2c.5-.2 1-.3 1.3-.3 1.9 0 3.6.7 4.9 2.2 1.4 1.4 2 3.2 2 5.3 0 2-.7 3.8-2.2 5.2-1.4 1.4-3.2 2.1-5.2 2.1-2.8 0-5.2-1.2-7-3.5-1.8-2.3-2.8-5.3-2.8-8.8 0-4 .8-7.7 2.4-11 1.6-3.3 4-6.3 7.2-8.9 3.2-2.6 5.2-3.9 6.1-3.9.6 0 1.1.3 1.5.9.4.6.6 1.1.6 1.5l-.1.5z"/></svg>