<?xml version="1.0" encoding="UTF-8" standalone="no"?>
<svg width="29px" height="22px" viewBox="0 0 29 22" version="1.1" xmlns="http://www.w3.org/2000/svg" xmlns:xlink="http://www.w3.org/1999/xlink">
    <!-- Generator: Sketch 3.6.1 (26313) - http://www.bohemiancoding.com/sketch -->
    <title>Artboard</title>
    <desc>Created with Sketch.</desc>
    <defs></defs>
    <g id="Page-1" stroke="none" stroke-width="1" fill="none" fill-rule="evenodd">
        <g id="Artboard">
            <g id="download"></g>
            <path d="M21.7402344,1.94433594 L21.1816406,1.38574219 C20.3007812,0.515625 19.140625,0.0322265625 17.8945312,0.0322265625 C16.6591797,0.0322265625 15.4882812,0.515625 14.6181641,1.38574219 L9.80566406,6.20898438 C8.30175781,7.70214844 8.0546875,9.96875 9.02148438,11.7304688 L7.25976562,13.4921875 C5.45507812,15.296875 5.45507812,18.2402344 7.25976562,20.0556641 L7.81835938,20.6142578 C8.69921875,21.484375 9.859375,21.9677734 11.1054688,21.9677734 C12.3408203,21.9677734 13.5117188,21.484375 14.3818359,20.6142578 L19.1943359,15.7910156 C20.6982422,14.2978516 20.9453125,12.03125 19.9785156,10.2695312 L21.7402344,8.5078125 C23.5449219,6.703125 23.5449219,3.75976562 21.7402344,1.94433594 L21.7402344,1.94433594 Z M20.7626953,7.54101562 L15.9501953,12.3535156 C15.3378906,12.9658203 14.5214844,13.3095703 13.640625,13.3095703 C12.9960938,13.3095703 12.3837891,13.1162109 11.8574219,12.7832031 L10.8691406,13.7607422 C11.6640625,14.3623047 12.6308594,14.6845703 13.640625,14.6845703 C14.8867188,14.6845703 16.046875,14.2011719 16.9169922,13.3310547 L18.9472656,11.3007812 C19.4199219,12.4824219 19.1728516,13.8681641 18.2275391,14.8242187 L13.4150391,19.6367188 C12.7919922,20.2490234 11.9755859,20.5927734 11.1054688,20.5927734 C10.2246094,20.5927734 9.40820312,20.2490234 8.79589844,19.6367188 L8.23730469,19.078125 C6.95898438,17.8105469 6.95898438,15.7373047 8.23730469,14.4589844 L13.0498047,9.64648438 C13.6621094,9.03417969 14.4785156,8.69042969 15.359375,8.69042969 C16.0039062,8.69042969 16.6162109,8.88378906 17.1425781,9.21679688 L18.1308594,8.23925781 C17.3359375,7.63769531 16.3691406,7.31542969 15.359375,7.31542969 C14.1132812,7.31542969 12.953125,7.79882812 12.0830078,8.66894531 L10.0527344,10.6992188 C9.58007812,9.51757812 9.82714844,8.13183594 10.7724609,7.17578125 L15.5849609,2.36328125 C16.2080078,1.75097656 17.0244141,1.40722656 17.8945312,1.40722656 C18.7753906,1.40722656 19.5917969,1.75097656 20.2041016,2.36328125 L20.7626953,2.921875 C22.0410156,4.18945312 22.0410156,6.26269531 20.7626953,7.54101562 L20.7626953,7.54101562 Z" id="link" fill="#FFFFFF"></path>
        </g>
    </g>
</svg>