<?xml version="1.0" encoding="UTF-8" standalone="no"?>
<svg width="30px" height="23px" viewBox="0 0 30 23" version="1.1" xmlns="http://www.w3.org/2000/svg" xmlns:xlink="http://www.w3.org/1999/xlink" xmlns:sketch="http://www.bohemiancoding.com/sketch/ns">
    <!-- Generator: Sketch 3.3.3 (12081) - http://www.bohemiancoding.com/sketch -->
    <title>downloadcloud</title>
    <desc>Created with Sketch.</desc>
    <defs></defs>
    <g id="Welcome" stroke="none" stroke-width="1" fill="none" fill-rule="evenodd" sketch:type="MSPage">
        <g id="Brand-Guide" sketch:type="MSArtboardGroup" transform="translate(-539.000000, -1069.000000)" fill="#C8C8C8">
            <g id="Logo-Colors" sketch:type="MSLayerGroup" transform="translate(377.000000, 895.000000)">
                <path d="M191.500038,189.312505 C191.500038,185.888885 189.11693,183.002303 185.928264,182.263875 C185.156271,178.034697 181.464132,174.812467 177,174.812467 C171.998829,174.812467 167.937476,178.87382 167.937476,183.87499 L167.937476,183.94212 C164.849505,184.378464 162.499962,187.030091 162.499962,190.218757 C162.499962,193.709507 165.352979,196.562524 168.843729,196.562524 L175.858793,196.562524 L169.615721,190.353017 C169.447897,190.185192 169.414332,189.916673 169.481462,189.681719 C169.582156,189.446764 169.817111,189.312505 170.052065,189.312505 L174.583327,189.312505 L174.583327,183.203692 L179.416673,183.203692 L179.416673,189.312505 L183.947935,189.312505 C184.182889,189.312505 184.417844,189.446764 184.518538,189.681719 C184.585668,189.916673 184.552103,190.185192 184.384279,190.353017 L178.141207,196.562524 L184.250019,196.562524 C188.244242,196.562524 191.500038,193.306728 191.500038,189.312505 L191.500038,189.312505 Z" id="downloadcloud" sketch:type="MSShapeGroup"></path>
            </g>
        </g>
    </g>
</svg>