<svg width="29" height="22" viewBox="0 0 29 22" xmlns="http://www.w3.org/2000/svg"><title>Artboard</title><g fill="none" fill-rule="evenodd"><path d="M21.74 1.944l-.558-.558A4.64 4.64 0 0 0 17.895.032a4.616 4.616 0 0 0-3.277 1.354L9.806 6.21C8.302 7.7 8.056 9.97 9.02 11.73l-1.76 1.762c-1.805 1.805-1.805 4.748 0 6.564l.558.558a4.64 4.64 0 0 0 3.287 1.354 4.616 4.616 0 0 0 3.277-1.354l4.812-4.823c1.504-1.492 1.75-3.76.785-5.52l1.76-1.762c1.805-1.805 1.805-4.748 0-6.564zm-.977 5.597l-4.813 4.814a3.24 3.24 0 0 1-2.31.956 3.332 3.332 0 0 1-1.783-.527l-.988.978a4.574 4.574 0 0 0 2.77.925 4.597 4.597 0 0 0 3.277-1.354l2.03-2.03a3.274 3.274 0 0 1-.72 3.524l-4.812 4.813a3.278 3.278 0 0 1-2.31.956 3.24 3.24 0 0 1-2.31-.956l-.558-.56a3.26 3.26 0 0 1 0-4.618l4.813-4.814a3.24 3.24 0 0 1 2.31-.956c.644 0 1.256.194 1.783.527l.988-.978a4.574 4.574 0 0 0-2.77-.925 4.597 4.597 0 0 0-3.277 1.354l-2.03 2.03a3.274 3.274 0 0 1 .72-3.524l4.812-4.813a3.278 3.278 0 0 1 2.31-.956c.88 0 1.697.344 2.31.956l.558.56a3.26 3.26 0 0 1 0 4.618z" fill="#5E5E5E"/></g></svg>