<svg width="22" height="25" viewBox="0 0 22 25" xmlns="http://www.w3.org/2000/svg"><title>network 2 copy 4</title><path d="M21.23 3.852a3.384 3.384 0 0 0-3.38-3.38 3.384 3.384 0 0 0-3.38 3.38c0 1.25.68 2.34 1.69 2.926v2.79l-5.072 2.536-5.07-2.535V6.777a3.382 3.382 0 0 0 1.69-2.926 3.384 3.384 0 0 0-3.38-3.38 3.384 3.384 0 0 0-3.382 3.38c0 1.25.68 2.34 1.69 2.926v4.88l6.762 3.38v2.792a3.382 3.382 0 0 0-1.69 2.925 3.384 3.384 0 0 0 3.38 3.38 3.384 3.384 0 0 0 3.38-3.38c0-1.248-.68-2.34-1.69-2.925v-2.79l6.762-3.382v-4.88a3.382 3.382 0 0 0 1.69-2.926zM4.327 2.162a1.69 1.69 0 1 1 0 3.38 1.69 1.69 0 0 1 0-3.38zm6.76 20.284a1.69 1.69 0 1 1 0-3.38 1.69 1.69 0 0 1 0 3.38zM17.85 5.543a1.69 1.69 0 1 1 0-3.38 1.69 1.69 0 0 1 0 3.38z" fill="#2C3E50" fill-rule="evenodd"/></svg>