<svg width="14" height="14" viewBox="0 0 14 14" xmlns="http://www.w3.org/2000/svg"><title>question</title><path d="M7 0C3.13 0 0 3.13 0 7a7 7 0 1 0 7-7zm0 13.5C3.41 13.5.5 10.59.5 7S3.41.5 7 .5s6.5 2.91 6.5 6.5-2.91 6.5-6.5 6.5zm.082-9.754c-.978 0-1.695.636-1.832 1.654l.854.09c.055-.59.417-.992.964-.992.513 0 .882.417.882.937s-.403.888-.76 1.23c-.525.513-.586.725-.586 1.244v.526h.8v-.39c0-.48.054-.595.416-.957l.58-.63c.22-.3.35-.615.35-1.066 0-.93-.622-1.648-1.668-1.648zM7.54 9.66c0-.322-.232-.582-.554-.582-.32 0-.547.26-.547.58 0 .322.225.59.546.59.322 0 .554-.268.554-.59z" fill="#4683E8" fill-rule="evenodd"/></svg>